%TF.GenerationSoftware,KiCad,Pcbnew,(6.0.7)*%
%TF.CreationDate,2022-08-17T23:10:38-05:00*%
%TF.ProjectId,clock_module,636c6f63-6b5f-46d6-9f64-756c652e6b69,rev?*%
%TF.SameCoordinates,Original*%
%TF.FileFunction,Legend,Bot*%
%TF.FilePolarity,Positive*%
%FSLAX46Y46*%
G04 Gerber Fmt 4.6, Leading zero omitted, Abs format (unit mm)*
G04 Created by KiCad (PCBNEW (6.0.7)) date 2022-08-17 23:10:38*
%MOMM*%
%LPD*%
G01*
G04 APERTURE LIST*
%ADD10C,0.150000*%
G04 APERTURE END LIST*
D10*
X139446000Y-95758000D02*
X176276000Y-95758000D01*
X176276000Y-95758000D02*
X176276000Y-107315000D01*
X176276000Y-107315000D02*
X139446000Y-107315000D01*
X139446000Y-107315000D02*
X139446000Y-95758000D01*
X138938000Y-80518000D02*
X165862000Y-80518000D01*
X165862000Y-80518000D02*
X165862000Y-91948000D01*
X165862000Y-91948000D02*
X138938000Y-91948000D01*
X138938000Y-91948000D02*
X138938000Y-80518000D01*
X140081000Y-108712000D02*
X172339000Y-108712000D01*
X172339000Y-108712000D02*
X172339000Y-121793000D01*
X172339000Y-121793000D02*
X140081000Y-121793000D01*
X140081000Y-121793000D02*
X140081000Y-108712000D01*
X131321410Y-125941587D02*
X131369029Y-126084444D01*
X131369029Y-126322539D01*
X131321410Y-126417778D01*
X131273791Y-126465397D01*
X131178553Y-126513016D01*
X131083315Y-126513016D01*
X130988077Y-126465397D01*
X130940458Y-126417778D01*
X130892839Y-126322539D01*
X130845220Y-126132063D01*
X130797601Y-126036825D01*
X130749982Y-125989206D01*
X130654744Y-125941587D01*
X130559506Y-125941587D01*
X130464268Y-125989206D01*
X130416649Y-126036825D01*
X130369029Y-126132063D01*
X130369029Y-126370158D01*
X130416649Y-126513016D01*
X131369029Y-126941587D02*
X130369029Y-126941587D01*
X131369029Y-127513016D01*
X130369029Y-127513016D01*
X130369029Y-127893968D02*
X130369029Y-128560635D01*
X131369029Y-128132063D01*
X130702363Y-129370158D02*
X131369029Y-129370158D01*
X130321410Y-129132063D02*
X131035696Y-128893968D01*
X131035696Y-129513016D01*
X131369029Y-130036825D02*
X131321410Y-129941587D01*
X131226172Y-129893968D01*
X130369029Y-129893968D01*
X131321410Y-130370158D02*
X131369029Y-130513016D01*
X131369029Y-130751111D01*
X131321410Y-130846349D01*
X131273791Y-130893968D01*
X131178553Y-130941587D01*
X131083315Y-130941587D01*
X130988077Y-130893968D01*
X130940458Y-130846349D01*
X130892839Y-130751111D01*
X130845220Y-130560635D01*
X130797601Y-130465397D01*
X130749982Y-130417778D01*
X130654744Y-130370158D01*
X130559506Y-130370158D01*
X130464268Y-130417778D01*
X130416649Y-130465397D01*
X130369029Y-130560635D01*
X130369029Y-130798730D01*
X130416649Y-130941587D01*
X130369029Y-131274920D02*
X130369029Y-131893968D01*
X130749982Y-131560635D01*
X130749982Y-131703492D01*
X130797601Y-131798730D01*
X130845220Y-131846349D01*
X130940458Y-131893968D01*
X131178553Y-131893968D01*
X131273791Y-131846349D01*
X131321410Y-131798730D01*
X131369029Y-131703492D01*
X131369029Y-131417778D01*
X131321410Y-131322539D01*
X131273791Y-131274920D01*
X130464268Y-132274920D02*
X130416649Y-132322539D01*
X130369029Y-132417778D01*
X130369029Y-132655873D01*
X130416649Y-132751111D01*
X130464268Y-132798730D01*
X130559506Y-132846349D01*
X130654744Y-132846349D01*
X130797601Y-132798730D01*
X131369029Y-132227301D01*
X131369029Y-132846349D01*
X131369029Y-133274920D02*
X130369029Y-133274920D01*
X131369029Y-133846349D01*
X130369029Y-133846349D01*
X130198761Y-103211809D02*
X130246380Y-103354666D01*
X130246380Y-103592761D01*
X130198761Y-103688000D01*
X130151142Y-103735619D01*
X130055904Y-103783238D01*
X129960666Y-103783238D01*
X129865428Y-103735619D01*
X129817809Y-103688000D01*
X129770190Y-103592761D01*
X129722571Y-103402285D01*
X129674952Y-103307047D01*
X129627333Y-103259428D01*
X129532095Y-103211809D01*
X129436857Y-103211809D01*
X129341619Y-103259428D01*
X129294000Y-103307047D01*
X129246380Y-103402285D01*
X129246380Y-103640380D01*
X129294000Y-103783238D01*
X130246380Y-104211809D02*
X129246380Y-104211809D01*
X130246380Y-104783238D01*
X129246380Y-104783238D01*
X129246380Y-105164190D02*
X129246380Y-105830857D01*
X130246380Y-105402285D01*
X129579714Y-106640380D02*
X130246380Y-106640380D01*
X129198761Y-106402285D02*
X129913047Y-106164190D01*
X129913047Y-106783238D01*
X130246380Y-107307047D02*
X130198761Y-107211809D01*
X130103523Y-107164190D01*
X129246380Y-107164190D01*
X130198761Y-107640380D02*
X130246380Y-107783238D01*
X130246380Y-108021333D01*
X130198761Y-108116571D01*
X130151142Y-108164190D01*
X130055904Y-108211809D01*
X129960666Y-108211809D01*
X129865428Y-108164190D01*
X129817809Y-108116571D01*
X129770190Y-108021333D01*
X129722571Y-107830857D01*
X129674952Y-107735619D01*
X129627333Y-107688000D01*
X129532095Y-107640380D01*
X129436857Y-107640380D01*
X129341619Y-107688000D01*
X129294000Y-107735619D01*
X129246380Y-107830857D01*
X129246380Y-108068952D01*
X129294000Y-108211809D01*
X129246380Y-108830857D02*
X129246380Y-108926095D01*
X129294000Y-109021333D01*
X129341619Y-109068952D01*
X129436857Y-109116571D01*
X129627333Y-109164190D01*
X129865428Y-109164190D01*
X130055904Y-109116571D01*
X130151142Y-109068952D01*
X130198761Y-109021333D01*
X130246380Y-108926095D01*
X130246380Y-108830857D01*
X130198761Y-108735619D01*
X130151142Y-108688000D01*
X130055904Y-108640380D01*
X129865428Y-108592761D01*
X129627333Y-108592761D01*
X129436857Y-108640380D01*
X129341619Y-108688000D01*
X129294000Y-108735619D01*
X129246380Y-108830857D01*
X129674952Y-109735619D02*
X129627333Y-109640380D01*
X129579714Y-109592761D01*
X129484476Y-109545142D01*
X129436857Y-109545142D01*
X129341619Y-109592761D01*
X129294000Y-109640380D01*
X129246380Y-109735619D01*
X129246380Y-109926095D01*
X129294000Y-110021333D01*
X129341619Y-110068952D01*
X129436857Y-110116571D01*
X129484476Y-110116571D01*
X129579714Y-110068952D01*
X129627333Y-110021333D01*
X129674952Y-109926095D01*
X129674952Y-109735619D01*
X129722571Y-109640380D01*
X129770190Y-109592761D01*
X129865428Y-109545142D01*
X130055904Y-109545142D01*
X130151142Y-109592761D01*
X130198761Y-109640380D01*
X130246380Y-109735619D01*
X130246380Y-109926095D01*
X130198761Y-110021333D01*
X130151142Y-110068952D01*
X130055904Y-110116571D01*
X129865428Y-110116571D01*
X129770190Y-110068952D01*
X129722571Y-110021333D01*
X129674952Y-109926095D01*
X130246380Y-110545142D02*
X129246380Y-110545142D01*
X130246380Y-111116571D01*
X129246380Y-111116571D01*
X130071761Y-80732809D02*
X130119380Y-80875666D01*
X130119380Y-81113761D01*
X130071761Y-81209000D01*
X130024142Y-81256619D01*
X129928904Y-81304238D01*
X129833666Y-81304238D01*
X129738428Y-81256619D01*
X129690809Y-81209000D01*
X129643190Y-81113761D01*
X129595571Y-80923285D01*
X129547952Y-80828047D01*
X129500333Y-80780428D01*
X129405095Y-80732809D01*
X129309857Y-80732809D01*
X129214619Y-80780428D01*
X129167000Y-80828047D01*
X129119380Y-80923285D01*
X129119380Y-81161380D01*
X129167000Y-81304238D01*
X130119380Y-81732809D02*
X129119380Y-81732809D01*
X130119380Y-82304238D01*
X129119380Y-82304238D01*
X129119380Y-82685190D02*
X129119380Y-83351857D01*
X130119380Y-82923285D01*
X129452714Y-84161380D02*
X130119380Y-84161380D01*
X129071761Y-83923285D02*
X129786047Y-83685190D01*
X129786047Y-84304238D01*
X130119380Y-84828047D02*
X130071761Y-84732809D01*
X129976523Y-84685190D01*
X129119380Y-84685190D01*
X130071761Y-85161380D02*
X130119380Y-85304238D01*
X130119380Y-85542333D01*
X130071761Y-85637571D01*
X130024142Y-85685190D01*
X129928904Y-85732809D01*
X129833666Y-85732809D01*
X129738428Y-85685190D01*
X129690809Y-85637571D01*
X129643190Y-85542333D01*
X129595571Y-85351857D01*
X129547952Y-85256619D01*
X129500333Y-85209000D01*
X129405095Y-85161380D01*
X129309857Y-85161380D01*
X129214619Y-85209000D01*
X129167000Y-85256619D01*
X129119380Y-85351857D01*
X129119380Y-85589952D01*
X129167000Y-85732809D01*
X129119380Y-86351857D02*
X129119380Y-86447095D01*
X129167000Y-86542333D01*
X129214619Y-86589952D01*
X129309857Y-86637571D01*
X129500333Y-86685190D01*
X129738428Y-86685190D01*
X129928904Y-86637571D01*
X130024142Y-86589952D01*
X130071761Y-86542333D01*
X130119380Y-86447095D01*
X130119380Y-86351857D01*
X130071761Y-86256619D01*
X130024142Y-86209000D01*
X129928904Y-86161380D01*
X129738428Y-86113761D01*
X129500333Y-86113761D01*
X129309857Y-86161380D01*
X129214619Y-86209000D01*
X129167000Y-86256619D01*
X129119380Y-86351857D01*
X129452714Y-87542333D02*
X130119380Y-87542333D01*
X129071761Y-87304238D02*
X129786047Y-87066142D01*
X129786047Y-87685190D01*
X130119380Y-88066142D02*
X129119380Y-88066142D01*
X130119380Y-88637571D01*
X129119380Y-88637571D01*
X158177476Y-102052380D02*
X158177476Y-101052380D01*
X157844142Y-101766666D01*
X157510809Y-101052380D01*
X157510809Y-102052380D01*
X156891761Y-102052380D02*
X156987000Y-102004761D01*
X157034619Y-101957142D01*
X157082238Y-101861904D01*
X157082238Y-101576190D01*
X157034619Y-101480952D01*
X156987000Y-101433333D01*
X156891761Y-101385714D01*
X156748904Y-101385714D01*
X156653666Y-101433333D01*
X156606047Y-101480952D01*
X156558428Y-101576190D01*
X156558428Y-101861904D01*
X156606047Y-101957142D01*
X156653666Y-102004761D01*
X156748904Y-102052380D01*
X156891761Y-102052380D01*
X156129857Y-101385714D02*
X156129857Y-102052380D01*
X156129857Y-101480952D02*
X156082238Y-101433333D01*
X155987000Y-101385714D01*
X155844142Y-101385714D01*
X155748904Y-101433333D01*
X155701285Y-101528571D01*
X155701285Y-102052380D01*
X155082238Y-102052380D02*
X155177476Y-102004761D01*
X155225095Y-101957142D01*
X155272714Y-101861904D01*
X155272714Y-101576190D01*
X155225095Y-101480952D01*
X155177476Y-101433333D01*
X155082238Y-101385714D01*
X154939380Y-101385714D01*
X154844142Y-101433333D01*
X154796523Y-101480952D01*
X154748904Y-101576190D01*
X154748904Y-101861904D01*
X154796523Y-101957142D01*
X154844142Y-102004761D01*
X154939380Y-102052380D01*
X155082238Y-102052380D01*
X154367952Y-102004761D02*
X154272714Y-102052380D01*
X154082238Y-102052380D01*
X153987000Y-102004761D01*
X153939380Y-101909523D01*
X153939380Y-101861904D01*
X153987000Y-101766666D01*
X154082238Y-101719047D01*
X154225095Y-101719047D01*
X154320333Y-101671428D01*
X154367952Y-101576190D01*
X154367952Y-101528571D01*
X154320333Y-101433333D01*
X154225095Y-101385714D01*
X154082238Y-101385714D01*
X153987000Y-101433333D01*
X153653666Y-101385714D02*
X153272714Y-101385714D01*
X153510809Y-101052380D02*
X153510809Y-101909523D01*
X153463190Y-102004761D01*
X153367952Y-102052380D01*
X153272714Y-102052380D01*
X152510809Y-102052380D02*
X152510809Y-101528571D01*
X152558428Y-101433333D01*
X152653666Y-101385714D01*
X152844142Y-101385714D01*
X152939380Y-101433333D01*
X152510809Y-102004761D02*
X152606047Y-102052380D01*
X152844142Y-102052380D01*
X152939380Y-102004761D01*
X152987000Y-101909523D01*
X152987000Y-101814285D01*
X152939380Y-101719047D01*
X152844142Y-101671428D01*
X152606047Y-101671428D01*
X152510809Y-101623809D01*
X152034619Y-102052380D02*
X152034619Y-101052380D01*
X152034619Y-101433333D02*
X151939380Y-101385714D01*
X151748904Y-101385714D01*
X151653666Y-101433333D01*
X151606047Y-101480952D01*
X151558428Y-101576190D01*
X151558428Y-101861904D01*
X151606047Y-101957142D01*
X151653666Y-102004761D01*
X151748904Y-102052380D01*
X151939380Y-102052380D01*
X152034619Y-102004761D01*
X150987000Y-102052380D02*
X151082238Y-102004761D01*
X151129857Y-101909523D01*
X151129857Y-101052380D01*
X150225095Y-102004761D02*
X150320333Y-102052380D01*
X150510809Y-102052380D01*
X150606047Y-102004761D01*
X150653666Y-101909523D01*
X150653666Y-101528571D01*
X150606047Y-101433333D01*
X150510809Y-101385714D01*
X150320333Y-101385714D01*
X150225095Y-101433333D01*
X150177476Y-101528571D01*
X150177476Y-101623809D01*
X150653666Y-101719047D01*
X148510809Y-101052380D02*
X148987000Y-101052380D01*
X149034619Y-101528571D01*
X148987000Y-101480952D01*
X148891761Y-101433333D01*
X148653666Y-101433333D01*
X148558428Y-101480952D01*
X148510809Y-101528571D01*
X148463190Y-101623809D01*
X148463190Y-101861904D01*
X148510809Y-101957142D01*
X148558428Y-102004761D01*
X148653666Y-102052380D01*
X148891761Y-102052380D01*
X148987000Y-102004761D01*
X149034619Y-101957142D01*
X147558428Y-101052380D02*
X148034619Y-101052380D01*
X148082238Y-101528571D01*
X148034619Y-101480952D01*
X147939380Y-101433333D01*
X147701285Y-101433333D01*
X147606047Y-101480952D01*
X147558428Y-101528571D01*
X147510809Y-101623809D01*
X147510809Y-101861904D01*
X147558428Y-101957142D01*
X147606047Y-102004761D01*
X147701285Y-102052380D01*
X147939380Y-102052380D01*
X148034619Y-102004761D01*
X148082238Y-101957142D01*
X146606047Y-101052380D02*
X147082238Y-101052380D01*
X147129857Y-101528571D01*
X147082238Y-101480952D01*
X146987000Y-101433333D01*
X146748904Y-101433333D01*
X146653666Y-101480952D01*
X146606047Y-101528571D01*
X146558428Y-101623809D01*
X146558428Y-101861904D01*
X146606047Y-101957142D01*
X146653666Y-102004761D01*
X146748904Y-102052380D01*
X146987000Y-102052380D01*
X147082238Y-102004761D01*
X147129857Y-101957142D01*
X145510809Y-101052380D02*
X144939380Y-101052380D01*
X145225095Y-102052380D02*
X145225095Y-101052380D01*
X144606047Y-102052380D02*
X144606047Y-101385714D01*
X144606047Y-101052380D02*
X144653666Y-101100000D01*
X144606047Y-101147619D01*
X144558428Y-101100000D01*
X144606047Y-101052380D01*
X144606047Y-101147619D01*
X144129857Y-102052380D02*
X144129857Y-101385714D01*
X144129857Y-101480952D02*
X144082238Y-101433333D01*
X143987000Y-101385714D01*
X143844142Y-101385714D01*
X143748904Y-101433333D01*
X143701285Y-101528571D01*
X143701285Y-102052380D01*
X143701285Y-101528571D02*
X143653666Y-101433333D01*
X143558428Y-101385714D01*
X143415571Y-101385714D01*
X143320333Y-101433333D01*
X143272714Y-101528571D01*
X143272714Y-102052380D01*
X142415571Y-102004761D02*
X142510809Y-102052380D01*
X142701285Y-102052380D01*
X142796523Y-102004761D01*
X142844142Y-101909523D01*
X142844142Y-101528571D01*
X142796523Y-101433333D01*
X142701285Y-101385714D01*
X142510809Y-101385714D01*
X142415571Y-101433333D01*
X142367952Y-101528571D01*
X142367952Y-101623809D01*
X142844142Y-101719047D01*
X141939380Y-102052380D02*
X141939380Y-101385714D01*
X141939380Y-101576190D02*
X141891761Y-101480952D01*
X141844142Y-101433333D01*
X141748904Y-101385714D01*
X141653666Y-101385714D01*
X159066666Y-115498571D02*
X158923809Y-115546190D01*
X158876190Y-115593809D01*
X158828571Y-115689047D01*
X158828571Y-115831904D01*
X158876190Y-115927142D01*
X158923809Y-115974761D01*
X159019047Y-116022380D01*
X159400000Y-116022380D01*
X159400000Y-115022380D01*
X159066666Y-115022380D01*
X158971428Y-115070000D01*
X158923809Y-115117619D01*
X158876190Y-115212857D01*
X158876190Y-115308095D01*
X158923809Y-115403333D01*
X158971428Y-115450952D01*
X159066666Y-115498571D01*
X159400000Y-115498571D01*
X158400000Y-116022380D02*
X158400000Y-115355714D01*
X158400000Y-115022380D02*
X158447619Y-115070000D01*
X158400000Y-115117619D01*
X158352380Y-115070000D01*
X158400000Y-115022380D01*
X158400000Y-115117619D01*
X157971428Y-115974761D02*
X157876190Y-116022380D01*
X157685714Y-116022380D01*
X157590476Y-115974761D01*
X157542857Y-115879523D01*
X157542857Y-115831904D01*
X157590476Y-115736666D01*
X157685714Y-115689047D01*
X157828571Y-115689047D01*
X157923809Y-115641428D01*
X157971428Y-115546190D01*
X157971428Y-115498571D01*
X157923809Y-115403333D01*
X157828571Y-115355714D01*
X157685714Y-115355714D01*
X157590476Y-115403333D01*
X157257142Y-115355714D02*
X156876190Y-115355714D01*
X157114285Y-115022380D02*
X157114285Y-115879523D01*
X157066666Y-115974761D01*
X156971428Y-116022380D01*
X156876190Y-116022380D01*
X156114285Y-116022380D02*
X156114285Y-115498571D01*
X156161904Y-115403333D01*
X156257142Y-115355714D01*
X156447619Y-115355714D01*
X156542857Y-115403333D01*
X156114285Y-115974761D02*
X156209523Y-116022380D01*
X156447619Y-116022380D01*
X156542857Y-115974761D01*
X156590476Y-115879523D01*
X156590476Y-115784285D01*
X156542857Y-115689047D01*
X156447619Y-115641428D01*
X156209523Y-115641428D01*
X156114285Y-115593809D01*
X155638095Y-116022380D02*
X155638095Y-115022380D01*
X155638095Y-115403333D02*
X155542857Y-115355714D01*
X155352380Y-115355714D01*
X155257142Y-115403333D01*
X155209523Y-115450952D01*
X155161904Y-115546190D01*
X155161904Y-115831904D01*
X155209523Y-115927142D01*
X155257142Y-115974761D01*
X155352380Y-116022380D01*
X155542857Y-116022380D01*
X155638095Y-115974761D01*
X154590476Y-116022380D02*
X154685714Y-115974761D01*
X154733333Y-115879523D01*
X154733333Y-115022380D01*
X153828571Y-115974761D02*
X153923809Y-116022380D01*
X154114285Y-116022380D01*
X154209523Y-115974761D01*
X154257142Y-115879523D01*
X154257142Y-115498571D01*
X154209523Y-115403333D01*
X154114285Y-115355714D01*
X153923809Y-115355714D01*
X153828571Y-115403333D01*
X153780952Y-115498571D01*
X153780952Y-115593809D01*
X154257142Y-115689047D01*
X152114285Y-115022380D02*
X152590476Y-115022380D01*
X152638095Y-115498571D01*
X152590476Y-115450952D01*
X152495238Y-115403333D01*
X152257142Y-115403333D01*
X152161904Y-115450952D01*
X152114285Y-115498571D01*
X152066666Y-115593809D01*
X152066666Y-115831904D01*
X152114285Y-115927142D01*
X152161904Y-115974761D01*
X152257142Y-116022380D01*
X152495238Y-116022380D01*
X152590476Y-115974761D01*
X152638095Y-115927142D01*
X151161904Y-115022380D02*
X151638095Y-115022380D01*
X151685714Y-115498571D01*
X151638095Y-115450952D01*
X151542857Y-115403333D01*
X151304761Y-115403333D01*
X151209523Y-115450952D01*
X151161904Y-115498571D01*
X151114285Y-115593809D01*
X151114285Y-115831904D01*
X151161904Y-115927142D01*
X151209523Y-115974761D01*
X151304761Y-116022380D01*
X151542857Y-116022380D01*
X151638095Y-115974761D01*
X151685714Y-115927142D01*
X150209523Y-115022380D02*
X150685714Y-115022380D01*
X150733333Y-115498571D01*
X150685714Y-115450952D01*
X150590476Y-115403333D01*
X150352380Y-115403333D01*
X150257142Y-115450952D01*
X150209523Y-115498571D01*
X150161904Y-115593809D01*
X150161904Y-115831904D01*
X150209523Y-115927142D01*
X150257142Y-115974761D01*
X150352380Y-116022380D01*
X150590476Y-116022380D01*
X150685714Y-115974761D01*
X150733333Y-115927142D01*
X149114285Y-115022380D02*
X148542857Y-115022380D01*
X148828571Y-116022380D02*
X148828571Y-115022380D01*
X148209523Y-116022380D02*
X148209523Y-115355714D01*
X148209523Y-115022380D02*
X148257142Y-115070000D01*
X148209523Y-115117619D01*
X148161904Y-115070000D01*
X148209523Y-115022380D01*
X148209523Y-115117619D01*
X147733333Y-116022380D02*
X147733333Y-115355714D01*
X147733333Y-115450952D02*
X147685714Y-115403333D01*
X147590476Y-115355714D01*
X147447619Y-115355714D01*
X147352380Y-115403333D01*
X147304761Y-115498571D01*
X147304761Y-116022380D01*
X147304761Y-115498571D02*
X147257142Y-115403333D01*
X147161904Y-115355714D01*
X147019047Y-115355714D01*
X146923809Y-115403333D01*
X146876190Y-115498571D01*
X146876190Y-116022380D01*
X146019047Y-115974761D02*
X146114285Y-116022380D01*
X146304761Y-116022380D01*
X146400000Y-115974761D01*
X146447619Y-115879523D01*
X146447619Y-115498571D01*
X146400000Y-115403333D01*
X146304761Y-115355714D01*
X146114285Y-115355714D01*
X146019047Y-115403333D01*
X145971428Y-115498571D01*
X145971428Y-115593809D01*
X146447619Y-115689047D01*
X145542857Y-116022380D02*
X145542857Y-115355714D01*
X145542857Y-115546190D02*
X145495238Y-115450952D01*
X145447619Y-115403333D01*
X145352380Y-115355714D01*
X145257142Y-115355714D01*
X158884095Y-86145666D02*
X158407904Y-86145666D01*
X158979333Y-86431380D02*
X158646000Y-85431380D01*
X158312666Y-86431380D01*
X158026952Y-86383761D02*
X157931714Y-86431380D01*
X157741238Y-86431380D01*
X157646000Y-86383761D01*
X157598380Y-86288523D01*
X157598380Y-86240904D01*
X157646000Y-86145666D01*
X157741238Y-86098047D01*
X157884095Y-86098047D01*
X157979333Y-86050428D01*
X158026952Y-85955190D01*
X158026952Y-85907571D01*
X157979333Y-85812333D01*
X157884095Y-85764714D01*
X157741238Y-85764714D01*
X157646000Y-85812333D01*
X157312666Y-85764714D02*
X156931714Y-85764714D01*
X157169809Y-85431380D02*
X157169809Y-86288523D01*
X157122190Y-86383761D01*
X157026952Y-86431380D01*
X156931714Y-86431380D01*
X156169809Y-86431380D02*
X156169809Y-85907571D01*
X156217428Y-85812333D01*
X156312666Y-85764714D01*
X156503142Y-85764714D01*
X156598380Y-85812333D01*
X156169809Y-86383761D02*
X156265047Y-86431380D01*
X156503142Y-86431380D01*
X156598380Y-86383761D01*
X156646000Y-86288523D01*
X156646000Y-86193285D01*
X156598380Y-86098047D01*
X156503142Y-86050428D01*
X156265047Y-86050428D01*
X156169809Y-86002809D01*
X155693619Y-86431380D02*
X155693619Y-85431380D01*
X155693619Y-85812333D02*
X155598380Y-85764714D01*
X155407904Y-85764714D01*
X155312666Y-85812333D01*
X155265047Y-85859952D01*
X155217428Y-85955190D01*
X155217428Y-86240904D01*
X155265047Y-86336142D01*
X155312666Y-86383761D01*
X155407904Y-86431380D01*
X155598380Y-86431380D01*
X155693619Y-86383761D01*
X154646000Y-86431380D02*
X154741238Y-86383761D01*
X154788857Y-86288523D01*
X154788857Y-85431380D01*
X153884095Y-86383761D02*
X153979333Y-86431380D01*
X154169809Y-86431380D01*
X154265047Y-86383761D01*
X154312666Y-86288523D01*
X154312666Y-85907571D01*
X154265047Y-85812333D01*
X154169809Y-85764714D01*
X153979333Y-85764714D01*
X153884095Y-85812333D01*
X153836476Y-85907571D01*
X153836476Y-86002809D01*
X154312666Y-86098047D01*
X152169809Y-85431380D02*
X152646000Y-85431380D01*
X152693619Y-85907571D01*
X152646000Y-85859952D01*
X152550761Y-85812333D01*
X152312666Y-85812333D01*
X152217428Y-85859952D01*
X152169809Y-85907571D01*
X152122190Y-86002809D01*
X152122190Y-86240904D01*
X152169809Y-86336142D01*
X152217428Y-86383761D01*
X152312666Y-86431380D01*
X152550761Y-86431380D01*
X152646000Y-86383761D01*
X152693619Y-86336142D01*
X151217428Y-85431380D02*
X151693619Y-85431380D01*
X151741238Y-85907571D01*
X151693619Y-85859952D01*
X151598380Y-85812333D01*
X151360285Y-85812333D01*
X151265047Y-85859952D01*
X151217428Y-85907571D01*
X151169809Y-86002809D01*
X151169809Y-86240904D01*
X151217428Y-86336142D01*
X151265047Y-86383761D01*
X151360285Y-86431380D01*
X151598380Y-86431380D01*
X151693619Y-86383761D01*
X151741238Y-86336142D01*
X150265047Y-85431380D02*
X150741238Y-85431380D01*
X150788857Y-85907571D01*
X150741238Y-85859952D01*
X150646000Y-85812333D01*
X150407904Y-85812333D01*
X150312666Y-85859952D01*
X150265047Y-85907571D01*
X150217428Y-86002809D01*
X150217428Y-86240904D01*
X150265047Y-86336142D01*
X150312666Y-86383761D01*
X150407904Y-86431380D01*
X150646000Y-86431380D01*
X150741238Y-86383761D01*
X150788857Y-86336142D01*
X149169809Y-85431380D02*
X148598380Y-85431380D01*
X148884095Y-86431380D02*
X148884095Y-85431380D01*
X148265047Y-86431380D02*
X148265047Y-85764714D01*
X148265047Y-85431380D02*
X148312666Y-85479000D01*
X148265047Y-85526619D01*
X148217428Y-85479000D01*
X148265047Y-85431380D01*
X148265047Y-85526619D01*
X147788857Y-86431380D02*
X147788857Y-85764714D01*
X147788857Y-85859952D02*
X147741238Y-85812333D01*
X147646000Y-85764714D01*
X147503142Y-85764714D01*
X147407904Y-85812333D01*
X147360285Y-85907571D01*
X147360285Y-86431380D01*
X147360285Y-85907571D02*
X147312666Y-85812333D01*
X147217428Y-85764714D01*
X147074571Y-85764714D01*
X146979333Y-85812333D01*
X146931714Y-85907571D01*
X146931714Y-86431380D01*
X146074571Y-86383761D02*
X146169809Y-86431380D01*
X146360285Y-86431380D01*
X146455523Y-86383761D01*
X146503142Y-86288523D01*
X146503142Y-85907571D01*
X146455523Y-85812333D01*
X146360285Y-85764714D01*
X146169809Y-85764714D01*
X146074571Y-85812333D01*
X146026952Y-85907571D01*
X146026952Y-86002809D01*
X146503142Y-86098047D01*
X145598380Y-86431380D02*
X145598380Y-85764714D01*
X145598380Y-85955190D02*
X145550761Y-85859952D01*
X145503142Y-85812333D01*
X145407904Y-85764714D01*
X145312666Y-85764714D01*
M02*
