M48
; DRILL file {KiCad (6.0.9)} date Mon Dec 19 18:13:29 2022
; FORMAT={-:-/ absolute / inch / decimal}
; #@! TF.CreationDate,2022-12-19T18:13:29-06:00
; #@! TF.GenerationSoftware,Kicad,Pcbnew,(6.0.9)
; #@! TF.FileFunction,Plated,1,2,PTH
FMAT,2
INCH
; #@! TA.AperFunction,Plated,PTH,ViaDrill
T1C0.0250
; #@! TA.AperFunction,Plated,PTH,ComponentDrill
T2C0.0315
; #@! TA.AperFunction,Plated,PTH,ComponentDrill
T3C0.0354
; #@! TA.AperFunction,Plated,PTH,ComponentDrill
T4C0.0394
; #@! TA.AperFunction,Plated,PTH,ComponentDrill
T5C0.0402
; #@! TA.AperFunction,Plated,PTH,ComponentDrill
T6C0.0433
; #@! TA.AperFunction,Plated,PTH,ComponentDrill
T7C0.0512
%
G90
G05
T1
X5.997Y-2.945
X6.125Y-3.945
T2
X5.0698Y-2.797
X5.1682Y-2.797
X5.3966Y-5.1209
X5.3966Y-5.2194
X5.406Y-4.1698
X5.406Y-4.2682
X5.5866Y-3.8504
X5.5866Y-4.1504
X5.5896Y-3.2224
X5.5896Y-3.5224
X5.6016Y-4.3964
X5.6016Y-4.6964
X5.6866Y-3.8504
X5.6866Y-4.1504
X5.6896Y-3.2224
X5.6896Y-3.5224
X5.7016Y-4.3964
X5.7016Y-4.6964
X5.7866Y-3.8504
X5.7866Y-4.1504
X5.7896Y-3.2224
X5.7896Y-3.5224
X5.8016Y-4.3964
X5.8016Y-4.6964
X5.8866Y-3.8504
X5.8866Y-4.1504
X5.8896Y-3.2224
X5.8896Y-3.5224
X5.9016Y-4.3964
X5.9016Y-4.6964
X6.048Y-3.85
X6.048Y-4.15
X6.072Y-4.396
X6.072Y-4.696
X6.114Y-3.227
X6.114Y-3.527
X6.19Y-3.055
X6.193Y-3.852
X6.193Y-4.152
X6.202Y-4.396
X6.202Y-4.696
X6.256Y-3.23
X6.256Y-3.53
X6.2884Y-3.055
X6.2988Y-4.14
X6.3018Y-4.007
X6.3038Y-3.872
X6.341Y-4.3948
X6.341Y-4.4932
X6.345Y-4.5958
X6.345Y-4.6942
X6.3486Y-5.1146
X6.389Y-3.4376
X6.389Y-3.536
X6.395Y-3.2308
X6.395Y-3.3292
X6.3972Y-4.14
X6.4002Y-4.007
X6.4022Y-3.872
X6.447Y-5.1146
X6.649Y-3.069
X6.649Y-3.369
X6.87Y-3.068
X6.87Y-3.368
T3
X5.6456Y-5.0779
X5.6456Y-5.1763
X5.6456Y-5.2747
X6.649Y-3.5292
X6.649Y-3.6292
X6.66Y-4.4431
X6.66Y-4.5416
X6.66Y-4.64
X6.665Y-2.704
X6.7634Y-2.704
X6.8619Y-2.704
X6.87Y-3.5232
X6.87Y-3.6232
T4
X4.9716Y-3.0036
X4.9716Y-3.1036
X4.9716Y-3.2036
X4.9716Y-3.3036
X4.9716Y-3.4036
X4.9716Y-3.5036
X4.9716Y-3.6036
X4.976Y-3.9142
X4.976Y-4.0142
X4.976Y-4.1142
X4.976Y-4.2142
X4.976Y-4.3142
X4.976Y-4.4142
X4.976Y-4.5142
X4.9766Y-4.8234
X4.9766Y-4.9234
X4.9766Y-5.0234
X4.9766Y-5.1234
X4.9766Y-5.2234
X4.9766Y-5.3234
X4.9766Y-5.4234
X5.2716Y-3.0036
X5.2716Y-3.1036
X5.2716Y-3.2036
X5.2716Y-3.3036
X5.2716Y-3.4036
X5.2716Y-3.5036
X5.2716Y-3.6036
X5.276Y-3.9142
X5.276Y-4.0142
X5.276Y-4.1142
X5.276Y-4.2142
X5.276Y-4.3142
X5.276Y-4.4142
X5.276Y-4.5142
X5.2766Y-4.8234
X5.2766Y-4.9234
X5.2766Y-5.0234
X5.2766Y-5.1234
X5.2766Y-5.2234
X5.2766Y-5.3234
X5.2766Y-5.4234
T5
X6.1508Y-2.752
X6.2508Y-2.752
X6.3508Y-2.752
X6.4508Y-2.752
T6
X6.6814Y-3.848
X6.6814Y-4.104
X6.8586Y-3.848
X6.8586Y-4.104
T7
X5.4971Y-2.8268
X5.694Y-2.7284
X5.8909Y-2.8268
T4
G00X5.9907Y-4.9716
M15
G01X5.9671Y-4.9716
M16
G05
G00X5.9907Y-5.2078
M15
G01X5.9671Y-5.2078
M16
G05
G00X6.1639Y-5.1015
M15
G01X6.1639Y-5.0779
M16
G05
T0
M30
