%TF.GenerationSoftware,KiCad,Pcbnew,(6.0.9)*%
%TF.CreationDate,2022-12-19T18:13:20-06:00*%
%TF.ProjectId,clock_module,636c6f63-6b5f-46d6-9f64-756c652e6b69,rev?*%
%TF.SameCoordinates,Original*%
%TF.FileFunction,Drillmap*%
%TF.FilePolarity,Positive*%
%FSLAX45Y45*%
G04 Gerber Fmt 4.5, Leading zero omitted, Abs format (unit mm)*
G04 Created by KiCad (PCBNEW (6.0.9)) date 2022-12-19 18:13:20*
%MOMM*%
%LPD*%
G01*
G04 APERTURE LIST*
%ADD10C,0.100000*%
%ADD11C,0.200000*%
%ADD12C,0.063500*%
%ADD13C,0.080000*%
%ADD14C,0.090000*%
%ADD15C,0.102000*%
%ADD16C,0.110000*%
%ADD17C,0.130000*%
G04 APERTURE END LIST*
D10*
X17843500Y-14051280D02*
X12397740Y-14051280D01*
X12397740Y-14051280D02*
X12397740Y-6616700D01*
X12397740Y-6616700D02*
X17843500Y-6616700D01*
X17843500Y-6616700D02*
X17843500Y-14051280D01*
D11*
D12*
X15200630Y-7448550D02*
X15264130Y-7512050D01*
X15264130Y-7448550D02*
X15200630Y-7512050D01*
X15525750Y-9988550D02*
X15589250Y-10052050D01*
X15589250Y-9988550D02*
X15525750Y-10052050D01*
D13*
X12917260Y-7104380D02*
G75*
G03*
X12917260Y-7104380I-40000J0D01*
G01*
X13167260Y-7104380D02*
G75*
G03*
X13167260Y-7104380I-40000J0D01*
G01*
X13747249Y-13007209D02*
G75*
G03*
X13747249Y-13007209I-40000J0D01*
G01*
X13747249Y-13257209D02*
G75*
G03*
X13747249Y-13257209I-40000J0D01*
G01*
X13771240Y-10591260D02*
G75*
G03*
X13771240Y-10591260I-40000J0D01*
G01*
X13771240Y-10841260D02*
G75*
G03*
X13771240Y-10841260I-40000J0D01*
G01*
X14229980Y-9780000D02*
G75*
G03*
X14229980Y-9780000I-40000J0D01*
G01*
X14229980Y-10542000D02*
G75*
G03*
X14229980Y-10542000I-40000J0D01*
G01*
X14237600Y-8184880D02*
G75*
G03*
X14237600Y-8184880I-40000J0D01*
G01*
X14237600Y-8946880D02*
G75*
G03*
X14237600Y-8946880I-40000J0D01*
G01*
X14268080Y-11166840D02*
G75*
G03*
X14268080Y-11166840I-40000J0D01*
G01*
X14268080Y-11928840D02*
G75*
G03*
X14268080Y-11928840I-40000J0D01*
G01*
X14483980Y-9780000D02*
G75*
G03*
X14483980Y-9780000I-40000J0D01*
G01*
X14483980Y-10542000D02*
G75*
G03*
X14483980Y-10542000I-40000J0D01*
G01*
X14491600Y-8184880D02*
G75*
G03*
X14491600Y-8184880I-40000J0D01*
G01*
X14491600Y-8946880D02*
G75*
G03*
X14491600Y-8946880I-40000J0D01*
G01*
X14522080Y-11166840D02*
G75*
G03*
X14522080Y-11166840I-40000J0D01*
G01*
X14522080Y-11928840D02*
G75*
G03*
X14522080Y-11928840I-40000J0D01*
G01*
X14737980Y-9780000D02*
G75*
G03*
X14737980Y-9780000I-40000J0D01*
G01*
X14737980Y-10542000D02*
G75*
G03*
X14737980Y-10542000I-40000J0D01*
G01*
X14745600Y-8184880D02*
G75*
G03*
X14745600Y-8184880I-40000J0D01*
G01*
X14745600Y-8946880D02*
G75*
G03*
X14745600Y-8946880I-40000J0D01*
G01*
X14776080Y-11166840D02*
G75*
G03*
X14776080Y-11166840I-40000J0D01*
G01*
X14776080Y-11928840D02*
G75*
G03*
X14776080Y-11928840I-40000J0D01*
G01*
X14991980Y-9780000D02*
G75*
G03*
X14991980Y-9780000I-40000J0D01*
G01*
X14991980Y-10542000D02*
G75*
G03*
X14991980Y-10542000I-40000J0D01*
G01*
X14999600Y-8184880D02*
G75*
G03*
X14999600Y-8184880I-40000J0D01*
G01*
X14999600Y-8946880D02*
G75*
G03*
X14999600Y-8946880I-40000J0D01*
G01*
X15030080Y-11166840D02*
G75*
G03*
X15030080Y-11166840I-40000J0D01*
G01*
X15030080Y-11928840D02*
G75*
G03*
X15030080Y-11928840I-40000J0D01*
G01*
X15401920Y-9779000D02*
G75*
G03*
X15401920Y-9779000I-40000J0D01*
G01*
X15401920Y-10541000D02*
G75*
G03*
X15401920Y-10541000I-40000J0D01*
G01*
X15462880Y-11165840D02*
G75*
G03*
X15462880Y-11165840I-40000J0D01*
G01*
X15462880Y-11927840D02*
G75*
G03*
X15462880Y-11927840I-40000J0D01*
G01*
X15569560Y-8196580D02*
G75*
G03*
X15569560Y-8196580I-40000J0D01*
G01*
X15569560Y-8958580D02*
G75*
G03*
X15569560Y-8958580I-40000J0D01*
G01*
X15762600Y-7759700D02*
G75*
G03*
X15762600Y-7759700I-40000J0D01*
G01*
X15770220Y-9784080D02*
G75*
G03*
X15770220Y-9784080I-40000J0D01*
G01*
X15770220Y-10546080D02*
G75*
G03*
X15770220Y-10546080I-40000J0D01*
G01*
X15793080Y-11165840D02*
G75*
G03*
X15793080Y-11165840I-40000J0D01*
G01*
X15793080Y-11927840D02*
G75*
G03*
X15793080Y-11927840I-40000J0D01*
G01*
X15930240Y-8204200D02*
G75*
G03*
X15930240Y-8204200I-40000J0D01*
G01*
X15930240Y-8966200D02*
G75*
G03*
X15930240Y-8966200I-40000J0D01*
G01*
X16012600Y-7759700D02*
G75*
G03*
X16012600Y-7759700I-40000J0D01*
G01*
X16038920Y-10515600D02*
G75*
G03*
X16038920Y-10515600I-40000J0D01*
G01*
X16046540Y-10177780D02*
G75*
G03*
X16046540Y-10177780I-40000J0D01*
G01*
X16051620Y-9834880D02*
G75*
G03*
X16051620Y-9834880I-40000J0D01*
G01*
X16146140Y-11162760D02*
G75*
G03*
X16146140Y-11162760I-40000J0D01*
G01*
X16146140Y-11412760D02*
G75*
G03*
X16146140Y-11412760I-40000J0D01*
G01*
X16156300Y-11673300D02*
G75*
G03*
X16156300Y-11673300I-40000J0D01*
G01*
X16156300Y-11923300D02*
G75*
G03*
X16156300Y-11923300I-40000J0D01*
G01*
X16165380Y-12990969D02*
G75*
G03*
X16165380Y-12990969I-40000J0D01*
G01*
X16268060Y-8731440D02*
G75*
G03*
X16268060Y-8731440I-40000J0D01*
G01*
X16268060Y-8981440D02*
G75*
G03*
X16268060Y-8981440I-40000J0D01*
G01*
X16283300Y-8206200D02*
G75*
G03*
X16283300Y-8206200I-40000J0D01*
G01*
X16283300Y-8456200D02*
G75*
G03*
X16283300Y-8456200I-40000J0D01*
G01*
X16288920Y-10515600D02*
G75*
G03*
X16288920Y-10515600I-40000J0D01*
G01*
X16296540Y-10177780D02*
G75*
G03*
X16296540Y-10177780I-40000J0D01*
G01*
X16301620Y-9834880D02*
G75*
G03*
X16301620Y-9834880I-40000J0D01*
G01*
X16415380Y-12990969D02*
G75*
G03*
X16415380Y-12990969I-40000J0D01*
G01*
X16928460Y-7795260D02*
G75*
G03*
X16928460Y-7795260I-40000J0D01*
G01*
X16928460Y-8557260D02*
G75*
G03*
X16928460Y-8557260I-40000J0D01*
G01*
X17489800Y-7792720D02*
G75*
G03*
X17489800Y-7792720I-40000J0D01*
G01*
X17489800Y-8554720D02*
G75*
G03*
X17489800Y-8554720I-40000J0D01*
G01*
D14*
X14339709Y-12852749D02*
X14339709Y-12942749D01*
X14294709Y-12897749D02*
X14384709Y-12897749D01*
X14339709Y-13102749D02*
X14339709Y-13192749D01*
X14294709Y-13147749D02*
X14384709Y-13147749D01*
X14339709Y-13352749D02*
X14339709Y-13442749D01*
X14294709Y-13397749D02*
X14384709Y-13397749D01*
X16888460Y-8919160D02*
X16888460Y-9009160D01*
X16843460Y-8964160D02*
X16933460Y-8964160D01*
X16888460Y-9173160D02*
X16888460Y-9263160D01*
X16843460Y-9218160D02*
X16933460Y-9218160D01*
X16916400Y-11240600D02*
X16916400Y-11330600D01*
X16871400Y-11285600D02*
X16961400Y-11285600D01*
X16916400Y-11490600D02*
X16916400Y-11580600D01*
X16871400Y-11535600D02*
X16961400Y-11535600D01*
X16916400Y-11740600D02*
X16916400Y-11830600D01*
X16871400Y-11785600D02*
X16961400Y-11785600D01*
X16929100Y-6823160D02*
X16929100Y-6913160D01*
X16884100Y-6868160D02*
X16974100Y-6868160D01*
X17179100Y-6823160D02*
X17179100Y-6913160D01*
X17134100Y-6868160D02*
X17224100Y-6868160D01*
X17429100Y-6823160D02*
X17429100Y-6913160D01*
X17384100Y-6868160D02*
X17474100Y-6868160D01*
X17449800Y-8903920D02*
X17449800Y-8993920D01*
X17404800Y-8948920D02*
X17494800Y-8948920D01*
X17449800Y-9157920D02*
X17449800Y-9247920D01*
X17404800Y-9202920D02*
X17494800Y-9202920D01*
D10*
X12663176Y-7664436D02*
X12663176Y-7593724D01*
X12592464Y-7593724D01*
X12592464Y-7664436D01*
X12663176Y-7664436D01*
X12663176Y-7918436D02*
X12663176Y-7847724D01*
X12592464Y-7847724D01*
X12592464Y-7918436D01*
X12663176Y-7918436D01*
X12663176Y-8172436D02*
X12663176Y-8101724D01*
X12592464Y-8101724D01*
X12592464Y-8172436D01*
X12663176Y-8172436D01*
X12663176Y-8426436D02*
X12663176Y-8355724D01*
X12592464Y-8355724D01*
X12592464Y-8426436D01*
X12663176Y-8426436D01*
X12663176Y-8680436D02*
X12663176Y-8609724D01*
X12592464Y-8609724D01*
X12592464Y-8680436D01*
X12663176Y-8680436D01*
X12663176Y-8934436D02*
X12663176Y-8863724D01*
X12592464Y-8863724D01*
X12592464Y-8934436D01*
X12663176Y-8934436D01*
X12663176Y-9188436D02*
X12663176Y-9117724D01*
X12592464Y-9117724D01*
X12592464Y-9188436D01*
X12663176Y-9188436D01*
X12674396Y-9977376D02*
X12674396Y-9906664D01*
X12603684Y-9906664D01*
X12603684Y-9977376D01*
X12674396Y-9977376D01*
X12674396Y-10231376D02*
X12674396Y-10160664D01*
X12603684Y-10160664D01*
X12603684Y-10231376D01*
X12674396Y-10231376D01*
X12674396Y-10485376D02*
X12674396Y-10414664D01*
X12603684Y-10414664D01*
X12603684Y-10485376D01*
X12674396Y-10485376D01*
X12674396Y-10739376D02*
X12674396Y-10668664D01*
X12603684Y-10668664D01*
X12603684Y-10739376D01*
X12674396Y-10739376D01*
X12674396Y-10993376D02*
X12674396Y-10922664D01*
X12603684Y-10922664D01*
X12603684Y-10993376D01*
X12674396Y-10993376D01*
X12674396Y-11247376D02*
X12674396Y-11176664D01*
X12603684Y-11176664D01*
X12603684Y-11247376D01*
X12674396Y-11247376D01*
X12674396Y-11501376D02*
X12674396Y-11430664D01*
X12603684Y-11430664D01*
X12603684Y-11501376D01*
X12674396Y-11501376D01*
X12675804Y-12286724D02*
X12675804Y-12216013D01*
X12605093Y-12216013D01*
X12605093Y-12286724D01*
X12675804Y-12286724D01*
X12675804Y-12540724D02*
X12675804Y-12470013D01*
X12605093Y-12470013D01*
X12605093Y-12540724D01*
X12675804Y-12540724D01*
X12675804Y-12794724D02*
X12675804Y-12724013D01*
X12605093Y-12724013D01*
X12605093Y-12794724D01*
X12675804Y-12794724D01*
X12675804Y-13048724D02*
X12675804Y-12978013D01*
X12605093Y-12978013D01*
X12605093Y-13048724D01*
X12675804Y-13048724D01*
X12675804Y-13302724D02*
X12675804Y-13232013D01*
X12605093Y-13232013D01*
X12605093Y-13302724D01*
X12675804Y-13302724D01*
X12675804Y-13556724D02*
X12675804Y-13486013D01*
X12605093Y-13486013D01*
X12605093Y-13556724D01*
X12675804Y-13556724D01*
X12675804Y-13810724D02*
X12675804Y-13740013D01*
X12605093Y-13740013D01*
X12605093Y-13810724D01*
X12675804Y-13810724D01*
X13425176Y-7664436D02*
X13425176Y-7593724D01*
X13354464Y-7593724D01*
X13354464Y-7664436D01*
X13425176Y-7664436D01*
X13425176Y-7918436D02*
X13425176Y-7847724D01*
X13354464Y-7847724D01*
X13354464Y-7918436D01*
X13425176Y-7918436D01*
X13425176Y-8172436D02*
X13425176Y-8101724D01*
X13354464Y-8101724D01*
X13354464Y-8172436D01*
X13425176Y-8172436D01*
X13425176Y-8426436D02*
X13425176Y-8355724D01*
X13354464Y-8355724D01*
X13354464Y-8426436D01*
X13425176Y-8426436D01*
X13425176Y-8680436D02*
X13425176Y-8609724D01*
X13354464Y-8609724D01*
X13354464Y-8680436D01*
X13425176Y-8680436D01*
X13425176Y-8934436D02*
X13425176Y-8863724D01*
X13354464Y-8863724D01*
X13354464Y-8934436D01*
X13425176Y-8934436D01*
X13425176Y-9188436D02*
X13425176Y-9117724D01*
X13354464Y-9117724D01*
X13354464Y-9188436D01*
X13425176Y-9188436D01*
X13436396Y-9977376D02*
X13436396Y-9906664D01*
X13365684Y-9906664D01*
X13365684Y-9977376D01*
X13436396Y-9977376D01*
X13436396Y-10231376D02*
X13436396Y-10160664D01*
X13365684Y-10160664D01*
X13365684Y-10231376D01*
X13436396Y-10231376D01*
X13436396Y-10485376D02*
X13436396Y-10414664D01*
X13365684Y-10414664D01*
X13365684Y-10485376D01*
X13436396Y-10485376D01*
X13436396Y-10739376D02*
X13436396Y-10668664D01*
X13365684Y-10668664D01*
X13365684Y-10739376D01*
X13436396Y-10739376D01*
X13436396Y-10993376D02*
X13436396Y-10922664D01*
X13365684Y-10922664D01*
X13365684Y-10993376D01*
X13436396Y-10993376D01*
X13436396Y-11247376D02*
X13436396Y-11176664D01*
X13365684Y-11176664D01*
X13365684Y-11247376D01*
X13436396Y-11247376D01*
X13436396Y-11501376D02*
X13436396Y-11430664D01*
X13365684Y-11430664D01*
X13365684Y-11501376D01*
X13436396Y-11501376D01*
X13437804Y-12286724D02*
X13437804Y-12216013D01*
X13367093Y-12216013D01*
X13367093Y-12286724D01*
X13437804Y-12286724D01*
X13437804Y-12540724D02*
X13437804Y-12470013D01*
X13367093Y-12470013D01*
X13367093Y-12540724D01*
X13437804Y-12540724D01*
X13437804Y-12794724D02*
X13437804Y-12724013D01*
X13367093Y-12724013D01*
X13367093Y-12794724D01*
X13437804Y-12794724D01*
X13437804Y-13048724D02*
X13437804Y-12978013D01*
X13367093Y-12978013D01*
X13367093Y-13048724D01*
X13437804Y-13048724D01*
X13437804Y-13302724D02*
X13437804Y-13232013D01*
X13367093Y-13232013D01*
X13367093Y-13302724D01*
X13437804Y-13302724D01*
X13437804Y-13556724D02*
X13437804Y-13486013D01*
X13367093Y-13486013D01*
X13367093Y-13556724D01*
X13437804Y-13556724D01*
X13437804Y-13810724D02*
X13437804Y-13740013D01*
X13367093Y-13740013D01*
X13367093Y-13810724D01*
X13437804Y-13810724D01*
X15221764Y-12663104D02*
X15221764Y-12592393D01*
X15151053Y-12592393D01*
X15151053Y-12663104D01*
X15221764Y-12663104D01*
D11*
X15216409Y-12577749D02*
X15156409Y-12577749D01*
X15216409Y-12677749D02*
X15156409Y-12677749D01*
X15156409Y-12577749D02*
G75*
G03*
X15156409Y-12677749I0J-50000D01*
G01*
X15216409Y-12677749D02*
G75*
G03*
X15216409Y-12577749I0J50000D01*
G01*
D10*
X15221764Y-13263104D02*
X15221764Y-13192393D01*
X15151053Y-13192393D01*
X15151053Y-13263104D01*
X15221764Y-13263104D01*
D11*
X15216409Y-13177749D02*
X15156409Y-13177749D01*
X15216409Y-13277749D02*
X15156409Y-13277749D01*
X15156409Y-13177749D02*
G75*
G03*
X15156409Y-13277749I0J-50000D01*
G01*
X15216409Y-13277749D02*
G75*
G03*
X15216409Y-13177749I0J50000D01*
G01*
D10*
X15691764Y-12963104D02*
X15691764Y-12892393D01*
X15621053Y-12892393D01*
X15621053Y-12963104D01*
X15691764Y-12963104D01*
D11*
X15706409Y-12957749D02*
X15706409Y-12897749D01*
X15606409Y-12957749D02*
X15606409Y-12897749D01*
X15706409Y-12897749D02*
G75*
G03*
X15606409Y-12897749I-50000J0D01*
G01*
X15606409Y-12957749D02*
G75*
G03*
X15706409Y-12957749I50000J0D01*
G01*
D15*
X15623040Y-7041080D02*
X15674040Y-6990080D01*
X15623040Y-6939080D01*
X15572040Y-6990080D01*
X15623040Y-7041080D01*
X15877040Y-7041080D02*
X15928040Y-6990080D01*
X15877040Y-6939080D01*
X15826040Y-6990080D01*
X15877040Y-7041080D01*
X16131040Y-7041080D02*
X16182040Y-6990080D01*
X16131040Y-6939080D01*
X16080040Y-6990080D01*
X16131040Y-7041080D01*
X16385040Y-7041080D02*
X16436040Y-6990080D01*
X16385040Y-6939080D01*
X16334040Y-6990080D01*
X16385040Y-7041080D01*
D16*
X16915800Y-9719040D02*
X17025800Y-9829040D01*
X17025800Y-9719040D02*
X16915800Y-9829040D01*
X17025800Y-9774040D02*
G75*
G03*
X17025800Y-9774040I-55000J0D01*
G01*
X16915800Y-10369040D02*
X17025800Y-10479040D01*
X17025800Y-10369040D02*
X16915800Y-10479040D01*
X17025800Y-10424040D02*
G75*
G03*
X17025800Y-10424040I-55000J0D01*
G01*
X17365800Y-9719040D02*
X17475800Y-9829040D01*
X17475800Y-9719040D02*
X17365800Y-9829040D01*
X17475800Y-9774040D02*
G75*
G03*
X17475800Y-9774040I-55000J0D01*
G01*
X17365800Y-10369040D02*
X17475800Y-10479040D01*
X17475800Y-10369040D02*
X17365800Y-10479040D01*
X17475800Y-10424040D02*
G75*
G03*
X17475800Y-10424040I-55000J0D01*
G01*
D17*
X13897760Y-7115080D02*
X14027760Y-7245080D01*
X14027760Y-7115080D02*
X13897760Y-7245080D01*
X13962760Y-7115080D02*
X13962760Y-7245080D01*
X13897760Y-7180080D02*
X14027760Y-7180080D01*
X14397760Y-6865080D02*
X14527760Y-6995080D01*
X14527760Y-6865080D02*
X14397760Y-6995080D01*
X14462760Y-6865080D02*
X14462760Y-6995080D01*
X14397760Y-6930080D02*
X14527760Y-6930080D01*
X14897760Y-7115080D02*
X15027760Y-7245080D01*
X15027760Y-7115080D02*
X14897760Y-7245080D01*
X14962760Y-7115080D02*
X14962760Y-7245080D01*
X14897760Y-7180080D02*
X15027760Y-7180080D01*
D11*
X12650359Y-14366756D02*
X12650359Y-14166756D01*
X12697978Y-14166756D01*
X12726549Y-14176280D01*
X12745597Y-14195328D01*
X12755121Y-14214375D01*
X12764645Y-14252470D01*
X12764645Y-14281042D01*
X12755121Y-14319137D01*
X12745597Y-14338185D01*
X12726549Y-14357232D01*
X12697978Y-14366756D01*
X12650359Y-14366756D01*
X12850359Y-14366756D02*
X12850359Y-14233423D01*
X12850359Y-14271518D02*
X12859883Y-14252470D01*
X12869407Y-14242947D01*
X12888454Y-14233423D01*
X12907502Y-14233423D01*
X12974168Y-14366756D02*
X12974168Y-14233423D01*
X12974168Y-14166756D02*
X12964645Y-14176280D01*
X12974168Y-14185804D01*
X12983692Y-14176280D01*
X12974168Y-14166756D01*
X12974168Y-14185804D01*
X13097978Y-14366756D02*
X13078930Y-14357232D01*
X13069407Y-14338185D01*
X13069407Y-14166756D01*
X13202740Y-14366756D02*
X13183692Y-14357232D01*
X13174168Y-14338185D01*
X13174168Y-14166756D01*
X13431311Y-14366756D02*
X13431311Y-14166756D01*
X13497978Y-14309613D01*
X13564645Y-14166756D01*
X13564645Y-14366756D01*
X13745597Y-14366756D02*
X13745597Y-14261994D01*
X13736073Y-14242947D01*
X13717026Y-14233423D01*
X13678930Y-14233423D01*
X13659883Y-14242947D01*
X13745597Y-14357232D02*
X13726549Y-14366756D01*
X13678930Y-14366756D01*
X13659883Y-14357232D01*
X13650359Y-14338185D01*
X13650359Y-14319137D01*
X13659883Y-14300089D01*
X13678930Y-14290566D01*
X13726549Y-14290566D01*
X13745597Y-14281042D01*
X13840835Y-14233423D02*
X13840835Y-14433423D01*
X13840835Y-14242947D02*
X13859883Y-14233423D01*
X13897978Y-14233423D01*
X13917026Y-14242947D01*
X13926549Y-14252470D01*
X13936073Y-14271518D01*
X13936073Y-14328661D01*
X13926549Y-14347708D01*
X13917026Y-14357232D01*
X13897978Y-14366756D01*
X13859883Y-14366756D01*
X13840835Y-14357232D01*
X14021788Y-14347708D02*
X14031311Y-14357232D01*
X14021788Y-14366756D01*
X14012264Y-14357232D01*
X14021788Y-14347708D01*
X14021788Y-14366756D01*
X14021788Y-14242947D02*
X14031311Y-14252470D01*
X14021788Y-14261994D01*
X14012264Y-14252470D01*
X14021788Y-14242947D01*
X14021788Y-14261994D01*
D12*
X12329240Y-14664530D02*
X12392740Y-14728030D01*
X12392740Y-14664530D02*
X12329240Y-14728030D01*
D11*
X12688454Y-14586756D02*
X12707502Y-14586756D01*
X12726549Y-14596280D01*
X12736073Y-14605804D01*
X12745597Y-14624851D01*
X12755121Y-14662947D01*
X12755121Y-14710566D01*
X12745597Y-14748661D01*
X12736073Y-14767708D01*
X12726549Y-14777232D01*
X12707502Y-14786756D01*
X12688454Y-14786756D01*
X12669407Y-14777232D01*
X12659883Y-14767708D01*
X12650359Y-14748661D01*
X12640835Y-14710566D01*
X12640835Y-14662947D01*
X12650359Y-14624851D01*
X12659883Y-14605804D01*
X12669407Y-14596280D01*
X12688454Y-14586756D01*
X12840835Y-14767708D02*
X12850359Y-14777232D01*
X12840835Y-14786756D01*
X12831311Y-14777232D01*
X12840835Y-14767708D01*
X12840835Y-14786756D01*
X13021788Y-14586756D02*
X12983692Y-14586756D01*
X12964645Y-14596280D01*
X12955121Y-14605804D01*
X12936073Y-14634375D01*
X12926549Y-14672470D01*
X12926549Y-14748661D01*
X12936073Y-14767708D01*
X12945597Y-14777232D01*
X12964645Y-14786756D01*
X13002740Y-14786756D01*
X13021788Y-14777232D01*
X13031311Y-14767708D01*
X13040835Y-14748661D01*
X13040835Y-14701042D01*
X13031311Y-14681994D01*
X13021788Y-14672470D01*
X13002740Y-14662947D01*
X12964645Y-14662947D01*
X12945597Y-14672470D01*
X12936073Y-14681994D01*
X12926549Y-14701042D01*
X13107502Y-14586756D02*
X13231311Y-14586756D01*
X13164645Y-14662947D01*
X13193216Y-14662947D01*
X13212264Y-14672470D01*
X13221788Y-14681994D01*
X13231311Y-14701042D01*
X13231311Y-14748661D01*
X13221788Y-14767708D01*
X13212264Y-14777232D01*
X13193216Y-14786756D01*
X13136073Y-14786756D01*
X13117026Y-14777232D01*
X13107502Y-14767708D01*
X13412264Y-14586756D02*
X13317026Y-14586756D01*
X13307502Y-14681994D01*
X13317026Y-14672470D01*
X13336073Y-14662947D01*
X13383692Y-14662947D01*
X13402740Y-14672470D01*
X13412264Y-14681994D01*
X13421788Y-14701042D01*
X13421788Y-14748661D01*
X13412264Y-14767708D01*
X13402740Y-14777232D01*
X13383692Y-14786756D01*
X13336073Y-14786756D01*
X13317026Y-14777232D01*
X13307502Y-14767708D01*
X13507502Y-14786756D02*
X13507502Y-14653423D01*
X13507502Y-14672470D02*
X13517026Y-14662947D01*
X13536073Y-14653423D01*
X13564645Y-14653423D01*
X13583692Y-14662947D01*
X13593216Y-14681994D01*
X13593216Y-14786756D01*
X13593216Y-14681994D02*
X13602740Y-14662947D01*
X13621788Y-14653423D01*
X13650359Y-14653423D01*
X13669407Y-14662947D01*
X13678930Y-14681994D01*
X13678930Y-14786756D01*
X13774168Y-14786756D02*
X13774168Y-14653423D01*
X13774168Y-14672470D02*
X13783692Y-14662947D01*
X13802740Y-14653423D01*
X13831311Y-14653423D01*
X13850359Y-14662947D01*
X13859883Y-14681994D01*
X13859883Y-14786756D01*
X13859883Y-14681994D02*
X13869407Y-14662947D01*
X13888454Y-14653423D01*
X13917026Y-14653423D01*
X13936073Y-14662947D01*
X13945597Y-14681994D01*
X13945597Y-14786756D01*
X14336073Y-14577232D02*
X14164645Y-14834375D01*
X14593216Y-14586756D02*
X14612264Y-14586756D01*
X14631311Y-14596280D01*
X14640835Y-14605804D01*
X14650359Y-14624851D01*
X14659883Y-14662947D01*
X14659883Y-14710566D01*
X14650359Y-14748661D01*
X14640835Y-14767708D01*
X14631311Y-14777232D01*
X14612264Y-14786756D01*
X14593216Y-14786756D01*
X14574168Y-14777232D01*
X14564645Y-14767708D01*
X14555121Y-14748661D01*
X14545597Y-14710566D01*
X14545597Y-14662947D01*
X14555121Y-14624851D01*
X14564645Y-14605804D01*
X14574168Y-14596280D01*
X14593216Y-14586756D01*
X14745597Y-14767708D02*
X14755121Y-14777232D01*
X14745597Y-14786756D01*
X14736073Y-14777232D01*
X14745597Y-14767708D01*
X14745597Y-14786756D01*
X14878930Y-14586756D02*
X14897978Y-14586756D01*
X14917026Y-14596280D01*
X14926549Y-14605804D01*
X14936073Y-14624851D01*
X14945597Y-14662947D01*
X14945597Y-14710566D01*
X14936073Y-14748661D01*
X14926549Y-14767708D01*
X14917026Y-14777232D01*
X14897978Y-14786756D01*
X14878930Y-14786756D01*
X14859883Y-14777232D01*
X14850359Y-14767708D01*
X14840835Y-14748661D01*
X14831311Y-14710566D01*
X14831311Y-14662947D01*
X14840835Y-14624851D01*
X14850359Y-14605804D01*
X14859883Y-14596280D01*
X14878930Y-14586756D01*
X15021788Y-14605804D02*
X15031311Y-14596280D01*
X15050359Y-14586756D01*
X15097978Y-14586756D01*
X15117026Y-14596280D01*
X15126549Y-14605804D01*
X15136073Y-14624851D01*
X15136073Y-14643899D01*
X15126549Y-14672470D01*
X15012264Y-14786756D01*
X15136073Y-14786756D01*
X15317026Y-14586756D02*
X15221788Y-14586756D01*
X15212264Y-14681994D01*
X15221788Y-14672470D01*
X15240835Y-14662947D01*
X15288454Y-14662947D01*
X15307502Y-14672470D01*
X15317026Y-14681994D01*
X15326549Y-14701042D01*
X15326549Y-14748661D01*
X15317026Y-14767708D01*
X15307502Y-14777232D01*
X15288454Y-14786756D01*
X15240835Y-14786756D01*
X15221788Y-14777232D01*
X15212264Y-14767708D01*
X15450359Y-14586756D02*
X15469407Y-14586756D01*
X15488454Y-14596280D01*
X15497978Y-14605804D01*
X15507502Y-14624851D01*
X15517026Y-14662947D01*
X15517026Y-14710566D01*
X15507502Y-14748661D01*
X15497978Y-14767708D01*
X15488454Y-14777232D01*
X15469407Y-14786756D01*
X15450359Y-14786756D01*
X15431311Y-14777232D01*
X15421788Y-14767708D01*
X15412264Y-14748661D01*
X15402740Y-14710566D01*
X15402740Y-14662947D01*
X15412264Y-14624851D01*
X15421788Y-14605804D01*
X15431311Y-14596280D01*
X15450359Y-14586756D01*
X15593216Y-14586756D02*
X15593216Y-14624851D01*
X15669407Y-14586756D02*
X15669407Y-14624851D01*
X15964645Y-14862947D02*
X15955121Y-14853423D01*
X15936073Y-14824851D01*
X15926549Y-14805804D01*
X15917026Y-14777232D01*
X15907502Y-14729613D01*
X15907502Y-14691518D01*
X15917026Y-14643899D01*
X15926549Y-14615328D01*
X15936073Y-14596280D01*
X15955121Y-14567708D01*
X15964645Y-14558185D01*
X16031311Y-14605804D02*
X16040835Y-14596280D01*
X16059883Y-14586756D01*
X16107502Y-14586756D01*
X16126549Y-14596280D01*
X16136073Y-14605804D01*
X16145597Y-14624851D01*
X16145597Y-14643899D01*
X16136073Y-14672470D01*
X16021788Y-14786756D01*
X16145597Y-14786756D01*
X16383692Y-14786756D02*
X16383692Y-14586756D01*
X16469407Y-14786756D02*
X16469407Y-14681994D01*
X16459883Y-14662947D01*
X16440835Y-14653423D01*
X16412264Y-14653423D01*
X16393216Y-14662947D01*
X16383692Y-14672470D01*
X16593216Y-14786756D02*
X16574168Y-14777232D01*
X16564645Y-14767708D01*
X16555121Y-14748661D01*
X16555121Y-14691518D01*
X16564645Y-14672470D01*
X16574168Y-14662947D01*
X16593216Y-14653423D01*
X16621788Y-14653423D01*
X16640835Y-14662947D01*
X16650359Y-14672470D01*
X16659883Y-14691518D01*
X16659883Y-14748661D01*
X16650359Y-14767708D01*
X16640835Y-14777232D01*
X16621788Y-14786756D01*
X16593216Y-14786756D01*
X16774168Y-14786756D02*
X16755121Y-14777232D01*
X16745597Y-14758185D01*
X16745597Y-14586756D01*
X16926550Y-14777232D02*
X16907502Y-14786756D01*
X16869407Y-14786756D01*
X16850359Y-14777232D01*
X16840835Y-14758185D01*
X16840835Y-14681994D01*
X16850359Y-14662947D01*
X16869407Y-14653423D01*
X16907502Y-14653423D01*
X16926550Y-14662947D01*
X16936073Y-14681994D01*
X16936073Y-14701042D01*
X16840835Y-14720089D01*
X17012264Y-14777232D02*
X17031311Y-14786756D01*
X17069407Y-14786756D01*
X17088454Y-14777232D01*
X17097978Y-14758185D01*
X17097978Y-14748661D01*
X17088454Y-14729613D01*
X17069407Y-14720089D01*
X17040835Y-14720089D01*
X17021788Y-14710566D01*
X17012264Y-14691518D01*
X17012264Y-14681994D01*
X17021788Y-14662947D01*
X17040835Y-14653423D01*
X17069407Y-14653423D01*
X17088454Y-14662947D01*
X17164645Y-14862947D02*
X17174169Y-14853423D01*
X17193216Y-14824851D01*
X17202740Y-14805804D01*
X17212264Y-14777232D01*
X17221788Y-14729613D01*
X17221788Y-14691518D01*
X17212264Y-14643899D01*
X17202740Y-14615328D01*
X17193216Y-14596280D01*
X17174169Y-14567708D01*
X17164645Y-14558185D01*
D13*
X12392740Y-14960280D02*
G75*
G03*
X12392740Y-14960280I-40000J0D01*
G01*
D11*
X12688454Y-14850756D02*
X12707502Y-14850756D01*
X12726549Y-14860280D01*
X12736073Y-14869804D01*
X12745597Y-14888851D01*
X12755121Y-14926947D01*
X12755121Y-14974566D01*
X12745597Y-15012661D01*
X12736073Y-15031708D01*
X12726549Y-15041232D01*
X12707502Y-15050756D01*
X12688454Y-15050756D01*
X12669407Y-15041232D01*
X12659883Y-15031708D01*
X12650359Y-15012661D01*
X12640835Y-14974566D01*
X12640835Y-14926947D01*
X12650359Y-14888851D01*
X12659883Y-14869804D01*
X12669407Y-14860280D01*
X12688454Y-14850756D01*
X12840835Y-15031708D02*
X12850359Y-15041232D01*
X12840835Y-15050756D01*
X12831311Y-15041232D01*
X12840835Y-15031708D01*
X12840835Y-15050756D01*
X12964645Y-14936470D02*
X12945597Y-14926947D01*
X12936073Y-14917423D01*
X12926549Y-14898375D01*
X12926549Y-14888851D01*
X12936073Y-14869804D01*
X12945597Y-14860280D01*
X12964645Y-14850756D01*
X13002740Y-14850756D01*
X13021788Y-14860280D01*
X13031311Y-14869804D01*
X13040835Y-14888851D01*
X13040835Y-14898375D01*
X13031311Y-14917423D01*
X13021788Y-14926947D01*
X13002740Y-14936470D01*
X12964645Y-14936470D01*
X12945597Y-14945994D01*
X12936073Y-14955518D01*
X12926549Y-14974566D01*
X12926549Y-15012661D01*
X12936073Y-15031708D01*
X12945597Y-15041232D01*
X12964645Y-15050756D01*
X13002740Y-15050756D01*
X13021788Y-15041232D01*
X13031311Y-15031708D01*
X13040835Y-15012661D01*
X13040835Y-14974566D01*
X13031311Y-14955518D01*
X13021788Y-14945994D01*
X13002740Y-14936470D01*
X13164645Y-14850756D02*
X13183692Y-14850756D01*
X13202740Y-14860280D01*
X13212264Y-14869804D01*
X13221788Y-14888851D01*
X13231311Y-14926947D01*
X13231311Y-14974566D01*
X13221788Y-15012661D01*
X13212264Y-15031708D01*
X13202740Y-15041232D01*
X13183692Y-15050756D01*
X13164645Y-15050756D01*
X13145597Y-15041232D01*
X13136073Y-15031708D01*
X13126549Y-15012661D01*
X13117026Y-14974566D01*
X13117026Y-14926947D01*
X13126549Y-14888851D01*
X13136073Y-14869804D01*
X13145597Y-14860280D01*
X13164645Y-14850756D01*
X13355121Y-14850756D02*
X13374168Y-14850756D01*
X13393216Y-14860280D01*
X13402740Y-14869804D01*
X13412264Y-14888851D01*
X13421788Y-14926947D01*
X13421788Y-14974566D01*
X13412264Y-15012661D01*
X13402740Y-15031708D01*
X13393216Y-15041232D01*
X13374168Y-15050756D01*
X13355121Y-15050756D01*
X13336073Y-15041232D01*
X13326549Y-15031708D01*
X13317026Y-15012661D01*
X13307502Y-14974566D01*
X13307502Y-14926947D01*
X13317026Y-14888851D01*
X13326549Y-14869804D01*
X13336073Y-14860280D01*
X13355121Y-14850756D01*
X13507502Y-15050756D02*
X13507502Y-14917423D01*
X13507502Y-14936470D02*
X13517026Y-14926947D01*
X13536073Y-14917423D01*
X13564645Y-14917423D01*
X13583692Y-14926947D01*
X13593216Y-14945994D01*
X13593216Y-15050756D01*
X13593216Y-14945994D02*
X13602740Y-14926947D01*
X13621788Y-14917423D01*
X13650359Y-14917423D01*
X13669407Y-14926947D01*
X13678930Y-14945994D01*
X13678930Y-15050756D01*
X13774168Y-15050756D02*
X13774168Y-14917423D01*
X13774168Y-14936470D02*
X13783692Y-14926947D01*
X13802740Y-14917423D01*
X13831311Y-14917423D01*
X13850359Y-14926947D01*
X13859883Y-14945994D01*
X13859883Y-15050756D01*
X13859883Y-14945994D02*
X13869407Y-14926947D01*
X13888454Y-14917423D01*
X13917026Y-14917423D01*
X13936073Y-14926947D01*
X13945597Y-14945994D01*
X13945597Y-15050756D01*
X14336073Y-14841232D02*
X14164645Y-15098375D01*
X14593216Y-14850756D02*
X14612264Y-14850756D01*
X14631311Y-14860280D01*
X14640835Y-14869804D01*
X14650359Y-14888851D01*
X14659883Y-14926947D01*
X14659883Y-14974566D01*
X14650359Y-15012661D01*
X14640835Y-15031708D01*
X14631311Y-15041232D01*
X14612264Y-15050756D01*
X14593216Y-15050756D01*
X14574168Y-15041232D01*
X14564645Y-15031708D01*
X14555121Y-15012661D01*
X14545597Y-14974566D01*
X14545597Y-14926947D01*
X14555121Y-14888851D01*
X14564645Y-14869804D01*
X14574168Y-14860280D01*
X14593216Y-14850756D01*
X14745597Y-15031708D02*
X14755121Y-15041232D01*
X14745597Y-15050756D01*
X14736073Y-15041232D01*
X14745597Y-15031708D01*
X14745597Y-15050756D01*
X14878930Y-14850756D02*
X14897978Y-14850756D01*
X14917026Y-14860280D01*
X14926549Y-14869804D01*
X14936073Y-14888851D01*
X14945597Y-14926947D01*
X14945597Y-14974566D01*
X14936073Y-15012661D01*
X14926549Y-15031708D01*
X14917026Y-15041232D01*
X14897978Y-15050756D01*
X14878930Y-15050756D01*
X14859883Y-15041232D01*
X14850359Y-15031708D01*
X14840835Y-15012661D01*
X14831311Y-14974566D01*
X14831311Y-14926947D01*
X14840835Y-14888851D01*
X14850359Y-14869804D01*
X14859883Y-14860280D01*
X14878930Y-14850756D01*
X15012264Y-14850756D02*
X15136073Y-14850756D01*
X15069407Y-14926947D01*
X15097978Y-14926947D01*
X15117026Y-14936470D01*
X15126549Y-14945994D01*
X15136073Y-14965042D01*
X15136073Y-15012661D01*
X15126549Y-15031708D01*
X15117026Y-15041232D01*
X15097978Y-15050756D01*
X15040835Y-15050756D01*
X15021788Y-15041232D01*
X15012264Y-15031708D01*
X15326549Y-15050756D02*
X15212264Y-15050756D01*
X15269407Y-15050756D02*
X15269407Y-14850756D01*
X15250359Y-14879328D01*
X15231311Y-14898375D01*
X15212264Y-14907899D01*
X15507502Y-14850756D02*
X15412264Y-14850756D01*
X15402740Y-14945994D01*
X15412264Y-14936470D01*
X15431311Y-14926947D01*
X15478930Y-14926947D01*
X15497978Y-14936470D01*
X15507502Y-14945994D01*
X15517026Y-14965042D01*
X15517026Y-15012661D01*
X15507502Y-15031708D01*
X15497978Y-15041232D01*
X15478930Y-15050756D01*
X15431311Y-15050756D01*
X15412264Y-15041232D01*
X15402740Y-15031708D01*
X15593216Y-14850756D02*
X15593216Y-14888851D01*
X15669407Y-14850756D02*
X15669407Y-14888851D01*
X15964645Y-15126947D02*
X15955121Y-15117423D01*
X15936073Y-15088851D01*
X15926549Y-15069804D01*
X15917026Y-15041232D01*
X15907502Y-14993613D01*
X15907502Y-14955518D01*
X15917026Y-14907899D01*
X15926549Y-14879328D01*
X15936073Y-14860280D01*
X15955121Y-14831708D01*
X15964645Y-14822185D01*
X16126549Y-14850756D02*
X16088454Y-14850756D01*
X16069407Y-14860280D01*
X16059883Y-14869804D01*
X16040835Y-14898375D01*
X16031311Y-14936470D01*
X16031311Y-15012661D01*
X16040835Y-15031708D01*
X16050359Y-15041232D01*
X16069407Y-15050756D01*
X16107502Y-15050756D01*
X16126549Y-15041232D01*
X16136073Y-15031708D01*
X16145597Y-15012661D01*
X16145597Y-14965042D01*
X16136073Y-14945994D01*
X16126549Y-14936470D01*
X16107502Y-14926947D01*
X16069407Y-14926947D01*
X16050359Y-14936470D01*
X16040835Y-14945994D01*
X16031311Y-14965042D01*
X16317026Y-14917423D02*
X16317026Y-15050756D01*
X16269407Y-14841232D02*
X16221788Y-14984089D01*
X16345597Y-14984089D01*
X16574168Y-15050756D02*
X16574168Y-14850756D01*
X16659883Y-15050756D02*
X16659883Y-14945994D01*
X16650359Y-14926947D01*
X16631311Y-14917423D01*
X16602740Y-14917423D01*
X16583692Y-14926947D01*
X16574168Y-14936470D01*
X16783692Y-15050756D02*
X16764645Y-15041232D01*
X16755121Y-15031708D01*
X16745597Y-15012661D01*
X16745597Y-14955518D01*
X16755121Y-14936470D01*
X16764645Y-14926947D01*
X16783692Y-14917423D01*
X16812264Y-14917423D01*
X16831311Y-14926947D01*
X16840835Y-14936470D01*
X16850359Y-14955518D01*
X16850359Y-15012661D01*
X16840835Y-15031708D01*
X16831311Y-15041232D01*
X16812264Y-15050756D01*
X16783692Y-15050756D01*
X16964645Y-15050756D02*
X16945597Y-15041232D01*
X16936073Y-15022185D01*
X16936073Y-14850756D01*
X17117026Y-15041232D02*
X17097978Y-15050756D01*
X17059883Y-15050756D01*
X17040835Y-15041232D01*
X17031311Y-15022185D01*
X17031311Y-14945994D01*
X17040835Y-14926947D01*
X17059883Y-14917423D01*
X17097978Y-14917423D01*
X17117026Y-14926947D01*
X17126550Y-14945994D01*
X17126550Y-14965042D01*
X17031311Y-14984089D01*
X17202740Y-15041232D02*
X17221788Y-15050756D01*
X17259883Y-15050756D01*
X17278930Y-15041232D01*
X17288454Y-15022185D01*
X17288454Y-15012661D01*
X17278930Y-14993613D01*
X17259883Y-14984089D01*
X17231311Y-14984089D01*
X17212264Y-14974566D01*
X17202740Y-14955518D01*
X17202740Y-14945994D01*
X17212264Y-14926947D01*
X17231311Y-14917423D01*
X17259883Y-14917423D01*
X17278930Y-14926947D01*
X17355121Y-15126947D02*
X17364645Y-15117423D01*
X17383692Y-15088851D01*
X17393216Y-15069804D01*
X17402740Y-15041232D01*
X17412264Y-14993613D01*
X17412264Y-14955518D01*
X17402740Y-14907899D01*
X17393216Y-14879328D01*
X17383692Y-14860280D01*
X17364645Y-14831708D01*
X17355121Y-14822185D01*
D14*
X12347740Y-15179280D02*
X12347740Y-15269280D01*
X12302740Y-15224280D02*
X12392740Y-15224280D01*
D11*
X12688454Y-15114756D02*
X12707502Y-15114756D01*
X12726549Y-15124280D01*
X12736073Y-15133804D01*
X12745597Y-15152851D01*
X12755121Y-15190947D01*
X12755121Y-15238566D01*
X12745597Y-15276661D01*
X12736073Y-15295708D01*
X12726549Y-15305232D01*
X12707502Y-15314756D01*
X12688454Y-15314756D01*
X12669407Y-15305232D01*
X12659883Y-15295708D01*
X12650359Y-15276661D01*
X12640835Y-15238566D01*
X12640835Y-15190947D01*
X12650359Y-15152851D01*
X12659883Y-15133804D01*
X12669407Y-15124280D01*
X12688454Y-15114756D01*
X12840835Y-15295708D02*
X12850359Y-15305232D01*
X12840835Y-15314756D01*
X12831311Y-15305232D01*
X12840835Y-15295708D01*
X12840835Y-15314756D01*
X12945597Y-15314756D02*
X12983692Y-15314756D01*
X13002740Y-15305232D01*
X13012264Y-15295708D01*
X13031311Y-15267137D01*
X13040835Y-15229042D01*
X13040835Y-15152851D01*
X13031311Y-15133804D01*
X13021788Y-15124280D01*
X13002740Y-15114756D01*
X12964645Y-15114756D01*
X12945597Y-15124280D01*
X12936073Y-15133804D01*
X12926549Y-15152851D01*
X12926549Y-15200470D01*
X12936073Y-15219518D01*
X12945597Y-15229042D01*
X12964645Y-15238566D01*
X13002740Y-15238566D01*
X13021788Y-15229042D01*
X13031311Y-15219518D01*
X13040835Y-15200470D01*
X13164645Y-15114756D02*
X13183692Y-15114756D01*
X13202740Y-15124280D01*
X13212264Y-15133804D01*
X13221788Y-15152851D01*
X13231311Y-15190947D01*
X13231311Y-15238566D01*
X13221788Y-15276661D01*
X13212264Y-15295708D01*
X13202740Y-15305232D01*
X13183692Y-15314756D01*
X13164645Y-15314756D01*
X13145597Y-15305232D01*
X13136073Y-15295708D01*
X13126549Y-15276661D01*
X13117026Y-15238566D01*
X13117026Y-15190947D01*
X13126549Y-15152851D01*
X13136073Y-15133804D01*
X13145597Y-15124280D01*
X13164645Y-15114756D01*
X13355121Y-15114756D02*
X13374168Y-15114756D01*
X13393216Y-15124280D01*
X13402740Y-15133804D01*
X13412264Y-15152851D01*
X13421788Y-15190947D01*
X13421788Y-15238566D01*
X13412264Y-15276661D01*
X13402740Y-15295708D01*
X13393216Y-15305232D01*
X13374168Y-15314756D01*
X13355121Y-15314756D01*
X13336073Y-15305232D01*
X13326549Y-15295708D01*
X13317026Y-15276661D01*
X13307502Y-15238566D01*
X13307502Y-15190947D01*
X13317026Y-15152851D01*
X13326549Y-15133804D01*
X13336073Y-15124280D01*
X13355121Y-15114756D01*
X13507502Y-15314756D02*
X13507502Y-15181423D01*
X13507502Y-15200470D02*
X13517026Y-15190947D01*
X13536073Y-15181423D01*
X13564645Y-15181423D01*
X13583692Y-15190947D01*
X13593216Y-15209994D01*
X13593216Y-15314756D01*
X13593216Y-15209994D02*
X13602740Y-15190947D01*
X13621788Y-15181423D01*
X13650359Y-15181423D01*
X13669407Y-15190947D01*
X13678930Y-15209994D01*
X13678930Y-15314756D01*
X13774168Y-15314756D02*
X13774168Y-15181423D01*
X13774168Y-15200470D02*
X13783692Y-15190947D01*
X13802740Y-15181423D01*
X13831311Y-15181423D01*
X13850359Y-15190947D01*
X13859883Y-15209994D01*
X13859883Y-15314756D01*
X13859883Y-15209994D02*
X13869407Y-15190947D01*
X13888454Y-15181423D01*
X13917026Y-15181423D01*
X13936073Y-15190947D01*
X13945597Y-15209994D01*
X13945597Y-15314756D01*
X14336073Y-15105232D02*
X14164645Y-15362375D01*
X14593216Y-15114756D02*
X14612264Y-15114756D01*
X14631311Y-15124280D01*
X14640835Y-15133804D01*
X14650359Y-15152851D01*
X14659883Y-15190947D01*
X14659883Y-15238566D01*
X14650359Y-15276661D01*
X14640835Y-15295708D01*
X14631311Y-15305232D01*
X14612264Y-15314756D01*
X14593216Y-15314756D01*
X14574168Y-15305232D01*
X14564645Y-15295708D01*
X14555121Y-15276661D01*
X14545597Y-15238566D01*
X14545597Y-15190947D01*
X14555121Y-15152851D01*
X14564645Y-15133804D01*
X14574168Y-15124280D01*
X14593216Y-15114756D01*
X14745597Y-15295708D02*
X14755121Y-15305232D01*
X14745597Y-15314756D01*
X14736073Y-15305232D01*
X14745597Y-15295708D01*
X14745597Y-15314756D01*
X14878930Y-15114756D02*
X14897978Y-15114756D01*
X14917026Y-15124280D01*
X14926549Y-15133804D01*
X14936073Y-15152851D01*
X14945597Y-15190947D01*
X14945597Y-15238566D01*
X14936073Y-15276661D01*
X14926549Y-15295708D01*
X14917026Y-15305232D01*
X14897978Y-15314756D01*
X14878930Y-15314756D01*
X14859883Y-15305232D01*
X14850359Y-15295708D01*
X14840835Y-15276661D01*
X14831311Y-15238566D01*
X14831311Y-15190947D01*
X14840835Y-15152851D01*
X14850359Y-15133804D01*
X14859883Y-15124280D01*
X14878930Y-15114756D01*
X15012264Y-15114756D02*
X15136073Y-15114756D01*
X15069407Y-15190947D01*
X15097978Y-15190947D01*
X15117026Y-15200470D01*
X15126549Y-15209994D01*
X15136073Y-15229042D01*
X15136073Y-15276661D01*
X15126549Y-15295708D01*
X15117026Y-15305232D01*
X15097978Y-15314756D01*
X15040835Y-15314756D01*
X15021788Y-15305232D01*
X15012264Y-15295708D01*
X15317026Y-15114756D02*
X15221788Y-15114756D01*
X15212264Y-15209994D01*
X15221788Y-15200470D01*
X15240835Y-15190947D01*
X15288454Y-15190947D01*
X15307502Y-15200470D01*
X15317026Y-15209994D01*
X15326549Y-15229042D01*
X15326549Y-15276661D01*
X15317026Y-15295708D01*
X15307502Y-15305232D01*
X15288454Y-15314756D01*
X15240835Y-15314756D01*
X15221788Y-15305232D01*
X15212264Y-15295708D01*
X15497978Y-15181423D02*
X15497978Y-15314756D01*
X15450359Y-15105232D02*
X15402740Y-15248089D01*
X15526549Y-15248089D01*
X15593216Y-15114756D02*
X15593216Y-15152851D01*
X15669407Y-15114756D02*
X15669407Y-15152851D01*
X15964645Y-15390947D02*
X15955121Y-15381423D01*
X15936073Y-15352851D01*
X15926549Y-15333804D01*
X15917026Y-15305232D01*
X15907502Y-15257613D01*
X15907502Y-15219518D01*
X15917026Y-15171899D01*
X15926549Y-15143328D01*
X15936073Y-15124280D01*
X15955121Y-15095708D01*
X15964645Y-15086185D01*
X16145597Y-15314756D02*
X16031311Y-15314756D01*
X16088454Y-15314756D02*
X16088454Y-15114756D01*
X16069407Y-15143328D01*
X16050359Y-15162375D01*
X16031311Y-15171899D01*
X16212264Y-15114756D02*
X16336073Y-15114756D01*
X16269407Y-15190947D01*
X16297978Y-15190947D01*
X16317026Y-15200470D01*
X16326549Y-15209994D01*
X16336073Y-15229042D01*
X16336073Y-15276661D01*
X16326549Y-15295708D01*
X16317026Y-15305232D01*
X16297978Y-15314756D01*
X16240835Y-15314756D01*
X16221788Y-15305232D01*
X16212264Y-15295708D01*
X16574168Y-15314756D02*
X16574168Y-15114756D01*
X16659883Y-15314756D02*
X16659883Y-15209994D01*
X16650359Y-15190947D01*
X16631311Y-15181423D01*
X16602740Y-15181423D01*
X16583692Y-15190947D01*
X16574168Y-15200470D01*
X16783692Y-15314756D02*
X16764645Y-15305232D01*
X16755121Y-15295708D01*
X16745597Y-15276661D01*
X16745597Y-15219518D01*
X16755121Y-15200470D01*
X16764645Y-15190947D01*
X16783692Y-15181423D01*
X16812264Y-15181423D01*
X16831311Y-15190947D01*
X16840835Y-15200470D01*
X16850359Y-15219518D01*
X16850359Y-15276661D01*
X16840835Y-15295708D01*
X16831311Y-15305232D01*
X16812264Y-15314756D01*
X16783692Y-15314756D01*
X16964645Y-15314756D02*
X16945597Y-15305232D01*
X16936073Y-15286185D01*
X16936073Y-15114756D01*
X17117026Y-15305232D02*
X17097978Y-15314756D01*
X17059883Y-15314756D01*
X17040835Y-15305232D01*
X17031311Y-15286185D01*
X17031311Y-15209994D01*
X17040835Y-15190947D01*
X17059883Y-15181423D01*
X17097978Y-15181423D01*
X17117026Y-15190947D01*
X17126550Y-15209994D01*
X17126550Y-15229042D01*
X17031311Y-15248089D01*
X17202740Y-15305232D02*
X17221788Y-15314756D01*
X17259883Y-15314756D01*
X17278930Y-15305232D01*
X17288454Y-15286185D01*
X17288454Y-15276661D01*
X17278930Y-15257613D01*
X17259883Y-15248089D01*
X17231311Y-15248089D01*
X17212264Y-15238566D01*
X17202740Y-15219518D01*
X17202740Y-15209994D01*
X17212264Y-15190947D01*
X17231311Y-15181423D01*
X17259883Y-15181423D01*
X17278930Y-15190947D01*
X17355121Y-15390947D02*
X17364645Y-15381423D01*
X17383692Y-15352851D01*
X17393216Y-15333804D01*
X17402740Y-15305232D01*
X17412264Y-15257613D01*
X17412264Y-15219518D01*
X17402740Y-15171899D01*
X17393216Y-15143328D01*
X17383692Y-15124280D01*
X17364645Y-15095708D01*
X17355121Y-15086185D01*
D10*
X12378096Y-15523636D02*
X12378096Y-15452924D01*
X12307384Y-15452924D01*
X12307384Y-15523636D01*
X12378096Y-15523636D01*
D11*
X12755121Y-15578756D02*
X12640835Y-15578756D01*
X12697978Y-15578756D02*
X12697978Y-15378756D01*
X12678930Y-15407328D01*
X12659883Y-15426375D01*
X12640835Y-15435899D01*
X12840835Y-15559708D02*
X12850359Y-15569232D01*
X12840835Y-15578756D01*
X12831311Y-15569232D01*
X12840835Y-15559708D01*
X12840835Y-15578756D01*
X12974168Y-15378756D02*
X12993216Y-15378756D01*
X13012264Y-15388280D01*
X13021788Y-15397804D01*
X13031311Y-15416851D01*
X13040835Y-15454947D01*
X13040835Y-15502566D01*
X13031311Y-15540661D01*
X13021788Y-15559708D01*
X13012264Y-15569232D01*
X12993216Y-15578756D01*
X12974168Y-15578756D01*
X12955121Y-15569232D01*
X12945597Y-15559708D01*
X12936073Y-15540661D01*
X12926549Y-15502566D01*
X12926549Y-15454947D01*
X12936073Y-15416851D01*
X12945597Y-15397804D01*
X12955121Y-15388280D01*
X12974168Y-15378756D01*
X13164645Y-15378756D02*
X13183692Y-15378756D01*
X13202740Y-15388280D01*
X13212264Y-15397804D01*
X13221788Y-15416851D01*
X13231311Y-15454947D01*
X13231311Y-15502566D01*
X13221788Y-15540661D01*
X13212264Y-15559708D01*
X13202740Y-15569232D01*
X13183692Y-15578756D01*
X13164645Y-15578756D01*
X13145597Y-15569232D01*
X13136073Y-15559708D01*
X13126549Y-15540661D01*
X13117026Y-15502566D01*
X13117026Y-15454947D01*
X13126549Y-15416851D01*
X13136073Y-15397804D01*
X13145597Y-15388280D01*
X13164645Y-15378756D01*
X13355121Y-15378756D02*
X13374168Y-15378756D01*
X13393216Y-15388280D01*
X13402740Y-15397804D01*
X13412264Y-15416851D01*
X13421788Y-15454947D01*
X13421788Y-15502566D01*
X13412264Y-15540661D01*
X13402740Y-15559708D01*
X13393216Y-15569232D01*
X13374168Y-15578756D01*
X13355121Y-15578756D01*
X13336073Y-15569232D01*
X13326549Y-15559708D01*
X13317026Y-15540661D01*
X13307502Y-15502566D01*
X13307502Y-15454947D01*
X13317026Y-15416851D01*
X13326549Y-15397804D01*
X13336073Y-15388280D01*
X13355121Y-15378756D01*
X13507502Y-15578756D02*
X13507502Y-15445423D01*
X13507502Y-15464470D02*
X13517026Y-15454947D01*
X13536073Y-15445423D01*
X13564645Y-15445423D01*
X13583692Y-15454947D01*
X13593216Y-15473994D01*
X13593216Y-15578756D01*
X13593216Y-15473994D02*
X13602740Y-15454947D01*
X13621788Y-15445423D01*
X13650359Y-15445423D01*
X13669407Y-15454947D01*
X13678930Y-15473994D01*
X13678930Y-15578756D01*
X13774168Y-15578756D02*
X13774168Y-15445423D01*
X13774168Y-15464470D02*
X13783692Y-15454947D01*
X13802740Y-15445423D01*
X13831311Y-15445423D01*
X13850359Y-15454947D01*
X13859883Y-15473994D01*
X13859883Y-15578756D01*
X13859883Y-15473994D02*
X13869407Y-15454947D01*
X13888454Y-15445423D01*
X13917026Y-15445423D01*
X13936073Y-15454947D01*
X13945597Y-15473994D01*
X13945597Y-15578756D01*
X14336073Y-15369232D02*
X14164645Y-15626375D01*
X14593216Y-15378756D02*
X14612264Y-15378756D01*
X14631311Y-15388280D01*
X14640835Y-15397804D01*
X14650359Y-15416851D01*
X14659883Y-15454947D01*
X14659883Y-15502566D01*
X14650359Y-15540661D01*
X14640835Y-15559708D01*
X14631311Y-15569232D01*
X14612264Y-15578756D01*
X14593216Y-15578756D01*
X14574168Y-15569232D01*
X14564645Y-15559708D01*
X14555121Y-15540661D01*
X14545597Y-15502566D01*
X14545597Y-15454947D01*
X14555121Y-15416851D01*
X14564645Y-15397804D01*
X14574168Y-15388280D01*
X14593216Y-15378756D01*
X14745597Y-15559708D02*
X14755121Y-15569232D01*
X14745597Y-15578756D01*
X14736073Y-15569232D01*
X14745597Y-15559708D01*
X14745597Y-15578756D01*
X14878930Y-15378756D02*
X14897978Y-15378756D01*
X14917026Y-15388280D01*
X14926549Y-15397804D01*
X14936073Y-15416851D01*
X14945597Y-15454947D01*
X14945597Y-15502566D01*
X14936073Y-15540661D01*
X14926549Y-15559708D01*
X14917026Y-15569232D01*
X14897978Y-15578756D01*
X14878930Y-15578756D01*
X14859883Y-15569232D01*
X14850359Y-15559708D01*
X14840835Y-15540661D01*
X14831311Y-15502566D01*
X14831311Y-15454947D01*
X14840835Y-15416851D01*
X14850359Y-15397804D01*
X14859883Y-15388280D01*
X14878930Y-15378756D01*
X15012264Y-15378756D02*
X15136073Y-15378756D01*
X15069407Y-15454947D01*
X15097978Y-15454947D01*
X15117026Y-15464470D01*
X15126549Y-15473994D01*
X15136073Y-15493042D01*
X15136073Y-15540661D01*
X15126549Y-15559708D01*
X15117026Y-15569232D01*
X15097978Y-15578756D01*
X15040835Y-15578756D01*
X15021788Y-15569232D01*
X15012264Y-15559708D01*
X15231311Y-15578756D02*
X15269407Y-15578756D01*
X15288454Y-15569232D01*
X15297978Y-15559708D01*
X15317026Y-15531137D01*
X15326549Y-15493042D01*
X15326549Y-15416851D01*
X15317026Y-15397804D01*
X15307502Y-15388280D01*
X15288454Y-15378756D01*
X15250359Y-15378756D01*
X15231311Y-15388280D01*
X15221788Y-15397804D01*
X15212264Y-15416851D01*
X15212264Y-15464470D01*
X15221788Y-15483518D01*
X15231311Y-15493042D01*
X15250359Y-15502566D01*
X15288454Y-15502566D01*
X15307502Y-15493042D01*
X15317026Y-15483518D01*
X15326549Y-15464470D01*
X15497978Y-15445423D02*
X15497978Y-15578756D01*
X15450359Y-15369232D02*
X15402740Y-15512089D01*
X15526549Y-15512089D01*
X15593216Y-15378756D02*
X15593216Y-15416851D01*
X15669407Y-15378756D02*
X15669407Y-15416851D01*
X15964645Y-15654947D02*
X15955121Y-15645423D01*
X15936073Y-15616851D01*
X15926549Y-15597804D01*
X15917026Y-15569232D01*
X15907502Y-15521613D01*
X15907502Y-15483518D01*
X15917026Y-15435899D01*
X15926549Y-15407328D01*
X15936073Y-15388280D01*
X15955121Y-15359708D01*
X15964645Y-15350185D01*
X16126549Y-15445423D02*
X16126549Y-15578756D01*
X16078930Y-15369232D02*
X16031311Y-15512089D01*
X16155121Y-15512089D01*
X16221788Y-15397804D02*
X16231311Y-15388280D01*
X16250359Y-15378756D01*
X16297978Y-15378756D01*
X16317026Y-15388280D01*
X16326549Y-15397804D01*
X16336073Y-15416851D01*
X16336073Y-15435899D01*
X16326549Y-15464470D01*
X16212264Y-15578756D01*
X16336073Y-15578756D01*
X16574168Y-15578756D02*
X16574168Y-15378756D01*
X16659883Y-15578756D02*
X16659883Y-15473994D01*
X16650359Y-15454947D01*
X16631311Y-15445423D01*
X16602740Y-15445423D01*
X16583692Y-15454947D01*
X16574168Y-15464470D01*
X16783692Y-15578756D02*
X16764645Y-15569232D01*
X16755121Y-15559708D01*
X16745597Y-15540661D01*
X16745597Y-15483518D01*
X16755121Y-15464470D01*
X16764645Y-15454947D01*
X16783692Y-15445423D01*
X16812264Y-15445423D01*
X16831311Y-15454947D01*
X16840835Y-15464470D01*
X16850359Y-15483518D01*
X16850359Y-15540661D01*
X16840835Y-15559708D01*
X16831311Y-15569232D01*
X16812264Y-15578756D01*
X16783692Y-15578756D01*
X16964645Y-15578756D02*
X16945597Y-15569232D01*
X16936073Y-15550185D01*
X16936073Y-15378756D01*
X17117026Y-15569232D02*
X17097978Y-15578756D01*
X17059883Y-15578756D01*
X17040835Y-15569232D01*
X17031311Y-15550185D01*
X17031311Y-15473994D01*
X17040835Y-15454947D01*
X17059883Y-15445423D01*
X17097978Y-15445423D01*
X17117026Y-15454947D01*
X17126550Y-15473994D01*
X17126550Y-15493042D01*
X17031311Y-15512089D01*
X17202740Y-15569232D02*
X17221788Y-15578756D01*
X17259883Y-15578756D01*
X17278930Y-15569232D01*
X17288454Y-15550185D01*
X17288454Y-15540661D01*
X17278930Y-15521613D01*
X17259883Y-15512089D01*
X17231311Y-15512089D01*
X17212264Y-15502566D01*
X17202740Y-15483518D01*
X17202740Y-15473994D01*
X17212264Y-15454947D01*
X17231311Y-15445423D01*
X17259883Y-15445423D01*
X17278930Y-15454947D01*
X17526550Y-15502566D02*
X17678930Y-15502566D01*
X17602740Y-15578756D02*
X17602740Y-15426375D01*
X17907502Y-15378756D02*
X18031311Y-15378756D01*
X17964645Y-15454947D01*
X17993216Y-15454947D01*
X18012264Y-15464470D01*
X18021788Y-15473994D01*
X18031311Y-15493042D01*
X18031311Y-15540661D01*
X18021788Y-15559708D01*
X18012264Y-15569232D01*
X17993216Y-15578756D01*
X17936073Y-15578756D01*
X17917026Y-15569232D01*
X17907502Y-15559708D01*
X18259883Y-15569232D02*
X18278930Y-15578756D01*
X18317026Y-15578756D01*
X18336073Y-15569232D01*
X18345597Y-15550185D01*
X18345597Y-15540661D01*
X18336073Y-15521613D01*
X18317026Y-15512089D01*
X18288454Y-15512089D01*
X18269407Y-15502566D01*
X18259883Y-15483518D01*
X18259883Y-15473994D01*
X18269407Y-15454947D01*
X18288454Y-15445423D01*
X18317026Y-15445423D01*
X18336073Y-15454947D01*
X18459883Y-15578756D02*
X18440835Y-15569232D01*
X18431311Y-15550185D01*
X18431311Y-15378756D01*
X18564645Y-15578756D02*
X18545597Y-15569232D01*
X18536073Y-15559708D01*
X18526550Y-15540661D01*
X18526550Y-15483518D01*
X18536073Y-15464470D01*
X18545597Y-15454947D01*
X18564645Y-15445423D01*
X18593216Y-15445423D01*
X18612264Y-15454947D01*
X18621788Y-15464470D01*
X18631311Y-15483518D01*
X18631311Y-15540661D01*
X18621788Y-15559708D01*
X18612264Y-15569232D01*
X18593216Y-15578756D01*
X18564645Y-15578756D01*
X18688454Y-15445423D02*
X18764645Y-15445423D01*
X18717026Y-15378756D02*
X18717026Y-15550185D01*
X18726550Y-15569232D01*
X18745597Y-15578756D01*
X18764645Y-15578756D01*
X18821788Y-15569232D02*
X18840835Y-15578756D01*
X18878930Y-15578756D01*
X18897978Y-15569232D01*
X18907502Y-15550185D01*
X18907502Y-15540661D01*
X18897978Y-15521613D01*
X18878930Y-15512089D01*
X18850359Y-15512089D01*
X18831311Y-15502566D01*
X18821788Y-15483518D01*
X18821788Y-15473994D01*
X18831311Y-15454947D01*
X18850359Y-15445423D01*
X18878930Y-15445423D01*
X18897978Y-15454947D01*
X18974169Y-15654947D02*
X18983692Y-15645423D01*
X19002740Y-15616851D01*
X19012264Y-15597804D01*
X19021788Y-15569232D01*
X19031311Y-15521613D01*
X19031311Y-15483518D01*
X19021788Y-15435899D01*
X19012264Y-15407328D01*
X19002740Y-15388280D01*
X18983692Y-15359708D01*
X18974169Y-15350185D01*
D15*
X12341740Y-15803280D02*
X12392740Y-15752280D01*
X12341740Y-15701280D01*
X12290740Y-15752280D01*
X12341740Y-15803280D01*
D11*
X12755121Y-15842756D02*
X12640835Y-15842756D01*
X12697978Y-15842756D02*
X12697978Y-15642756D01*
X12678930Y-15671328D01*
X12659883Y-15690375D01*
X12640835Y-15699899D01*
X12840835Y-15823708D02*
X12850359Y-15833232D01*
X12840835Y-15842756D01*
X12831311Y-15833232D01*
X12840835Y-15823708D01*
X12840835Y-15842756D01*
X12974168Y-15642756D02*
X12993216Y-15642756D01*
X13012264Y-15652280D01*
X13021788Y-15661804D01*
X13031311Y-15680851D01*
X13040835Y-15718947D01*
X13040835Y-15766566D01*
X13031311Y-15804661D01*
X13021788Y-15823708D01*
X13012264Y-15833232D01*
X12993216Y-15842756D01*
X12974168Y-15842756D01*
X12955121Y-15833232D01*
X12945597Y-15823708D01*
X12936073Y-15804661D01*
X12926549Y-15766566D01*
X12926549Y-15718947D01*
X12936073Y-15680851D01*
X12945597Y-15661804D01*
X12955121Y-15652280D01*
X12974168Y-15642756D01*
X13117026Y-15661804D02*
X13126549Y-15652280D01*
X13145597Y-15642756D01*
X13193216Y-15642756D01*
X13212264Y-15652280D01*
X13221788Y-15661804D01*
X13231311Y-15680851D01*
X13231311Y-15699899D01*
X13221788Y-15728470D01*
X13107502Y-15842756D01*
X13231311Y-15842756D01*
X13355121Y-15642756D02*
X13374168Y-15642756D01*
X13393216Y-15652280D01*
X13402740Y-15661804D01*
X13412264Y-15680851D01*
X13421788Y-15718947D01*
X13421788Y-15766566D01*
X13412264Y-15804661D01*
X13402740Y-15823708D01*
X13393216Y-15833232D01*
X13374168Y-15842756D01*
X13355121Y-15842756D01*
X13336073Y-15833232D01*
X13326549Y-15823708D01*
X13317026Y-15804661D01*
X13307502Y-15766566D01*
X13307502Y-15718947D01*
X13317026Y-15680851D01*
X13326549Y-15661804D01*
X13336073Y-15652280D01*
X13355121Y-15642756D01*
X13507502Y-15842756D02*
X13507502Y-15709423D01*
X13507502Y-15728470D02*
X13517026Y-15718947D01*
X13536073Y-15709423D01*
X13564645Y-15709423D01*
X13583692Y-15718947D01*
X13593216Y-15737994D01*
X13593216Y-15842756D01*
X13593216Y-15737994D02*
X13602740Y-15718947D01*
X13621788Y-15709423D01*
X13650359Y-15709423D01*
X13669407Y-15718947D01*
X13678930Y-15737994D01*
X13678930Y-15842756D01*
X13774168Y-15842756D02*
X13774168Y-15709423D01*
X13774168Y-15728470D02*
X13783692Y-15718947D01*
X13802740Y-15709423D01*
X13831311Y-15709423D01*
X13850359Y-15718947D01*
X13859883Y-15737994D01*
X13859883Y-15842756D01*
X13859883Y-15737994D02*
X13869407Y-15718947D01*
X13888454Y-15709423D01*
X13917026Y-15709423D01*
X13936073Y-15718947D01*
X13945597Y-15737994D01*
X13945597Y-15842756D01*
X14336073Y-15633232D02*
X14164645Y-15890375D01*
X14593216Y-15642756D02*
X14612264Y-15642756D01*
X14631311Y-15652280D01*
X14640835Y-15661804D01*
X14650359Y-15680851D01*
X14659883Y-15718947D01*
X14659883Y-15766566D01*
X14650359Y-15804661D01*
X14640835Y-15823708D01*
X14631311Y-15833232D01*
X14612264Y-15842756D01*
X14593216Y-15842756D01*
X14574168Y-15833232D01*
X14564645Y-15823708D01*
X14555121Y-15804661D01*
X14545597Y-15766566D01*
X14545597Y-15718947D01*
X14555121Y-15680851D01*
X14564645Y-15661804D01*
X14574168Y-15652280D01*
X14593216Y-15642756D01*
X14745597Y-15823708D02*
X14755121Y-15833232D01*
X14745597Y-15842756D01*
X14736073Y-15833232D01*
X14745597Y-15823708D01*
X14745597Y-15842756D01*
X14878930Y-15642756D02*
X14897978Y-15642756D01*
X14917026Y-15652280D01*
X14926549Y-15661804D01*
X14936073Y-15680851D01*
X14945597Y-15718947D01*
X14945597Y-15766566D01*
X14936073Y-15804661D01*
X14926549Y-15823708D01*
X14917026Y-15833232D01*
X14897978Y-15842756D01*
X14878930Y-15842756D01*
X14859883Y-15833232D01*
X14850359Y-15823708D01*
X14840835Y-15804661D01*
X14831311Y-15766566D01*
X14831311Y-15718947D01*
X14840835Y-15680851D01*
X14850359Y-15661804D01*
X14859883Y-15652280D01*
X14878930Y-15642756D01*
X15117026Y-15709423D02*
X15117026Y-15842756D01*
X15069407Y-15633232D02*
X15021788Y-15776089D01*
X15145597Y-15776089D01*
X15259883Y-15642756D02*
X15278930Y-15642756D01*
X15297978Y-15652280D01*
X15307502Y-15661804D01*
X15317026Y-15680851D01*
X15326549Y-15718947D01*
X15326549Y-15766566D01*
X15317026Y-15804661D01*
X15307502Y-15823708D01*
X15297978Y-15833232D01*
X15278930Y-15842756D01*
X15259883Y-15842756D01*
X15240835Y-15833232D01*
X15231311Y-15823708D01*
X15221788Y-15804661D01*
X15212264Y-15766566D01*
X15212264Y-15718947D01*
X15221788Y-15680851D01*
X15231311Y-15661804D01*
X15240835Y-15652280D01*
X15259883Y-15642756D01*
X15402740Y-15661804D02*
X15412264Y-15652280D01*
X15431311Y-15642756D01*
X15478930Y-15642756D01*
X15497978Y-15652280D01*
X15507502Y-15661804D01*
X15517026Y-15680851D01*
X15517026Y-15699899D01*
X15507502Y-15728470D01*
X15393216Y-15842756D01*
X15517026Y-15842756D01*
X15593216Y-15642756D02*
X15593216Y-15680851D01*
X15669407Y-15642756D02*
X15669407Y-15680851D01*
X15964645Y-15918947D02*
X15955121Y-15909423D01*
X15936073Y-15880851D01*
X15926549Y-15861804D01*
X15917026Y-15833232D01*
X15907502Y-15785613D01*
X15907502Y-15747518D01*
X15917026Y-15699899D01*
X15926549Y-15671328D01*
X15936073Y-15652280D01*
X15955121Y-15623708D01*
X15964645Y-15614185D01*
X16126549Y-15709423D02*
X16126549Y-15842756D01*
X16078930Y-15633232D02*
X16031311Y-15776089D01*
X16155121Y-15776089D01*
X16383692Y-15842756D02*
X16383692Y-15642756D01*
X16469407Y-15842756D02*
X16469407Y-15737994D01*
X16459883Y-15718947D01*
X16440835Y-15709423D01*
X16412264Y-15709423D01*
X16393216Y-15718947D01*
X16383692Y-15728470D01*
X16593216Y-15842756D02*
X16574168Y-15833232D01*
X16564645Y-15823708D01*
X16555121Y-15804661D01*
X16555121Y-15747518D01*
X16564645Y-15728470D01*
X16574168Y-15718947D01*
X16593216Y-15709423D01*
X16621788Y-15709423D01*
X16640835Y-15718947D01*
X16650359Y-15728470D01*
X16659883Y-15747518D01*
X16659883Y-15804661D01*
X16650359Y-15823708D01*
X16640835Y-15833232D01*
X16621788Y-15842756D01*
X16593216Y-15842756D01*
X16774168Y-15842756D02*
X16755121Y-15833232D01*
X16745597Y-15814185D01*
X16745597Y-15642756D01*
X16926550Y-15833232D02*
X16907502Y-15842756D01*
X16869407Y-15842756D01*
X16850359Y-15833232D01*
X16840835Y-15814185D01*
X16840835Y-15737994D01*
X16850359Y-15718947D01*
X16869407Y-15709423D01*
X16907502Y-15709423D01*
X16926550Y-15718947D01*
X16936073Y-15737994D01*
X16936073Y-15757042D01*
X16840835Y-15776089D01*
X17012264Y-15833232D02*
X17031311Y-15842756D01*
X17069407Y-15842756D01*
X17088454Y-15833232D01*
X17097978Y-15814185D01*
X17097978Y-15804661D01*
X17088454Y-15785613D01*
X17069407Y-15776089D01*
X17040835Y-15776089D01*
X17021788Y-15766566D01*
X17012264Y-15747518D01*
X17012264Y-15737994D01*
X17021788Y-15718947D01*
X17040835Y-15709423D01*
X17069407Y-15709423D01*
X17088454Y-15718947D01*
X17164645Y-15918947D02*
X17174169Y-15909423D01*
X17193216Y-15880851D01*
X17202740Y-15861804D01*
X17212264Y-15833232D01*
X17221788Y-15785613D01*
X17221788Y-15747518D01*
X17212264Y-15699899D01*
X17202740Y-15671328D01*
X17193216Y-15652280D01*
X17174169Y-15623708D01*
X17164645Y-15614185D01*
D16*
X12282740Y-15961280D02*
X12392740Y-16071280D01*
X12392740Y-15961280D02*
X12282740Y-16071280D01*
X12392740Y-16016280D02*
G75*
G03*
X12392740Y-16016280I-55000J0D01*
G01*
D11*
X12755121Y-16106756D02*
X12640835Y-16106756D01*
X12697978Y-16106756D02*
X12697978Y-15906756D01*
X12678930Y-15935328D01*
X12659883Y-15954375D01*
X12640835Y-15963899D01*
X12840835Y-16087708D02*
X12850359Y-16097232D01*
X12840835Y-16106756D01*
X12831311Y-16097232D01*
X12840835Y-16087708D01*
X12840835Y-16106756D01*
X13040835Y-16106756D02*
X12926549Y-16106756D01*
X12983692Y-16106756D02*
X12983692Y-15906756D01*
X12964645Y-15935328D01*
X12945597Y-15954375D01*
X12926549Y-15963899D01*
X13164645Y-15906756D02*
X13183692Y-15906756D01*
X13202740Y-15916280D01*
X13212264Y-15925804D01*
X13221788Y-15944851D01*
X13231311Y-15982947D01*
X13231311Y-16030566D01*
X13221788Y-16068661D01*
X13212264Y-16087708D01*
X13202740Y-16097232D01*
X13183692Y-16106756D01*
X13164645Y-16106756D01*
X13145597Y-16097232D01*
X13136073Y-16087708D01*
X13126549Y-16068661D01*
X13117026Y-16030566D01*
X13117026Y-15982947D01*
X13126549Y-15944851D01*
X13136073Y-15925804D01*
X13145597Y-15916280D01*
X13164645Y-15906756D01*
X13355121Y-15906756D02*
X13374168Y-15906756D01*
X13393216Y-15916280D01*
X13402740Y-15925804D01*
X13412264Y-15944851D01*
X13421788Y-15982947D01*
X13421788Y-16030566D01*
X13412264Y-16068661D01*
X13402740Y-16087708D01*
X13393216Y-16097232D01*
X13374168Y-16106756D01*
X13355121Y-16106756D01*
X13336073Y-16097232D01*
X13326549Y-16087708D01*
X13317026Y-16068661D01*
X13307502Y-16030566D01*
X13307502Y-15982947D01*
X13317026Y-15944851D01*
X13326549Y-15925804D01*
X13336073Y-15916280D01*
X13355121Y-15906756D01*
X13507502Y-16106756D02*
X13507502Y-15973423D01*
X13507502Y-15992470D02*
X13517026Y-15982947D01*
X13536073Y-15973423D01*
X13564645Y-15973423D01*
X13583692Y-15982947D01*
X13593216Y-16001994D01*
X13593216Y-16106756D01*
X13593216Y-16001994D02*
X13602740Y-15982947D01*
X13621788Y-15973423D01*
X13650359Y-15973423D01*
X13669407Y-15982947D01*
X13678930Y-16001994D01*
X13678930Y-16106756D01*
X13774168Y-16106756D02*
X13774168Y-15973423D01*
X13774168Y-15992470D02*
X13783692Y-15982947D01*
X13802740Y-15973423D01*
X13831311Y-15973423D01*
X13850359Y-15982947D01*
X13859883Y-16001994D01*
X13859883Y-16106756D01*
X13859883Y-16001994D02*
X13869407Y-15982947D01*
X13888454Y-15973423D01*
X13917026Y-15973423D01*
X13936073Y-15982947D01*
X13945597Y-16001994D01*
X13945597Y-16106756D01*
X14336073Y-15897232D02*
X14164645Y-16154375D01*
X14593216Y-15906756D02*
X14612264Y-15906756D01*
X14631311Y-15916280D01*
X14640835Y-15925804D01*
X14650359Y-15944851D01*
X14659883Y-15982947D01*
X14659883Y-16030566D01*
X14650359Y-16068661D01*
X14640835Y-16087708D01*
X14631311Y-16097232D01*
X14612264Y-16106756D01*
X14593216Y-16106756D01*
X14574168Y-16097232D01*
X14564645Y-16087708D01*
X14555121Y-16068661D01*
X14545597Y-16030566D01*
X14545597Y-15982947D01*
X14555121Y-15944851D01*
X14564645Y-15925804D01*
X14574168Y-15916280D01*
X14593216Y-15906756D01*
X14745597Y-16087708D02*
X14755121Y-16097232D01*
X14745597Y-16106756D01*
X14736073Y-16097232D01*
X14745597Y-16087708D01*
X14745597Y-16106756D01*
X14878930Y-15906756D02*
X14897978Y-15906756D01*
X14917026Y-15916280D01*
X14926549Y-15925804D01*
X14936073Y-15944851D01*
X14945597Y-15982947D01*
X14945597Y-16030566D01*
X14936073Y-16068661D01*
X14926549Y-16087708D01*
X14917026Y-16097232D01*
X14897978Y-16106756D01*
X14878930Y-16106756D01*
X14859883Y-16097232D01*
X14850359Y-16087708D01*
X14840835Y-16068661D01*
X14831311Y-16030566D01*
X14831311Y-15982947D01*
X14840835Y-15944851D01*
X14850359Y-15925804D01*
X14859883Y-15916280D01*
X14878930Y-15906756D01*
X15117026Y-15973423D02*
X15117026Y-16106756D01*
X15069407Y-15897232D02*
X15021788Y-16040089D01*
X15145597Y-16040089D01*
X15202740Y-15906756D02*
X15326549Y-15906756D01*
X15259883Y-15982947D01*
X15288454Y-15982947D01*
X15307502Y-15992470D01*
X15317026Y-16001994D01*
X15326549Y-16021042D01*
X15326549Y-16068661D01*
X15317026Y-16087708D01*
X15307502Y-16097232D01*
X15288454Y-16106756D01*
X15231311Y-16106756D01*
X15212264Y-16097232D01*
X15202740Y-16087708D01*
X15393216Y-15906756D02*
X15517026Y-15906756D01*
X15450359Y-15982947D01*
X15478930Y-15982947D01*
X15497978Y-15992470D01*
X15507502Y-16001994D01*
X15517026Y-16021042D01*
X15517026Y-16068661D01*
X15507502Y-16087708D01*
X15497978Y-16097232D01*
X15478930Y-16106756D01*
X15421788Y-16106756D01*
X15402740Y-16097232D01*
X15393216Y-16087708D01*
X15593216Y-15906756D02*
X15593216Y-15944851D01*
X15669407Y-15906756D02*
X15669407Y-15944851D01*
X15964645Y-16182947D02*
X15955121Y-16173423D01*
X15936073Y-16144851D01*
X15926549Y-16125804D01*
X15917026Y-16097232D01*
X15907502Y-16049613D01*
X15907502Y-16011518D01*
X15917026Y-15963899D01*
X15926549Y-15935328D01*
X15936073Y-15916280D01*
X15955121Y-15887708D01*
X15964645Y-15878185D01*
X16126549Y-15973423D02*
X16126549Y-16106756D01*
X16078930Y-15897232D02*
X16031311Y-16040089D01*
X16155121Y-16040089D01*
X16383692Y-16106756D02*
X16383692Y-15906756D01*
X16469407Y-16106756D02*
X16469407Y-16001994D01*
X16459883Y-15982947D01*
X16440835Y-15973423D01*
X16412264Y-15973423D01*
X16393216Y-15982947D01*
X16383692Y-15992470D01*
X16593216Y-16106756D02*
X16574168Y-16097232D01*
X16564645Y-16087708D01*
X16555121Y-16068661D01*
X16555121Y-16011518D01*
X16564645Y-15992470D01*
X16574168Y-15982947D01*
X16593216Y-15973423D01*
X16621788Y-15973423D01*
X16640835Y-15982947D01*
X16650359Y-15992470D01*
X16659883Y-16011518D01*
X16659883Y-16068661D01*
X16650359Y-16087708D01*
X16640835Y-16097232D01*
X16621788Y-16106756D01*
X16593216Y-16106756D01*
X16774168Y-16106756D02*
X16755121Y-16097232D01*
X16745597Y-16078185D01*
X16745597Y-15906756D01*
X16926550Y-16097232D02*
X16907502Y-16106756D01*
X16869407Y-16106756D01*
X16850359Y-16097232D01*
X16840835Y-16078185D01*
X16840835Y-16001994D01*
X16850359Y-15982947D01*
X16869407Y-15973423D01*
X16907502Y-15973423D01*
X16926550Y-15982947D01*
X16936073Y-16001994D01*
X16936073Y-16021042D01*
X16840835Y-16040089D01*
X17012264Y-16097232D02*
X17031311Y-16106756D01*
X17069407Y-16106756D01*
X17088454Y-16097232D01*
X17097978Y-16078185D01*
X17097978Y-16068661D01*
X17088454Y-16049613D01*
X17069407Y-16040089D01*
X17040835Y-16040089D01*
X17021788Y-16030566D01*
X17012264Y-16011518D01*
X17012264Y-16001994D01*
X17021788Y-15982947D01*
X17040835Y-15973423D01*
X17069407Y-15973423D01*
X17088454Y-15982947D01*
X17164645Y-16182947D02*
X17174169Y-16173423D01*
X17193216Y-16144851D01*
X17202740Y-16125804D01*
X17212264Y-16097232D01*
X17221788Y-16049613D01*
X17221788Y-16011518D01*
X17212264Y-15963899D01*
X17202740Y-15935328D01*
X17193216Y-15916280D01*
X17174169Y-15887708D01*
X17164645Y-15878185D01*
D17*
X12262740Y-16215280D02*
X12392740Y-16345280D01*
X12392740Y-16215280D02*
X12262740Y-16345280D01*
X12327740Y-16215280D02*
X12327740Y-16345280D01*
X12262740Y-16280280D02*
X12392740Y-16280280D01*
D11*
X12755121Y-16370756D02*
X12640835Y-16370756D01*
X12697978Y-16370756D02*
X12697978Y-16170756D01*
X12678930Y-16199328D01*
X12659883Y-16218375D01*
X12640835Y-16227899D01*
X12840835Y-16351708D02*
X12850359Y-16361232D01*
X12840835Y-16370756D01*
X12831311Y-16361232D01*
X12840835Y-16351708D01*
X12840835Y-16370756D01*
X12917026Y-16170756D02*
X13040835Y-16170756D01*
X12974168Y-16246947D01*
X13002740Y-16246947D01*
X13021788Y-16256470D01*
X13031311Y-16265994D01*
X13040835Y-16285042D01*
X13040835Y-16332661D01*
X13031311Y-16351708D01*
X13021788Y-16361232D01*
X13002740Y-16370756D01*
X12945597Y-16370756D01*
X12926549Y-16361232D01*
X12917026Y-16351708D01*
X13164645Y-16170756D02*
X13183692Y-16170756D01*
X13202740Y-16180280D01*
X13212264Y-16189804D01*
X13221788Y-16208851D01*
X13231311Y-16246947D01*
X13231311Y-16294566D01*
X13221788Y-16332661D01*
X13212264Y-16351708D01*
X13202740Y-16361232D01*
X13183692Y-16370756D01*
X13164645Y-16370756D01*
X13145597Y-16361232D01*
X13136073Y-16351708D01*
X13126549Y-16332661D01*
X13117026Y-16294566D01*
X13117026Y-16246947D01*
X13126549Y-16208851D01*
X13136073Y-16189804D01*
X13145597Y-16180280D01*
X13164645Y-16170756D01*
X13355121Y-16170756D02*
X13374168Y-16170756D01*
X13393216Y-16180280D01*
X13402740Y-16189804D01*
X13412264Y-16208851D01*
X13421788Y-16246947D01*
X13421788Y-16294566D01*
X13412264Y-16332661D01*
X13402740Y-16351708D01*
X13393216Y-16361232D01*
X13374168Y-16370756D01*
X13355121Y-16370756D01*
X13336073Y-16361232D01*
X13326549Y-16351708D01*
X13317026Y-16332661D01*
X13307502Y-16294566D01*
X13307502Y-16246947D01*
X13317026Y-16208851D01*
X13326549Y-16189804D01*
X13336073Y-16180280D01*
X13355121Y-16170756D01*
X13507502Y-16370756D02*
X13507502Y-16237423D01*
X13507502Y-16256470D02*
X13517026Y-16246947D01*
X13536073Y-16237423D01*
X13564645Y-16237423D01*
X13583692Y-16246947D01*
X13593216Y-16265994D01*
X13593216Y-16370756D01*
X13593216Y-16265994D02*
X13602740Y-16246947D01*
X13621788Y-16237423D01*
X13650359Y-16237423D01*
X13669407Y-16246947D01*
X13678930Y-16265994D01*
X13678930Y-16370756D01*
X13774168Y-16370756D02*
X13774168Y-16237423D01*
X13774168Y-16256470D02*
X13783692Y-16246947D01*
X13802740Y-16237423D01*
X13831311Y-16237423D01*
X13850359Y-16246947D01*
X13859883Y-16265994D01*
X13859883Y-16370756D01*
X13859883Y-16265994D02*
X13869407Y-16246947D01*
X13888454Y-16237423D01*
X13917026Y-16237423D01*
X13936073Y-16246947D01*
X13945597Y-16265994D01*
X13945597Y-16370756D01*
X14336073Y-16161232D02*
X14164645Y-16418375D01*
X14593216Y-16170756D02*
X14612264Y-16170756D01*
X14631311Y-16180280D01*
X14640835Y-16189804D01*
X14650359Y-16208851D01*
X14659883Y-16246947D01*
X14659883Y-16294566D01*
X14650359Y-16332661D01*
X14640835Y-16351708D01*
X14631311Y-16361232D01*
X14612264Y-16370756D01*
X14593216Y-16370756D01*
X14574168Y-16361232D01*
X14564645Y-16351708D01*
X14555121Y-16332661D01*
X14545597Y-16294566D01*
X14545597Y-16246947D01*
X14555121Y-16208851D01*
X14564645Y-16189804D01*
X14574168Y-16180280D01*
X14593216Y-16170756D01*
X14745597Y-16351708D02*
X14755121Y-16361232D01*
X14745597Y-16370756D01*
X14736073Y-16361232D01*
X14745597Y-16351708D01*
X14745597Y-16370756D01*
X14878930Y-16170756D02*
X14897978Y-16170756D01*
X14917026Y-16180280D01*
X14926549Y-16189804D01*
X14936073Y-16208851D01*
X14945597Y-16246947D01*
X14945597Y-16294566D01*
X14936073Y-16332661D01*
X14926549Y-16351708D01*
X14917026Y-16361232D01*
X14897978Y-16370756D01*
X14878930Y-16370756D01*
X14859883Y-16361232D01*
X14850359Y-16351708D01*
X14840835Y-16332661D01*
X14831311Y-16294566D01*
X14831311Y-16246947D01*
X14840835Y-16208851D01*
X14850359Y-16189804D01*
X14859883Y-16180280D01*
X14878930Y-16170756D01*
X15126549Y-16170756D02*
X15031311Y-16170756D01*
X15021788Y-16265994D01*
X15031311Y-16256470D01*
X15050359Y-16246947D01*
X15097978Y-16246947D01*
X15117026Y-16256470D01*
X15126549Y-16265994D01*
X15136073Y-16285042D01*
X15136073Y-16332661D01*
X15126549Y-16351708D01*
X15117026Y-16361232D01*
X15097978Y-16370756D01*
X15050359Y-16370756D01*
X15031311Y-16361232D01*
X15021788Y-16351708D01*
X15326549Y-16370756D02*
X15212264Y-16370756D01*
X15269407Y-16370756D02*
X15269407Y-16170756D01*
X15250359Y-16199328D01*
X15231311Y-16218375D01*
X15212264Y-16227899D01*
X15402740Y-16189804D02*
X15412264Y-16180280D01*
X15431311Y-16170756D01*
X15478930Y-16170756D01*
X15497978Y-16180280D01*
X15507502Y-16189804D01*
X15517026Y-16208851D01*
X15517026Y-16227899D01*
X15507502Y-16256470D01*
X15393216Y-16370756D01*
X15517026Y-16370756D01*
X15593216Y-16170756D02*
X15593216Y-16208851D01*
X15669407Y-16170756D02*
X15669407Y-16208851D01*
X15964645Y-16446947D02*
X15955121Y-16437423D01*
X15936073Y-16408851D01*
X15926549Y-16389804D01*
X15917026Y-16361232D01*
X15907502Y-16313613D01*
X15907502Y-16275518D01*
X15917026Y-16227899D01*
X15926549Y-16199328D01*
X15936073Y-16180280D01*
X15955121Y-16151708D01*
X15964645Y-16142185D01*
X16021788Y-16170756D02*
X16145597Y-16170756D01*
X16078930Y-16246947D01*
X16107502Y-16246947D01*
X16126549Y-16256470D01*
X16136073Y-16265994D01*
X16145597Y-16285042D01*
X16145597Y-16332661D01*
X16136073Y-16351708D01*
X16126549Y-16361232D01*
X16107502Y-16370756D01*
X16050359Y-16370756D01*
X16031311Y-16361232D01*
X16021788Y-16351708D01*
X16383692Y-16370756D02*
X16383692Y-16170756D01*
X16469407Y-16370756D02*
X16469407Y-16265994D01*
X16459883Y-16246947D01*
X16440835Y-16237423D01*
X16412264Y-16237423D01*
X16393216Y-16246947D01*
X16383692Y-16256470D01*
X16593216Y-16370756D02*
X16574168Y-16361232D01*
X16564645Y-16351708D01*
X16555121Y-16332661D01*
X16555121Y-16275518D01*
X16564645Y-16256470D01*
X16574168Y-16246947D01*
X16593216Y-16237423D01*
X16621788Y-16237423D01*
X16640835Y-16246947D01*
X16650359Y-16256470D01*
X16659883Y-16275518D01*
X16659883Y-16332661D01*
X16650359Y-16351708D01*
X16640835Y-16361232D01*
X16621788Y-16370756D01*
X16593216Y-16370756D01*
X16774168Y-16370756D02*
X16755121Y-16361232D01*
X16745597Y-16342185D01*
X16745597Y-16170756D01*
X16926550Y-16361232D02*
X16907502Y-16370756D01*
X16869407Y-16370756D01*
X16850359Y-16361232D01*
X16840835Y-16342185D01*
X16840835Y-16265994D01*
X16850359Y-16246947D01*
X16869407Y-16237423D01*
X16907502Y-16237423D01*
X16926550Y-16246947D01*
X16936073Y-16265994D01*
X16936073Y-16285042D01*
X16840835Y-16304089D01*
X17012264Y-16361232D02*
X17031311Y-16370756D01*
X17069407Y-16370756D01*
X17088454Y-16361232D01*
X17097978Y-16342185D01*
X17097978Y-16332661D01*
X17088454Y-16313613D01*
X17069407Y-16304089D01*
X17040835Y-16304089D01*
X17021788Y-16294566D01*
X17012264Y-16275518D01*
X17012264Y-16265994D01*
X17021788Y-16246947D01*
X17040835Y-16237423D01*
X17069407Y-16237423D01*
X17088454Y-16246947D01*
X17164645Y-16446947D02*
X17174169Y-16437423D01*
X17193216Y-16408851D01*
X17202740Y-16389804D01*
X17212264Y-16361232D01*
X17221788Y-16313613D01*
X17221788Y-16275518D01*
X17212264Y-16227899D01*
X17202740Y-16199328D01*
X17193216Y-16180280D01*
X17174169Y-16151708D01*
X17164645Y-16142185D01*
M02*
