G04*
G04 #@! TF.GenerationSoftware,Altium Limited,Altium Designer,25.2.1 (25)*
G04*
G04 Layer_Color=8388736*
%FSAX44Y44*%
%MOMM*%
G71*
G04*
G04 #@! TF.SameCoordinates,F3945BAA-94F4-4F02-825A-217E7DD4EA31*
G04*
G04*
G04 #@! TF.FilePolarity,Positive*
G04*
G01*
G75*
%ADD13C,0.2000*%
D13*
X00866729Y01165750D02*
X00954229D01*
Y01205750D01*
X00866729D02*
X00954229D01*
X00866729Y01165750D02*
Y01205750D01*
X01373750Y01396500D02*
Y01418500D01*
Y01396500D02*
X01578750D01*
Y01418500D01*
X01373750D02*
X01578750D01*
X00539750Y01418499D02*
X00744750D01*
Y01396499D02*
Y01418499D01*
X00539750Y01396499D02*
X00744750D01*
X00539750D02*
Y01418499D01*
X00956751Y01418500D02*
X01161750D01*
Y01396500D02*
Y01418500D01*
X00956751Y01396500D02*
X01161750D01*
X00956751D02*
Y01418500D01*
X01790750Y01396500D02*
Y01418500D01*
Y01396500D02*
X01995750D01*
Y01418500D01*
X01790750D02*
X01995750D01*
X01029343Y01165750D02*
X01116843D01*
Y01205750D01*
X01029343D02*
X01116843D01*
X01029343Y01165750D02*
Y01205750D01*
X01191957Y01165750D02*
X01279457D01*
Y01205750D01*
X01191957D02*
X01279457D01*
X01191957Y01165750D02*
Y01205750D01*
X01354571Y01165750D02*
X01442071D01*
Y01205750D01*
X01354571D02*
X01442071D01*
X01354571Y01165750D02*
Y01205750D01*
X00701200Y01165750D02*
X00788700D01*
Y01205750D01*
X00701200D02*
X00788700D01*
X00701200Y01165750D02*
Y01205750D01*
X00541500Y01165750D02*
X00629000D01*
Y01205750D01*
X00541500D02*
X00629000D01*
X00541500Y01165750D02*
Y01205750D01*
X01681250Y01165750D02*
X01768750D01*
Y01205750D01*
X01681250D02*
X01768750D01*
X01681250Y01165750D02*
Y01205750D01*
X01517186Y01165750D02*
X01604686D01*
Y01205750D01*
X01517186D02*
X01604686D01*
X01517186Y01165750D02*
Y01205750D01*
M02*
