G04*
G04 #@! TF.GenerationSoftware,Altium Limited,Altium Designer,25.2.1 (25)*
G04*
G04 Layer_Color=16711935*
%FSAX44Y44*%
%MOMM*%
G71*
G04*
G04 #@! TF.SameCoordinates,F3945BAA-94F4-4F02-825A-217E7DD4EA31*
G04*
G04*
G04 #@! TF.FilePolarity,Positive*
G04*
G01*
G75*
%ADD13C,0.2000*%
G36*
X00908392Y01196066D02*
X00908448D01*
X00908511Y01196060D01*
X00908579Y01196053D01*
X00908660Y01196041D01*
X00908835Y01196010D01*
X00909023Y01195960D01*
X00909217Y01195897D01*
X00909417Y01195810D01*
X00909423D01*
X00909442Y01195797D01*
X00909466Y01195785D01*
X00909498Y01195760D01*
X00909541Y01195735D01*
X00909591Y01195704D01*
X00909704Y01195622D01*
X00909835Y01195516D01*
X00909966Y01195397D01*
X00910091Y01195254D01*
X00910204Y01195091D01*
Y01195085D01*
X00910216Y01195072D01*
X00910229Y01195048D01*
X00910247Y01195010D01*
X00910266Y01194966D01*
X00910291Y01194916D01*
X00910316Y01194860D01*
X00910341Y01194791D01*
X00910366Y01194723D01*
X00910391Y01194641D01*
X00910435Y01194466D01*
X00910466Y01194273D01*
X00910472Y01194166D01*
X00910479Y01194060D01*
Y01194016D01*
X00910472Y01193967D01*
X00910466Y01193898D01*
X00910454Y01193817D01*
X00910441Y01193717D01*
X00910416Y01193610D01*
X00910391Y01193492D01*
X00910354Y01193367D01*
X00910304Y01193242D01*
X00910247Y01193104D01*
X00910173Y01192973D01*
X00910091Y01192835D01*
X00909998Y01192704D01*
X00909885Y01192579D01*
X00909760Y01192461D01*
X00909754Y01192454D01*
X00909723Y01192436D01*
X00909685Y01192404D01*
X00909623Y01192367D01*
X00909541Y01192317D01*
X00909442Y01192267D01*
X00909329Y01192211D01*
X00909192Y01192154D01*
X00909035Y01192092D01*
X00908860Y01192036D01*
X00908667Y01191986D01*
X00908448Y01191942D01*
X00908217Y01191898D01*
X00907954Y01191867D01*
X00907679Y01191848D01*
X00907380Y01191842D01*
X00907373D01*
X00907361D01*
X00907336D01*
X00907298D01*
X00907254D01*
X00907205Y01191848D01*
X00907142D01*
X00907073Y01191854D01*
X00907005D01*
X00906923Y01191861D01*
X00906748Y01191880D01*
X00906555Y01191898D01*
X00906348Y01191929D01*
X00906130Y01191961D01*
X00905905Y01192011D01*
X00905680Y01192061D01*
X00905455Y01192130D01*
X00905242Y01192204D01*
X00905036Y01192298D01*
X00904849Y01192404D01*
X00904680Y01192523D01*
X00904674Y01192529D01*
X00904649Y01192548D01*
X00904611Y01192586D01*
X00904568Y01192636D01*
X00904511Y01192692D01*
X00904449Y01192767D01*
X00904380Y01192854D01*
X00904312Y01192948D01*
X00904243Y01193061D01*
X00904174Y01193179D01*
X00904112Y01193310D01*
X00904055Y01193454D01*
X00904012Y01193610D01*
X00903974Y01193773D01*
X00903949Y01193948D01*
X00903943Y01194135D01*
Y01194210D01*
X00903949Y01194260D01*
X00903955Y01194329D01*
X00903968Y01194404D01*
X00903980Y01194485D01*
X00903993Y01194579D01*
X00904049Y01194772D01*
X00904080Y01194879D01*
X00904124Y01194979D01*
X00904168Y01195085D01*
X00904230Y01195185D01*
X00904293Y01195285D01*
X00904368Y01195379D01*
X00904374Y01195385D01*
X00904387Y01195397D01*
X00904411Y01195422D01*
X00904443Y01195454D01*
X00904486Y01195491D01*
X00904543Y01195535D01*
X00904605Y01195585D01*
X00904674Y01195635D01*
X00904749Y01195685D01*
X00904843Y01195735D01*
X00904936Y01195779D01*
X00905043Y01195828D01*
X00905155Y01195872D01*
X00905274Y01195903D01*
X00905399Y01195935D01*
X00905536Y01195960D01*
X00905599Y01195179D01*
X00905592D01*
X00905580Y01195172D01*
X00905555Y01195166D01*
X00905524Y01195160D01*
X00905486Y01195147D01*
X00905443Y01195135D01*
X00905342Y01195104D01*
X00905230Y01195060D01*
X00905118Y01195010D01*
X00905011Y01194948D01*
X00904924Y01194879D01*
X00904918Y01194873D01*
X00904911Y01194866D01*
X00904893Y01194847D01*
X00904874Y01194822D01*
X00904843Y01194791D01*
X00904818Y01194754D01*
X00904755Y01194660D01*
X00904693Y01194548D01*
X00904636Y01194410D01*
X00904599Y01194260D01*
X00904593Y01194179D01*
X00904586Y01194091D01*
Y01194029D01*
X00904599Y01193960D01*
X00904611Y01193867D01*
X00904636Y01193766D01*
X00904674Y01193654D01*
X00904730Y01193542D01*
X00904799Y01193429D01*
Y01193423D01*
X00904811Y01193410D01*
X00904824Y01193392D01*
X00904849Y01193367D01*
X00904911Y01193304D01*
X00904999Y01193217D01*
X00905111Y01193123D01*
X00905249Y01193023D01*
X00905405Y01192929D01*
X00905592Y01192842D01*
X00905599D01*
X00905617Y01192835D01*
X00905649Y01192823D01*
X00905686Y01192811D01*
X00905742Y01192792D01*
X00905805Y01192773D01*
X00905886Y01192754D01*
X00905974Y01192736D01*
X00906074Y01192717D01*
X00906180Y01192698D01*
X00906305Y01192679D01*
X00906436Y01192661D01*
X00906580Y01192648D01*
X00906736Y01192636D01*
X00906898Y01192629D01*
X00907073Y01192623D01*
X00907067Y01192629D01*
X00907055Y01192636D01*
X00907030Y01192654D01*
X00907005Y01192673D01*
X00906967Y01192698D01*
X00906923Y01192736D01*
X00906830Y01192817D01*
X00906723Y01192917D01*
X00906617Y01193036D01*
X00906517Y01193167D01*
X00906430Y01193317D01*
Y01193323D01*
X00906423Y01193335D01*
X00906411Y01193360D01*
X00906398Y01193385D01*
X00906380Y01193429D01*
X00906361Y01193473D01*
X00906342Y01193523D01*
X00906323Y01193579D01*
X00906286Y01193710D01*
X00906248Y01193854D01*
X00906224Y01194010D01*
X00906217Y01194179D01*
Y01194216D01*
X00906224Y01194254D01*
Y01194310D01*
X00906236Y01194379D01*
X00906248Y01194460D01*
X00906267Y01194548D01*
X00906292Y01194641D01*
X00906323Y01194741D01*
X00906361Y01194854D01*
X00906405Y01194960D01*
X00906461Y01195072D01*
X00906530Y01195191D01*
X00906605Y01195304D01*
X00906698Y01195410D01*
X00906798Y01195516D01*
X00906805Y01195522D01*
X00906823Y01195541D01*
X00906861Y01195566D01*
X00906905Y01195604D01*
X00906961Y01195647D01*
X00907030Y01195691D01*
X00907111Y01195741D01*
X00907205Y01195797D01*
X00907305Y01195847D01*
X00907417Y01195897D01*
X00907542Y01195941D01*
X00907673Y01195985D01*
X00907817Y01196022D01*
X00907967Y01196047D01*
X00908123Y01196066D01*
X00908292Y01196072D01*
X00908298D01*
X00908317D01*
X00908348D01*
X00908392Y01196066D01*
D02*
G37*
G36*
X00907829Y01190780D02*
X00907911D01*
X00908004Y01190774D01*
X00908111Y01190767D01*
X00908223Y01190761D01*
X00908342Y01190749D01*
X00908467Y01190730D01*
X00908723Y01190692D01*
X00908973Y01190642D01*
X00909092Y01190605D01*
X00909204Y01190567D01*
X00909210D01*
X00909229Y01190555D01*
X00909260Y01190542D01*
X00909298Y01190524D01*
X00909348Y01190499D01*
X00909404Y01190467D01*
X00909466Y01190430D01*
X00909535Y01190386D01*
X00909604Y01190336D01*
X00909679Y01190280D01*
X00909754Y01190211D01*
X00909835Y01190143D01*
X00909910Y01190061D01*
X00909985Y01189974D01*
X00910060Y01189880D01*
X00910129Y01189774D01*
X00910135Y01189768D01*
X00910141Y01189749D01*
X00910160Y01189718D01*
X00910185Y01189674D01*
X00910210Y01189611D01*
X00910241Y01189543D01*
X00910273Y01189468D01*
X00910304Y01189374D01*
X00910335Y01189274D01*
X00910366Y01189162D01*
X00910397Y01189036D01*
X00910423Y01188905D01*
X00910447Y01188762D01*
X00910466Y01188612D01*
X00910472Y01188449D01*
X00910479Y01188280D01*
Y01188193D01*
X00910472Y01188130D01*
X00910466Y01188055D01*
X00910460Y01187968D01*
X00910454Y01187868D01*
X00910441Y01187762D01*
X00910423Y01187643D01*
X00910404Y01187524D01*
X00910348Y01187281D01*
X00910316Y01187156D01*
X00910273Y01187037D01*
X00910229Y01186918D01*
X00910173Y01186806D01*
X00910166Y01186800D01*
X00910160Y01186781D01*
X00910141Y01186750D01*
X00910116Y01186712D01*
X00910085Y01186668D01*
X00910041Y01186612D01*
X00909998Y01186556D01*
X00909941Y01186493D01*
X00909885Y01186425D01*
X00909816Y01186356D01*
X00909741Y01186287D01*
X00909660Y01186225D01*
X00909573Y01186162D01*
X00909479Y01186100D01*
X00909379Y01186043D01*
X00909273Y01185993D01*
X00909267D01*
X00909248Y01185981D01*
X00909210Y01185968D01*
X00909166Y01185956D01*
X00909104Y01185937D01*
X00909035Y01185919D01*
X00908948Y01185894D01*
X00908854Y01185875D01*
X00908742Y01185850D01*
X00908623Y01185825D01*
X00908492Y01185806D01*
X00908348Y01185787D01*
X00908192Y01185775D01*
X00908029Y01185762D01*
X00907854Y01185750D01*
X00907667D01*
X00903968D01*
Y01186600D01*
X00907667D01*
X00907673D01*
X00907704D01*
X00907748D01*
X00907804D01*
X00907873Y01186606D01*
X00907948D01*
X00908036Y01186612D01*
X00908129Y01186618D01*
X00908335Y01186637D01*
X00908535Y01186662D01*
X00908635Y01186681D01*
X00908729Y01186700D01*
X00908817Y01186725D01*
X00908898Y01186750D01*
X00908904D01*
X00908917Y01186756D01*
X00908935Y01186768D01*
X00908960Y01186781D01*
X00909035Y01186818D01*
X00909123Y01186875D01*
X00909217Y01186949D01*
X00909316Y01187037D01*
X00909417Y01187150D01*
X00909504Y01187281D01*
Y01187287D01*
X00909510Y01187299D01*
X00909523Y01187318D01*
X00909535Y01187349D01*
X00909554Y01187387D01*
X00909573Y01187431D01*
X00909591Y01187481D01*
X00909610Y01187537D01*
X00909629Y01187606D01*
X00909648Y01187674D01*
X00909685Y01187831D01*
X00909710Y01188012D01*
X00909716Y01188205D01*
Y01188293D01*
X00909710Y01188355D01*
X00909704Y01188437D01*
X00909691Y01188524D01*
X00909679Y01188618D01*
X00909666Y01188724D01*
X00909616Y01188943D01*
X00909579Y01189049D01*
X00909541Y01189162D01*
X00909492Y01189268D01*
X00909435Y01189368D01*
X00909373Y01189455D01*
X00909298Y01189536D01*
X00909292Y01189543D01*
X00909279Y01189555D01*
X00909248Y01189574D01*
X00909210Y01189599D01*
X00909160Y01189630D01*
X00909098Y01189661D01*
X00909023Y01189699D01*
X00908935Y01189736D01*
X00908829Y01189774D01*
X00908710Y01189811D01*
X00908579Y01189843D01*
X00908429Y01189874D01*
X00908267Y01189899D01*
X00908086Y01189918D01*
X00907886Y01189930D01*
X00907667Y01189936D01*
X00903968D01*
Y01190786D01*
X00907667D01*
X00907679D01*
X00907711D01*
X00907761D01*
X00907829Y01190780D01*
D02*
G37*
G36*
X01479774Y01409643D02*
Y01409637D01*
Y01409606D01*
Y01409568D01*
Y01409512D01*
X01479768Y01409443D01*
X01479761Y01409368D01*
X01479755Y01409281D01*
X01479749Y01409187D01*
X01479724Y01408987D01*
X01479693Y01408781D01*
X01479643Y01408581D01*
X01479611Y01408487D01*
X01479574Y01408400D01*
Y01408393D01*
X01479568Y01408381D01*
X01479555Y01408356D01*
X01479536Y01408331D01*
X01479518Y01408293D01*
X01479493Y01408250D01*
X01479424Y01408150D01*
X01479337Y01408044D01*
X01479230Y01407931D01*
X01479105Y01407825D01*
X01478955Y01407731D01*
X01478949D01*
X01478937Y01407719D01*
X01478912Y01407712D01*
X01478880Y01407694D01*
X01478843Y01407675D01*
X01478793Y01407656D01*
X01478737Y01407637D01*
X01478674Y01407619D01*
X01478605Y01407594D01*
X01478530Y01407575D01*
X01478362Y01407537D01*
X01478174Y01407512D01*
X01477968Y01407500D01*
X01477931D01*
X01477887Y01407506D01*
X01477831D01*
X01477762Y01407512D01*
X01477681Y01407525D01*
X01477587Y01407537D01*
X01477493Y01407562D01*
X01477387Y01407587D01*
X01477281Y01407619D01*
X01477175Y01407656D01*
X01477068Y01407706D01*
X01476962Y01407756D01*
X01476862Y01407825D01*
X01476762Y01407894D01*
X01476675Y01407981D01*
X01476668Y01407987D01*
X01476656Y01408006D01*
X01476631Y01408031D01*
X01476606Y01408069D01*
X01476575Y01408125D01*
X01476537Y01408181D01*
X01476494Y01408256D01*
X01476456Y01408343D01*
X01476412Y01408437D01*
X01476375Y01408543D01*
X01476337Y01408662D01*
X01476306Y01408793D01*
X01476281Y01408931D01*
X01476262Y01409081D01*
X01476250Y01409243D01*
Y01409418D01*
X01477012Y01409524D01*
Y01409518D01*
Y01409493D01*
X01477018Y01409456D01*
Y01409406D01*
X01477025Y01409349D01*
X01477031Y01409281D01*
X01477043Y01409206D01*
X01477056Y01409124D01*
X01477087Y01408962D01*
X01477137Y01408793D01*
X01477168Y01408718D01*
X01477200Y01408643D01*
X01477237Y01408581D01*
X01477281Y01408525D01*
X01477293Y01408512D01*
X01477325Y01408481D01*
X01477381Y01408437D01*
X01477462Y01408393D01*
X01477556Y01408343D01*
X01477674Y01408300D01*
X01477812Y01408268D01*
X01477881Y01408262D01*
X01477962Y01408256D01*
X01478018D01*
X01478074Y01408262D01*
X01478149Y01408275D01*
X01478237Y01408293D01*
X01478331Y01408318D01*
X01478424Y01408350D01*
X01478512Y01408400D01*
X01478524Y01408406D01*
X01478549Y01408425D01*
X01478587Y01408456D01*
X01478637Y01408506D01*
X01478693Y01408562D01*
X01478743Y01408625D01*
X01478793Y01408706D01*
X01478830Y01408793D01*
X01478837Y01408806D01*
X01478843Y01408843D01*
X01478855Y01408868D01*
X01478862Y01408906D01*
X01478868Y01408943D01*
X01478880Y01408993D01*
X01478887Y01409043D01*
X01478893Y01409106D01*
X01478905Y01409168D01*
X01478912Y01409243D01*
X01478918Y01409318D01*
Y01409406D01*
X01478924Y01409499D01*
Y01409599D01*
Y01414011D01*
X01479774D01*
Y01409643D01*
D02*
G37*
G36*
X01484148Y01409855D02*
X01485010D01*
Y01409137D01*
X01484148D01*
Y01407606D01*
X01483360D01*
Y01409137D01*
X01480580D01*
Y01409855D01*
X01483504Y01414011D01*
X01484148D01*
Y01409855D01*
D02*
G37*
G36*
X00645774Y01409642D02*
Y01409636D01*
Y01409605D01*
Y01409567D01*
Y01409511D01*
X00645768Y01409442D01*
X00645761Y01409368D01*
X00645755Y01409280D01*
X00645749Y01409186D01*
X00645724Y01408986D01*
X00645693Y01408780D01*
X00645643Y01408580D01*
X00645611Y01408486D01*
X00645574Y01408399D01*
Y01408393D01*
X00645568Y01408380D01*
X00645555Y01408355D01*
X00645536Y01408330D01*
X00645518Y01408293D01*
X00645493Y01408249D01*
X00645424Y01408149D01*
X00645337Y01408043D01*
X00645230Y01407930D01*
X00645105Y01407824D01*
X00644955Y01407730D01*
X00644949D01*
X00644937Y01407718D01*
X00644912Y01407712D01*
X00644880Y01407693D01*
X00644843Y01407674D01*
X00644793Y01407655D01*
X00644737Y01407637D01*
X00644674Y01407618D01*
X00644605Y01407593D01*
X00644530Y01407574D01*
X00644362Y01407537D01*
X00644174Y01407512D01*
X00643968Y01407499D01*
X00643931D01*
X00643887Y01407505D01*
X00643831D01*
X00643762Y01407512D01*
X00643681Y01407524D01*
X00643587Y01407537D01*
X00643493Y01407562D01*
X00643387Y01407587D01*
X00643281Y01407618D01*
X00643175Y01407655D01*
X00643068Y01407705D01*
X00642962Y01407755D01*
X00642862Y01407824D01*
X00642762Y01407893D01*
X00642675Y01407980D01*
X00642669Y01407987D01*
X00642656Y01408005D01*
X00642631Y01408030D01*
X00642606Y01408068D01*
X00642575Y01408124D01*
X00642537Y01408180D01*
X00642494Y01408255D01*
X00642456Y01408343D01*
X00642412Y01408436D01*
X00642375Y01408543D01*
X00642337Y01408661D01*
X00642306Y01408793D01*
X00642281Y01408930D01*
X00642262Y01409080D01*
X00642250Y01409243D01*
Y01409418D01*
X00643012Y01409524D01*
Y01409518D01*
Y01409492D01*
X00643018Y01409455D01*
Y01409405D01*
X00643025Y01409349D01*
X00643031Y01409280D01*
X00643043Y01409205D01*
X00643056Y01409124D01*
X00643087Y01408961D01*
X00643137Y01408793D01*
X00643168Y01408718D01*
X00643200Y01408643D01*
X00643237Y01408580D01*
X00643281Y01408524D01*
X00643293Y01408512D01*
X00643325Y01408480D01*
X00643381Y01408436D01*
X00643462Y01408393D01*
X00643556Y01408343D01*
X00643674Y01408299D01*
X00643812Y01408268D01*
X00643881Y01408262D01*
X00643962Y01408255D01*
X00644018D01*
X00644074Y01408262D01*
X00644149Y01408274D01*
X00644237Y01408293D01*
X00644331Y01408318D01*
X00644424Y01408349D01*
X00644512Y01408399D01*
X00644524Y01408405D01*
X00644549Y01408424D01*
X00644587Y01408455D01*
X00644637Y01408505D01*
X00644693Y01408561D01*
X00644743Y01408624D01*
X00644793Y01408705D01*
X00644830Y01408793D01*
X00644837Y01408805D01*
X00644843Y01408843D01*
X00644855Y01408868D01*
X00644862Y01408905D01*
X00644868Y01408943D01*
X00644880Y01408993D01*
X00644887Y01409043D01*
X00644893Y01409105D01*
X00644905Y01409167D01*
X00644912Y01409243D01*
X00644918Y01409317D01*
Y01409405D01*
X00644924Y01409499D01*
Y01409599D01*
Y01414010D01*
X00645774D01*
Y01409642D01*
D02*
G37*
G36*
X00649798Y01407605D02*
X00649011D01*
Y01412610D01*
X00649004D01*
X00648998Y01412598D01*
X00648979Y01412585D01*
X00648961Y01412567D01*
X00648898Y01412510D01*
X00648811Y01412442D01*
X00648704Y01412361D01*
X00648573Y01412267D01*
X00648423Y01412167D01*
X00648261Y01412067D01*
X00648255D01*
X00648242Y01412054D01*
X00648217Y01412042D01*
X00648186Y01412023D01*
X00648142Y01411998D01*
X00648098Y01411973D01*
X00647986Y01411917D01*
X00647861Y01411854D01*
X00647723Y01411786D01*
X00647580Y01411723D01*
X00647442Y01411667D01*
Y01412423D01*
X00647449Y01412429D01*
X00647474Y01412435D01*
X00647505Y01412454D01*
X00647555Y01412479D01*
X00647611Y01412510D01*
X00647673Y01412548D01*
X00647748Y01412585D01*
X00647830Y01412635D01*
X00648011Y01412742D01*
X00648205Y01412873D01*
X00648398Y01413017D01*
X00648592Y01413173D01*
X00648598Y01413179D01*
X00648611Y01413192D01*
X00648642Y01413217D01*
X00648673Y01413248D01*
X00648711Y01413291D01*
X00648761Y01413335D01*
X00648811Y01413392D01*
X00648867Y01413448D01*
X00648979Y01413579D01*
X00649092Y01413723D01*
X00649198Y01413879D01*
X00649248Y01413954D01*
X00649286Y01414035D01*
X00649798D01*
Y01407605D01*
D02*
G37*
G36*
X01062774Y01409643D02*
Y01409637D01*
Y01409605D01*
Y01409568D01*
Y01409512D01*
X01062768Y01409443D01*
X01062761Y01409368D01*
X01062755Y01409280D01*
X01062749Y01409187D01*
X01062724Y01408987D01*
X01062693Y01408781D01*
X01062643Y01408581D01*
X01062611Y01408487D01*
X01062574Y01408399D01*
Y01408393D01*
X01062568Y01408381D01*
X01062555Y01408356D01*
X01062536Y01408331D01*
X01062518Y01408293D01*
X01062493Y01408249D01*
X01062424Y01408150D01*
X01062337Y01408043D01*
X01062230Y01407931D01*
X01062105Y01407825D01*
X01061955Y01407731D01*
X01061949D01*
X01061937Y01407718D01*
X01061912Y01407712D01*
X01061880Y01407693D01*
X01061843Y01407675D01*
X01061793Y01407656D01*
X01061737Y01407637D01*
X01061674Y01407618D01*
X01061606Y01407593D01*
X01061531Y01407575D01*
X01061362Y01407537D01*
X01061174Y01407512D01*
X01060968Y01407500D01*
X01060931D01*
X01060887Y01407506D01*
X01060831D01*
X01060762Y01407512D01*
X01060681Y01407525D01*
X01060587Y01407537D01*
X01060493Y01407562D01*
X01060387Y01407587D01*
X01060281Y01407618D01*
X01060175Y01407656D01*
X01060068Y01407706D01*
X01059962Y01407756D01*
X01059862Y01407825D01*
X01059762Y01407893D01*
X01059675Y01407981D01*
X01059669Y01407987D01*
X01059656Y01408006D01*
X01059631Y01408031D01*
X01059606Y01408068D01*
X01059575Y01408125D01*
X01059537Y01408181D01*
X01059493Y01408256D01*
X01059456Y01408343D01*
X01059412Y01408437D01*
X01059375Y01408543D01*
X01059337Y01408662D01*
X01059306Y01408793D01*
X01059281Y01408931D01*
X01059262Y01409081D01*
X01059250Y01409243D01*
Y01409418D01*
X01060012Y01409524D01*
Y01409518D01*
Y01409493D01*
X01060018Y01409455D01*
Y01409405D01*
X01060025Y01409349D01*
X01060031Y01409280D01*
X01060043Y01409205D01*
X01060056Y01409124D01*
X01060087Y01408962D01*
X01060137Y01408793D01*
X01060168Y01408718D01*
X01060200Y01408643D01*
X01060237Y01408581D01*
X01060281Y01408524D01*
X01060293Y01408512D01*
X01060324Y01408481D01*
X01060381Y01408437D01*
X01060462Y01408393D01*
X01060556Y01408343D01*
X01060675Y01408299D01*
X01060812Y01408268D01*
X01060881Y01408262D01*
X01060962Y01408256D01*
X01061018D01*
X01061074Y01408262D01*
X01061149Y01408274D01*
X01061237Y01408293D01*
X01061330Y01408318D01*
X01061424Y01408349D01*
X01061512Y01408399D01*
X01061524Y01408406D01*
X01061549Y01408424D01*
X01061587Y01408456D01*
X01061637Y01408506D01*
X01061693Y01408562D01*
X01061743Y01408624D01*
X01061793Y01408706D01*
X01061830Y01408793D01*
X01061837Y01408806D01*
X01061843Y01408843D01*
X01061855Y01408868D01*
X01061862Y01408905D01*
X01061868Y01408943D01*
X01061880Y01408993D01*
X01061887Y01409043D01*
X01061893Y01409106D01*
X01061905Y01409168D01*
X01061912Y01409243D01*
X01061918Y01409318D01*
Y01409405D01*
X01061924Y01409499D01*
Y01409599D01*
Y01414010D01*
X01062774D01*
Y01409643D01*
D02*
G37*
G36*
X01066048Y01414029D02*
X01066117D01*
X01066192Y01414023D01*
X01066279Y01414010D01*
X01066379Y01413992D01*
X01066492Y01413973D01*
X01066604Y01413942D01*
X01066723Y01413911D01*
X01066848Y01413867D01*
X01066967Y01413817D01*
X01067092Y01413761D01*
X01067204Y01413692D01*
X01067317Y01413611D01*
X01067423Y01413523D01*
X01067429Y01413517D01*
X01067448Y01413498D01*
X01067473Y01413473D01*
X01067504Y01413429D01*
X01067548Y01413379D01*
X01067591Y01413323D01*
X01067641Y01413254D01*
X01067691Y01413173D01*
X01067741Y01413086D01*
X01067791Y01412986D01*
X01067835Y01412886D01*
X01067879Y01412773D01*
X01067910Y01412655D01*
X01067935Y01412523D01*
X01067954Y01412392D01*
X01067960Y01412255D01*
Y01412248D01*
Y01412236D01*
Y01412217D01*
Y01412192D01*
X01067954Y01412155D01*
Y01412117D01*
X01067941Y01412017D01*
X01067923Y01411905D01*
X01067891Y01411774D01*
X01067854Y01411636D01*
X01067798Y01411499D01*
Y01411492D01*
X01067791Y01411480D01*
X01067779Y01411461D01*
X01067766Y01411436D01*
X01067748Y01411399D01*
X01067729Y01411361D01*
X01067673Y01411261D01*
X01067604Y01411149D01*
X01067510Y01411011D01*
X01067404Y01410867D01*
X01067273Y01410717D01*
X01067266Y01410711D01*
X01067254Y01410699D01*
X01067235Y01410674D01*
X01067204Y01410643D01*
X01067160Y01410599D01*
X01067117Y01410549D01*
X01067054Y01410493D01*
X01066985Y01410424D01*
X01066910Y01410349D01*
X01066817Y01410261D01*
X01066723Y01410168D01*
X01066610Y01410068D01*
X01066492Y01409962D01*
X01066360Y01409843D01*
X01066217Y01409724D01*
X01066067Y01409593D01*
X01066061Y01409587D01*
X01066036Y01409568D01*
X01065998Y01409537D01*
X01065954Y01409499D01*
X01065898Y01409449D01*
X01065836Y01409393D01*
X01065686Y01409268D01*
X01065536Y01409137D01*
X01065386Y01409005D01*
X01065317Y01408943D01*
X01065255Y01408880D01*
X01065198Y01408831D01*
X01065155Y01408787D01*
X01065148Y01408781D01*
X01065123Y01408749D01*
X01065086Y01408706D01*
X01065036Y01408656D01*
X01064986Y01408587D01*
X01064930Y01408518D01*
X01064873Y01408443D01*
X01064823Y01408362D01*
X01067966D01*
Y01407606D01*
X01063736D01*
Y01407612D01*
Y01407618D01*
Y01407656D01*
Y01407706D01*
X01063742Y01407781D01*
X01063755Y01407862D01*
X01063767Y01407956D01*
X01063792Y01408049D01*
X01063824Y01408150D01*
Y01408156D01*
X01063830Y01408168D01*
X01063842Y01408193D01*
X01063855Y01408224D01*
X01063874Y01408262D01*
X01063892Y01408306D01*
X01063949Y01408418D01*
X01064024Y01408549D01*
X01064111Y01408693D01*
X01064217Y01408843D01*
X01064342Y01408999D01*
X01064349Y01409005D01*
X01064361Y01409018D01*
X01064380Y01409043D01*
X01064411Y01409074D01*
X01064448Y01409112D01*
X01064492Y01409162D01*
X01064542Y01409218D01*
X01064605Y01409280D01*
X01064673Y01409343D01*
X01064748Y01409418D01*
X01064836Y01409499D01*
X01064923Y01409587D01*
X01065023Y01409674D01*
X01065130Y01409768D01*
X01065248Y01409868D01*
X01065367Y01409968D01*
X01065379Y01409980D01*
X01065411Y01410005D01*
X01065467Y01410049D01*
X01065536Y01410112D01*
X01065623Y01410180D01*
X01065717Y01410268D01*
X01065823Y01410361D01*
X01065936Y01410461D01*
X01066173Y01410680D01*
X01066404Y01410905D01*
X01066510Y01411017D01*
X01066610Y01411130D01*
X01066704Y01411230D01*
X01066779Y01411330D01*
X01066785Y01411336D01*
X01066798Y01411355D01*
X01066817Y01411380D01*
X01066835Y01411417D01*
X01066867Y01411461D01*
X01066898Y01411511D01*
X01066929Y01411574D01*
X01066967Y01411636D01*
X01067035Y01411780D01*
X01067098Y01411936D01*
X01067117Y01412023D01*
X01067135Y01412105D01*
X01067148Y01412192D01*
X01067154Y01412273D01*
Y01412280D01*
Y01412292D01*
Y01412317D01*
X01067148Y01412355D01*
X01067142Y01412392D01*
X01067135Y01412436D01*
X01067110Y01412548D01*
X01067073Y01412673D01*
X01067010Y01412805D01*
X01066973Y01412867D01*
X01066929Y01412936D01*
X01066879Y01412998D01*
X01066817Y01413061D01*
X01066810Y01413067D01*
X01066804Y01413073D01*
X01066779Y01413092D01*
X01066754Y01413111D01*
X01066723Y01413136D01*
X01066679Y01413161D01*
X01066635Y01413192D01*
X01066579Y01413223D01*
X01066523Y01413254D01*
X01066454Y01413286D01*
X01066304Y01413336D01*
X01066136Y01413373D01*
X01066042Y01413379D01*
X01065942Y01413386D01*
X01065886D01*
X01065848Y01413379D01*
X01065798Y01413373D01*
X01065742Y01413367D01*
X01065679Y01413354D01*
X01065617Y01413342D01*
X01065467Y01413304D01*
X01065317Y01413242D01*
X01065242Y01413204D01*
X01065167Y01413154D01*
X01065098Y01413104D01*
X01065030Y01413042D01*
X01065023Y01413036D01*
X01065017Y01413029D01*
X01064998Y01413004D01*
X01064980Y01412979D01*
X01064955Y01412948D01*
X01064923Y01412905D01*
X01064892Y01412854D01*
X01064861Y01412798D01*
X01064830Y01412736D01*
X01064798Y01412667D01*
X01064773Y01412586D01*
X01064742Y01412505D01*
X01064723Y01412417D01*
X01064705Y01412317D01*
X01064698Y01412217D01*
X01064692Y01412105D01*
X01063886Y01412186D01*
Y01412198D01*
X01063892Y01412223D01*
X01063899Y01412273D01*
X01063905Y01412336D01*
X01063924Y01412411D01*
X01063942Y01412498D01*
X01063967Y01412592D01*
X01063992Y01412698D01*
X01064030Y01412805D01*
X01064074Y01412917D01*
X01064124Y01413029D01*
X01064180Y01413148D01*
X01064249Y01413261D01*
X01064324Y01413367D01*
X01064411Y01413467D01*
X01064505Y01413561D01*
X01064511Y01413567D01*
X01064530Y01413579D01*
X01064561Y01413604D01*
X01064605Y01413636D01*
X01064661Y01413673D01*
X01064723Y01413710D01*
X01064805Y01413754D01*
X01064892Y01413798D01*
X01064992Y01413842D01*
X01065098Y01413885D01*
X01065217Y01413923D01*
X01065348Y01413961D01*
X01065486Y01413992D01*
X01065636Y01414017D01*
X01065792Y01414029D01*
X01065961Y01414035D01*
X01066004D01*
X01066048Y01414029D01*
D02*
G37*
G36*
X01899936Y01414029D02*
X01899986D01*
X01900036Y01414023D01*
X01900098Y01414017D01*
X01900167Y01414011D01*
X01900317Y01413979D01*
X01900473Y01413942D01*
X01900642Y01413886D01*
X01900810Y01413811D01*
X01900817D01*
X01900829Y01413798D01*
X01900854Y01413786D01*
X01900885Y01413767D01*
X01900923Y01413748D01*
X01900960Y01413717D01*
X01901060Y01413648D01*
X01901173Y01413561D01*
X01901285Y01413455D01*
X01901391Y01413330D01*
X01901485Y01413192D01*
Y01413186D01*
X01901498Y01413173D01*
X01901510Y01413155D01*
X01901523Y01413123D01*
X01901541Y01413092D01*
X01901560Y01413048D01*
X01901604Y01412942D01*
X01901648Y01412823D01*
X01901685Y01412680D01*
X01901710Y01412530D01*
X01901723Y01412367D01*
Y01412361D01*
Y01412349D01*
Y01412330D01*
X01901716Y01412299D01*
Y01412261D01*
X01901710Y01412217D01*
X01901698Y01412117D01*
X01901666Y01411999D01*
X01901629Y01411874D01*
X01901573Y01411743D01*
X01901498Y01411611D01*
Y01411605D01*
X01901485Y01411599D01*
X01901473Y01411580D01*
X01901454Y01411555D01*
X01901404Y01411493D01*
X01901329Y01411418D01*
X01901235Y01411330D01*
X01901123Y01411243D01*
X01900992Y01411155D01*
X01900835Y01411074D01*
X01900842D01*
X01900860Y01411068D01*
X01900892Y01411061D01*
X01900929Y01411049D01*
X01900979Y01411030D01*
X01901029Y01411012D01*
X01901160Y01410955D01*
X01901298Y01410887D01*
X01901448Y01410786D01*
X01901591Y01410674D01*
X01901654Y01410605D01*
X01901716Y01410530D01*
X01901723Y01410524D01*
X01901729Y01410512D01*
X01901748Y01410487D01*
X01901766Y01410455D01*
X01901791Y01410418D01*
X01901816Y01410368D01*
X01901848Y01410312D01*
X01901879Y01410249D01*
X01901904Y01410174D01*
X01901935Y01410099D01*
X01901960Y01410012D01*
X01901985Y01409924D01*
X01902023Y01409724D01*
X01902029Y01409612D01*
X01902035Y01409499D01*
Y01409493D01*
Y01409462D01*
X01902029Y01409418D01*
Y01409362D01*
X01902016Y01409287D01*
X01902004Y01409206D01*
X01901985Y01409112D01*
X01901960Y01409006D01*
X01901929Y01408900D01*
X01901885Y01408787D01*
X01901835Y01408668D01*
X01901779Y01408550D01*
X01901704Y01408431D01*
X01901623Y01408306D01*
X01901529Y01408193D01*
X01901423Y01408081D01*
X01901416Y01408075D01*
X01901398Y01408056D01*
X01901360Y01408025D01*
X01901310Y01407993D01*
X01901254Y01407944D01*
X01901179Y01407900D01*
X01901098Y01407843D01*
X01900998Y01407793D01*
X01900892Y01407737D01*
X01900773Y01407681D01*
X01900648Y01407637D01*
X01900510Y01407594D01*
X01900367Y01407556D01*
X01900211Y01407525D01*
X01900048Y01407506D01*
X01899873Y01407500D01*
X01899836D01*
X01899792Y01407506D01*
X01899736D01*
X01899661Y01407512D01*
X01899579Y01407525D01*
X01899486Y01407544D01*
X01899379Y01407562D01*
X01899273Y01407587D01*
X01899161Y01407625D01*
X01899042Y01407662D01*
X01898930Y01407712D01*
X01898811Y01407769D01*
X01898692Y01407837D01*
X01898580Y01407912D01*
X01898473Y01408000D01*
X01898467Y01408006D01*
X01898448Y01408025D01*
X01898423Y01408050D01*
X01898386Y01408094D01*
X01898342Y01408143D01*
X01898292Y01408200D01*
X01898242Y01408268D01*
X01898186Y01408350D01*
X01898130Y01408437D01*
X01898073Y01408537D01*
X01898024Y01408643D01*
X01897974Y01408762D01*
X01897930Y01408887D01*
X01897892Y01409018D01*
X01897861Y01409156D01*
X01897842Y01409306D01*
X01898630Y01409412D01*
Y01409406D01*
X01898636Y01409381D01*
X01898642Y01409349D01*
X01898655Y01409299D01*
X01898667Y01409249D01*
X01898686Y01409181D01*
X01898711Y01409112D01*
X01898736Y01409037D01*
X01898798Y01408881D01*
X01898880Y01408718D01*
X01898973Y01408568D01*
X01899030Y01408506D01*
X01899086Y01408443D01*
X01899092D01*
X01899098Y01408431D01*
X01899117Y01408418D01*
X01899142Y01408400D01*
X01899173Y01408375D01*
X01899211Y01408350D01*
X01899305Y01408300D01*
X01899423Y01408243D01*
X01899561Y01408193D01*
X01899711Y01408162D01*
X01899792Y01408156D01*
X01899879Y01408150D01*
X01899936D01*
X01899973Y01408156D01*
X01900023Y01408162D01*
X01900073Y01408168D01*
X01900135Y01408181D01*
X01900204Y01408200D01*
X01900354Y01408243D01*
X01900429Y01408275D01*
X01900510Y01408312D01*
X01900592Y01408356D01*
X01900667Y01408406D01*
X01900742Y01408462D01*
X01900817Y01408531D01*
X01900823Y01408537D01*
X01900835Y01408550D01*
X01900854Y01408568D01*
X01900879Y01408600D01*
X01900904Y01408637D01*
X01900935Y01408681D01*
X01900973Y01408731D01*
X01901010Y01408793D01*
X01901042Y01408856D01*
X01901079Y01408931D01*
X01901142Y01409093D01*
X01901160Y01409181D01*
X01901179Y01409274D01*
X01901192Y01409374D01*
X01901198Y01409481D01*
Y01409487D01*
Y01409506D01*
Y01409531D01*
X01901192Y01409574D01*
X01901185Y01409618D01*
X01901179Y01409674D01*
X01901167Y01409731D01*
X01901154Y01409799D01*
X01901110Y01409937D01*
X01901085Y01410012D01*
X01901048Y01410087D01*
X01901004Y01410162D01*
X01900960Y01410237D01*
X01900904Y01410305D01*
X01900842Y01410374D01*
X01900835Y01410380D01*
X01900823Y01410387D01*
X01900804Y01410405D01*
X01900779Y01410430D01*
X01900742Y01410455D01*
X01900698Y01410487D01*
X01900654Y01410518D01*
X01900598Y01410549D01*
X01900535Y01410580D01*
X01900467Y01410612D01*
X01900311Y01410668D01*
X01900135Y01410712D01*
X01900042Y01410718D01*
X01899942Y01410724D01*
X01899904D01*
X01899854Y01410718D01*
X01899792Y01410712D01*
X01899711Y01410705D01*
X01899617Y01410693D01*
X01899511Y01410668D01*
X01899392Y01410643D01*
X01899479Y01411330D01*
X01899492D01*
X01899523Y01411324D01*
X01899567Y01411318D01*
X01899654D01*
X01899692Y01411324D01*
X01899736D01*
X01899786Y01411330D01*
X01899842Y01411343D01*
X01899904Y01411349D01*
X01900048Y01411380D01*
X01900198Y01411430D01*
X01900354Y01411493D01*
X01900510Y01411580D01*
X01900517Y01411586D01*
X01900529Y01411593D01*
X01900548Y01411605D01*
X01900573Y01411630D01*
X01900604Y01411655D01*
X01900642Y01411693D01*
X01900673Y01411730D01*
X01900717Y01411780D01*
X01900754Y01411830D01*
X01900785Y01411893D01*
X01900823Y01411961D01*
X01900854Y01412030D01*
X01900879Y01412111D01*
X01900898Y01412199D01*
X01900910Y01412286D01*
X01900917Y01412386D01*
Y01412392D01*
Y01412405D01*
Y01412430D01*
X01900910Y01412461D01*
Y01412499D01*
X01900904Y01412542D01*
X01900879Y01412642D01*
X01900848Y01412755D01*
X01900792Y01412874D01*
X01900723Y01412992D01*
X01900673Y01413048D01*
X01900623Y01413105D01*
X01900617Y01413111D01*
X01900610Y01413117D01*
X01900592Y01413130D01*
X01900573Y01413148D01*
X01900504Y01413198D01*
X01900417Y01413248D01*
X01900311Y01413298D01*
X01900179Y01413348D01*
X01900029Y01413380D01*
X01899954Y01413392D01*
X01899823D01*
X01899792Y01413386D01*
X01899748D01*
X01899704Y01413380D01*
X01899598Y01413355D01*
X01899473Y01413323D01*
X01899348Y01413267D01*
X01899217Y01413198D01*
X01899155Y01413148D01*
X01899098Y01413098D01*
X01899092Y01413092D01*
X01899086Y01413086D01*
X01899067Y01413067D01*
X01899048Y01413042D01*
X01899023Y01413017D01*
X01898998Y01412980D01*
X01898967Y01412936D01*
X01898936Y01412886D01*
X01898905Y01412823D01*
X01898867Y01412761D01*
X01898836Y01412692D01*
X01898805Y01412611D01*
X01898780Y01412530D01*
X01898748Y01412436D01*
X01898730Y01412342D01*
X01898711Y01412236D01*
X01897924Y01412374D01*
Y01412380D01*
X01897930Y01412411D01*
X01897942Y01412449D01*
X01897955Y01412505D01*
X01897974Y01412567D01*
X01897999Y01412648D01*
X01898024Y01412730D01*
X01898061Y01412823D01*
X01898098Y01412917D01*
X01898148Y01413017D01*
X01898199Y01413123D01*
X01898261Y01413223D01*
X01898324Y01413323D01*
X01898398Y01413423D01*
X01898486Y01413511D01*
X01898573Y01413598D01*
X01898580Y01413604D01*
X01898598Y01413617D01*
X01898623Y01413636D01*
X01898667Y01413667D01*
X01898717Y01413698D01*
X01898773Y01413736D01*
X01898848Y01413779D01*
X01898923Y01413817D01*
X01899011Y01413861D01*
X01899111Y01413898D01*
X01899217Y01413936D01*
X01899330Y01413967D01*
X01899448Y01413998D01*
X01899573Y01414017D01*
X01899711Y01414029D01*
X01899848Y01414036D01*
X01899898D01*
X01899936Y01414029D01*
D02*
G37*
G36*
X01896774Y01409643D02*
Y01409637D01*
Y01409606D01*
Y01409568D01*
Y01409512D01*
X01896768Y01409443D01*
X01896761Y01409368D01*
X01896755Y01409281D01*
X01896749Y01409187D01*
X01896724Y01408987D01*
X01896693Y01408781D01*
X01896643Y01408581D01*
X01896611Y01408487D01*
X01896574Y01408400D01*
Y01408393D01*
X01896568Y01408381D01*
X01896555Y01408356D01*
X01896536Y01408331D01*
X01896518Y01408293D01*
X01896493Y01408250D01*
X01896424Y01408150D01*
X01896337Y01408044D01*
X01896230Y01407931D01*
X01896105Y01407825D01*
X01895955Y01407731D01*
X01895949D01*
X01895937Y01407719D01*
X01895912Y01407712D01*
X01895880Y01407694D01*
X01895843Y01407675D01*
X01895793Y01407656D01*
X01895737Y01407637D01*
X01895674Y01407619D01*
X01895605Y01407594D01*
X01895530Y01407575D01*
X01895362Y01407537D01*
X01895174Y01407512D01*
X01894968Y01407500D01*
X01894931D01*
X01894887Y01407506D01*
X01894831D01*
X01894762Y01407512D01*
X01894681Y01407525D01*
X01894587Y01407537D01*
X01894493Y01407562D01*
X01894387Y01407587D01*
X01894281Y01407619D01*
X01894174Y01407656D01*
X01894068Y01407706D01*
X01893962Y01407756D01*
X01893862Y01407825D01*
X01893762Y01407894D01*
X01893675Y01407981D01*
X01893668Y01407987D01*
X01893656Y01408006D01*
X01893631Y01408031D01*
X01893606Y01408069D01*
X01893575Y01408125D01*
X01893537Y01408181D01*
X01893493Y01408256D01*
X01893456Y01408343D01*
X01893412Y01408437D01*
X01893375Y01408543D01*
X01893337Y01408662D01*
X01893306Y01408793D01*
X01893281Y01408931D01*
X01893262Y01409081D01*
X01893250Y01409243D01*
Y01409418D01*
X01894012Y01409524D01*
Y01409518D01*
Y01409493D01*
X01894018Y01409456D01*
Y01409406D01*
X01894025Y01409349D01*
X01894031Y01409281D01*
X01894043Y01409206D01*
X01894056Y01409124D01*
X01894087Y01408962D01*
X01894137Y01408793D01*
X01894168Y01408718D01*
X01894200Y01408643D01*
X01894237Y01408581D01*
X01894281Y01408525D01*
X01894293Y01408512D01*
X01894324Y01408481D01*
X01894381Y01408437D01*
X01894462Y01408393D01*
X01894556Y01408343D01*
X01894674Y01408300D01*
X01894812Y01408268D01*
X01894881Y01408262D01*
X01894962Y01408256D01*
X01895018D01*
X01895074Y01408262D01*
X01895149Y01408275D01*
X01895237Y01408293D01*
X01895331Y01408318D01*
X01895424Y01408350D01*
X01895512Y01408400D01*
X01895524Y01408406D01*
X01895549Y01408425D01*
X01895587Y01408456D01*
X01895637Y01408506D01*
X01895693Y01408562D01*
X01895743Y01408625D01*
X01895793Y01408706D01*
X01895830Y01408793D01*
X01895837Y01408806D01*
X01895843Y01408843D01*
X01895855Y01408868D01*
X01895862Y01408906D01*
X01895868Y01408943D01*
X01895880Y01408993D01*
X01895887Y01409043D01*
X01895893Y01409106D01*
X01895905Y01409168D01*
X01895912Y01409243D01*
X01895918Y01409318D01*
Y01409406D01*
X01895924Y01409499D01*
Y01409599D01*
Y01414011D01*
X01896774D01*
Y01409643D01*
D02*
G37*
G36*
X01069856Y01196078D02*
X01069963D01*
X01070081Y01196072D01*
X01070212Y01196060D01*
X01070362Y01196053D01*
X01070512Y01196035D01*
X01070675Y01196022D01*
X01071000Y01195972D01*
X01071162Y01195941D01*
X01071319Y01195903D01*
X01071468Y01195866D01*
X01071612Y01195816D01*
X01071618D01*
X01071643Y01195804D01*
X01071681Y01195791D01*
X01071731Y01195766D01*
X01071793Y01195735D01*
X01071862Y01195704D01*
X01071937Y01195666D01*
X01072025Y01195616D01*
X01072199Y01195504D01*
X01072387Y01195366D01*
X01072562Y01195210D01*
X01072643Y01195116D01*
X01072718Y01195023D01*
X01072724Y01195016D01*
X01072737Y01194997D01*
X01072756Y01194973D01*
X01072774Y01194929D01*
X01072806Y01194879D01*
X01072837Y01194816D01*
X01072868Y01194748D01*
X01072906Y01194673D01*
X01072943Y01194585D01*
X01072974Y01194491D01*
X01073006Y01194391D01*
X01073037Y01194279D01*
X01073055Y01194166D01*
X01073074Y01194048D01*
X01073087Y01193923D01*
X01073093Y01193792D01*
Y01193717D01*
X01073087Y01193667D01*
X01073081Y01193604D01*
X01073068Y01193529D01*
X01073055Y01193442D01*
X01073043Y01193354D01*
X01072993Y01193160D01*
X01072962Y01193054D01*
X01072918Y01192954D01*
X01072874Y01192848D01*
X01072818Y01192748D01*
X01072756Y01192654D01*
X01072681Y01192561D01*
X01072674Y01192554D01*
X01072662Y01192542D01*
X01072637Y01192517D01*
X01072606Y01192486D01*
X01072562Y01192448D01*
X01072506Y01192404D01*
X01072449Y01192361D01*
X01072374Y01192311D01*
X01072299Y01192261D01*
X01072206Y01192211D01*
X01072112Y01192167D01*
X01072006Y01192123D01*
X01071893Y01192079D01*
X01071768Y01192042D01*
X01071637Y01192017D01*
X01071500Y01191992D01*
X01071431Y01192748D01*
X01071437D01*
X01071456Y01192754D01*
X01071481Y01192761D01*
X01071518Y01192767D01*
X01071562Y01192779D01*
X01071612Y01192792D01*
X01071731Y01192829D01*
X01071856Y01192879D01*
X01071987Y01192942D01*
X01072106Y01193017D01*
X01072162Y01193061D01*
X01072212Y01193111D01*
Y01193117D01*
X01072225Y01193123D01*
X01072250Y01193160D01*
X01072287Y01193217D01*
X01072331Y01193298D01*
X01072374Y01193398D01*
X01072412Y01193517D01*
X01072437Y01193654D01*
X01072449Y01193804D01*
Y01193867D01*
X01072443Y01193935D01*
X01072431Y01194023D01*
X01072412Y01194117D01*
X01072381Y01194229D01*
X01072343Y01194335D01*
X01072287Y01194441D01*
Y01194448D01*
X01072281Y01194454D01*
X01072256Y01194485D01*
X01072218Y01194535D01*
X01072168Y01194598D01*
X01072106Y01194673D01*
X01072031Y01194748D01*
X01071943Y01194816D01*
X01071843Y01194885D01*
X01071837D01*
X01071831Y01194891D01*
X01071812Y01194904D01*
X01071793Y01194916D01*
X01071731Y01194948D01*
X01071643Y01194985D01*
X01071537Y01195035D01*
X01071406Y01195085D01*
X01071262Y01195135D01*
X01071094Y01195179D01*
X01071087D01*
X01071075Y01195185D01*
X01071043Y01195191D01*
X01071012Y01195198D01*
X01070968Y01195204D01*
X01070919Y01195216D01*
X01070862Y01195229D01*
X01070794Y01195241D01*
X01070650Y01195260D01*
X01070487Y01195279D01*
X01070312Y01195291D01*
X01070131Y01195297D01*
X01070119D01*
X01070088D01*
X01070044D01*
X01069981D01*
X01069994Y01195285D01*
X01070013Y01195272D01*
X01070038Y01195254D01*
X01070106Y01195204D01*
X01070194Y01195129D01*
X01070287Y01195035D01*
X01070387Y01194922D01*
X01070487Y01194791D01*
X01070581Y01194648D01*
Y01194641D01*
X01070594Y01194629D01*
X01070600Y01194610D01*
X01070619Y01194579D01*
X01070637Y01194541D01*
X01070656Y01194491D01*
X01070675Y01194441D01*
X01070694Y01194385D01*
X01070737Y01194254D01*
X01070775Y01194104D01*
X01070800Y01193941D01*
X01070812Y01193767D01*
Y01193729D01*
X01070806Y01193692D01*
Y01193635D01*
X01070794Y01193567D01*
X01070781Y01193485D01*
X01070762Y01193398D01*
X01070737Y01193304D01*
X01070712Y01193198D01*
X01070675Y01193092D01*
X01070625Y01192979D01*
X01070569Y01192867D01*
X01070506Y01192754D01*
X01070425Y01192642D01*
X01070338Y01192529D01*
X01070238Y01192423D01*
X01070231Y01192417D01*
X01070212Y01192398D01*
X01070175Y01192373D01*
X01070131Y01192336D01*
X01070075Y01192298D01*
X01070006Y01192248D01*
X01069925Y01192198D01*
X01069831Y01192148D01*
X01069731Y01192098D01*
X01069613Y01192048D01*
X01069488Y01191998D01*
X01069357Y01191961D01*
X01069206Y01191923D01*
X01069056Y01191898D01*
X01068894Y01191880D01*
X01068719Y01191873D01*
X01068707D01*
X01068675D01*
X01068625Y01191880D01*
X01068557D01*
X01068475Y01191892D01*
X01068382Y01191905D01*
X01068276Y01191923D01*
X01068157Y01191942D01*
X01068038Y01191973D01*
X01067907Y01192011D01*
X01067776Y01192061D01*
X01067644Y01192111D01*
X01067513Y01192179D01*
X01067388Y01192254D01*
X01067263Y01192342D01*
X01067151Y01192442D01*
X01067144Y01192448D01*
X01067126Y01192467D01*
X01067094Y01192498D01*
X01067057Y01192548D01*
X01067013Y01192604D01*
X01066963Y01192667D01*
X01066907Y01192748D01*
X01066851Y01192836D01*
X01066801Y01192935D01*
X01066745Y01193048D01*
X01066695Y01193167D01*
X01066651Y01193292D01*
X01066613Y01193429D01*
X01066582Y01193573D01*
X01066563Y01193729D01*
X01066557Y01193885D01*
Y01193948D01*
X01066563Y01193991D01*
X01066570Y01194048D01*
X01066576Y01194110D01*
X01066582Y01194185D01*
X01066601Y01194260D01*
X01066638Y01194441D01*
X01066701Y01194629D01*
X01066738Y01194729D01*
X01066782Y01194829D01*
X01066832Y01194929D01*
X01066895Y01195029D01*
X01066901Y01195035D01*
X01066907Y01195054D01*
X01066932Y01195079D01*
X01066957Y01195116D01*
X01066995Y01195160D01*
X01067032Y01195210D01*
X01067082Y01195260D01*
X01067138Y01195322D01*
X01067207Y01195385D01*
X01067276Y01195447D01*
X01067357Y01195516D01*
X01067444Y01195579D01*
X01067538Y01195641D01*
X01067638Y01195704D01*
X01067744Y01195766D01*
X01067857Y01195816D01*
X01067863Y01195822D01*
X01067888Y01195828D01*
X01067919Y01195841D01*
X01067969Y01195860D01*
X01068038Y01195879D01*
X01068113Y01195903D01*
X01068207Y01195928D01*
X01068313Y01195954D01*
X01068432Y01195978D01*
X01068569Y01195997D01*
X01068713Y01196022D01*
X01068875Y01196041D01*
X01069050Y01196060D01*
X01069238Y01196072D01*
X01069444Y01196085D01*
X01069656D01*
X01069663D01*
X01069669D01*
X01069688D01*
X01069713D01*
X01069775D01*
X01069856Y01196078D01*
D02*
G37*
G36*
X01070444Y01190780D02*
X01070525D01*
X01070619Y01190774D01*
X01070725Y01190767D01*
X01070837Y01190761D01*
X01070956Y01190749D01*
X01071081Y01190730D01*
X01071337Y01190692D01*
X01071587Y01190642D01*
X01071706Y01190605D01*
X01071818Y01190567D01*
X01071825D01*
X01071843Y01190555D01*
X01071875Y01190542D01*
X01071912Y01190524D01*
X01071962Y01190499D01*
X01072018Y01190467D01*
X01072081Y01190430D01*
X01072150Y01190386D01*
X01072218Y01190336D01*
X01072293Y01190280D01*
X01072368Y01190211D01*
X01072449Y01190143D01*
X01072524Y01190061D01*
X01072599Y01189974D01*
X01072674Y01189880D01*
X01072743Y01189774D01*
X01072749Y01189768D01*
X01072756Y01189749D01*
X01072774Y01189718D01*
X01072799Y01189674D01*
X01072824Y01189611D01*
X01072856Y01189543D01*
X01072887Y01189468D01*
X01072918Y01189374D01*
X01072949Y01189274D01*
X01072980Y01189162D01*
X01073012Y01189036D01*
X01073037Y01188905D01*
X01073062Y01188762D01*
X01073081Y01188612D01*
X01073087Y01188449D01*
X01073093Y01188280D01*
Y01188193D01*
X01073087Y01188130D01*
X01073081Y01188055D01*
X01073074Y01187968D01*
X01073068Y01187868D01*
X01073055Y01187762D01*
X01073037Y01187643D01*
X01073018Y01187524D01*
X01072962Y01187281D01*
X01072931Y01187156D01*
X01072887Y01187037D01*
X01072843Y01186918D01*
X01072787Y01186806D01*
X01072781Y01186800D01*
X01072774Y01186781D01*
X01072756Y01186750D01*
X01072731Y01186712D01*
X01072699Y01186668D01*
X01072656Y01186612D01*
X01072612Y01186556D01*
X01072556Y01186493D01*
X01072499Y01186425D01*
X01072431Y01186356D01*
X01072356Y01186287D01*
X01072274Y01186225D01*
X01072187Y01186162D01*
X01072093Y01186100D01*
X01071993Y01186044D01*
X01071887Y01185994D01*
X01071881D01*
X01071862Y01185981D01*
X01071825Y01185969D01*
X01071781Y01185956D01*
X01071718Y01185937D01*
X01071650Y01185919D01*
X01071562Y01185894D01*
X01071468Y01185875D01*
X01071356Y01185850D01*
X01071237Y01185825D01*
X01071106Y01185806D01*
X01070962Y01185787D01*
X01070806Y01185775D01*
X01070644Y01185762D01*
X01070469Y01185750D01*
X01070281D01*
X01066582D01*
Y01186600D01*
X01070281D01*
X01070287D01*
X01070319D01*
X01070362D01*
X01070419D01*
X01070487Y01186606D01*
X01070562D01*
X01070650Y01186612D01*
X01070744Y01186618D01*
X01070950Y01186637D01*
X01071150Y01186662D01*
X01071250Y01186681D01*
X01071344Y01186700D01*
X01071431Y01186725D01*
X01071512Y01186750D01*
X01071518D01*
X01071531Y01186756D01*
X01071550Y01186768D01*
X01071575Y01186781D01*
X01071650Y01186818D01*
X01071737Y01186875D01*
X01071831Y01186950D01*
X01071931Y01187037D01*
X01072031Y01187150D01*
X01072118Y01187281D01*
Y01187287D01*
X01072124Y01187299D01*
X01072137Y01187318D01*
X01072150Y01187349D01*
X01072168Y01187387D01*
X01072187Y01187431D01*
X01072206Y01187481D01*
X01072225Y01187537D01*
X01072243Y01187606D01*
X01072262Y01187674D01*
X01072299Y01187831D01*
X01072324Y01188012D01*
X01072331Y01188205D01*
Y01188293D01*
X01072324Y01188355D01*
X01072318Y01188437D01*
X01072306Y01188524D01*
X01072293Y01188618D01*
X01072281Y01188724D01*
X01072231Y01188943D01*
X01072193Y01189049D01*
X01072156Y01189162D01*
X01072106Y01189268D01*
X01072049Y01189368D01*
X01071987Y01189455D01*
X01071912Y01189536D01*
X01071906Y01189543D01*
X01071893Y01189555D01*
X01071862Y01189574D01*
X01071825Y01189599D01*
X01071775Y01189630D01*
X01071712Y01189661D01*
X01071637Y01189699D01*
X01071550Y01189736D01*
X01071443Y01189774D01*
X01071325Y01189811D01*
X01071193Y01189843D01*
X01071043Y01189874D01*
X01070881Y01189899D01*
X01070700Y01189918D01*
X01070500Y01189930D01*
X01070281Y01189936D01*
X01066582D01*
Y01190786D01*
X01070281D01*
X01070294D01*
X01070325D01*
X01070375D01*
X01070444Y01190780D01*
D02*
G37*
G36*
X01235601Y01199022D02*
X01230596D01*
Y01199015D01*
X01230609Y01199009D01*
X01230621Y01198990D01*
X01230640Y01198971D01*
X01230696Y01198909D01*
X01230765Y01198821D01*
X01230846Y01198715D01*
X01230940Y01198584D01*
X01231040Y01198434D01*
X01231140Y01198272D01*
Y01198265D01*
X01231152Y01198253D01*
X01231165Y01198228D01*
X01231183Y01198197D01*
X01231208Y01198153D01*
X01231233Y01198109D01*
X01231290Y01197997D01*
X01231352Y01197872D01*
X01231421Y01197734D01*
X01231483Y01197591D01*
X01231540Y01197453D01*
X01230783D01*
X01230777Y01197459D01*
X01230771Y01197484D01*
X01230752Y01197516D01*
X01230727Y01197566D01*
X01230696Y01197622D01*
X01230658Y01197684D01*
X01230621Y01197759D01*
X01230571Y01197840D01*
X01230465Y01198022D01*
X01230334Y01198215D01*
X01230190Y01198409D01*
X01230034Y01198603D01*
X01230027Y01198609D01*
X01230015Y01198622D01*
X01229990Y01198653D01*
X01229959Y01198684D01*
X01229915Y01198721D01*
X01229871Y01198772D01*
X01229815Y01198821D01*
X01229759Y01198878D01*
X01229628Y01198990D01*
X01229484Y01199103D01*
X01229328Y01199209D01*
X01229253Y01199259D01*
X01229171Y01199296D01*
Y01199809D01*
X01235601D01*
Y01199022D01*
D02*
G37*
G36*
Y01194048D02*
X01230596D01*
Y01194042D01*
X01230609Y01194035D01*
X01230621Y01194016D01*
X01230640Y01193998D01*
X01230696Y01193935D01*
X01230765Y01193848D01*
X01230846Y01193742D01*
X01230940Y01193610D01*
X01231040Y01193460D01*
X01231140Y01193298D01*
Y01193292D01*
X01231152Y01193279D01*
X01231165Y01193254D01*
X01231183Y01193223D01*
X01231208Y01193179D01*
X01231233Y01193136D01*
X01231290Y01193023D01*
X01231352Y01192898D01*
X01231421Y01192761D01*
X01231483Y01192617D01*
X01231540Y01192479D01*
X01230783D01*
X01230777Y01192486D01*
X01230771Y01192511D01*
X01230752Y01192542D01*
X01230727Y01192592D01*
X01230696Y01192648D01*
X01230658Y01192711D01*
X01230621Y01192785D01*
X01230571Y01192867D01*
X01230465Y01193048D01*
X01230334Y01193242D01*
X01230190Y01193435D01*
X01230034Y01193629D01*
X01230027Y01193635D01*
X01230015Y01193648D01*
X01229990Y01193679D01*
X01229959Y01193710D01*
X01229915Y01193748D01*
X01229871Y01193798D01*
X01229815Y01193848D01*
X01229759Y01193904D01*
X01229628Y01194016D01*
X01229484Y01194129D01*
X01229328Y01194235D01*
X01229253Y01194285D01*
X01229171Y01194323D01*
Y01194835D01*
X01235601D01*
Y01194048D01*
D02*
G37*
G36*
X01233058Y01190780D02*
X01233139D01*
X01233233Y01190774D01*
X01233339Y01190767D01*
X01233452Y01190761D01*
X01233570Y01190749D01*
X01233695Y01190730D01*
X01233951Y01190692D01*
X01234201Y01190642D01*
X01234320Y01190605D01*
X01234433Y01190567D01*
X01234439D01*
X01234458Y01190555D01*
X01234489Y01190542D01*
X01234526Y01190524D01*
X01234576Y01190499D01*
X01234632Y01190467D01*
X01234695Y01190430D01*
X01234764Y01190386D01*
X01234833Y01190336D01*
X01234908Y01190280D01*
X01234982Y01190211D01*
X01235064Y01190143D01*
X01235139Y01190061D01*
X01235214Y01189974D01*
X01235289Y01189880D01*
X01235357Y01189774D01*
X01235364Y01189768D01*
X01235370Y01189749D01*
X01235389Y01189718D01*
X01235414Y01189674D01*
X01235439Y01189611D01*
X01235470Y01189543D01*
X01235501Y01189468D01*
X01235532Y01189374D01*
X01235564Y01189274D01*
X01235595Y01189162D01*
X01235626Y01189036D01*
X01235651Y01188905D01*
X01235676Y01188762D01*
X01235695Y01188612D01*
X01235701Y01188449D01*
X01235707Y01188280D01*
Y01188193D01*
X01235701Y01188130D01*
X01235695Y01188055D01*
X01235688Y01187968D01*
X01235682Y01187868D01*
X01235670Y01187762D01*
X01235651Y01187643D01*
X01235632Y01187524D01*
X01235576Y01187281D01*
X01235545Y01187156D01*
X01235501Y01187037D01*
X01235457Y01186918D01*
X01235401Y01186806D01*
X01235395Y01186800D01*
X01235389Y01186781D01*
X01235370Y01186750D01*
X01235345Y01186712D01*
X01235314Y01186668D01*
X01235270Y01186612D01*
X01235226Y01186556D01*
X01235170Y01186493D01*
X01235114Y01186425D01*
X01235045Y01186356D01*
X01234970Y01186287D01*
X01234889Y01186225D01*
X01234801Y01186162D01*
X01234707Y01186100D01*
X01234607Y01186043D01*
X01234501Y01185993D01*
X01234495D01*
X01234476Y01185981D01*
X01234439Y01185968D01*
X01234395Y01185956D01*
X01234333Y01185937D01*
X01234264Y01185919D01*
X01234176Y01185894D01*
X01234083Y01185875D01*
X01233970Y01185850D01*
X01233851Y01185825D01*
X01233720Y01185806D01*
X01233577Y01185787D01*
X01233420Y01185775D01*
X01233258Y01185762D01*
X01233083Y01185750D01*
X01232896D01*
X01229196D01*
Y01186600D01*
X01232896D01*
X01232902D01*
X01232933D01*
X01232977D01*
X01233033D01*
X01233102Y01186606D01*
X01233177D01*
X01233264Y01186612D01*
X01233358Y01186618D01*
X01233564Y01186637D01*
X01233764Y01186662D01*
X01233864Y01186681D01*
X01233958Y01186700D01*
X01234045Y01186725D01*
X01234126Y01186750D01*
X01234133D01*
X01234145Y01186756D01*
X01234164Y01186768D01*
X01234189Y01186781D01*
X01234264Y01186818D01*
X01234351Y01186875D01*
X01234445Y01186949D01*
X01234545Y01187037D01*
X01234645Y01187150D01*
X01234733Y01187281D01*
Y01187287D01*
X01234739Y01187299D01*
X01234751Y01187318D01*
X01234764Y01187349D01*
X01234782Y01187387D01*
X01234801Y01187431D01*
X01234820Y01187481D01*
X01234839Y01187537D01*
X01234857Y01187606D01*
X01234876Y01187674D01*
X01234914Y01187831D01*
X01234939Y01188012D01*
X01234945Y01188205D01*
Y01188293D01*
X01234939Y01188355D01*
X01234932Y01188437D01*
X01234920Y01188524D01*
X01234908Y01188618D01*
X01234895Y01188724D01*
X01234845Y01188943D01*
X01234808Y01189049D01*
X01234770Y01189162D01*
X01234720Y01189268D01*
X01234664Y01189368D01*
X01234601Y01189455D01*
X01234526Y01189536D01*
X01234520Y01189543D01*
X01234508Y01189555D01*
X01234476Y01189574D01*
X01234439Y01189599D01*
X01234389Y01189630D01*
X01234326Y01189661D01*
X01234251Y01189699D01*
X01234164Y01189736D01*
X01234058Y01189774D01*
X01233939Y01189811D01*
X01233808Y01189843D01*
X01233658Y01189874D01*
X01233495Y01189899D01*
X01233314Y01189918D01*
X01233114Y01189930D01*
X01232896Y01189936D01*
X01229196D01*
Y01190786D01*
X01232896D01*
X01232908D01*
X01232939D01*
X01232989D01*
X01233058Y01190780D01*
D02*
G37*
G36*
X01396403Y01201040D02*
X01396460D01*
X01396534Y01201027D01*
X01396616Y01201015D01*
X01396709Y01200996D01*
X01396816Y01200971D01*
X01396922Y01200940D01*
X01397034Y01200896D01*
X01397153Y01200846D01*
X01397272Y01200790D01*
X01397391Y01200715D01*
X01397516Y01200634D01*
X01397628Y01200540D01*
X01397740Y01200434D01*
X01397747Y01200427D01*
X01397766Y01200409D01*
X01397797Y01200371D01*
X01397828Y01200321D01*
X01397878Y01200265D01*
X01397922Y01200190D01*
X01397978Y01200109D01*
X01398028Y01200009D01*
X01398084Y01199902D01*
X01398140Y01199784D01*
X01398184Y01199659D01*
X01398228Y01199521D01*
X01398265Y01199378D01*
X01398297Y01199221D01*
X01398315Y01199059D01*
X01398322Y01198884D01*
Y01198847D01*
X01398315Y01198803D01*
Y01198746D01*
X01398309Y01198672D01*
X01398297Y01198590D01*
X01398278Y01198497D01*
X01398259Y01198390D01*
X01398234Y01198284D01*
X01398197Y01198172D01*
X01398159Y01198053D01*
X01398109Y01197941D01*
X01398053Y01197822D01*
X01397984Y01197703D01*
X01397909Y01197591D01*
X01397822Y01197484D01*
X01397815Y01197478D01*
X01397797Y01197459D01*
X01397772Y01197434D01*
X01397728Y01197397D01*
X01397678Y01197353D01*
X01397622Y01197303D01*
X01397553Y01197253D01*
X01397472Y01197197D01*
X01397384Y01197141D01*
X01397284Y01197085D01*
X01397178Y01197035D01*
X01397059Y01196984D01*
X01396934Y01196941D01*
X01396803Y01196903D01*
X01396666Y01196872D01*
X01396516Y01196853D01*
X01396410Y01197641D01*
X01396416D01*
X01396441Y01197647D01*
X01396472Y01197653D01*
X01396522Y01197666D01*
X01396572Y01197678D01*
X01396641Y01197697D01*
X01396709Y01197722D01*
X01396785Y01197747D01*
X01396941Y01197809D01*
X01397103Y01197890D01*
X01397253Y01197984D01*
X01397316Y01198040D01*
X01397378Y01198097D01*
Y01198103D01*
X01397391Y01198109D01*
X01397403Y01198128D01*
X01397422Y01198153D01*
X01397447Y01198184D01*
X01397472Y01198222D01*
X01397522Y01198315D01*
X01397578Y01198434D01*
X01397628Y01198572D01*
X01397659Y01198722D01*
X01397666Y01198803D01*
X01397672Y01198890D01*
Y01198947D01*
X01397666Y01198984D01*
X01397659Y01199034D01*
X01397653Y01199084D01*
X01397641Y01199146D01*
X01397622Y01199215D01*
X01397578Y01199365D01*
X01397547Y01199440D01*
X01397509Y01199521D01*
X01397466Y01199603D01*
X01397415Y01199678D01*
X01397359Y01199753D01*
X01397291Y01199827D01*
X01397284Y01199834D01*
X01397272Y01199846D01*
X01397253Y01199865D01*
X01397222Y01199890D01*
X01397184Y01199915D01*
X01397141Y01199946D01*
X01397091Y01199984D01*
X01397028Y01200021D01*
X01396966Y01200052D01*
X01396891Y01200090D01*
X01396728Y01200152D01*
X01396641Y01200171D01*
X01396547Y01200190D01*
X01396447Y01200202D01*
X01396341Y01200209D01*
X01396335D01*
X01396316D01*
X01396291D01*
X01396247Y01200202D01*
X01396203Y01200196D01*
X01396147Y01200190D01*
X01396091Y01200177D01*
X01396022Y01200165D01*
X01395885Y01200121D01*
X01395810Y01200096D01*
X01395735Y01200059D01*
X01395660Y01200015D01*
X01395585Y01199971D01*
X01395516Y01199915D01*
X01395447Y01199853D01*
X01395441Y01199846D01*
X01395435Y01199834D01*
X01395416Y01199815D01*
X01395391Y01199790D01*
X01395366Y01199753D01*
X01395335Y01199709D01*
X01395304Y01199665D01*
X01395272Y01199609D01*
X01395241Y01199546D01*
X01395210Y01199478D01*
X01395154Y01199321D01*
X01395110Y01199146D01*
X01395104Y01199053D01*
X01395097Y01198953D01*
Y01198915D01*
X01395104Y01198865D01*
X01395110Y01198803D01*
X01395116Y01198722D01*
X01395129Y01198628D01*
X01395154Y01198522D01*
X01395179Y01198403D01*
X01394491Y01198490D01*
Y01198503D01*
X01394498Y01198534D01*
X01394504Y01198578D01*
Y01198665D01*
X01394498Y01198703D01*
Y01198746D01*
X01394491Y01198796D01*
X01394479Y01198853D01*
X01394473Y01198915D01*
X01394441Y01199059D01*
X01394391Y01199209D01*
X01394329Y01199365D01*
X01394241Y01199521D01*
X01394235Y01199528D01*
X01394229Y01199540D01*
X01394216Y01199559D01*
X01394191Y01199584D01*
X01394166Y01199615D01*
X01394129Y01199653D01*
X01394091Y01199684D01*
X01394041Y01199727D01*
X01393991Y01199765D01*
X01393929Y01199796D01*
X01393860Y01199834D01*
X01393792Y01199865D01*
X01393710Y01199890D01*
X01393623Y01199909D01*
X01393535Y01199921D01*
X01393435Y01199928D01*
X01393429D01*
X01393417D01*
X01393392D01*
X01393360Y01199921D01*
X01393323D01*
X01393279Y01199915D01*
X01393179Y01199890D01*
X01393067Y01199859D01*
X01392948Y01199802D01*
X01392829Y01199734D01*
X01392773Y01199684D01*
X01392717Y01199634D01*
X01392711Y01199628D01*
X01392704Y01199621D01*
X01392692Y01199603D01*
X01392673Y01199584D01*
X01392623Y01199515D01*
X01392573Y01199428D01*
X01392523Y01199321D01*
X01392473Y01199190D01*
X01392442Y01199040D01*
X01392429Y01198965D01*
Y01198834D01*
X01392436Y01198803D01*
Y01198759D01*
X01392442Y01198715D01*
X01392467Y01198609D01*
X01392498Y01198484D01*
X01392554Y01198359D01*
X01392623Y01198228D01*
X01392673Y01198165D01*
X01392723Y01198109D01*
X01392729Y01198103D01*
X01392735Y01198097D01*
X01392754Y01198078D01*
X01392779Y01198059D01*
X01392804Y01198034D01*
X01392842Y01198009D01*
X01392885Y01197978D01*
X01392935Y01197947D01*
X01392998Y01197915D01*
X01393060Y01197878D01*
X01393129Y01197847D01*
X01393210Y01197815D01*
X01393292Y01197791D01*
X01393385Y01197759D01*
X01393479Y01197741D01*
X01393585Y01197722D01*
X01393448Y01196935D01*
X01393442D01*
X01393410Y01196941D01*
X01393373Y01196953D01*
X01393317Y01196966D01*
X01393254Y01196984D01*
X01393173Y01197010D01*
X01393092Y01197035D01*
X01392998Y01197072D01*
X01392904Y01197110D01*
X01392804Y01197160D01*
X01392698Y01197209D01*
X01392598Y01197272D01*
X01392498Y01197334D01*
X01392398Y01197409D01*
X01392311Y01197497D01*
X01392223Y01197584D01*
X01392217Y01197591D01*
X01392204Y01197609D01*
X01392186Y01197634D01*
X01392154Y01197678D01*
X01392123Y01197728D01*
X01392086Y01197784D01*
X01392042Y01197859D01*
X01392004Y01197934D01*
X01391961Y01198022D01*
X01391923Y01198122D01*
X01391886Y01198228D01*
X01391855Y01198340D01*
X01391823Y01198459D01*
X01391805Y01198584D01*
X01391792Y01198722D01*
X01391786Y01198859D01*
Y01198909D01*
X01391792Y01198947D01*
Y01198997D01*
X01391798Y01199046D01*
X01391805Y01199109D01*
X01391811Y01199178D01*
X01391842Y01199328D01*
X01391879Y01199484D01*
X01391936Y01199653D01*
X01392011Y01199821D01*
Y01199827D01*
X01392023Y01199840D01*
X01392036Y01199865D01*
X01392054Y01199896D01*
X01392073Y01199934D01*
X01392104Y01199971D01*
X01392173Y01200071D01*
X01392261Y01200184D01*
X01392367Y01200296D01*
X01392492Y01200402D01*
X01392629Y01200496D01*
X01392635D01*
X01392648Y01200509D01*
X01392667Y01200521D01*
X01392698Y01200534D01*
X01392729Y01200552D01*
X01392773Y01200571D01*
X01392879Y01200615D01*
X01392998Y01200659D01*
X01393142Y01200696D01*
X01393292Y01200721D01*
X01393454Y01200733D01*
X01393460D01*
X01393473D01*
X01393492D01*
X01393523Y01200727D01*
X01393560D01*
X01393604Y01200721D01*
X01393704Y01200708D01*
X01393823Y01200677D01*
X01393948Y01200640D01*
X01394079Y01200584D01*
X01394210Y01200509D01*
X01394216D01*
X01394223Y01200496D01*
X01394241Y01200484D01*
X01394266Y01200465D01*
X01394329Y01200415D01*
X01394404Y01200340D01*
X01394491Y01200246D01*
X01394579Y01200134D01*
X01394666Y01200003D01*
X01394747Y01199846D01*
Y01199853D01*
X01394754Y01199871D01*
X01394760Y01199902D01*
X01394772Y01199940D01*
X01394791Y01199990D01*
X01394810Y01200040D01*
X01394866Y01200171D01*
X01394935Y01200309D01*
X01395035Y01200459D01*
X01395147Y01200602D01*
X01395216Y01200665D01*
X01395291Y01200727D01*
X01395297Y01200733D01*
X01395310Y01200740D01*
X01395335Y01200759D01*
X01395366Y01200777D01*
X01395404Y01200802D01*
X01395453Y01200827D01*
X01395510Y01200859D01*
X01395572Y01200890D01*
X01395647Y01200915D01*
X01395722Y01200946D01*
X01395810Y01200971D01*
X01395897Y01200996D01*
X01396097Y01201033D01*
X01396210Y01201040D01*
X01396322Y01201046D01*
X01396328D01*
X01396360D01*
X01396403Y01201040D01*
D02*
G37*
G36*
X01398215Y01194048D02*
X01393210D01*
Y01194042D01*
X01393223Y01194035D01*
X01393235Y01194016D01*
X01393254Y01193998D01*
X01393310Y01193935D01*
X01393379Y01193848D01*
X01393460Y01193742D01*
X01393554Y01193610D01*
X01393654Y01193460D01*
X01393754Y01193298D01*
Y01193292D01*
X01393766Y01193279D01*
X01393779Y01193254D01*
X01393798Y01193223D01*
X01393823Y01193179D01*
X01393848Y01193136D01*
X01393904Y01193023D01*
X01393966Y01192898D01*
X01394035Y01192761D01*
X01394098Y01192617D01*
X01394154Y01192479D01*
X01393398D01*
X01393392Y01192486D01*
X01393385Y01192511D01*
X01393367Y01192542D01*
X01393342Y01192592D01*
X01393310Y01192648D01*
X01393273Y01192711D01*
X01393235Y01192786D01*
X01393185Y01192867D01*
X01393079Y01193048D01*
X01392948Y01193242D01*
X01392804Y01193435D01*
X01392648Y01193629D01*
X01392642Y01193635D01*
X01392629Y01193648D01*
X01392604Y01193679D01*
X01392573Y01193710D01*
X01392529Y01193748D01*
X01392486Y01193798D01*
X01392429Y01193848D01*
X01392373Y01193904D01*
X01392242Y01194016D01*
X01392098Y01194129D01*
X01391942Y01194235D01*
X01391867Y01194285D01*
X01391786Y01194323D01*
Y01194835D01*
X01398215D01*
Y01194048D01*
D02*
G37*
G36*
X01395672Y01190780D02*
X01395753D01*
X01395847Y01190774D01*
X01395953Y01190767D01*
X01396066Y01190761D01*
X01396185Y01190749D01*
X01396310Y01190730D01*
X01396566Y01190692D01*
X01396816Y01190642D01*
X01396934Y01190605D01*
X01397047Y01190567D01*
X01397053D01*
X01397072Y01190555D01*
X01397103Y01190542D01*
X01397141Y01190524D01*
X01397191Y01190499D01*
X01397247Y01190467D01*
X01397309Y01190430D01*
X01397378Y01190386D01*
X01397447Y01190336D01*
X01397522Y01190280D01*
X01397597Y01190211D01*
X01397678Y01190143D01*
X01397753Y01190061D01*
X01397828Y01189974D01*
X01397903Y01189880D01*
X01397972Y01189774D01*
X01397978Y01189768D01*
X01397984Y01189749D01*
X01398003Y01189718D01*
X01398028Y01189674D01*
X01398053Y01189611D01*
X01398084Y01189543D01*
X01398115Y01189468D01*
X01398147Y01189374D01*
X01398178Y01189274D01*
X01398209Y01189162D01*
X01398240Y01189036D01*
X01398265Y01188905D01*
X01398290Y01188762D01*
X01398309Y01188612D01*
X01398315Y01188449D01*
X01398322Y01188280D01*
Y01188193D01*
X01398315Y01188130D01*
X01398309Y01188055D01*
X01398303Y01187968D01*
X01398297Y01187868D01*
X01398284Y01187762D01*
X01398265Y01187643D01*
X01398247Y01187524D01*
X01398190Y01187281D01*
X01398159Y01187156D01*
X01398115Y01187037D01*
X01398072Y01186918D01*
X01398015Y01186806D01*
X01398009Y01186800D01*
X01398003Y01186781D01*
X01397984Y01186750D01*
X01397959Y01186712D01*
X01397928Y01186668D01*
X01397884Y01186612D01*
X01397840Y01186556D01*
X01397784Y01186493D01*
X01397728Y01186425D01*
X01397659Y01186356D01*
X01397584Y01186287D01*
X01397503Y01186225D01*
X01397415Y01186162D01*
X01397322Y01186100D01*
X01397222Y01186044D01*
X01397116Y01185994D01*
X01397109D01*
X01397091Y01185981D01*
X01397053Y01185969D01*
X01397009Y01185956D01*
X01396947Y01185937D01*
X01396878Y01185919D01*
X01396791Y01185894D01*
X01396697Y01185875D01*
X01396584Y01185850D01*
X01396466Y01185825D01*
X01396335Y01185806D01*
X01396191Y01185787D01*
X01396035Y01185775D01*
X01395872Y01185762D01*
X01395697Y01185750D01*
X01395510D01*
X01391811D01*
Y01186600D01*
X01395510D01*
X01395516D01*
X01395547D01*
X01395591D01*
X01395647D01*
X01395716Y01186606D01*
X01395791D01*
X01395878Y01186612D01*
X01395972Y01186618D01*
X01396178Y01186637D01*
X01396378Y01186662D01*
X01396478Y01186681D01*
X01396572Y01186700D01*
X01396660Y01186725D01*
X01396741Y01186750D01*
X01396747D01*
X01396759Y01186756D01*
X01396778Y01186768D01*
X01396803Y01186781D01*
X01396878Y01186818D01*
X01396966Y01186875D01*
X01397059Y01186950D01*
X01397159Y01187037D01*
X01397259Y01187150D01*
X01397347Y01187281D01*
Y01187287D01*
X01397353Y01187299D01*
X01397366Y01187318D01*
X01397378Y01187349D01*
X01397397Y01187387D01*
X01397415Y01187431D01*
X01397434Y01187481D01*
X01397453Y01187537D01*
X01397472Y01187606D01*
X01397491Y01187674D01*
X01397528Y01187831D01*
X01397553Y01188012D01*
X01397559Y01188205D01*
Y01188293D01*
X01397553Y01188355D01*
X01397547Y01188437D01*
X01397534Y01188524D01*
X01397522Y01188618D01*
X01397509Y01188724D01*
X01397459Y01188943D01*
X01397422Y01189049D01*
X01397384Y01189162D01*
X01397334Y01189268D01*
X01397278Y01189368D01*
X01397216Y01189455D01*
X01397141Y01189536D01*
X01397134Y01189543D01*
X01397122Y01189555D01*
X01397091Y01189574D01*
X01397053Y01189599D01*
X01397003Y01189630D01*
X01396941Y01189661D01*
X01396866Y01189699D01*
X01396778Y01189736D01*
X01396672Y01189774D01*
X01396553Y01189811D01*
X01396422Y01189843D01*
X01396272Y01189874D01*
X01396110Y01189899D01*
X01395928Y01189918D01*
X01395728Y01189930D01*
X01395510Y01189936D01*
X01391811D01*
Y01190786D01*
X01395510D01*
X01395522D01*
X01395553D01*
X01395603D01*
X01395672Y01190780D01*
D02*
G37*
G36*
X00743313Y01195185D02*
X00744844D01*
Y01194398D01*
X00743313D01*
Y01191617D01*
X00742595D01*
X00738439Y01194541D01*
Y01195185D01*
X00742595D01*
Y01196047D01*
X00743313D01*
Y01195185D01*
D02*
G37*
G36*
X00742301Y01190780D02*
X00742382D01*
X00742476Y01190774D01*
X00742582Y01190767D01*
X00742694Y01190761D01*
X00742813Y01190749D01*
X00742938Y01190730D01*
X00743194Y01190692D01*
X00743444Y01190642D01*
X00743563Y01190605D01*
X00743676Y01190567D01*
X00743682D01*
X00743700Y01190555D01*
X00743732Y01190542D01*
X00743769Y01190524D01*
X00743819Y01190499D01*
X00743876Y01190467D01*
X00743938Y01190430D01*
X00744007Y01190386D01*
X00744075Y01190336D01*
X00744150Y01190280D01*
X00744225Y01190211D01*
X00744307Y01190143D01*
X00744382Y01190061D01*
X00744457Y01189974D01*
X00744532Y01189880D01*
X00744600Y01189774D01*
X00744606Y01189768D01*
X00744613Y01189749D01*
X00744632Y01189718D01*
X00744657Y01189674D01*
X00744681Y01189611D01*
X00744713Y01189543D01*
X00744744Y01189468D01*
X00744775Y01189374D01*
X00744807Y01189274D01*
X00744838Y01189162D01*
X00744869Y01189036D01*
X00744894Y01188905D01*
X00744919Y01188762D01*
X00744938Y01188612D01*
X00744944Y01188449D01*
X00744950Y01188280D01*
Y01188193D01*
X00744944Y01188130D01*
X00744938Y01188055D01*
X00744931Y01187968D01*
X00744925Y01187868D01*
X00744913Y01187762D01*
X00744894Y01187643D01*
X00744875Y01187524D01*
X00744819Y01187281D01*
X00744788Y01187156D01*
X00744744Y01187037D01*
X00744700Y01186918D01*
X00744644Y01186806D01*
X00744638Y01186800D01*
X00744632Y01186781D01*
X00744613Y01186750D01*
X00744588Y01186712D01*
X00744557Y01186668D01*
X00744513Y01186612D01*
X00744469Y01186556D01*
X00744413Y01186493D01*
X00744357Y01186425D01*
X00744288Y01186356D01*
X00744213Y01186287D01*
X00744132Y01186225D01*
X00744044Y01186162D01*
X00743951Y01186100D01*
X00743850Y01186044D01*
X00743744Y01185994D01*
X00743738D01*
X00743719Y01185981D01*
X00743682Y01185969D01*
X00743638Y01185956D01*
X00743576Y01185937D01*
X00743507Y01185919D01*
X00743419Y01185894D01*
X00743326Y01185875D01*
X00743213Y01185850D01*
X00743094Y01185825D01*
X00742963Y01185806D01*
X00742820Y01185787D01*
X00742663Y01185775D01*
X00742501Y01185762D01*
X00742326Y01185750D01*
X00742138D01*
X00738439D01*
Y01186600D01*
X00742138D01*
X00742145D01*
X00742176D01*
X00742220D01*
X00742276D01*
X00742345Y01186606D01*
X00742420D01*
X00742507Y01186612D01*
X00742601Y01186618D01*
X00742807Y01186637D01*
X00743007Y01186662D01*
X00743107Y01186681D01*
X00743201Y01186700D01*
X00743288Y01186725D01*
X00743369Y01186750D01*
X00743376D01*
X00743388Y01186756D01*
X00743407Y01186768D01*
X00743432Y01186781D01*
X00743507Y01186818D01*
X00743594Y01186875D01*
X00743688Y01186950D01*
X00743788Y01187037D01*
X00743888Y01187150D01*
X00743975Y01187281D01*
Y01187287D01*
X00743982Y01187299D01*
X00743994Y01187318D01*
X00744007Y01187349D01*
X00744025Y01187387D01*
X00744044Y01187431D01*
X00744063Y01187481D01*
X00744082Y01187537D01*
X00744100Y01187606D01*
X00744119Y01187674D01*
X00744157Y01187831D01*
X00744182Y01188012D01*
X00744188Y01188205D01*
Y01188293D01*
X00744182Y01188355D01*
X00744175Y01188437D01*
X00744163Y01188524D01*
X00744150Y01188618D01*
X00744138Y01188724D01*
X00744088Y01188943D01*
X00744050Y01189049D01*
X00744013Y01189162D01*
X00743963Y01189268D01*
X00743907Y01189368D01*
X00743844Y01189455D01*
X00743769Y01189536D01*
X00743763Y01189543D01*
X00743751Y01189555D01*
X00743719Y01189574D01*
X00743682Y01189599D01*
X00743632Y01189630D01*
X00743569Y01189661D01*
X00743494Y01189699D01*
X00743407Y01189736D01*
X00743301Y01189774D01*
X00743182Y01189811D01*
X00743051Y01189843D01*
X00742901Y01189874D01*
X00742738Y01189899D01*
X00742557Y01189918D01*
X00742357Y01189930D01*
X00742138Y01189936D01*
X00738439D01*
Y01190786D01*
X00742138D01*
X00742151D01*
X00742182D01*
X00742232D01*
X00742301Y01190780D01*
D02*
G37*
G36*
X00585144Y01191773D02*
X00585138D01*
X00585131D01*
X00585094D01*
X00585044D01*
X00584969Y01191780D01*
X00584888Y01191792D01*
X00584794Y01191805D01*
X00584700Y01191830D01*
X00584600Y01191861D01*
X00584594D01*
X00584582Y01191867D01*
X00584557Y01191880D01*
X00584525Y01191892D01*
X00584488Y01191911D01*
X00584444Y01191929D01*
X00584332Y01191986D01*
X00584200Y01192061D01*
X00584057Y01192148D01*
X00583907Y01192254D01*
X00583750Y01192379D01*
X00583744Y01192386D01*
X00583732Y01192398D01*
X00583707Y01192417D01*
X00583675Y01192448D01*
X00583638Y01192486D01*
X00583588Y01192529D01*
X00583532Y01192579D01*
X00583469Y01192642D01*
X00583407Y01192711D01*
X00583332Y01192785D01*
X00583251Y01192873D01*
X00583163Y01192961D01*
X00583076Y01193061D01*
X00582982Y01193167D01*
X00582882Y01193285D01*
X00582782Y01193404D01*
X00582770Y01193417D01*
X00582744Y01193448D01*
X00582701Y01193504D01*
X00582638Y01193573D01*
X00582570Y01193660D01*
X00582482Y01193754D01*
X00582388Y01193860D01*
X00582288Y01193973D01*
X00582070Y01194210D01*
X00581845Y01194441D01*
X00581732Y01194548D01*
X00581620Y01194648D01*
X00581520Y01194741D01*
X00581420Y01194816D01*
X00581414Y01194822D01*
X00581395Y01194835D01*
X00581370Y01194854D01*
X00581332Y01194873D01*
X00581289Y01194904D01*
X00581239Y01194935D01*
X00581176Y01194966D01*
X00581114Y01195004D01*
X00580970Y01195072D01*
X00580814Y01195135D01*
X00580726Y01195154D01*
X00580645Y01195172D01*
X00580558Y01195185D01*
X00580476Y01195191D01*
X00580470D01*
X00580458D01*
X00580433D01*
X00580395Y01195185D01*
X00580358Y01195179D01*
X00580314Y01195172D01*
X00580201Y01195147D01*
X00580076Y01195110D01*
X00579945Y01195048D01*
X00579883Y01195010D01*
X00579814Y01194966D01*
X00579752Y01194916D01*
X00579689Y01194854D01*
X00579683Y01194847D01*
X00579677Y01194841D01*
X00579658Y01194816D01*
X00579639Y01194791D01*
X00579614Y01194760D01*
X00579589Y01194716D01*
X00579558Y01194673D01*
X00579527Y01194616D01*
X00579495Y01194560D01*
X00579464Y01194491D01*
X00579414Y01194341D01*
X00579377Y01194173D01*
X00579370Y01194079D01*
X00579364Y01193979D01*
Y01193923D01*
X00579370Y01193885D01*
X00579377Y01193835D01*
X00579383Y01193779D01*
X00579395Y01193717D01*
X00579408Y01193654D01*
X00579445Y01193504D01*
X00579508Y01193354D01*
X00579545Y01193279D01*
X00579595Y01193204D01*
X00579645Y01193136D01*
X00579708Y01193067D01*
X00579714Y01193061D01*
X00579720Y01193054D01*
X00579745Y01193036D01*
X00579770Y01193017D01*
X00579801Y01192992D01*
X00579845Y01192961D01*
X00579895Y01192929D01*
X00579952Y01192898D01*
X00580014Y01192867D01*
X00580083Y01192835D01*
X00580164Y01192811D01*
X00580245Y01192779D01*
X00580333Y01192761D01*
X00580433Y01192742D01*
X00580533Y01192736D01*
X00580645Y01192729D01*
X00580564Y01191923D01*
X00580551D01*
X00580526Y01191929D01*
X00580476Y01191936D01*
X00580414Y01191942D01*
X00580339Y01191961D01*
X00580251Y01191980D01*
X00580158Y01192004D01*
X00580051Y01192029D01*
X00579945Y01192067D01*
X00579833Y01192111D01*
X00579720Y01192161D01*
X00579602Y01192217D01*
X00579489Y01192286D01*
X00579383Y01192361D01*
X00579283Y01192448D01*
X00579189Y01192542D01*
X00579183Y01192548D01*
X00579170Y01192567D01*
X00579146Y01192598D01*
X00579114Y01192642D01*
X00579077Y01192698D01*
X00579039Y01192761D01*
X00578996Y01192842D01*
X00578952Y01192929D01*
X00578908Y01193029D01*
X00578864Y01193136D01*
X00578827Y01193254D01*
X00578789Y01193385D01*
X00578758Y01193523D01*
X00578733Y01193673D01*
X00578721Y01193829D01*
X00578714Y01193998D01*
Y01194042D01*
X00578721Y01194085D01*
Y01194154D01*
X00578727Y01194229D01*
X00578739Y01194316D01*
X00578758Y01194416D01*
X00578777Y01194529D01*
X00578808Y01194641D01*
X00578839Y01194760D01*
X00578883Y01194885D01*
X00578933Y01195004D01*
X00578989Y01195129D01*
X00579058Y01195241D01*
X00579139Y01195354D01*
X00579227Y01195460D01*
X00579233Y01195466D01*
X00579252Y01195485D01*
X00579277Y01195510D01*
X00579320Y01195541D01*
X00579370Y01195585D01*
X00579427Y01195629D01*
X00579495Y01195679D01*
X00579577Y01195729D01*
X00579664Y01195779D01*
X00579764Y01195828D01*
X00579864Y01195872D01*
X00579977Y01195916D01*
X00580095Y01195947D01*
X00580226Y01195972D01*
X00580358Y01195991D01*
X00580495Y01195997D01*
X00580501D01*
X00580514D01*
X00580533D01*
X00580558D01*
X00580595Y01195991D01*
X00580633D01*
X00580732Y01195978D01*
X00580845Y01195960D01*
X00580976Y01195928D01*
X00581114Y01195891D01*
X00581251Y01195835D01*
X00581257D01*
X00581270Y01195828D01*
X00581289Y01195816D01*
X00581314Y01195804D01*
X00581351Y01195785D01*
X00581389Y01195766D01*
X00581489Y01195710D01*
X00581601Y01195641D01*
X00581739Y01195547D01*
X00581882Y01195441D01*
X00582032Y01195310D01*
X00582038Y01195304D01*
X00582051Y01195291D01*
X00582076Y01195272D01*
X00582107Y01195241D01*
X00582151Y01195197D01*
X00582201Y01195154D01*
X00582257Y01195091D01*
X00582326Y01195023D01*
X00582401Y01194948D01*
X00582488Y01194854D01*
X00582582Y01194760D01*
X00582682Y01194648D01*
X00582788Y01194529D01*
X00582907Y01194398D01*
X00583026Y01194254D01*
X00583157Y01194104D01*
X00583163Y01194098D01*
X00583182Y01194073D01*
X00583213Y01194035D01*
X00583251Y01193991D01*
X00583301Y01193935D01*
X00583357Y01193873D01*
X00583482Y01193723D01*
X00583613Y01193573D01*
X00583744Y01193423D01*
X00583807Y01193354D01*
X00583869Y01193292D01*
X00583919Y01193235D01*
X00583963Y01193192D01*
X00583969Y01193185D01*
X00584001Y01193160D01*
X00584044Y01193123D01*
X00584094Y01193073D01*
X00584163Y01193023D01*
X00584232Y01192967D01*
X00584307Y01192911D01*
X00584388Y01192860D01*
Y01196003D01*
X00585144D01*
Y01191773D01*
D02*
G37*
G36*
X00582601Y01190780D02*
X00582682D01*
X00582776Y01190774D01*
X00582882Y01190767D01*
X00582994Y01190761D01*
X00583113Y01190749D01*
X00583238Y01190730D01*
X00583494Y01190692D01*
X00583744Y01190642D01*
X00583863Y01190605D01*
X00583975Y01190567D01*
X00583982D01*
X00584001Y01190555D01*
X00584032Y01190542D01*
X00584069Y01190524D01*
X00584119Y01190499D01*
X00584175Y01190467D01*
X00584238Y01190430D01*
X00584307Y01190386D01*
X00584375Y01190336D01*
X00584450Y01190280D01*
X00584525Y01190211D01*
X00584607Y01190143D01*
X00584682Y01190061D01*
X00584757Y01189974D01*
X00584832Y01189880D01*
X00584900Y01189774D01*
X00584907Y01189768D01*
X00584913Y01189749D01*
X00584931Y01189718D01*
X00584957Y01189674D01*
X00584981Y01189611D01*
X00585013Y01189543D01*
X00585044Y01189468D01*
X00585075Y01189374D01*
X00585106Y01189274D01*
X00585138Y01189162D01*
X00585169Y01189036D01*
X00585194Y01188905D01*
X00585219Y01188762D01*
X00585238Y01188612D01*
X00585244Y01188449D01*
X00585250Y01188280D01*
Y01188193D01*
X00585244Y01188130D01*
X00585238Y01188055D01*
X00585231Y01187968D01*
X00585225Y01187868D01*
X00585213Y01187762D01*
X00585194Y01187643D01*
X00585175Y01187524D01*
X00585119Y01187281D01*
X00585088Y01187156D01*
X00585044Y01187037D01*
X00585000Y01186918D01*
X00584944Y01186806D01*
X00584938Y01186800D01*
X00584931Y01186781D01*
X00584913Y01186750D01*
X00584888Y01186712D01*
X00584856Y01186668D01*
X00584813Y01186612D01*
X00584769Y01186556D01*
X00584713Y01186493D01*
X00584656Y01186425D01*
X00584588Y01186356D01*
X00584513Y01186287D01*
X00584432Y01186225D01*
X00584344Y01186162D01*
X00584250Y01186100D01*
X00584150Y01186043D01*
X00584044Y01185993D01*
X00584038D01*
X00584019Y01185981D01*
X00583982Y01185968D01*
X00583938Y01185956D01*
X00583876Y01185937D01*
X00583807Y01185919D01*
X00583719Y01185894D01*
X00583626Y01185875D01*
X00583513Y01185850D01*
X00583394Y01185825D01*
X00583263Y01185806D01*
X00583119Y01185787D01*
X00582963Y01185775D01*
X00582801Y01185762D01*
X00582626Y01185750D01*
X00582438D01*
X00578739D01*
Y01186600D01*
X00582438D01*
X00582445D01*
X00582476D01*
X00582520D01*
X00582576D01*
X00582645Y01186606D01*
X00582719D01*
X00582807Y01186612D01*
X00582901Y01186618D01*
X00583107Y01186637D01*
X00583307Y01186662D01*
X00583407Y01186681D01*
X00583501Y01186700D01*
X00583588Y01186725D01*
X00583669Y01186750D01*
X00583675D01*
X00583688Y01186756D01*
X00583707Y01186768D01*
X00583732Y01186781D01*
X00583807Y01186818D01*
X00583894Y01186875D01*
X00583988Y01186949D01*
X00584088Y01187037D01*
X00584188Y01187150D01*
X00584275Y01187281D01*
Y01187287D01*
X00584282Y01187299D01*
X00584294Y01187318D01*
X00584307Y01187349D01*
X00584325Y01187387D01*
X00584344Y01187431D01*
X00584363Y01187481D01*
X00584382Y01187537D01*
X00584400Y01187606D01*
X00584419Y01187674D01*
X00584457Y01187831D01*
X00584482Y01188012D01*
X00584488Y01188205D01*
Y01188293D01*
X00584482Y01188355D01*
X00584475Y01188437D01*
X00584463Y01188524D01*
X00584450Y01188618D01*
X00584438Y01188724D01*
X00584388Y01188943D01*
X00584350Y01189049D01*
X00584313Y01189162D01*
X00584263Y01189268D01*
X00584207Y01189368D01*
X00584144Y01189455D01*
X00584069Y01189536D01*
X00584063Y01189543D01*
X00584050Y01189555D01*
X00584019Y01189574D01*
X00583982Y01189599D01*
X00583932Y01189630D01*
X00583869Y01189661D01*
X00583794Y01189699D01*
X00583707Y01189736D01*
X00583601Y01189774D01*
X00583482Y01189811D01*
X00583351Y01189843D01*
X00583201Y01189874D01*
X00583038Y01189899D01*
X00582857Y01189918D01*
X00582657Y01189930D01*
X00582438Y01189936D01*
X00578739D01*
Y01190786D01*
X00582438D01*
X00582451D01*
X00582482D01*
X00582532D01*
X00582601Y01190780D01*
D02*
G37*
G36*
X01719189Y01201040D02*
X01719214Y01201021D01*
X01719252Y01200983D01*
X01719302Y01200940D01*
X01719370Y01200883D01*
X01719445Y01200821D01*
X01719539Y01200746D01*
X01719645Y01200665D01*
X01719764Y01200577D01*
X01719895Y01200477D01*
X01720039Y01200377D01*
X01720195Y01200271D01*
X01720358Y01200165D01*
X01720533Y01200052D01*
X01720720Y01199940D01*
X01720920Y01199827D01*
X01720932Y01199821D01*
X01720970Y01199802D01*
X01721026Y01199771D01*
X01721107Y01199727D01*
X01721201Y01199678D01*
X01721320Y01199621D01*
X01721451Y01199559D01*
X01721601Y01199490D01*
X01721763Y01199415D01*
X01721932Y01199340D01*
X01722120Y01199259D01*
X01722307Y01199184D01*
X01722507Y01199109D01*
X01722713Y01199034D01*
X01722926Y01198965D01*
X01723138Y01198903D01*
X01723144D01*
X01723176Y01198890D01*
X01723219Y01198878D01*
X01723275Y01198865D01*
X01723351Y01198846D01*
X01723444Y01198821D01*
X01723544Y01198803D01*
X01723657Y01198778D01*
X01723782Y01198753D01*
X01723919Y01198728D01*
X01724063Y01198703D01*
X01724219Y01198678D01*
X01724375Y01198653D01*
X01724544Y01198634D01*
X01724894Y01198603D01*
Y01197797D01*
X01724888D01*
X01724856D01*
X01724819Y01197803D01*
X01724763D01*
X01724688Y01197809D01*
X01724600Y01197815D01*
X01724500Y01197828D01*
X01724388Y01197840D01*
X01724256Y01197853D01*
X01724119Y01197872D01*
X01723969Y01197897D01*
X01723813Y01197928D01*
X01723638Y01197959D01*
X01723463Y01197997D01*
X01723269Y01198040D01*
X01723076Y01198090D01*
X01723069D01*
X01723063Y01198097D01*
X01723026Y01198103D01*
X01722969Y01198122D01*
X01722894Y01198140D01*
X01722794Y01198172D01*
X01722682Y01198209D01*
X01722557Y01198247D01*
X01722413Y01198297D01*
X01722263Y01198353D01*
X01722101Y01198415D01*
X01721926Y01198478D01*
X01721751Y01198553D01*
X01721382Y01198715D01*
X01721007Y01198903D01*
X01720995Y01198909D01*
X01720964Y01198928D01*
X01720914Y01198959D01*
X01720839Y01198996D01*
X01720757Y01199046D01*
X01720658Y01199103D01*
X01720545Y01199171D01*
X01720426Y01199246D01*
X01720295Y01199328D01*
X01720158Y01199415D01*
X01719876Y01199603D01*
X01719595Y01199815D01*
X01719458Y01199921D01*
X01719327Y01200034D01*
Y01196903D01*
X01718571D01*
Y01201046D01*
X01719183D01*
X01719189Y01201040D01*
D02*
G37*
G36*
X01724894Y01194048D02*
X01719889D01*
Y01194041D01*
X01719901Y01194035D01*
X01719914Y01194016D01*
X01719933Y01193998D01*
X01719989Y01193935D01*
X01720058Y01193848D01*
X01720139Y01193742D01*
X01720233Y01193610D01*
X01720333Y01193460D01*
X01720432Y01193298D01*
Y01193292D01*
X01720445Y01193279D01*
X01720457Y01193254D01*
X01720476Y01193223D01*
X01720501Y01193179D01*
X01720526Y01193135D01*
X01720582Y01193023D01*
X01720645Y01192898D01*
X01720714Y01192760D01*
X01720776Y01192617D01*
X01720832Y01192479D01*
X01720076D01*
X01720070Y01192486D01*
X01720064Y01192511D01*
X01720045Y01192542D01*
X01720020Y01192592D01*
X01719989Y01192648D01*
X01719951Y01192710D01*
X01719914Y01192785D01*
X01719864Y01192867D01*
X01719758Y01193048D01*
X01719626Y01193242D01*
X01719483Y01193435D01*
X01719327Y01193629D01*
X01719320Y01193635D01*
X01719308Y01193648D01*
X01719283Y01193679D01*
X01719252Y01193710D01*
X01719208Y01193748D01*
X01719164Y01193798D01*
X01719108Y01193848D01*
X01719052Y01193904D01*
X01718920Y01194016D01*
X01718777Y01194129D01*
X01718620Y01194235D01*
X01718546Y01194285D01*
X01718464Y01194323D01*
Y01194835D01*
X01724894D01*
Y01194048D01*
D02*
G37*
G36*
X01722351Y01190780D02*
X01722432D01*
X01722526Y01190773D01*
X01722632Y01190767D01*
X01722744Y01190761D01*
X01722863Y01190749D01*
X01722988Y01190730D01*
X01723244Y01190692D01*
X01723494Y01190642D01*
X01723613Y01190605D01*
X01723725Y01190567D01*
X01723732D01*
X01723750Y01190555D01*
X01723782Y01190542D01*
X01723819Y01190524D01*
X01723869Y01190499D01*
X01723925Y01190467D01*
X01723988Y01190430D01*
X01724057Y01190386D01*
X01724125Y01190336D01*
X01724200Y01190280D01*
X01724275Y01190211D01*
X01724357Y01190142D01*
X01724431Y01190061D01*
X01724507Y01189974D01*
X01724581Y01189880D01*
X01724650Y01189774D01*
X01724656Y01189768D01*
X01724663Y01189749D01*
X01724681Y01189717D01*
X01724706Y01189674D01*
X01724731Y01189611D01*
X01724763Y01189543D01*
X01724794Y01189468D01*
X01724825Y01189374D01*
X01724856Y01189274D01*
X01724888Y01189161D01*
X01724919Y01189036D01*
X01724944Y01188905D01*
X01724969Y01188762D01*
X01724988Y01188612D01*
X01724994Y01188449D01*
X01725000Y01188280D01*
Y01188193D01*
X01724994Y01188130D01*
X01724988Y01188055D01*
X01724981Y01187968D01*
X01724975Y01187868D01*
X01724963Y01187762D01*
X01724944Y01187643D01*
X01724925Y01187524D01*
X01724869Y01187281D01*
X01724838Y01187156D01*
X01724794Y01187037D01*
X01724750Y01186918D01*
X01724694Y01186806D01*
X01724688Y01186799D01*
X01724681Y01186781D01*
X01724663Y01186749D01*
X01724638Y01186712D01*
X01724606Y01186668D01*
X01724563Y01186612D01*
X01724519Y01186556D01*
X01724463Y01186493D01*
X01724406Y01186425D01*
X01724338Y01186356D01*
X01724263Y01186287D01*
X01724182Y01186225D01*
X01724094Y01186162D01*
X01724000Y01186100D01*
X01723900Y01186043D01*
X01723794Y01185993D01*
X01723788D01*
X01723769Y01185981D01*
X01723732Y01185968D01*
X01723688Y01185956D01*
X01723625Y01185937D01*
X01723557Y01185919D01*
X01723469Y01185893D01*
X01723376Y01185875D01*
X01723263Y01185850D01*
X01723144Y01185825D01*
X01723013Y01185806D01*
X01722869Y01185787D01*
X01722713Y01185775D01*
X01722551Y01185762D01*
X01722376Y01185750D01*
X01722188D01*
X01718489D01*
Y01186600D01*
X01722188D01*
X01722195D01*
X01722226D01*
X01722270D01*
X01722326D01*
X01722395Y01186606D01*
X01722469D01*
X01722557Y01186612D01*
X01722651Y01186618D01*
X01722857Y01186637D01*
X01723057Y01186662D01*
X01723157Y01186681D01*
X01723251Y01186700D01*
X01723338Y01186725D01*
X01723419Y01186749D01*
X01723425D01*
X01723438Y01186756D01*
X01723457Y01186768D01*
X01723482Y01186781D01*
X01723557Y01186818D01*
X01723644Y01186874D01*
X01723738Y01186949D01*
X01723838Y01187037D01*
X01723938Y01187149D01*
X01724025Y01187281D01*
Y01187287D01*
X01724032Y01187299D01*
X01724044Y01187318D01*
X01724057Y01187349D01*
X01724075Y01187387D01*
X01724094Y01187431D01*
X01724113Y01187481D01*
X01724132Y01187537D01*
X01724150Y01187606D01*
X01724169Y01187674D01*
X01724207Y01187831D01*
X01724232Y01188012D01*
X01724238Y01188205D01*
Y01188293D01*
X01724232Y01188355D01*
X01724225Y01188437D01*
X01724213Y01188524D01*
X01724200Y01188618D01*
X01724188Y01188724D01*
X01724138Y01188943D01*
X01724100Y01189049D01*
X01724063Y01189161D01*
X01724013Y01189268D01*
X01723957Y01189368D01*
X01723894Y01189455D01*
X01723819Y01189536D01*
X01723813Y01189543D01*
X01723800Y01189555D01*
X01723769Y01189574D01*
X01723732Y01189599D01*
X01723682Y01189630D01*
X01723619Y01189661D01*
X01723544Y01189699D01*
X01723457Y01189736D01*
X01723351Y01189774D01*
X01723232Y01189811D01*
X01723101Y01189843D01*
X01722951Y01189874D01*
X01722788Y01189899D01*
X01722607Y01189918D01*
X01722407Y01189930D01*
X01722188Y01189936D01*
X01718489D01*
Y01190786D01*
X01722188D01*
X01722201D01*
X01722232D01*
X01722282D01*
X01722351Y01190780D01*
D02*
G37*
G36*
X01558743Y01201090D02*
X01558805D01*
X01558880Y01201083D01*
X01558968Y01201071D01*
X01559068Y01201052D01*
X01559174Y01201033D01*
X01559286Y01201002D01*
X01559411Y01200971D01*
X01559536Y01200927D01*
X01559661Y01200877D01*
X01559786Y01200821D01*
X01559917Y01200752D01*
X01560042Y01200671D01*
X01560161Y01200584D01*
X01560167Y01200577D01*
X01560192Y01200552D01*
X01560230Y01200521D01*
X01560280Y01200471D01*
X01560342Y01200409D01*
X01560405Y01200334D01*
X01560473Y01200246D01*
X01560548Y01200146D01*
X01560623Y01200027D01*
X01560692Y01199902D01*
X01560755Y01199765D01*
X01560817Y01199615D01*
X01560867Y01199453D01*
X01560905Y01199284D01*
X01560930Y01199096D01*
X01560936Y01198903D01*
Y01198865D01*
X01560930Y01198821D01*
Y01198759D01*
X01560923Y01198684D01*
X01560911Y01198597D01*
X01560892Y01198503D01*
X01560873Y01198397D01*
X01560848Y01198284D01*
X01560817Y01198172D01*
X01560780Y01198053D01*
X01560730Y01197928D01*
X01560673Y01197809D01*
X01560611Y01197691D01*
X01560536Y01197578D01*
X01560448Y01197472D01*
X01560442Y01197466D01*
X01560423Y01197447D01*
X01560399Y01197422D01*
X01560361Y01197384D01*
X01560311Y01197341D01*
X01560249Y01197297D01*
X01560180Y01197241D01*
X01560105Y01197191D01*
X01560017Y01197134D01*
X01559917Y01197078D01*
X01559811Y01197028D01*
X01559692Y01196978D01*
X01559567Y01196935D01*
X01559436Y01196897D01*
X01559299Y01196866D01*
X01559149Y01196847D01*
X01559080Y01197672D01*
X01559086D01*
X01559105Y01197678D01*
X01559136Y01197684D01*
X01559180Y01197691D01*
X01559230Y01197703D01*
X01559286Y01197716D01*
X01559424Y01197759D01*
X01559567Y01197815D01*
X01559717Y01197884D01*
X01559867Y01197978D01*
X01559930Y01198034D01*
X01559992Y01198090D01*
X01559999Y01198097D01*
X01560005Y01198109D01*
X01560017Y01198128D01*
X01560036Y01198153D01*
X01560061Y01198184D01*
X01560086Y01198222D01*
X01560142Y01198322D01*
X01560199Y01198440D01*
X01560242Y01198578D01*
X01560280Y01198734D01*
X01560286Y01198815D01*
X01560292Y01198903D01*
Y01198959D01*
X01560286Y01198997D01*
X01560280Y01199046D01*
X01560267Y01199103D01*
X01560255Y01199165D01*
X01560236Y01199234D01*
X01560186Y01199390D01*
X01560155Y01199465D01*
X01560111Y01199546D01*
X01560061Y01199628D01*
X01560005Y01199709D01*
X01559942Y01199790D01*
X01559867Y01199865D01*
X01559861Y01199871D01*
X01559849Y01199884D01*
X01559824Y01199902D01*
X01559786Y01199928D01*
X01559749Y01199959D01*
X01559692Y01199990D01*
X01559630Y01200027D01*
X01559561Y01200065D01*
X01559486Y01200096D01*
X01559399Y01200134D01*
X01559305Y01200165D01*
X01559205Y01200196D01*
X01559099Y01200221D01*
X01558980Y01200240D01*
X01558861Y01200252D01*
X01558730Y01200259D01*
X01558724D01*
X01558699D01*
X01558668D01*
X01558618Y01200252D01*
X01558561Y01200246D01*
X01558499Y01200240D01*
X01558424Y01200227D01*
X01558343Y01200209D01*
X01558174Y01200165D01*
X01558087Y01200134D01*
X01557999Y01200096D01*
X01557912Y01200052D01*
X01557824Y01200003D01*
X01557743Y01199946D01*
X01557668Y01199877D01*
X01557662Y01199871D01*
X01557649Y01199859D01*
X01557630Y01199840D01*
X01557605Y01199809D01*
X01557574Y01199771D01*
X01557543Y01199727D01*
X01557505Y01199671D01*
X01557468Y01199615D01*
X01557437Y01199546D01*
X01557399Y01199471D01*
X01557368Y01199390D01*
X01557337Y01199303D01*
X01557312Y01199203D01*
X01557293Y01199103D01*
X01557280Y01198997D01*
X01557274Y01198884D01*
Y01198821D01*
X01557280Y01198784D01*
Y01198746D01*
X01557293Y01198653D01*
X01557318Y01198547D01*
X01557349Y01198434D01*
X01557393Y01198315D01*
X01557449Y01198197D01*
Y01198190D01*
X01557455Y01198184D01*
X01557480Y01198147D01*
X01557518Y01198090D01*
X01557568Y01198028D01*
X01557637Y01197947D01*
X01557712Y01197872D01*
X01557799Y01197791D01*
X01557893Y01197722D01*
X01557799Y01196984D01*
X01554506Y01197603D01*
Y01200796D01*
X01555256D01*
Y01198228D01*
X01556987Y01197884D01*
X01556981Y01197890D01*
X01556968Y01197909D01*
X01556949Y01197941D01*
X01556924Y01197984D01*
X01556893Y01198034D01*
X01556856Y01198103D01*
X01556824Y01198172D01*
X01556781Y01198253D01*
X01556743Y01198340D01*
X01556712Y01198434D01*
X01556643Y01198640D01*
X01556618Y01198746D01*
X01556599Y01198859D01*
X01556587Y01198978D01*
X01556581Y01199096D01*
Y01199134D01*
X01556587Y01199178D01*
Y01199240D01*
X01556599Y01199309D01*
X01556612Y01199396D01*
X01556631Y01199490D01*
X01556656Y01199590D01*
X01556687Y01199696D01*
X01556724Y01199815D01*
X01556768Y01199934D01*
X01556824Y01200052D01*
X01556893Y01200171D01*
X01556968Y01200290D01*
X01557062Y01200402D01*
X01557162Y01200515D01*
X01557168Y01200521D01*
X01557187Y01200540D01*
X01557224Y01200571D01*
X01557268Y01200609D01*
X01557324Y01200652D01*
X01557393Y01200696D01*
X01557474Y01200752D01*
X01557568Y01200808D01*
X01557668Y01200859D01*
X01557780Y01200915D01*
X01557905Y01200958D01*
X01558037Y01201008D01*
X01558180Y01201040D01*
X01558330Y01201071D01*
X01558493Y01201090D01*
X01558661Y01201096D01*
X01558674D01*
X01558699D01*
X01558743Y01201090D01*
D02*
G37*
G36*
X01560830Y01194048D02*
X01555825D01*
Y01194042D01*
X01555837Y01194035D01*
X01555850Y01194016D01*
X01555868Y01193998D01*
X01555925Y01193935D01*
X01555993Y01193848D01*
X01556075Y01193742D01*
X01556168Y01193610D01*
X01556268Y01193460D01*
X01556368Y01193298D01*
Y01193292D01*
X01556381Y01193279D01*
X01556393Y01193254D01*
X01556412Y01193223D01*
X01556437Y01193179D01*
X01556462Y01193136D01*
X01556518Y01193023D01*
X01556581Y01192898D01*
X01556649Y01192761D01*
X01556712Y01192617D01*
X01556768Y01192479D01*
X01556012D01*
X01556006Y01192486D01*
X01556000Y01192511D01*
X01555981Y01192542D01*
X01555956Y01192592D01*
X01555925Y01192648D01*
X01555887Y01192711D01*
X01555850Y01192785D01*
X01555800Y01192867D01*
X01555693Y01193048D01*
X01555562Y01193242D01*
X01555419Y01193435D01*
X01555262Y01193629D01*
X01555256Y01193635D01*
X01555244Y01193648D01*
X01555219Y01193679D01*
X01555187Y01193710D01*
X01555143Y01193748D01*
X01555100Y01193798D01*
X01555044Y01193848D01*
X01554987Y01193904D01*
X01554856Y01194016D01*
X01554712Y01194129D01*
X01554556Y01194235D01*
X01554481Y01194285D01*
X01554400Y01194323D01*
Y01194835D01*
X01560830D01*
Y01194048D01*
D02*
G37*
G36*
X01558286Y01190780D02*
X01558368D01*
X01558461Y01190774D01*
X01558568Y01190767D01*
X01558680Y01190761D01*
X01558799Y01190749D01*
X01558924Y01190730D01*
X01559180Y01190692D01*
X01559430Y01190642D01*
X01559549Y01190605D01*
X01559661Y01190567D01*
X01559667D01*
X01559686Y01190555D01*
X01559717Y01190542D01*
X01559755Y01190524D01*
X01559805Y01190499D01*
X01559861Y01190467D01*
X01559924Y01190430D01*
X01559992Y01190386D01*
X01560061Y01190336D01*
X01560136Y01190280D01*
X01560211Y01190211D01*
X01560292Y01190143D01*
X01560367Y01190061D01*
X01560442Y01189974D01*
X01560517Y01189880D01*
X01560586Y01189774D01*
X01560592Y01189768D01*
X01560598Y01189749D01*
X01560617Y01189718D01*
X01560642Y01189674D01*
X01560667Y01189611D01*
X01560698Y01189543D01*
X01560730Y01189468D01*
X01560761Y01189374D01*
X01560792Y01189274D01*
X01560823Y01189162D01*
X01560855Y01189036D01*
X01560880Y01188905D01*
X01560905Y01188762D01*
X01560923Y01188612D01*
X01560930Y01188449D01*
X01560936Y01188280D01*
Y01188193D01*
X01560930Y01188130D01*
X01560923Y01188055D01*
X01560917Y01187968D01*
X01560911Y01187868D01*
X01560898Y01187762D01*
X01560880Y01187643D01*
X01560861Y01187524D01*
X01560805Y01187281D01*
X01560773Y01187156D01*
X01560730Y01187037D01*
X01560686Y01186918D01*
X01560630Y01186806D01*
X01560623Y01186800D01*
X01560617Y01186781D01*
X01560598Y01186750D01*
X01560573Y01186712D01*
X01560542Y01186668D01*
X01560498Y01186612D01*
X01560455Y01186556D01*
X01560399Y01186493D01*
X01560342Y01186425D01*
X01560273Y01186356D01*
X01560199Y01186287D01*
X01560117Y01186225D01*
X01560030Y01186162D01*
X01559936Y01186100D01*
X01559836Y01186043D01*
X01559730Y01185993D01*
X01559724D01*
X01559705Y01185981D01*
X01559667Y01185968D01*
X01559624Y01185956D01*
X01559561Y01185937D01*
X01559492Y01185919D01*
X01559405Y01185894D01*
X01559311Y01185875D01*
X01559199Y01185850D01*
X01559080Y01185825D01*
X01558949Y01185806D01*
X01558805Y01185787D01*
X01558649Y01185775D01*
X01558486Y01185762D01*
X01558311Y01185750D01*
X01558124D01*
X01554425D01*
Y01186600D01*
X01558124D01*
X01558130D01*
X01558161D01*
X01558205D01*
X01558262D01*
X01558330Y01186606D01*
X01558405D01*
X01558493Y01186612D01*
X01558586Y01186618D01*
X01558793Y01186637D01*
X01558993Y01186662D01*
X01559093Y01186681D01*
X01559186Y01186700D01*
X01559274Y01186725D01*
X01559355Y01186750D01*
X01559361D01*
X01559374Y01186756D01*
X01559393Y01186768D01*
X01559418Y01186781D01*
X01559492Y01186818D01*
X01559580Y01186875D01*
X01559674Y01186949D01*
X01559774Y01187037D01*
X01559874Y01187150D01*
X01559961Y01187281D01*
Y01187287D01*
X01559967Y01187299D01*
X01559980Y01187318D01*
X01559992Y01187349D01*
X01560011Y01187387D01*
X01560030Y01187431D01*
X01560049Y01187481D01*
X01560067Y01187537D01*
X01560086Y01187606D01*
X01560105Y01187674D01*
X01560142Y01187831D01*
X01560167Y01188012D01*
X01560173Y01188205D01*
Y01188293D01*
X01560167Y01188355D01*
X01560161Y01188437D01*
X01560148Y01188524D01*
X01560136Y01188618D01*
X01560123Y01188724D01*
X01560074Y01188943D01*
X01560036Y01189049D01*
X01559999Y01189162D01*
X01559949Y01189268D01*
X01559892Y01189368D01*
X01559830Y01189455D01*
X01559755Y01189536D01*
X01559749Y01189543D01*
X01559736Y01189555D01*
X01559705Y01189574D01*
X01559667Y01189599D01*
X01559617Y01189630D01*
X01559555Y01189661D01*
X01559480Y01189699D01*
X01559393Y01189736D01*
X01559286Y01189774D01*
X01559167Y01189811D01*
X01559036Y01189843D01*
X01558886Y01189874D01*
X01558724Y01189899D01*
X01558543Y01189918D01*
X01558343Y01189930D01*
X01558124Y01189936D01*
X01554425D01*
Y01190786D01*
X01558124D01*
X01558136D01*
X01558168D01*
X01558218D01*
X01558286Y01190780D01*
D02*
G37*
%LPC*%
G36*
X00908342Y01195266D02*
X00908335D01*
X00908310D01*
X00908279D01*
X00908229Y01195260D01*
X00908179Y01195254D01*
X00908111Y01195247D01*
X00908042Y01195235D01*
X00907961Y01195222D01*
X00907798Y01195179D01*
X00907711Y01195154D01*
X00907623Y01195116D01*
X00907536Y01195072D01*
X00907455Y01195029D01*
X00907373Y01194973D01*
X00907298Y01194910D01*
X00907292Y01194904D01*
X00907280Y01194891D01*
X00907261Y01194873D01*
X00907236Y01194847D01*
X00907211Y01194810D01*
X00907173Y01194772D01*
X00907142Y01194723D01*
X00907105Y01194666D01*
X00907067Y01194604D01*
X00907036Y01194541D01*
X00906973Y01194385D01*
X00906948Y01194304D01*
X00906930Y01194210D01*
X00906917Y01194117D01*
X00906911Y01194016D01*
Y01193967D01*
X00906917Y01193929D01*
X00906923Y01193885D01*
X00906930Y01193829D01*
X00906942Y01193773D01*
X00906961Y01193704D01*
X00907005Y01193567D01*
X00907036Y01193492D01*
X00907073Y01193410D01*
X00907117Y01193335D01*
X00907173Y01193260D01*
X00907230Y01193185D01*
X00907298Y01193117D01*
X00907305Y01193111D01*
X00907317Y01193098D01*
X00907336Y01193085D01*
X00907367Y01193061D01*
X00907404Y01193029D01*
X00907448Y01192998D01*
X00907505Y01192967D01*
X00907567Y01192935D01*
X00907636Y01192898D01*
X00907711Y01192867D01*
X00907792Y01192835D01*
X00907879Y01192804D01*
X00907973Y01192779D01*
X00908079Y01192767D01*
X00908186Y01192754D01*
X00908298Y01192748D01*
X00908304D01*
X00908317D01*
X00908335D01*
X00908367D01*
X00908404Y01192754D01*
X00908448D01*
X00908548Y01192767D01*
X00908667Y01192792D01*
X00908798Y01192817D01*
X00908935Y01192860D01*
X00909079Y01192917D01*
X00909085D01*
X00909098Y01192923D01*
X00909117Y01192935D01*
X00909141Y01192948D01*
X00909204Y01192986D01*
X00909285Y01193042D01*
X00909379Y01193111D01*
X00909473Y01193192D01*
X00909560Y01193292D01*
X00909641Y01193398D01*
Y01193404D01*
X00909648Y01193410D01*
X00909660Y01193429D01*
X00909673Y01193454D01*
X00909704Y01193510D01*
X00909735Y01193592D01*
X00909773Y01193692D01*
X00909804Y01193804D01*
X00909829Y01193923D01*
X00909835Y01194048D01*
Y01194098D01*
X00909829Y01194129D01*
X00909823Y01194173D01*
X00909816Y01194223D01*
X00909785Y01194341D01*
X00909735Y01194479D01*
X00909704Y01194548D01*
X00909666Y01194623D01*
X00909623Y01194691D01*
X00909566Y01194766D01*
X00909504Y01194835D01*
X00909435Y01194904D01*
X00909429Y01194910D01*
X00909417Y01194922D01*
X00909391Y01194935D01*
X00909360Y01194960D01*
X00909323Y01194985D01*
X00909273Y01195016D01*
X00909217Y01195054D01*
X00909148Y01195085D01*
X00909073Y01195116D01*
X00908992Y01195154D01*
X00908904Y01195185D01*
X00908804Y01195210D01*
X00908698Y01195235D01*
X00908585Y01195254D01*
X00908467Y01195260D01*
X00908342Y01195266D01*
D02*
G37*
G36*
X01483360Y01412749D02*
X01481349Y01409855D01*
X01483360D01*
Y01412749D01*
D02*
G37*
G36*
X01068682Y01195210D02*
X01068675D01*
X01068650D01*
X01068619D01*
X01068569Y01195204D01*
X01068513Y01195198D01*
X01068444Y01195191D01*
X01068375Y01195179D01*
X01068294Y01195166D01*
X01068126Y01195123D01*
X01068032Y01195091D01*
X01067944Y01195060D01*
X01067857Y01195016D01*
X01067769Y01194966D01*
X01067682Y01194910D01*
X01067607Y01194847D01*
X01067601Y01194841D01*
X01067588Y01194829D01*
X01067569Y01194810D01*
X01067544Y01194785D01*
X01067513Y01194748D01*
X01067482Y01194710D01*
X01067444Y01194660D01*
X01067407Y01194604D01*
X01067332Y01194479D01*
X01067270Y01194329D01*
X01067244Y01194248D01*
X01067226Y01194166D01*
X01067213Y01194073D01*
X01067207Y01193979D01*
Y01193929D01*
X01067213Y01193892D01*
X01067219Y01193848D01*
X01067232Y01193792D01*
X01067244Y01193735D01*
X01067263Y01193667D01*
X01067282Y01193598D01*
X01067313Y01193523D01*
X01067345Y01193448D01*
X01067388Y01193373D01*
X01067438Y01193298D01*
X01067494Y01193217D01*
X01067563Y01193142D01*
X01067638Y01193067D01*
X01067644Y01193061D01*
X01067657Y01193048D01*
X01067682Y01193029D01*
X01067713Y01193004D01*
X01067757Y01192979D01*
X01067807Y01192942D01*
X01067869Y01192911D01*
X01067938Y01192873D01*
X01068013Y01192836D01*
X01068094Y01192804D01*
X01068188Y01192767D01*
X01068282Y01192742D01*
X01068388Y01192717D01*
X01068500Y01192698D01*
X01068619Y01192686D01*
X01068744Y01192679D01*
X01068750D01*
X01068769D01*
X01068800D01*
X01068844Y01192686D01*
X01068900Y01192692D01*
X01068957Y01192698D01*
X01069025Y01192711D01*
X01069100Y01192723D01*
X01069257Y01192767D01*
X01069338Y01192798D01*
X01069419Y01192836D01*
X01069506Y01192873D01*
X01069588Y01192923D01*
X01069663Y01192979D01*
X01069738Y01193042D01*
X01069744Y01193048D01*
X01069756Y01193061D01*
X01069775Y01193079D01*
X01069794Y01193111D01*
X01069825Y01193142D01*
X01069856Y01193186D01*
X01069894Y01193235D01*
X01069925Y01193292D01*
X01069963Y01193360D01*
X01070000Y01193429D01*
X01070056Y01193585D01*
X01070081Y01193667D01*
X01070100Y01193760D01*
X01070113Y01193854D01*
X01070119Y01193954D01*
Y01194010D01*
X01070113Y01194048D01*
X01070106Y01194091D01*
X01070100Y01194148D01*
X01070088Y01194210D01*
X01070069Y01194273D01*
X01070025Y01194416D01*
X01069994Y01194491D01*
X01069956Y01194566D01*
X01069913Y01194641D01*
X01069863Y01194716D01*
X01069806Y01194785D01*
X01069738Y01194854D01*
X01069731Y01194860D01*
X01069719Y01194866D01*
X01069700Y01194885D01*
X01069669Y01194910D01*
X01069631Y01194935D01*
X01069581Y01194966D01*
X01069525Y01194997D01*
X01069463Y01195035D01*
X01069394Y01195066D01*
X01069313Y01195098D01*
X01069225Y01195129D01*
X01069131Y01195154D01*
X01069032Y01195179D01*
X01068919Y01195198D01*
X01068807Y01195204D01*
X01068682Y01195210D01*
D02*
G37*
G36*
X00742595Y01194398D02*
X00739702D01*
X00742595Y01192386D01*
Y01194398D01*
D02*
G37*
%LPD*%
D13*
X00864228Y01150000D02*
X00956729D01*
Y01221500D01*
X00864228D02*
X00956729D01*
X00864228Y01150000D02*
Y01221500D01*
X01372750Y01395500D02*
Y01419500D01*
Y01395500D02*
X01579750D01*
Y01419500D01*
X01372750D02*
X01579750D01*
X00538750Y01419500D02*
X00745750D01*
Y01395500D02*
Y01419500D01*
X00538750Y01395500D02*
X00745750D01*
X00538750D02*
Y01419500D01*
X00955750D02*
X01162750D01*
Y01395500D02*
Y01419500D01*
X00955750Y01395500D02*
X01162750D01*
X00955750D02*
Y01419500D01*
X01789750Y01395500D02*
Y01419500D01*
Y01395500D02*
X01996750D01*
Y01419500D01*
X01789750D02*
X01996750D01*
X01026843Y01150000D02*
X01119343D01*
Y01221500D01*
X01026843D02*
X01119343D01*
X01026843Y01150000D02*
Y01221500D01*
X01189457Y01150000D02*
X01281957D01*
Y01221500D01*
X01189457D02*
X01281957D01*
X01189457Y01150000D02*
Y01221500D01*
X01352072Y01150000D02*
X01444572D01*
Y01221500D01*
X01352072D02*
X01444572D01*
X01352072Y01150000D02*
Y01221500D01*
X00698700Y01150000D02*
X00791200D01*
Y01221500D01*
X00698700D02*
X00791200D01*
X00698700Y01150000D02*
Y01221500D01*
X00539000Y01150000D02*
X00631500D01*
Y01221500D01*
X00539000D02*
X00631500D01*
X00539000Y01150000D02*
Y01221500D01*
X01678750Y01150000D02*
X01771250D01*
Y01221500D01*
X01678750D02*
X01771250D01*
X01678750Y01150000D02*
Y01221500D01*
X01514686Y01150000D02*
X01607186D01*
Y01221500D01*
X01514686D02*
X01607186D01*
X01514686Y01150000D02*
Y01221500D01*
M02*
