G04*
G04 #@! TF.GenerationSoftware,Altium Limited,Altium Designer,25.2.1 (25)*
G04*
G04 Layer_Color=32896*
%FSAX44Y44*%
%MOMM*%
G71*
G04*
G04 #@! TF.SameCoordinates,F3945BAA-94F4-4F02-825A-217E7DD4EA31*
G04*
G04*
G04 #@! TF.FilePolarity,Positive*
G04*
G01*
G75*
%ADD10C,0.2500*%
%ADD11C,0.6000*%
%ADD12C,0.2540*%
%ADD13C,0.2000*%
D10*
X01881600Y01241000D02*
G03*
X01881600Y01241000I-00001250J00000000D01*
G01*
D11*
X01894250Y01216500D02*
G03*
X01894250Y01216500I-00003000J00000000D01*
G01*
D12*
X01849632Y01205446D02*
X01862328D01*
X01864868Y01202907D01*
Y01197828D01*
X01862328Y01195289D01*
X01849632D01*
Y01190211D02*
Y01180054D01*
X01852172D01*
X01862328Y01190211D01*
X01864868D01*
X00933382Y01413023D02*
Y01418101D01*
Y01415562D01*
X00946078D01*
X00948617Y01418101D01*
Y01420640D01*
X00946078Y01423180D01*
X00948617Y01397788D02*
Y01407945D01*
X00938461Y01397788D01*
X00935922D01*
X00933382Y01400327D01*
Y01405405D01*
X00935922Y01407945D01*
X00517132Y01406765D02*
Y01411844D01*
Y01409305D01*
X00529828D01*
X00532368Y01411844D01*
Y01414383D01*
X00529828Y01416922D01*
X00532368Y01401687D02*
Y01396609D01*
Y01399148D01*
X00517132D01*
X00519672Y01401687D01*
D13*
X02011250Y01158500D02*
Y01226500D01*
X01881250Y01158500D02*
Y01226500D01*
Y01158500D02*
X02011250D01*
X01881250Y01226500D02*
X02011250D01*
M02*
