G04*
G04 #@! TF.GenerationSoftware,Altium Limited,Altium Designer,25.2.1 (25)*
G04*
G04 Layer_Color=32768*
%FSAX44Y44*%
%MOMM*%
G71*
G04*
G04 #@! TF.SameCoordinates,F3945BAA-94F4-4F02-825A-217E7DD4EA31*
G04*
G04*
G04 #@! TF.FilePolarity,Positive*
G04*
G01*
G75*
%ADD13C,0.2000*%
D13*
X00864228Y01150000D02*
X00956729D01*
Y01221500D01*
X00864228D02*
X00956729D01*
X00864228Y01150000D02*
Y01221500D01*
X01372750Y01395500D02*
Y01419500D01*
Y01395500D02*
X01579750D01*
Y01419500D01*
X01372750D02*
X01579750D01*
X00538750Y01419500D02*
X00745750D01*
Y01395500D02*
Y01419500D01*
X00538750Y01395500D02*
X00745750D01*
X00538750D02*
Y01419500D01*
X00955750D02*
X01162750D01*
Y01395500D02*
Y01419500D01*
X00955750Y01395500D02*
X01162750D01*
X00955750D02*
Y01419500D01*
X01789750Y01395500D02*
Y01419500D01*
Y01395500D02*
X01996750D01*
Y01419500D01*
X01789750D02*
X01996750D01*
X01026843Y01150000D02*
X01119343D01*
Y01221500D01*
X01026843D02*
X01119343D01*
X01026843Y01150000D02*
Y01221500D01*
X01189457Y01150000D02*
X01281957D01*
Y01221500D01*
X01189457D02*
X01281957D01*
X01189457Y01150000D02*
Y01221500D01*
X01352072Y01150000D02*
X01444572D01*
Y01221500D01*
X01352072D02*
X01444572D01*
X01352072Y01150000D02*
Y01221500D01*
X00698700Y01150000D02*
X00791200D01*
Y01221500D01*
X00698700D02*
X00791200D01*
X00698700Y01150000D02*
Y01221500D01*
X00539000Y01150000D02*
X00631500D01*
Y01221500D01*
X00539000D02*
X00631500D01*
X00539000Y01150000D02*
Y01221500D01*
X01678750Y01150000D02*
X01771250D01*
Y01221500D01*
X01678750D02*
X01771250D01*
X01678750Y01150000D02*
Y01221500D01*
X01514686Y01150000D02*
X01607186D01*
Y01221500D01*
X01514686D02*
X01607186D01*
X01514686Y01150000D02*
Y01221500D01*
M02*
