G04*
G04 #@! TF.GenerationSoftware,Altium Limited,Altium Designer,25.2.1 (25)*
G04*
G04 Layer_Color=0*
%FSAX44Y44*%
%MOMM*%
G71*
G04*
G04 #@! TF.SameCoordinates,F3945BAA-94F4-4F02-825A-217E7DD4EA31*
G04*
G04*
G04 #@! TF.FilePolarity,Positive*
G04*
G01*
G75*
%ADD35C,0.1000*%
D35*
X00905479Y01185750D02*
X00915479D01*
X00910479Y01180750D02*
Y01190750D01*
X01476250Y01402500D02*
Y01412500D01*
X01471250Y01407500D02*
X01481250D01*
X00637250Y01407500D02*
X00647250D01*
X00642250Y01402500D02*
Y01412499D01*
X01054250Y01407500D02*
X01064250D01*
X01059250Y01402500D02*
Y01412500D01*
X01893250Y01402500D02*
Y01412500D01*
X01888250Y01407500D02*
X01898250D01*
X01068093Y01185750D02*
X01078093D01*
X01073093Y01180750D02*
Y01190750D01*
X01230707Y01185750D02*
X01240707D01*
X01235707Y01180750D02*
Y01190750D01*
X01393322Y01185750D02*
X01403322D01*
X01398321Y01180750D02*
Y01190750D01*
X00739950Y01185750D02*
X00749950D01*
X00744950Y01180750D02*
Y01190750D01*
X00580250Y01185750D02*
X00590250D01*
X00585250Y01180750D02*
Y01190750D01*
X01720000Y01185750D02*
X01730000D01*
X01725000Y01180750D02*
Y01190750D01*
X01555936Y01185750D02*
X01565936D01*
X01560936Y01180750D02*
Y01190750D01*
M02*
