M48
;Layer_Color=9474304
;FILE_FORMAT=4:4
METRIC
;TYPE=PLATED
T01F00S00C0.7112
T02F00S00C0.8000
%
T01
X00560750Y01040000
X00545500Y01057000
X00580250Y01026000
X00602000Y01005250
X00740750Y01024750
X00759750Y01004000
X00721250Y01055500
X00725250Y01109500
X00769750Y01126250
X00648000Y01176000
X00806000Y01176500
X00856250Y01089250
X00866000Y01056000
X00895750Y01039250
X00923500Y01004000
X00910000Y01090250
X00937500Y01125500
X00971000Y01177000
X01012500Y01089250
X01033750Y01056750
X01070750Y01090250
X01051000Y01110000
X01101000Y01124000
X01134500Y01175750
X01154750Y01073000
X01086250Y01002500
X01198000Y01057750
X01214250Y01042750
X01245000Y01026500
X01253500Y01074750
X01261500Y01124500
X01296500Y01176000
X01328045Y01072455
X01367000Y01057000
X01398000Y01025750
X01416000Y01072000
X01427500Y01124750
X01378000Y01109000
X01506500Y01090250
X01489795Y01072455
X01517000Y01055000
X01540750Y01040250
X01553500Y01090250
X01581500Y01071500
X01586250Y01124250
X01460000Y01176000
X01622000
X01667000Y01092250
X01653795Y01071955
X01688500Y01054250
X01700000Y01108750
X01725000Y01093250
X01740000Y01071250
X01749750Y01124750
X01785750Y01176000
X01885750Y01067500
X01901250Y01274750
X01926500Y01297000
X01953750Y01320000
X01978250Y01339750
X01862500Y01340250
X01841000Y01319000
X01822000Y01297000
X01804500Y01274000
X01760340Y01270933
X01772591Y01299683
X01760590Y01321933
X01790000Y01336750
X01776500Y01360500
X01685250Y01361500
X01685750Y01391750
X01627250Y01375500
X01626250Y01336750
X01647500Y01317250
X01664750Y01285500
X01685750Y01237750
X01628000Y01237500
X01596590Y01270933
X01608841Y01299683
X01596840Y01321933
X01626750Y01422000
X01789500Y01238000
X01749590Y01192683
X01586090Y01192183
X01522000Y01237750
X01467750Y01240000
X01434590Y01270933
X01446841Y01299683
X01434840Y01321933
X01464250Y01336750
X01485250Y01316750
X01501750Y01285500
X01522340Y01360433
X01577067
X01360340
X01360000Y01388250
X01325000Y01421500
X01283000Y01408000
X01255000Y01392500
Y01361250
X01271340Y01321933
X01283341Y01299683
X01271090Y01270933
X01303750Y01235750
X01360000Y01237750
X01340750Y01283250
X01323250Y01317500
X01300750Y01336750
X01196840Y01360433
X01195500Y01420750
X01196500Y01237750
X01260590Y01192433
X01422840Y01191683
X01098090Y01192433
X01140000Y01236500
X01109090Y01270683
X01121341Y01299433
X01109340Y01321683
X01138750Y01336500
X01155750Y01357000
X01159750Y01317250
X01176000Y01282000
X01094500Y01357000
X01035250Y01355750
X01000500Y01316500
X00975250Y01337750
X00945840Y01322933
X00957841Y01300683
X00945590Y01271933
X00976750Y01238250
X01034500Y01237500
X01016625Y01283875
X00852000Y01285750
X00834250Y01315000
X00810250Y01337250
X00817000Y01361750
X00871340Y01361433
Y01390410
X00872500Y01421000
X00871000Y01238750
X00812500Y01239000
X00935500Y01191750
X00769590Y01193183
X00780590Y01271433
X00792841Y01300183
X00780840Y01322433
X00767250Y01361500
X00706340Y01360933
X00653750Y01336500
X00672750Y01316500
X00690840Y01284683
X00706000Y01238250
X00656000Y01237000
X00622250Y01270750
X00637250Y01299500
X00622500Y01321750
X00548000Y01360250
X00520000Y01359750
X00491000Y01359500
X00490000Y01295250
X00518250Y01261750
X00547150Y01237100
X00611250Y01192500
T02
X01803250Y01407500
X01823250
X01843250
X01863250
X01883250
X01903250
X01923250
X01943250
X01963250
X01983250
X01566250
X01546250
X01526250
X01506250
X01486250
X01466250
X01446250
X01426250
X01406250
X01386250
X01149251Y01407500
X01129251
X01109251
X01089250
X01069250
X01049250
X01029250
X01009250
X00989250
X00969250
X00732250
X00712250
X00692250
X00672250
X00652250
X00632250
X00612250
X00592250
X00572251
X00552250
M30
