G04*
G04 #@! TF.GenerationSoftware,Altium Limited,Altium Designer,25.2.1 (25)*
G04*
G04 Layer_Physical_Order=2*
G04 Layer_Color=16711680*
%FSAX44Y44*%
%MOMM*%
G71*
G04*
G04 #@! TF.SameCoordinates,F3945BAA-94F4-4F02-825A-217E7DD4EA31*
G04*
G04*
G04 #@! TF.FilePolarity,Positive*
G04*
G01*
G75*
%ADD12C,0.2540*%
%ADD28C,1.3000*%
%ADD29R,1.3000X1.3000*%
%ADD31C,1.2700*%
G04:AMPARAMS|DCode=32|XSize=0.65mm|YSize=2.1mm|CornerRadius=0.0488mm|HoleSize=0mm|Usage=FLASHONLY|Rotation=180.000|XOffset=0mm|YOffset=0mm|HoleType=Round|Shape=RoundedRectangle|*
%AMROUNDEDRECTD32*
21,1,0.6500,2.0025,0,0,180.0*
21,1,0.5525,2.1000,0,0,180.0*
1,1,0.0975,-0.2763,1.0013*
1,1,0.0975,0.2763,1.0013*
1,1,0.0975,0.2763,-1.0013*
1,1,0.0975,-0.2763,-1.0013*
%
%ADD32ROUNDEDRECTD32*%
G36*
X02051147Y00994965D02*
X02055750Y00990361D01*
X02052845Y00987456D01*
X00467250D01*
Y01432250D01*
X00467250Y01432250D01*
X00469490Y01432250D01*
X00870324D01*
X00870658Y01429710D01*
X00869069Y01429284D01*
X00867041Y01428114D01*
X00865386Y01426459D01*
X00864216Y01424431D01*
X00863610Y01422170D01*
Y01419830D01*
X00864216Y01417569D01*
X00865386Y01415541D01*
X00867041Y01413886D01*
X00868615Y01412977D01*
Y01398883D01*
X00867909Y01398694D01*
X00865882Y01397523D01*
X00864227Y01395868D01*
X00863056Y01393841D01*
X00863001Y01393635D01*
X00818488D01*
X00817001Y01393339D01*
X00815741Y01392497D01*
X00814253Y01391009D01*
X00813411Y01389749D01*
X00813115Y01388262D01*
Y01369772D01*
X00811541Y01368864D01*
X00809886Y01367209D01*
X00808716Y01365181D01*
X00808110Y01362920D01*
Y01360580D01*
X00808716Y01358319D01*
X00809886Y01356291D01*
X00811541Y01354636D01*
X00813569Y01353466D01*
X00815830Y01352860D01*
X00818170D01*
X00820431Y01353466D01*
X00822459Y01354636D01*
X00824114Y01356291D01*
X00825284Y01358319D01*
X00825890Y01360580D01*
Y01362920D01*
X00825284Y01365181D01*
X00824114Y01367209D01*
X00822459Y01368864D01*
X00820885Y01369772D01*
Y01385865D01*
X00863699D01*
X00864227Y01384951D01*
X00865882Y01383296D01*
X00867909Y01382126D01*
X00870170Y01381520D01*
X00872511D01*
X00874772Y01382126D01*
X00876799Y01383296D01*
X00878454Y01384951D01*
X00879624Y01386978D01*
X00880230Y01389239D01*
Y01391580D01*
X00879624Y01393841D01*
X00878454Y01395868D01*
X00876799Y01397523D01*
X00876385Y01397763D01*
Y01412977D01*
X00877959Y01413886D01*
X00879614Y01415541D01*
X00880784Y01417569D01*
X00881390Y01419830D01*
Y01422170D01*
X00880784Y01424431D01*
X00879614Y01426459D01*
X00877959Y01428114D01*
X00875931Y01429284D01*
X00874342Y01429710D01*
X00874676Y01432250D01*
X01320958D01*
X01321569Y01429784D01*
X01319541Y01428614D01*
X01317886Y01426959D01*
X01316716Y01424931D01*
X01316110Y01422670D01*
Y01420330D01*
X01316716Y01418069D01*
X01317886Y01416041D01*
X01319541Y01414386D01*
X01321115Y01413477D01*
Y01393488D01*
X01321411Y01392001D01*
X01322253Y01390741D01*
X01326241Y01386753D01*
X01327501Y01385911D01*
X01328988Y01385615D01*
X01351502D01*
X01351716Y01384819D01*
X01352886Y01382791D01*
X01354541Y01381136D01*
X01354699Y01378112D01*
X01354313Y01377635D01*
X01346328D01*
X01344842Y01377339D01*
X01343581Y01376497D01*
X01338003Y01370919D01*
X01337161Y01369658D01*
X01336865Y01368172D01*
Y01291272D01*
X01335291Y01290364D01*
X01333636Y01288709D01*
X01332466Y01286681D01*
X01331860Y01284420D01*
Y01282080D01*
X01332466Y01279819D01*
X01333636Y01277791D01*
X01335291Y01276136D01*
X01337319Y01274966D01*
X01339580Y01274360D01*
X01341920D01*
X01344181Y01274966D01*
X01346209Y01276136D01*
X01347864Y01277791D01*
X01349034Y01279819D01*
X01349640Y01282080D01*
Y01284420D01*
X01349034Y01286681D01*
X01347864Y01288709D01*
X01346209Y01290364D01*
X01344635Y01291272D01*
Y01366563D01*
X01347937Y01369865D01*
X01353818D01*
X01354543Y01368286D01*
X01354661Y01367325D01*
X01353226Y01365891D01*
X01352056Y01363864D01*
X01351450Y01361603D01*
Y01359262D01*
X01352056Y01357001D01*
X01353226Y01354974D01*
X01354882Y01353319D01*
X01356456Y01352410D01*
Y01273921D01*
X01356751Y01272434D01*
X01357593Y01271174D01*
X01359081Y01269686D01*
X01360342Y01268844D01*
X01361828Y01268548D01*
X01426026D01*
X01426306Y01267501D01*
X01427477Y01265474D01*
X01429132Y01263819D01*
X01431159Y01262648D01*
X01433420Y01262043D01*
X01435761D01*
X01438022Y01262648D01*
X01440049Y01263819D01*
X01441704Y01265474D01*
X01442874Y01267501D01*
X01443480Y01269762D01*
Y01272103D01*
X01442874Y01274364D01*
X01441704Y01276391D01*
X01440049Y01278046D01*
X01438022Y01279217D01*
X01435761Y01279823D01*
X01433420D01*
X01431159Y01279217D01*
X01429132Y01278046D01*
X01427477Y01276391D01*
X01427434Y01276317D01*
X01364225D01*
Y01352410D01*
X01365799Y01353319D01*
X01367454Y01354974D01*
X01368625Y01357001D01*
X01369230Y01359262D01*
Y01361603D01*
X01368625Y01363864D01*
X01367454Y01365891D01*
X01366020Y01367325D01*
X01366138Y01368286D01*
X01366862Y01369865D01*
X01430956D01*
Y01329955D01*
X01429382Y01329046D01*
X01427726Y01327391D01*
X01426556Y01325364D01*
X01425950Y01323103D01*
Y01320762D01*
X01426556Y01318501D01*
X01427726Y01316474D01*
X01429382Y01314819D01*
X01431409Y01313648D01*
X01433670Y01313043D01*
X01436011D01*
X01438272Y01313648D01*
X01440299Y01314819D01*
X01440666Y01315186D01*
X01443206Y01314133D01*
Y01307849D01*
X01441382Y01306796D01*
X01439727Y01305141D01*
X01438557Y01303114D01*
X01437951Y01300853D01*
Y01298512D01*
X01438557Y01296251D01*
X01439727Y01294224D01*
X01441382Y01292569D01*
X01443410Y01291398D01*
X01445671Y01290793D01*
X01448011D01*
X01450273Y01291398D01*
X01452300Y01292569D01*
X01453955Y01294224D01*
X01455125Y01296251D01*
X01455731Y01298512D01*
Y01300853D01*
X01455125Y01303114D01*
X01453955Y01305141D01*
X01452300Y01306796D01*
X01450975Y01307561D01*
Y01399789D01*
X01451801Y01400266D01*
X01453484Y01401949D01*
X01454674Y01404011D01*
X01454935Y01404986D01*
X01457565D01*
X01457826Y01404011D01*
X01459016Y01401949D01*
X01460699Y01400266D01*
X01462760Y01399076D01*
X01465060Y01398460D01*
X01467440D01*
X01469739Y01399076D01*
X01471800Y01400266D01*
X01473483Y01401949D01*
X01474674Y01404011D01*
X01474935Y01404986D01*
X01477565D01*
X01477826Y01404011D01*
X01479016Y01401949D01*
X01480699Y01400266D01*
X01482760Y01399076D01*
X01485060Y01398460D01*
X01487440D01*
X01489739Y01399076D01*
X01491800Y01400266D01*
X01493483Y01401949D01*
X01494674Y01404011D01*
X01494935Y01404987D01*
X01497565D01*
X01497826Y01404011D01*
X01499016Y01401949D01*
X01500699Y01400266D01*
X01502761Y01399076D01*
X01505060Y01398460D01*
X01507440D01*
X01509740Y01399076D01*
X01511801Y01400266D01*
X01513484Y01401949D01*
X01514674Y01404011D01*
X01514935Y01404986D01*
X01517565D01*
X01517826Y01404011D01*
X01519016Y01401949D01*
X01520699Y01400266D01*
X01522761Y01399076D01*
X01524115Y01398713D01*
Y01388750D01*
X01524411Y01387263D01*
X01525253Y01386003D01*
X01528753Y01382503D01*
X01530013Y01381661D01*
X01531500Y01381365D01*
X01605206D01*
Y01329732D01*
X01602751Y01328715D01*
X01602392Y01328953D01*
X01602299Y01329046D01*
X01601929Y01329260D01*
X01600725Y01330058D01*
Y01372262D01*
X01600429Y01373749D01*
X01599587Y01375009D01*
X01598099Y01376497D01*
X01596839Y01377339D01*
X01595352Y01377635D01*
X01508328D01*
X01506842Y01377339D01*
X01505581Y01376497D01*
X01499003Y01369919D01*
X01498161Y01368658D01*
X01497865Y01367172D01*
Y01293522D01*
X01496291Y01292614D01*
X01494636Y01290959D01*
X01493466Y01288931D01*
X01492860Y01286670D01*
Y01284330D01*
X01493466Y01282069D01*
X01494636Y01280041D01*
X01496291Y01278386D01*
X01498319Y01277216D01*
X01500580Y01276610D01*
X01502920D01*
X01505181Y01277216D01*
X01507209Y01278386D01*
X01508864Y01280041D01*
X01510034Y01282069D01*
X01510640Y01284330D01*
Y01286670D01*
X01510034Y01288931D01*
X01508864Y01290959D01*
X01507209Y01292614D01*
X01505635Y01293522D01*
Y01365563D01*
X01509937Y01369865D01*
X01515818D01*
X01516543Y01368286D01*
X01516661Y01367325D01*
X01515226Y01365891D01*
X01514056Y01363864D01*
X01513450Y01361603D01*
Y01359262D01*
X01514056Y01357001D01*
X01515226Y01354974D01*
X01516882Y01353319D01*
X01518456Y01352410D01*
Y01273921D01*
X01518751Y01272434D01*
X01519594Y01271174D01*
X01521081Y01269686D01*
X01522342Y01268844D01*
X01523828Y01268548D01*
X01588026D01*
X01588306Y01267501D01*
X01589476Y01265474D01*
X01591132Y01263819D01*
X01593159Y01262648D01*
X01595420Y01262043D01*
X01597761D01*
X01600022Y01262648D01*
X01602049Y01263819D01*
X01603704Y01265474D01*
X01604875Y01267501D01*
X01605480Y01269762D01*
Y01272103D01*
X01604875Y01274364D01*
X01603704Y01276391D01*
X01602049Y01278046D01*
X01600022Y01279217D01*
X01597761Y01279823D01*
X01595420D01*
X01593159Y01279217D01*
X01591132Y01278046D01*
X01589476Y01276391D01*
X01589434Y01276317D01*
X01526225D01*
Y01352410D01*
X01527799Y01353319D01*
X01529454Y01354974D01*
X01530363Y01356548D01*
X01569045D01*
X01569954Y01354974D01*
X01571609Y01353319D01*
X01573636Y01352148D01*
X01575897Y01351543D01*
X01578238D01*
X01580499Y01352148D01*
X01582526Y01353319D01*
X01584181Y01354974D01*
X01585352Y01357001D01*
X01585957Y01359262D01*
Y01361603D01*
X01585352Y01363864D01*
X01584181Y01365891D01*
X01582747Y01367325D01*
X01582865Y01368286D01*
X01583589Y01369865D01*
X01592956D01*
Y01329955D01*
X01591382Y01329046D01*
X01589727Y01327391D01*
X01588556Y01325364D01*
X01587950Y01323103D01*
Y01320762D01*
X01588556Y01318501D01*
X01589727Y01316474D01*
X01591382Y01314819D01*
X01593409Y01313648D01*
X01595670Y01313043D01*
X01598011D01*
X01600272Y01313648D01*
X01602299Y01314819D01*
X01602666Y01315186D01*
X01605206Y01314133D01*
Y01307849D01*
X01603383Y01306796D01*
X01601727Y01305141D01*
X01600557Y01303114D01*
X01599951Y01300853D01*
Y01298512D01*
X01600557Y01296251D01*
X01601727Y01294224D01*
X01603383Y01292569D01*
X01605410Y01291398D01*
X01607671Y01290793D01*
X01610011D01*
X01612272Y01291398D01*
X01614300Y01292569D01*
X01615955Y01294224D01*
X01617125Y01296251D01*
X01617731Y01298512D01*
Y01300853D01*
X01617125Y01303114D01*
X01615955Y01305141D01*
X01614300Y01306796D01*
X01612975Y01307561D01*
Y01383762D01*
X01612679Y01385249D01*
X01611837Y01386509D01*
X01610349Y01387997D01*
X01609089Y01388839D01*
X01607602Y01389135D01*
X01533109D01*
X01531885Y01390359D01*
Y01400350D01*
X01533484Y01401949D01*
X01534674Y01404011D01*
X01534935Y01404986D01*
X01537565D01*
X01537826Y01404011D01*
X01539016Y01401949D01*
X01540699Y01400266D01*
X01542761Y01399076D01*
X01545060Y01398460D01*
X01547440D01*
X01549739Y01399076D01*
X01551801Y01400266D01*
X01553484Y01401949D01*
X01554674Y01404011D01*
X01554935Y01404986D01*
X01557565D01*
X01557826Y01404011D01*
X01559016Y01401949D01*
X01560699Y01400266D01*
X01562761Y01399076D01*
X01565060Y01398460D01*
X01567440D01*
X01569739Y01399076D01*
X01571801Y01400266D01*
X01573484Y01401949D01*
X01574674Y01404011D01*
X01575290Y01406310D01*
Y01408690D01*
X01574674Y01410989D01*
X01573484Y01413051D01*
X01571801Y01414734D01*
X01569739Y01415924D01*
X01567440Y01416540D01*
X01565060D01*
X01562761Y01415924D01*
X01560699Y01414734D01*
X01559016Y01413051D01*
X01557826Y01410989D01*
X01557565Y01410014D01*
X01554935D01*
X01554674Y01410989D01*
X01553484Y01413051D01*
X01551801Y01414734D01*
X01549739Y01415924D01*
X01547440Y01416540D01*
X01545060D01*
X01542761Y01415924D01*
X01540699Y01414734D01*
X01539016Y01413051D01*
X01537826Y01410989D01*
X01537565Y01410014D01*
X01534935D01*
X01534674Y01410989D01*
X01533484Y01413051D01*
X01531801Y01414734D01*
X01529739Y01415924D01*
X01527440Y01416540D01*
X01525060D01*
X01522761Y01415924D01*
X01520699Y01414734D01*
X01519016Y01413051D01*
X01517826Y01410989D01*
X01517565Y01410014D01*
X01514935D01*
X01514674Y01410989D01*
X01513484Y01413051D01*
X01511801Y01414734D01*
X01509740Y01415924D01*
X01507440Y01416540D01*
X01505060D01*
X01502761Y01415924D01*
X01500699Y01414734D01*
X01499016Y01413051D01*
X01497826Y01410989D01*
X01497565Y01410013D01*
X01494935D01*
X01494674Y01410989D01*
X01493483Y01413051D01*
X01491800Y01414734D01*
X01489739Y01415924D01*
X01487440Y01416540D01*
X01485060D01*
X01482760Y01415924D01*
X01480699Y01414734D01*
X01479016Y01413051D01*
X01477826Y01410989D01*
X01477565Y01410014D01*
X01474935D01*
X01474674Y01410989D01*
X01473483Y01413051D01*
X01471800Y01414734D01*
X01469739Y01415924D01*
X01467440Y01416540D01*
X01465060D01*
X01462760Y01415924D01*
X01460699Y01414734D01*
X01459016Y01413051D01*
X01457826Y01410989D01*
X01457565Y01410014D01*
X01454935D01*
X01454674Y01410989D01*
X01453484Y01413051D01*
X01451801Y01414734D01*
X01449739Y01415924D01*
X01447440Y01416540D01*
X01445060D01*
X01442760Y01415924D01*
X01440699Y01414734D01*
X01439016Y01413051D01*
X01437826Y01410989D01*
X01437565Y01410014D01*
X01434935D01*
X01434674Y01410989D01*
X01433484Y01413051D01*
X01431801Y01414734D01*
X01429739Y01415924D01*
X01427440Y01416540D01*
X01425060D01*
X01422760Y01415924D01*
X01420699Y01414734D01*
X01419016Y01413051D01*
X01417826Y01410989D01*
X01417565Y01410014D01*
X01414935D01*
X01414674Y01410989D01*
X01413484Y01413051D01*
X01411801Y01414734D01*
X01409739Y01415924D01*
X01407440Y01416540D01*
X01405060D01*
X01402761Y01415924D01*
X01400699Y01414734D01*
X01399016Y01413051D01*
X01397826Y01410989D01*
X01395290Y01411338D01*
Y01416540D01*
X01377210D01*
Y01398460D01*
X01395290D01*
Y01403661D01*
X01397826Y01404010D01*
X01399016Y01401949D01*
X01400699Y01400266D01*
X01402761Y01399076D01*
X01405060Y01398460D01*
X01407440D01*
X01409739Y01399076D01*
X01411801Y01400266D01*
X01413484Y01401949D01*
X01414674Y01404011D01*
X01414935Y01404986D01*
X01417565D01*
X01417826Y01404011D01*
X01419016Y01401949D01*
X01420699Y01400266D01*
X01422760Y01399076D01*
X01425060Y01398460D01*
X01427440D01*
X01429739Y01399076D01*
X01431801Y01400266D01*
X01433484Y01401949D01*
X01434674Y01404011D01*
X01434935Y01404986D01*
X01437565D01*
X01437826Y01404011D01*
X01439016Y01401949D01*
X01440699Y01400266D01*
X01442760Y01399076D01*
X01443206Y01398957D01*
Y01329732D01*
X01440751Y01328715D01*
X01440392Y01328953D01*
X01440299Y01329046D01*
X01439929Y01329260D01*
X01438725Y01330058D01*
Y01372262D01*
X01438429Y01373749D01*
X01437587Y01375009D01*
X01436099Y01376497D01*
X01434839Y01377339D01*
X01433352Y01377635D01*
X01365687D01*
X01365301Y01378112D01*
X01365459Y01381136D01*
X01367114Y01382791D01*
X01368284Y01384819D01*
X01368890Y01387080D01*
Y01389420D01*
X01368284Y01391681D01*
X01367114Y01393709D01*
X01365459Y01395364D01*
X01363431Y01396534D01*
X01361170Y01397140D01*
X01358830D01*
X01356569Y01396534D01*
X01354541Y01395364D01*
X01352886Y01393709D01*
X01352699Y01393385D01*
X01330597D01*
X01328885Y01395097D01*
Y01413477D01*
X01330459Y01414386D01*
X01332114Y01416041D01*
X01333284Y01418069D01*
X01333890Y01420330D01*
Y01422670D01*
X01333284Y01424931D01*
X01332114Y01426959D01*
X01330459Y01428614D01*
X01328431Y01429784D01*
X01329042Y01432250D01*
X01621644D01*
X01622324Y01429710D01*
X01621291Y01429114D01*
X01619636Y01427459D01*
X01618466Y01425431D01*
X01617860Y01423170D01*
Y01420830D01*
X01618466Y01418569D01*
X01619636Y01416541D01*
X01621291Y01414886D01*
X01623115Y01413833D01*
Y01383378D01*
X01621791Y01382614D01*
X01620136Y01380959D01*
X01618966Y01378931D01*
X01618360Y01376670D01*
Y01374330D01*
X01618966Y01372069D01*
X01620136Y01370041D01*
X01621791Y01368386D01*
X01623819Y01367216D01*
X01626080Y01366610D01*
X01628420D01*
X01630681Y01367216D01*
X01632709Y01368386D01*
X01634364Y01370041D01*
X01635534Y01372069D01*
X01636140Y01374330D01*
Y01376670D01*
X01635534Y01378931D01*
X01634364Y01380959D01*
X01632709Y01382614D01*
X01630885Y01383667D01*
Y01414122D01*
X01632209Y01414886D01*
X01633864Y01416541D01*
X01634772Y01418115D01*
X01681865D01*
Y01399772D01*
X01680291Y01398864D01*
X01678636Y01397209D01*
X01677466Y01395181D01*
X01676860Y01392920D01*
Y01390580D01*
X01677466Y01388319D01*
X01678636Y01386291D01*
X01680291Y01384636D01*
X01682319Y01383466D01*
X01684580Y01382860D01*
X01686920D01*
X01689181Y01383466D01*
X01691209Y01384636D01*
X01692864Y01386291D01*
X01694034Y01388319D01*
X01694640Y01390580D01*
Y01392920D01*
X01694034Y01395181D01*
X01692864Y01397209D01*
X01691209Y01398864D01*
X01689635Y01399772D01*
Y01420512D01*
X01689339Y01421999D01*
X01688497Y01423259D01*
X01687009Y01424747D01*
X01685749Y01425589D01*
X01684262Y01425885D01*
X01634772D01*
X01633864Y01427459D01*
X01632209Y01429114D01*
X01631176Y01429710D01*
X01631856Y01432250D01*
X02051147D01*
Y00994965D01*
D02*
G37*
G36*
X01571270Y01368286D02*
X01571388Y01367325D01*
X01569954Y01365891D01*
X01569045Y01364317D01*
X01530363D01*
X01529454Y01365891D01*
X01528020Y01367325D01*
X01528138Y01368286D01*
X01528862Y01369865D01*
X01570545D01*
X01571270Y01368286D01*
D02*
G37*
%LPC*%
G36*
X00733440Y01416540D02*
X00731060D01*
X00728761Y01415924D01*
X00726700Y01414733D01*
X00725016Y01413050D01*
X00723826Y01410989D01*
X00723565Y01410014D01*
X00720935D01*
X00720674Y01410989D01*
X00719484Y01413050D01*
X00717801Y01414733D01*
X00715740Y01415924D01*
X00713440Y01416540D01*
X00711060D01*
X00708761Y01415924D01*
X00706700Y01414733D01*
X00705016Y01413050D01*
X00703826Y01410989D01*
X00703565Y01410014D01*
X00700935D01*
X00700674Y01410989D01*
X00699484Y01413050D01*
X00697801Y01414733D01*
X00695740Y01415924D01*
X00693440Y01416540D01*
X00691060D01*
X00688761Y01415924D01*
X00686700Y01414733D01*
X00685016Y01413050D01*
X00683826Y01410989D01*
X00683565Y01410014D01*
X00680935D01*
X00680674Y01410989D01*
X00679484Y01413050D01*
X00677801Y01414733D01*
X00675740Y01415924D01*
X00673440Y01416540D01*
X00671060D01*
X00668761Y01415924D01*
X00666700Y01414733D01*
X00665016Y01413050D01*
X00663826Y01410989D01*
X00663565Y01410014D01*
X00660936D01*
X00660674Y01410989D01*
X00659484Y01413050D01*
X00657801Y01414733D01*
X00655740Y01415924D01*
X00653440Y01416540D01*
X00651060D01*
X00648761Y01415924D01*
X00646700Y01414733D01*
X00645016Y01413050D01*
X00643826Y01410989D01*
X00643565Y01410014D01*
X00640936D01*
X00640674Y01410989D01*
X00639484Y01413050D01*
X00637801Y01414733D01*
X00635740Y01415924D01*
X00633441Y01416540D01*
X00631060D01*
X00628761Y01415924D01*
X00626700Y01414733D01*
X00625017Y01413050D01*
X00623826Y01410989D01*
X00623565Y01410014D01*
X00620936D01*
X00620674Y01410989D01*
X00619484Y01413050D01*
X00617801Y01414733D01*
X00615740Y01415924D01*
X00613441Y01416540D01*
X00611060D01*
X00608761Y01415924D01*
X00606700Y01414733D01*
X00605017Y01413050D01*
X00603826Y01410989D01*
X00603565Y01410014D01*
X00600936D01*
X00600674Y01410989D01*
X00599484Y01413050D01*
X00597801Y01414733D01*
X00595740Y01415924D01*
X00593441Y01416540D01*
X00591060D01*
X00588761Y01415924D01*
X00586700Y01414733D01*
X00585017Y01413050D01*
X00583826Y01410989D01*
X00583565Y01410014D01*
X00580936D01*
X00580674Y01410989D01*
X00579484Y01413050D01*
X00577801Y01414733D01*
X00575740Y01415924D01*
X00573441Y01416540D01*
X00571060D01*
X00568761Y01415924D01*
X00566700Y01414733D01*
X00565017Y01413050D01*
X00563826Y01410989D01*
X00561290Y01411336D01*
Y01416540D01*
X00543210D01*
Y01398460D01*
X00561290D01*
Y01403663D01*
X00563826Y01404010D01*
X00565017Y01401949D01*
X00566700Y01400266D01*
X00568761Y01399076D01*
X00571060Y01398460D01*
X00573441D01*
X00575740Y01399076D01*
X00577801Y01400266D01*
X00579484Y01401949D01*
X00580674Y01404010D01*
X00580936Y01404985D01*
X00583565D01*
X00583826Y01404010D01*
X00585017Y01401949D01*
X00586700Y01400266D01*
X00588761Y01399076D01*
X00591060Y01398460D01*
X00593441D01*
X00595740Y01399076D01*
X00597801Y01400266D01*
X00599484Y01401949D01*
X00600674Y01404010D01*
X00600936Y01404985D01*
X00603565D01*
X00603826Y01404010D01*
X00605017Y01401949D01*
X00606700Y01400266D01*
X00608366Y01399304D01*
Y01390488D01*
X00608661Y01389001D01*
X00609214Y01388175D01*
X00608753Y01386677D01*
X00608018Y01385635D01*
X00506738D01*
X00505251Y01385339D01*
X00503991Y01384497D01*
X00502503Y01383009D01*
X00501661Y01381749D01*
X00501365Y01380262D01*
Y01364407D01*
X00498825Y01363726D01*
X00498114Y01364959D01*
X00496459Y01366614D01*
X00494431Y01367784D01*
X00492170Y01368390D01*
X00489830D01*
X00487569Y01367784D01*
X00485541Y01366614D01*
X00483886Y01364959D01*
X00482716Y01362931D01*
X00482110Y01360670D01*
Y01358330D01*
X00482716Y01356069D01*
X00483886Y01354041D01*
X00485541Y01352386D01*
X00487569Y01351216D01*
X00489830Y01350610D01*
X00492170D01*
X00494431Y01351216D01*
X00496459Y01352386D01*
X00498114Y01354041D01*
X00498825Y01355274D01*
X00501365Y01354593D01*
Y01298708D01*
X00500509Y01296523D01*
X00500509Y01296523D01*
Y01296523D01*
X00498890Y01296420D01*
X00498856Y01296548D01*
X00498284Y01298681D01*
X00497114Y01300709D01*
X00495459Y01302364D01*
X00493431Y01303534D01*
X00491170Y01304140D01*
X00488830D01*
X00486569Y01303534D01*
X00484541Y01302364D01*
X00482886Y01300709D01*
X00481716Y01298681D01*
X00481110Y01296420D01*
Y01294080D01*
X00481716Y01291819D01*
X00482886Y01289791D01*
X00484541Y01288136D01*
X00485865Y01287372D01*
Y01227000D01*
X00486161Y01225513D01*
X00487003Y01224253D01*
X00498753Y01212503D01*
X00500013Y01211661D01*
X00501500Y01211365D01*
X00641391D01*
X00645115Y01207641D01*
Y01184431D01*
X00644569Y01184284D01*
X00642541Y01183114D01*
X00640886Y01181459D01*
X00639716Y01179431D01*
X00639110Y01177170D01*
Y01174830D01*
X00639716Y01172569D01*
X00640886Y01170541D01*
X00642541Y01168886D01*
X00644569Y01167716D01*
X00646830Y01167110D01*
X00649170D01*
X00651431Y01167716D01*
X00653459Y01168886D01*
X00655114Y01170541D01*
X00656284Y01172569D01*
X00656890Y01174830D01*
Y01177170D01*
X00656284Y01179431D01*
X00655114Y01181459D01*
X00653459Y01183114D01*
X00652885Y01183445D01*
Y01209250D01*
X00652589Y01210737D01*
X00651747Y01211997D01*
X00645747Y01217997D01*
X00644487Y01218839D01*
X00643000Y01219135D01*
X00503109D01*
X00493635Y01228609D01*
Y01287083D01*
X00495459Y01288136D01*
X00497114Y01289791D01*
X00498284Y01291819D01*
X00498856Y01293952D01*
X00498890Y01294080D01*
X00500509Y01293977D01*
Y01293978D01*
X00500509Y01293977D01*
X00501365Y01291792D01*
Y01263238D01*
X00501661Y01261751D01*
X00502503Y01260491D01*
X00503991Y01259003D01*
X00505251Y01258161D01*
X00506738Y01257865D01*
X00510228D01*
X00511136Y01256291D01*
X00512791Y01254636D01*
X00514819Y01253466D01*
X00517080Y01252860D01*
X00519420D01*
X00521681Y01253466D01*
X00523709Y01254636D01*
X00525364Y01256291D01*
X00526534Y01258319D01*
X00527140Y01260580D01*
Y01262920D01*
X00526534Y01265181D01*
X00525364Y01267209D01*
X00523709Y01268864D01*
X00521681Y01270034D01*
X00519420Y01270640D01*
X00517080D01*
X00514819Y01270034D01*
X00512791Y01268864D01*
X00511675Y01267747D01*
X00509432Y01268419D01*
X00509135Y01268631D01*
Y01356138D01*
X00511675Y01356472D01*
X00511716Y01356319D01*
X00512886Y01354291D01*
X00514541Y01352636D01*
X00516569Y01351466D01*
X00518830Y01350860D01*
X00521170D01*
X00523431Y01351466D01*
X00525459Y01352636D01*
X00527114Y01354291D01*
X00528284Y01356319D01*
X00528297Y01356365D01*
X00539977D01*
X00540886Y01354791D01*
X00542541Y01353136D01*
X00544115Y01352227D01*
Y01273738D01*
X00544411Y01272251D01*
X00545253Y01270991D01*
X00546741Y01269503D01*
X00548001Y01268661D01*
X00549488Y01268365D01*
X00613685D01*
X00613966Y01267319D01*
X00615136Y01265291D01*
X00616791Y01263636D01*
X00618819Y01262466D01*
X00621080Y01261860D01*
X00623420D01*
X00625681Y01262466D01*
X00627709Y01263636D01*
X00629364Y01265291D01*
X00630534Y01267319D01*
X00631140Y01269580D01*
Y01271920D01*
X00630534Y01274181D01*
X00629364Y01276209D01*
X00627709Y01277864D01*
X00625681Y01279034D01*
X00623420Y01279640D01*
X00621080D01*
X00618819Y01279034D01*
X00616791Y01277864D01*
X00615136Y01276209D01*
X00615093Y01276135D01*
X00551885D01*
Y01352227D01*
X00553459Y01353136D01*
X00555114Y01354791D01*
X00556284Y01356819D01*
X00556890Y01359080D01*
Y01361420D01*
X00556284Y01363681D01*
X00555114Y01365709D01*
X00553459Y01367364D01*
X00551431Y01368534D01*
X00549170Y01369140D01*
X00546830D01*
X00544569Y01368534D01*
X00542541Y01367364D01*
X00540886Y01365709D01*
X00539977Y01364135D01*
X00527734D01*
X00527114Y01365209D01*
X00525459Y01366864D01*
X00523431Y01368034D01*
X00521170Y01368640D01*
X00518830D01*
X00516569Y01368034D01*
X00514541Y01366864D01*
X00512886Y01365209D01*
X00511716Y01363181D01*
X00511675Y01363028D01*
X00509135Y01363362D01*
Y01377865D01*
X00618615D01*
Y01329772D01*
X00617041Y01328864D01*
X00615386Y01327209D01*
X00614216Y01325181D01*
X00613610Y01322920D01*
Y01320580D01*
X00614216Y01318319D01*
X00615386Y01316291D01*
X00617041Y01314636D01*
X00619069Y01313466D01*
X00621330Y01312860D01*
X00623670D01*
X00625931Y01313466D01*
X00627959Y01314636D01*
X00629614Y01316291D01*
X00630784Y01318319D01*
X00630825Y01318472D01*
X00633365Y01318138D01*
Y01307522D01*
X00631791Y01306614D01*
X00630136Y01304959D01*
X00628966Y01302931D01*
X00628360Y01300670D01*
Y01298330D01*
X00628966Y01296069D01*
X00630136Y01294041D01*
X00631791Y01292386D01*
X00633819Y01291216D01*
X00636080Y01290610D01*
X00638420D01*
X00640681Y01291216D01*
X00642709Y01292386D01*
X00644364Y01294041D01*
X00645534Y01296069D01*
X00646140Y01298330D01*
Y01300670D01*
X00645534Y01302931D01*
X00644364Y01304959D01*
X00642709Y01306614D01*
X00641135Y01307522D01*
Y01387512D01*
X00640839Y01388999D01*
X00639997Y01390259D01*
X00638509Y01391747D01*
X00637249Y01392589D01*
X00635762Y01392885D01*
X00616135D01*
Y01399304D01*
X00617801Y01400266D01*
X00619484Y01401949D01*
X00620674Y01404010D01*
X00620936Y01404985D01*
X00623565D01*
X00623826Y01404010D01*
X00625017Y01401949D01*
X00626700Y01400266D01*
X00628761Y01399076D01*
X00631060Y01398460D01*
X00633441D01*
X00635740Y01399076D01*
X00637801Y01400266D01*
X00639484Y01401949D01*
X00640674Y01404010D01*
X00640936Y01404985D01*
X00643565D01*
X00643826Y01404010D01*
X00645016Y01401949D01*
X00646700Y01400266D01*
X00648761Y01399076D01*
X00651060Y01398460D01*
X00653440D01*
X00655740Y01399076D01*
X00657801Y01400266D01*
X00659484Y01401949D01*
X00660674Y01404010D01*
X00660936Y01404985D01*
X00663565D01*
X00663826Y01404010D01*
X00665016Y01401949D01*
X00666700Y01400266D01*
X00668761Y01399076D01*
X00671060Y01398460D01*
X00673440D01*
X00675740Y01399076D01*
X00677801Y01400266D01*
X00679484Y01401949D01*
X00680674Y01404010D01*
X00680935Y01404985D01*
X00683565D01*
X00683826Y01404010D01*
X00685016Y01401949D01*
X00686700Y01400266D01*
X00688365Y01399304D01*
Y01386000D01*
X00688661Y01384513D01*
X00689503Y01383253D01*
X00692154Y01380602D01*
X00692167Y01380412D01*
X00691630Y01378387D01*
X00691314Y01377933D01*
X00690842Y01377839D01*
X00689581Y01376997D01*
X00688093Y01375509D01*
X00687251Y01374249D01*
X00686956Y01372762D01*
Y01292705D01*
X00685382Y01291796D01*
X00683727Y01290141D01*
X00682556Y01288114D01*
X00681950Y01285853D01*
Y01283512D01*
X00682556Y01281251D01*
X00683727Y01279224D01*
X00685382Y01277569D01*
X00687409Y01276398D01*
X00689670Y01275793D01*
X00692011D01*
X00694272Y01276398D01*
X00696299Y01277569D01*
X00697954Y01279224D01*
X00699125Y01281251D01*
X00699730Y01283512D01*
Y01285853D01*
X00699125Y01288114D01*
X00697954Y01290141D01*
X00696299Y01291796D01*
X00694725Y01292705D01*
Y01370365D01*
X00699818D01*
X00700543Y01368786D01*
X00700661Y01367825D01*
X00699227Y01366391D01*
X00698056Y01364364D01*
X00697450Y01362103D01*
Y01359762D01*
X00698056Y01357501D01*
X00699227Y01355474D01*
X00700882Y01353819D01*
X00702456Y01352910D01*
Y01274420D01*
X00702751Y01272934D01*
X00703594Y01271674D01*
X00705081Y01270186D01*
X00706342Y01269344D01*
X00707828Y01269048D01*
X00772026D01*
X00772306Y01268001D01*
X00773476Y01265974D01*
X00775132Y01264319D01*
X00777159Y01263148D01*
X00779420Y01262543D01*
X00781761D01*
X00784022Y01263148D01*
X00786049Y01264319D01*
X00787704Y01265974D01*
X00788875Y01268001D01*
X00789480Y01270262D01*
Y01272603D01*
X00788875Y01274864D01*
X00787704Y01276891D01*
X00786049Y01278546D01*
X00784022Y01279717D01*
X00781761Y01280323D01*
X00779420D01*
X00777159Y01279717D01*
X00775132Y01278546D01*
X00773476Y01276891D01*
X00773434Y01276817D01*
X00710225D01*
Y01352910D01*
X00711799Y01353819D01*
X00713454Y01355474D01*
X00714363Y01357048D01*
X00759555D01*
X00760136Y01356041D01*
X00761791Y01354386D01*
X00763819Y01353216D01*
X00766080Y01352610D01*
X00768420D01*
X00770681Y01353216D01*
X00772709Y01354386D01*
X00774364Y01356041D01*
X00774416Y01356131D01*
X00776956Y01355451D01*
Y01330455D01*
X00775382Y01329546D01*
X00773727Y01327891D01*
X00772556Y01325864D01*
X00771950Y01323603D01*
Y01321262D01*
X00772556Y01319001D01*
X00773727Y01316974D01*
X00775382Y01315319D01*
X00777409Y01314148D01*
X00779670Y01313543D01*
X00782011D01*
X00784272Y01314148D01*
X00786299Y01315319D01*
X00786666Y01315686D01*
X00789206Y01314633D01*
Y01308349D01*
X00787383Y01307296D01*
X00785727Y01305641D01*
X00784557Y01303614D01*
X00783951Y01301353D01*
Y01299012D01*
X00784557Y01296751D01*
X00785727Y01294724D01*
X00787383Y01293069D01*
X00789410Y01291898D01*
X00791671Y01291293D01*
X00794011D01*
X00796273Y01291898D01*
X00798300Y01293069D01*
X00799955Y01294724D01*
X00801125Y01296751D01*
X00801731Y01299012D01*
Y01301353D01*
X00801125Y01303614D01*
X00799955Y01305641D01*
X00798300Y01307296D01*
X00796975Y01308061D01*
Y01381262D01*
X00796679Y01382749D01*
X00795837Y01384009D01*
X00794349Y01385497D01*
X00793089Y01386339D01*
X00791602Y01386635D01*
X00697109D01*
X00696135Y01387609D01*
Y01399304D01*
X00697801Y01400266D01*
X00699484Y01401949D01*
X00700674Y01404010D01*
X00700935Y01404985D01*
X00703565D01*
X00703826Y01404010D01*
X00705016Y01401949D01*
X00706700Y01400266D01*
X00708761Y01399076D01*
X00711060Y01398460D01*
X00713440D01*
X00715740Y01399076D01*
X00717801Y01400266D01*
X00719484Y01401949D01*
X00720674Y01404010D01*
X00720935Y01404985D01*
X00723565D01*
X00723826Y01404010D01*
X00725016Y01401949D01*
X00726700Y01400266D01*
X00728761Y01399076D01*
X00731060Y01398460D01*
X00733440D01*
X00735739Y01399076D01*
X00737801Y01400266D01*
X00739484Y01401949D01*
X00740674Y01404010D01*
X00741290Y01406310D01*
Y01408690D01*
X00740674Y01410989D01*
X00739484Y01413050D01*
X00737801Y01414733D01*
X00735739Y01415924D01*
X00733440Y01416540D01*
D02*
G37*
G36*
X01984520Y01416519D02*
Y01408770D01*
X01992269D01*
X01991674Y01410989D01*
X01990484Y01413051D01*
X01988801Y01414734D01*
X01986739Y01415924D01*
X01984520Y01416519D01*
D02*
G37*
G36*
X01992269Y01406230D02*
X01984520D01*
Y01398481D01*
X01986739Y01399076D01*
X01988801Y01400266D01*
X01990484Y01401949D01*
X01991674Y01404011D01*
X01992269Y01406230D01*
D02*
G37*
G36*
X01900087Y01425635D02*
X01732000D01*
X01730513Y01425339D01*
X01729253Y01424497D01*
X01719503Y01414747D01*
X01718661Y01413487D01*
X01718365Y01412000D01*
Y01377635D01*
X01672078D01*
X01670592Y01377339D01*
X01669331Y01376497D01*
X01662003Y01369169D01*
X01661161Y01367908D01*
X01660865Y01366422D01*
Y01293522D01*
X01659291Y01292614D01*
X01657636Y01290959D01*
X01656466Y01288931D01*
X01655860Y01286670D01*
Y01284330D01*
X01656466Y01282069D01*
X01657636Y01280041D01*
X01659291Y01278386D01*
X01661319Y01277216D01*
X01663580Y01276610D01*
X01665920D01*
X01668181Y01277216D01*
X01670209Y01278386D01*
X01671864Y01280041D01*
X01673034Y01282069D01*
X01673640Y01284330D01*
Y01286670D01*
X01673034Y01288931D01*
X01671864Y01290959D01*
X01670209Y01292614D01*
X01668635Y01293522D01*
Y01364813D01*
X01673687Y01369865D01*
X01677451D01*
X01678503Y01367325D01*
X01678136Y01366959D01*
X01676966Y01364931D01*
X01676360Y01362670D01*
Y01360330D01*
X01676966Y01358069D01*
X01678136Y01356041D01*
X01679791Y01354386D01*
X01681365Y01353477D01*
Y01274761D01*
X01681661Y01273274D01*
X01682503Y01272014D01*
X01684831Y01269686D01*
X01686092Y01268844D01*
X01687578Y01268548D01*
X01751776D01*
X01752056Y01267501D01*
X01753226Y01265474D01*
X01754882Y01263819D01*
X01756909Y01262648D01*
X01759170Y01262043D01*
X01761511D01*
X01763772Y01262648D01*
X01765799Y01263819D01*
X01767454Y01265474D01*
X01768625Y01267501D01*
X01769230Y01269762D01*
Y01272103D01*
X01768625Y01274364D01*
X01767454Y01276391D01*
X01765799Y01278046D01*
X01763772Y01279217D01*
X01761511Y01279823D01*
X01759170D01*
X01756909Y01279217D01*
X01754882Y01278046D01*
X01753226Y01276391D01*
X01753184Y01276317D01*
X01689187D01*
X01689135Y01276370D01*
Y01353477D01*
X01690709Y01354386D01*
X01692364Y01356041D01*
X01693534Y01358069D01*
X01694140Y01360330D01*
Y01362670D01*
X01693534Y01364931D01*
X01692364Y01366959D01*
X01691997Y01367325D01*
X01693049Y01369865D01*
X01733958D01*
X01734263Y01369661D01*
X01735750Y01369365D01*
X01737237Y01369661D01*
X01737542Y01369865D01*
X01756706D01*
Y01329955D01*
X01755132Y01329046D01*
X01753477Y01327391D01*
X01752306Y01325364D01*
X01751700Y01323103D01*
Y01320762D01*
X01752306Y01318501D01*
X01753477Y01316474D01*
X01755132Y01314819D01*
X01757159Y01313648D01*
X01759420Y01313043D01*
X01761761D01*
X01764022Y01313648D01*
X01766049Y01314819D01*
X01767704Y01316474D01*
X01768875Y01318501D01*
X01769480Y01320762D01*
Y01323103D01*
X01768875Y01325364D01*
X01767704Y01327391D01*
X01766049Y01329046D01*
X01764475Y01329955D01*
Y01372262D01*
X01764179Y01373749D01*
X01763337Y01375009D01*
X01761849Y01376497D01*
X01760589Y01377339D01*
X01759102Y01377635D01*
X01736250D01*
X01735750Y01377535D01*
X01735250Y01377635D01*
X01726135D01*
Y01410391D01*
X01733609Y01417865D01*
X01792219D01*
X01794210Y01416540D01*
X01794210Y01415325D01*
Y01398460D01*
X01800615D01*
Y01342437D01*
X01800138Y01342051D01*
X01797114Y01342209D01*
X01795459Y01343864D01*
X01793431Y01345034D01*
X01791170Y01345640D01*
X01788830D01*
X01786569Y01345034D01*
X01784541Y01343864D01*
X01782925Y01342247D01*
X01782745Y01342251D01*
X01780385Y01342956D01*
Y01352478D01*
X01781959Y01353386D01*
X01783614Y01355041D01*
X01784784Y01357069D01*
X01785390Y01359330D01*
Y01361670D01*
X01784784Y01363931D01*
X01783614Y01365959D01*
X01781959Y01367614D01*
X01779931Y01368784D01*
X01777670Y01369390D01*
X01775330D01*
X01773069Y01368784D01*
X01771041Y01367614D01*
X01769386Y01365959D01*
X01768216Y01363931D01*
X01767610Y01361670D01*
Y01359330D01*
X01768216Y01357069D01*
X01769386Y01355041D01*
X01771041Y01353386D01*
X01772615Y01352478D01*
Y01308573D01*
X01771421D01*
X01769160Y01307967D01*
X01767133Y01306796D01*
X01765477Y01305141D01*
X01764307Y01303114D01*
X01763701Y01300853D01*
Y01298512D01*
X01764307Y01296251D01*
X01765477Y01294224D01*
X01767133Y01292569D01*
X01769160Y01291398D01*
X01771421Y01290793D01*
X01773761D01*
X01776022Y01291398D01*
X01778050Y01292569D01*
X01779705Y01294224D01*
X01780875Y01296251D01*
X01781481Y01298512D01*
Y01300853D01*
X01780875Y01303114D01*
X01780000Y01304630D01*
X01780089Y01304764D01*
X01780385Y01306250D01*
Y01330544D01*
X01782745Y01331249D01*
X01782925Y01331253D01*
X01784541Y01329636D01*
X01785865Y01328872D01*
Y01246167D01*
X01784041Y01245114D01*
X01782386Y01243459D01*
X01781405Y01241760D01*
X01693700D01*
X01692864Y01243209D01*
X01691209Y01244864D01*
X01689181Y01246034D01*
X01686920Y01246640D01*
X01684580D01*
X01682319Y01246034D01*
X01680291Y01244864D01*
X01678636Y01243209D01*
X01677466Y01241181D01*
X01676860Y01238920D01*
Y01236580D01*
X01677466Y01234319D01*
X01678636Y01232291D01*
X01680291Y01230636D01*
X01682319Y01229466D01*
X01684580Y01228860D01*
X01686920D01*
X01689181Y01229466D01*
X01691209Y01230636D01*
X01692864Y01232291D01*
X01693845Y01233990D01*
X01781550D01*
X01782386Y01232541D01*
X01784041Y01230886D01*
X01786069Y01229716D01*
X01788330Y01229110D01*
X01790670D01*
X01792931Y01229716D01*
X01794959Y01230886D01*
X01796614Y01232541D01*
X01797784Y01234569D01*
X01798075Y01235655D01*
X01800615Y01235321D01*
Y01134859D01*
X01793891Y01128135D01*
X01758047D01*
X01758034Y01128181D01*
X01756864Y01130209D01*
X01755209Y01131864D01*
X01753475Y01132865D01*
Y01184660D01*
X01755049Y01185569D01*
X01756704Y01187224D01*
X01757874Y01189251D01*
X01758480Y01191512D01*
Y01193853D01*
X01757874Y01196114D01*
X01756704Y01198141D01*
X01755049Y01199796D01*
X01753022Y01200967D01*
X01750761Y01201573D01*
X01748420D01*
X01746159Y01200967D01*
X01744132Y01199796D01*
X01742477Y01198141D01*
X01741306Y01196114D01*
X01740700Y01193853D01*
Y01191512D01*
X01741306Y01189251D01*
X01742477Y01187224D01*
X01744132Y01185569D01*
X01745706Y01184660D01*
Y01132680D01*
X01744291Y01131864D01*
X01742636Y01130209D01*
X01741466Y01128181D01*
X01741453Y01128135D01*
X01594272D01*
X01593364Y01129709D01*
X01591709Y01131364D01*
X01589975Y01132365D01*
Y01184160D01*
X01591549Y01185069D01*
X01593204Y01186724D01*
X01594375Y01188751D01*
X01594980Y01191012D01*
Y01193353D01*
X01594375Y01195614D01*
X01593204Y01197641D01*
X01591549Y01199296D01*
X01589522Y01200467D01*
X01587261Y01201073D01*
X01584920D01*
X01582659Y01200467D01*
X01580632Y01199296D01*
X01578976Y01197641D01*
X01577806Y01195614D01*
X01577200Y01193353D01*
Y01191012D01*
X01577806Y01188751D01*
X01578976Y01186724D01*
X01580632Y01185069D01*
X01582206Y01184160D01*
Y01132180D01*
X01580791Y01131364D01*
X01579136Y01129709D01*
X01578372Y01128385D01*
X01435667D01*
X01434614Y01130209D01*
X01432959Y01131864D01*
X01430931Y01133034D01*
X01428670Y01133640D01*
X01426725D01*
Y01183660D01*
X01428299Y01184569D01*
X01429954Y01186224D01*
X01431125Y01188251D01*
X01431730Y01190512D01*
Y01192853D01*
X01431125Y01195114D01*
X01429954Y01197141D01*
X01428299Y01198796D01*
X01426272Y01199967D01*
X01424011Y01200573D01*
X01421670D01*
X01419409Y01199967D01*
X01417382Y01198796D01*
X01415726Y01197141D01*
X01414556Y01195114D01*
X01413950Y01192853D01*
Y01190512D01*
X01414556Y01188251D01*
X01415726Y01186224D01*
X01417382Y01184569D01*
X01418956Y01183660D01*
Y01129564D01*
X01418090Y01128510D01*
X01269450D01*
X01268614Y01129959D01*
X01266959Y01131614D01*
X01264931Y01132784D01*
X01264475Y01132906D01*
Y01184410D01*
X01266049Y01185319D01*
X01267704Y01186974D01*
X01268875Y01189001D01*
X01269480Y01191262D01*
Y01193603D01*
X01268875Y01195864D01*
X01267704Y01197891D01*
X01266049Y01199546D01*
X01264022Y01200717D01*
X01261761Y01201323D01*
X01259420D01*
X01257159Y01200717D01*
X01255132Y01199546D01*
X01253476Y01197891D01*
X01252306Y01195864D01*
X01251700Y01193603D01*
Y01191262D01*
X01252306Y01189001D01*
X01253476Y01186974D01*
X01255132Y01185319D01*
X01256706Y01184410D01*
Y01131997D01*
X01256041Y01131614D01*
X01254386Y01129959D01*
X01253333Y01128135D01*
X01108878D01*
X01108114Y01129458D01*
X01106459Y01131114D01*
X01104432Y01132284D01*
X01102170Y01132890D01*
X01101975D01*
Y01184410D01*
X01103549Y01185319D01*
X01105204Y01186974D01*
X01106375Y01189001D01*
X01106980Y01191262D01*
Y01193603D01*
X01106375Y01195864D01*
X01105204Y01197891D01*
X01103549Y01199546D01*
X01101522Y01200717D01*
X01099261Y01201323D01*
X01096920D01*
X01094659Y01200717D01*
X01092632Y01199546D01*
X01090976Y01197891D01*
X01089806Y01195864D01*
X01089200Y01193603D01*
Y01191262D01*
X01089806Y01189001D01*
X01090976Y01186974D01*
X01092632Y01185319D01*
X01094206Y01184410D01*
Y01129778D01*
X01093886Y01129458D01*
X01093411Y01128635D01*
X00945863D01*
X00945784Y01128931D01*
X00944614Y01130958D01*
X00942958Y01132614D01*
X00940931Y01133784D01*
X00940385Y01133931D01*
Y01184305D01*
X00940959Y01184636D01*
X00942614Y01186291D01*
X00943784Y01188319D01*
X00944390Y01190580D01*
Y01192920D01*
X00943784Y01195181D01*
X00942614Y01197209D01*
X00940959Y01198864D01*
X00938931Y01200034D01*
X00936670Y01200640D01*
X00934330D01*
X00932069Y01200034D01*
X00930041Y01198864D01*
X00928386Y01197209D01*
X00927216Y01195181D01*
X00926610Y01192920D01*
Y01190580D01*
X00927216Y01188319D01*
X00928386Y01186291D01*
X00930041Y01184636D01*
X00932069Y01183466D01*
X00932615Y01183319D01*
Y01132945D01*
X00932041Y01132614D01*
X00930386Y01130958D01*
X00929694Y01129760D01*
X00777989D01*
X00776864Y01131709D01*
X00775209Y01133364D01*
X00773475Y01134365D01*
Y01185160D01*
X00775049Y01186069D01*
X00776704Y01187724D01*
X00777875Y01189751D01*
X00778480Y01192012D01*
Y01194353D01*
X00777875Y01196614D01*
X00776704Y01198641D01*
X00775049Y01200296D01*
X00773022Y01201467D01*
X00770761Y01202073D01*
X00768420D01*
X00766159Y01201467D01*
X00764132Y01200296D01*
X00762477Y01198641D01*
X00761306Y01196614D01*
X00760700Y01194353D01*
Y01192012D01*
X00761306Y01189751D01*
X00762477Y01187724D01*
X00764132Y01186069D01*
X00765706Y01185160D01*
Y01134180D01*
X00764291Y01133364D01*
X00762636Y01131709D01*
X00762449Y01131385D01*
X00615135D01*
Y01184477D01*
X00616709Y01185386D01*
X00618364Y01187041D01*
X00619534Y01189069D01*
X00620140Y01191330D01*
Y01193670D01*
X00619534Y01195931D01*
X00618364Y01197959D01*
X00616709Y01199614D01*
X00614681Y01200784D01*
X00612420Y01201390D01*
X00610080D01*
X00607819Y01200784D01*
X00605791Y01199614D01*
X00604136Y01197959D01*
X00602966Y01195931D01*
X00602360Y01193670D01*
Y01191330D01*
X00602966Y01189069D01*
X00604136Y01187041D01*
X00605791Y01185386D01*
X00607365Y01184477D01*
Y01128988D01*
X00607661Y01127501D01*
X00608503Y01126241D01*
X00609991Y01124753D01*
X00611251Y01123911D01*
X00612738Y01123615D01*
X00761252D01*
X00761466Y01122819D01*
X00762636Y01120791D01*
X00764291Y01119136D01*
X00766319Y01117966D01*
X00768580Y01117360D01*
X00770920D01*
X00773181Y01117966D01*
X00775209Y01119136D01*
X00776864Y01120791D01*
X00777556Y01121990D01*
X00929261D01*
X00930386Y01120041D01*
X00932041Y01118386D01*
X00934068Y01117216D01*
X00936329Y01116610D01*
X00938670D01*
X00940931Y01117216D01*
X00942958Y01118386D01*
X00944614Y01120041D01*
X00945089Y01120865D01*
X01047389D01*
X01047724Y01118325D01*
X01047569Y01118284D01*
X01045542Y01117114D01*
X01043886Y01115458D01*
X01042833Y01113635D01*
X00733128D01*
X00732364Y01114959D01*
X00730709Y01116614D01*
X00728681Y01117784D01*
X00726420Y01118390D01*
X00724080D01*
X00721819Y01117784D01*
X00719791Y01116614D01*
X00718136Y01114959D01*
X00716966Y01112931D01*
X00716360Y01110670D01*
Y01108330D01*
X00716966Y01106069D01*
X00718136Y01104041D01*
X00719791Y01102386D01*
X00721819Y01101216D01*
X00724080Y01100610D01*
X00726420D01*
X00728681Y01101216D01*
X00730709Y01102386D01*
X00732364Y01104041D01*
X00733417Y01105865D01*
X01043122D01*
X01043886Y01104541D01*
X01045542Y01102886D01*
X01047569Y01101716D01*
X01049830Y01101110D01*
X01052171D01*
X01054432Y01101716D01*
X01056459Y01102886D01*
X01058114Y01104541D01*
X01058734Y01105615D01*
X01369703D01*
X01369716Y01105569D01*
X01370886Y01103541D01*
X01372541Y01101886D01*
X01374568Y01100716D01*
X01376829Y01100110D01*
X01379170D01*
X01381431Y01100716D01*
X01383458Y01101886D01*
X01385114Y01103541D01*
X01385950Y01104990D01*
X01691905D01*
X01692886Y01103291D01*
X01694541Y01101636D01*
X01696569Y01100466D01*
X01698830Y01099860D01*
X01701170D01*
X01703431Y01100466D01*
X01705459Y01101636D01*
X01707114Y01103291D01*
X01707590Y01104116D01*
X01721389D01*
X01721723Y01101576D01*
X01721569Y01101534D01*
X01719541Y01100364D01*
X01717886Y01098709D01*
X01716716Y01096681D01*
X01716435Y01095635D01*
X01675297D01*
X01675284Y01095681D01*
X01674114Y01097709D01*
X01672459Y01099364D01*
X01670431Y01100534D01*
X01668170Y01101140D01*
X01665830D01*
X01663569Y01100534D01*
X01661541Y01099364D01*
X01659886Y01097709D01*
X01658716Y01095681D01*
X01658703Y01095635D01*
X01560656D01*
X01560614Y01095709D01*
X01558959Y01097364D01*
X01556931Y01098534D01*
X01554670Y01099140D01*
X01552330D01*
X01550069Y01098534D01*
X01548041Y01097364D01*
X01546386Y01095709D01*
X01545477Y01094135D01*
X01514523D01*
X01513614Y01095709D01*
X01511959Y01097364D01*
X01509931Y01098534D01*
X01507670Y01099140D01*
X01505330D01*
X01503069Y01098534D01*
X01501041Y01097364D01*
X01499386Y01095709D01*
X01498477Y01094135D01*
X01078773D01*
X01077864Y01095708D01*
X01076209Y01097364D01*
X01074182Y01098534D01*
X01071921Y01099140D01*
X01069580D01*
X01067319Y01098534D01*
X01065292Y01097364D01*
X01063636Y01095708D01*
X01062728Y01094134D01*
X01019945D01*
X01019614Y01094709D01*
X01017959Y01096364D01*
X01015931Y01097534D01*
X01013670Y01098140D01*
X01011330D01*
X01009069Y01097534D01*
X01007041Y01096364D01*
X01005386Y01094709D01*
X01005055Y01094134D01*
X00918023D01*
X00917114Y01095708D01*
X00915459Y01097364D01*
X00913432Y01098534D01*
X00911171Y01099140D01*
X00908830D01*
X00906569Y01098534D01*
X00904542Y01097364D01*
X00902886Y01095708D01*
X00901716Y01093681D01*
X00901704Y01093634D01*
X00863984D01*
X00863364Y01094709D01*
X00861709Y01096364D01*
X00859681Y01097534D01*
X00857420Y01098140D01*
X00855080D01*
X00852819Y01097534D01*
X00850791Y01096364D01*
X00849136Y01094709D01*
X00847966Y01092681D01*
X00847360Y01090420D01*
Y01088080D01*
X00847966Y01085819D01*
X00849136Y01083791D01*
X00850791Y01082136D01*
X00852819Y01080966D01*
X00855080Y01080360D01*
X00857420D01*
X00859681Y01080966D01*
X00861709Y01082136D01*
X00863364Y01083791D01*
X00864534Y01085819D01*
X00864547Y01085865D01*
X00902266D01*
X00902886Y01084791D01*
X00904542Y01083136D01*
X00906569Y01081966D01*
X00908830Y01081360D01*
X00911171D01*
X00913432Y01081966D01*
X00915459Y01083136D01*
X00917114Y01084791D01*
X00918023Y01086365D01*
X01004069D01*
X01004216Y01085819D01*
X01005386Y01083791D01*
X01007041Y01082136D01*
X01009069Y01080966D01*
X01011330Y01080360D01*
X01013670D01*
X01015931Y01080966D01*
X01017959Y01082136D01*
X01019614Y01083791D01*
X01020784Y01085819D01*
X01020931Y01086365D01*
X01062728D01*
X01063636Y01084791D01*
X01065292Y01083136D01*
X01067319Y01081966D01*
X01069580Y01081360D01*
X01071921D01*
X01074182Y01081966D01*
X01076209Y01083136D01*
X01077864Y01084791D01*
X01078773Y01086365D01*
X01498478D01*
X01499386Y01084791D01*
X01501041Y01083136D01*
X01503069Y01081966D01*
X01505330Y01081360D01*
X01507670D01*
X01509931Y01081966D01*
X01511959Y01083136D01*
X01513614Y01084791D01*
X01514523Y01086365D01*
X01545477D01*
X01546386Y01084791D01*
X01548041Y01083136D01*
X01550069Y01081966D01*
X01552330Y01081360D01*
X01554670D01*
X01556931Y01081966D01*
X01558959Y01083136D01*
X01560614Y01084791D01*
X01561784Y01086819D01*
X01562065Y01087865D01*
X01659266D01*
X01659886Y01086791D01*
X01661541Y01085136D01*
X01663569Y01083966D01*
X01665830Y01083360D01*
X01668170D01*
X01670431Y01083966D01*
X01672459Y01085136D01*
X01674114Y01086791D01*
X01674734Y01087865D01*
X01717843D01*
X01717886Y01087791D01*
X01719541Y01086136D01*
X01721569Y01084966D01*
X01723830Y01084360D01*
X01726170D01*
X01728431Y01084966D01*
X01730459Y01086136D01*
X01732114Y01087791D01*
X01733284Y01089819D01*
X01733397Y01090240D01*
X01835125D01*
X01836612Y01090536D01*
X01837872Y01091378D01*
X01843747Y01097253D01*
X01844589Y01098513D01*
X01844884Y01100000D01*
Y01310977D01*
X01846459Y01311886D01*
X01848114Y01313541D01*
X01849284Y01315569D01*
X01849890Y01317830D01*
Y01320170D01*
X01849284Y01322431D01*
X01848114Y01324459D01*
X01846459Y01326114D01*
X01846010Y01326373D01*
Y01398880D01*
X01846739Y01399076D01*
X01848801Y01400266D01*
X01850484Y01401949D01*
X01851674Y01404011D01*
X01851935Y01404986D01*
X01854565D01*
X01854826Y01404011D01*
X01856016Y01401949D01*
X01857699Y01400266D01*
X01858990Y01399521D01*
Y01348489D01*
X01857041Y01347364D01*
X01855386Y01345709D01*
X01854216Y01343681D01*
X01853610Y01341420D01*
Y01339080D01*
X01854216Y01336819D01*
X01855386Y01334791D01*
X01857041Y01333136D01*
X01859069Y01331966D01*
X01859365Y01331886D01*
Y01079359D01*
X01855391Y01075385D01*
X01747878D01*
X01747114Y01076709D01*
X01745459Y01078364D01*
X01743431Y01079534D01*
X01741170Y01080140D01*
X01738830D01*
X01736569Y01079534D01*
X01734541Y01078364D01*
X01732886Y01076709D01*
X01732122Y01075385D01*
X01662080D01*
X01662079Y01075386D01*
X01660909Y01077413D01*
X01659254Y01079069D01*
X01657227Y01080239D01*
X01654966Y01080845D01*
X01652625D01*
X01650364Y01080239D01*
X01648337Y01079069D01*
X01646681Y01077413D01*
X01645511Y01075386D01*
X01645511Y01075385D01*
X01589523D01*
X01588614Y01076959D01*
X01586959Y01078614D01*
X01584931Y01079784D01*
X01582670Y01080390D01*
X01580330D01*
X01578069Y01079784D01*
X01576041Y01078614D01*
X01574386Y01076959D01*
X01573622Y01075635D01*
X01498147D01*
X01498079Y01075886D01*
X01496909Y01077913D01*
X01495254Y01079569D01*
X01493227Y01080739D01*
X01490966Y01081345D01*
X01488625D01*
X01486364Y01080739D01*
X01484337Y01079569D01*
X01482681Y01077913D01*
X01481511Y01075886D01*
X01481444Y01075635D01*
X01424167D01*
X01423114Y01077458D01*
X01421459Y01079114D01*
X01419432Y01080284D01*
X01417171Y01080890D01*
X01414830D01*
X01412569Y01080284D01*
X01410542Y01079114D01*
X01408886Y01077458D01*
X01408772Y01077260D01*
X01335536D01*
X01335159Y01077913D01*
X01333504Y01079569D01*
X01331477Y01080739D01*
X01329216Y01081345D01*
X01326875D01*
X01324614Y01080739D01*
X01322587Y01079569D01*
X01320931Y01077913D01*
X01320554Y01077260D01*
X01262031D01*
X01261784Y01078181D01*
X01260614Y01080209D01*
X01258959Y01081864D01*
X01256931Y01083034D01*
X01254670Y01083640D01*
X01252330D01*
X01250069Y01083034D01*
X01248041Y01081864D01*
X01246386Y01080209D01*
X01245216Y01078181D01*
X01245103Y01077760D01*
X01162267D01*
X01161864Y01078459D01*
X01160209Y01080114D01*
X01158181Y01081284D01*
X01155920Y01081890D01*
X01153580D01*
X01151319Y01081284D01*
X01149291Y01080114D01*
X01147636Y01078459D01*
X01146466Y01076431D01*
X01145860Y01074170D01*
Y01071830D01*
X01146466Y01069569D01*
X01147636Y01067541D01*
X01149291Y01065886D01*
X01151319Y01064716D01*
X01153580Y01064110D01*
X01155920D01*
X01158181Y01064716D01*
X01160209Y01065886D01*
X01161864Y01067541D01*
X01163034Y01069569D01*
X01163147Y01069990D01*
X01245983D01*
X01246386Y01069291D01*
X01248041Y01067636D01*
X01250069Y01066466D01*
X01252330Y01065860D01*
X01254670D01*
X01256931Y01066466D01*
X01258959Y01067636D01*
X01260614Y01069291D01*
X01260729Y01069490D01*
X01319636D01*
X01319761Y01069023D01*
X01320931Y01066996D01*
X01322587Y01065341D01*
X01324614Y01064171D01*
X01325998Y01063800D01*
X01325664Y01061260D01*
X01206239D01*
X01205114Y01063209D01*
X01203459Y01064864D01*
X01201431Y01066034D01*
X01199170Y01066640D01*
X01196830D01*
X01194569Y01066034D01*
X01192541Y01064864D01*
X01190886Y01063209D01*
X01189716Y01061181D01*
X01189703Y01061135D01*
X01041484D01*
X01040864Y01062209D01*
X01039209Y01063864D01*
X01037181Y01065034D01*
X01034920Y01065640D01*
X01032580D01*
X01030319Y01065034D01*
X01028291Y01063864D01*
X01026636Y01062209D01*
X01025511Y01060260D01*
X00873806D01*
X00873114Y01061459D01*
X00871459Y01063114D01*
X00869431Y01064284D01*
X00867170Y01064890D01*
X00864830D01*
X00862569Y01064284D01*
X00860541Y01063114D01*
X00858886Y01061459D01*
X00857833Y01059635D01*
X00729128D01*
X00728364Y01060959D01*
X00726709Y01062614D01*
X00724681Y01063784D01*
X00722420Y01064390D01*
X00720080D01*
X00717819Y01063784D01*
X00715791Y01062614D01*
X00714136Y01060959D01*
X00713661Y01060135D01*
X00553864D01*
X00553784Y01060432D01*
X00552614Y01062459D01*
X00550959Y01064114D01*
X00548932Y01065284D01*
X00546670Y01065890D01*
X00544330D01*
X00542069Y01065284D01*
X00540042Y01064114D01*
X00538386Y01062459D01*
X00537216Y01060432D01*
X00536610Y01058171D01*
Y01055830D01*
X00537216Y01053569D01*
X00538386Y01051542D01*
X00540042Y01049886D01*
X00542069Y01048716D01*
X00544330Y01048110D01*
X00546670D01*
X00548932Y01048716D01*
X00550959Y01049886D01*
X00552614Y01051542D01*
X00553089Y01052365D01*
X00712886D01*
X00712966Y01052069D01*
X00714136Y01050041D01*
X00715791Y01048386D01*
X00717819Y01047216D01*
X00720080Y01046610D01*
X00722420D01*
X00724681Y01047216D01*
X00726709Y01048386D01*
X00728364Y01050041D01*
X00729417Y01051865D01*
X00858122D01*
X00858886Y01050541D01*
X00860541Y01048886D01*
X00862569Y01047716D01*
X00864830Y01047110D01*
X00867170D01*
X00869431Y01047716D01*
X00871459Y01048886D01*
X00873114Y01050541D01*
X00874239Y01052490D01*
X01025944D01*
X01026636Y01051292D01*
X01028291Y01049637D01*
X01030319Y01048466D01*
X01032580Y01047860D01*
X01034920D01*
X01037181Y01048466D01*
X01039209Y01049637D01*
X01040864Y01051292D01*
X01042034Y01053319D01*
X01042047Y01053365D01*
X01190266D01*
X01190886Y01052291D01*
X01192541Y01050636D01*
X01194569Y01049466D01*
X01196830Y01048860D01*
X01199170D01*
X01201431Y01049466D01*
X01203459Y01050636D01*
X01205114Y01052291D01*
X01205806Y01053490D01*
X01210171D01*
X01210819Y01051034D01*
X01208791Y01049864D01*
X01207136Y01048209D01*
X01205966Y01046181D01*
X01205618Y01044885D01*
X00902688D01*
X00901208Y01046364D01*
X00899181Y01047534D01*
X00896920Y01048140D01*
X00894579D01*
X00892318Y01047534D01*
X00890291Y01046364D01*
X00888636Y01044709D01*
X00887944Y01043510D01*
X00568989D01*
X00567864Y01045459D01*
X00566209Y01047114D01*
X00564182Y01048284D01*
X00561921Y01048890D01*
X00559580D01*
X00557319Y01048284D01*
X00555292Y01047114D01*
X00553636Y01045459D01*
X00552466Y01043431D01*
X00551860Y01041170D01*
Y01038830D01*
X00552466Y01036569D01*
X00553636Y01034541D01*
X00555292Y01032886D01*
X00557319Y01031716D01*
X00559580Y01031110D01*
X00561921D01*
X00564182Y01031716D01*
X00566209Y01032886D01*
X00567864Y01034541D01*
X00568556Y01035740D01*
X00574261D01*
X00574941Y01033200D01*
X00574791Y01033114D01*
X00573136Y01031459D01*
X00571966Y01029431D01*
X00571360Y01027170D01*
Y01024830D01*
X00571966Y01022569D01*
X00573136Y01020541D01*
X00574791Y01018886D01*
X00576819Y01017716D01*
X00579080Y01017110D01*
X00581420D01*
X00583681Y01017716D01*
X00585709Y01018886D01*
X00587364Y01020541D01*
X00587912Y01021490D01*
X00732420D01*
X00732466Y01021319D01*
X00733636Y01019291D01*
X00735291Y01017636D01*
X00737319Y01016466D01*
X00739580Y01015860D01*
X00741920D01*
X00744181Y01016466D01*
X00746209Y01017636D01*
X00747864Y01019291D01*
X00749034Y01021319D01*
X00749147Y01021740D01*
X01237483D01*
X01237886Y01021041D01*
X01239541Y01019386D01*
X01241569Y01018216D01*
X01243830Y01017610D01*
X01246170D01*
X01248431Y01018216D01*
X01250459Y01019386D01*
X01252114Y01021041D01*
X01252806Y01022240D01*
X01389761D01*
X01390886Y01020291D01*
X01392541Y01018636D01*
X01394569Y01017466D01*
X01396830Y01016860D01*
X01399170D01*
X01401431Y01017466D01*
X01403459Y01018636D01*
X01404938Y01020115D01*
X01964250D01*
X01965737Y01020411D01*
X01966997Y01021253D01*
X01967839Y01022513D01*
X01968135Y01024000D01*
Y01130331D01*
X01970199Y01131773D01*
X01970252Y01131799D01*
X01971650Y01131802D01*
X01973048Y01131799D01*
X01973102Y01131773D01*
X01974056Y01131135D01*
X01975237Y01130900D01*
X01975238Y01130900D01*
X01975321Y01130900D01*
X01980679D01*
X01980763Y01130900D01*
X01980763Y01130900D01*
X01981944Y01131135D01*
X01982899Y01131773D01*
X01982952Y01131799D01*
X01984350Y01131802D01*
X01985430Y01131800D01*
X01987320Y01130426D01*
X01987615Y01130163D01*
Y01006635D01*
X01094128D01*
X01093364Y01007959D01*
X01091709Y01009614D01*
X01089681Y01010784D01*
X01087420Y01011390D01*
X01085080D01*
X01082819Y01010784D01*
X01080791Y01009614D01*
X01079136Y01007959D01*
X01078661Y01007135D01*
X00931864D01*
X00931784Y01007431D01*
X00930614Y01009459D01*
X00928959Y01011114D01*
X00926931Y01012284D01*
X00924670Y01012890D01*
X00922330D01*
X00920069Y01012284D01*
X00918041Y01011114D01*
X00916386Y01009459D01*
X00915478Y01007885D01*
X00767773D01*
X00766864Y01009459D01*
X00765209Y01011114D01*
X00763181Y01012284D01*
X00760920Y01012890D01*
X00758580D01*
X00756319Y01012284D01*
X00754291Y01011114D01*
X00752636Y01009459D01*
X00752088Y01008510D01*
X00610330D01*
X00610284Y01008681D01*
X00609114Y01010709D01*
X00607459Y01012364D01*
X00605431Y01013534D01*
X00603170Y01014140D01*
X00600830D01*
X00598569Y01013534D01*
X00596541Y01012364D01*
X00594886Y01010709D01*
X00593716Y01008681D01*
X00593110Y01006420D01*
Y01004080D01*
X00593716Y01001819D01*
X00594886Y00999791D01*
X00596541Y00998136D01*
X00598569Y00996966D01*
X00600830Y00996360D01*
X00603170D01*
X00605431Y00996966D01*
X00607459Y00998136D01*
X00609114Y00999791D01*
X00609662Y01000740D01*
X00751420D01*
X00751466Y01000569D01*
X00752636Y00998541D01*
X00754291Y00996886D01*
X00756319Y00995716D01*
X00758580Y00995110D01*
X00760920D01*
X00763181Y00995716D01*
X00765209Y00996886D01*
X00766864Y00998541D01*
X00767773Y01000115D01*
X00915478D01*
X00916386Y00998541D01*
X00918041Y00996886D01*
X00920069Y00995716D01*
X00922330Y00995110D01*
X00924670D01*
X00926931Y00995716D01*
X00928959Y00996886D01*
X00930614Y00998541D01*
X00931089Y00999365D01*
X01077886D01*
X01077966Y00999069D01*
X01079136Y00997041D01*
X01080791Y00995386D01*
X01082819Y00994216D01*
X01085080Y00993610D01*
X01087420D01*
X01089681Y00994216D01*
X01091709Y00995386D01*
X01093364Y00997041D01*
X01094417Y00998865D01*
X01991500D01*
X01992987Y00999161D01*
X01994247Y01000003D01*
X01995089Y01001263D01*
X01995385Y01002750D01*
Y01129549D01*
X01997854Y01131800D01*
X01998448Y01131799D01*
X01998501Y01131773D01*
X01999456Y01131135D01*
X02000638Y01130900D01*
X02000638Y01130900D01*
X02000721Y01130900D01*
X02006163D01*
X02007344Y01131135D01*
X02008345Y01131805D01*
X02009014Y01132806D01*
X02009249Y01133987D01*
Y01154012D01*
X02009014Y01155194D01*
X02008345Y01156195D01*
X02007344Y01156864D01*
X02006163Y01157099D01*
X02000721D01*
X02000638Y01157099D01*
X02000638Y01157099D01*
X01999456Y01156864D01*
X01998501Y01156226D01*
X01998448Y01156201D01*
X01997050Y01156197D01*
X01995652Y01156201D01*
X01995599Y01156226D01*
X01994644Y01156864D01*
X01993463Y01157099D01*
X01993463Y01157099D01*
X01993379Y01157099D01*
X01988021D01*
X01987938Y01157099D01*
X01987937Y01157099D01*
X01986756Y01156864D01*
X01985802Y01156226D01*
X01985748Y01156201D01*
X01984350Y01156197D01*
X01982952Y01156201D01*
X01982899Y01156226D01*
X01981944Y01156864D01*
X01980763Y01157099D01*
X01980763Y01157099D01*
X01980679Y01157099D01*
X01975321D01*
X01975238Y01157099D01*
X01975237Y01157099D01*
X01974056Y01156864D01*
X01973102Y01156226D01*
X01973048Y01156201D01*
X01971650Y01156197D01*
X01970252Y01156201D01*
X01970199Y01156226D01*
X01969244Y01156864D01*
X01968063Y01157099D01*
X01968063Y01157099D01*
X01967979Y01157099D01*
X01962621D01*
X01962538Y01157099D01*
X01962538Y01157099D01*
X01961356Y01156864D01*
X01960401Y01156226D01*
X01960348Y01156201D01*
X01958950Y01156197D01*
X01957552Y01156201D01*
X01957499Y01156226D01*
X01956544Y01156864D01*
X01955363Y01157099D01*
X01955363Y01157099D01*
X01955279Y01157099D01*
X01949921D01*
X01949838Y01157099D01*
X01949837Y01157099D01*
X01948656Y01156864D01*
X01947702Y01156226D01*
X01947648Y01156201D01*
X01946250Y01156197D01*
X01944852Y01156201D01*
X01944799Y01156226D01*
X01943844Y01156864D01*
X01942663Y01157099D01*
X01942663Y01157099D01*
X01942579Y01157099D01*
X01937221D01*
X01937138Y01157099D01*
X01937137Y01157099D01*
X01935956Y01156864D01*
X01935002Y01156226D01*
X01934948Y01156201D01*
X01933550Y01156197D01*
X01932152Y01156201D01*
X01932099Y01156226D01*
X01931144Y01156864D01*
X01929963Y01157099D01*
X01929963Y01157099D01*
X01929879Y01157099D01*
X01924521D01*
X01924438Y01157099D01*
X01924438Y01157099D01*
X01923256Y01156864D01*
X01922301Y01156226D01*
X01922248Y01156201D01*
X01920850Y01156197D01*
X01919452Y01156201D01*
X01919399Y01156226D01*
X01918444Y01156864D01*
X01917263Y01157099D01*
X01917263Y01157099D01*
X01917179Y01157099D01*
X01911821D01*
X01911738Y01157099D01*
X01911738Y01157099D01*
X01910556Y01156864D01*
X01909601Y01156226D01*
X01909548Y01156201D01*
X01908150Y01156197D01*
X01906752Y01156201D01*
X01906699Y01156226D01*
X01905744Y01156864D01*
X01904563Y01157099D01*
X01904563Y01157099D01*
X01904479Y01157099D01*
X01903070D01*
Y01144000D01*
Y01130900D01*
X01904479D01*
X01904563Y01130900D01*
X01904563Y01130900D01*
X01905744Y01131135D01*
X01906699Y01131773D01*
X01906752Y01131799D01*
X01908150Y01131802D01*
X01908361Y01131802D01*
X01910545Y01129777D01*
X01910616Y01129628D01*
Y01061941D01*
X01906809Y01058135D01*
X01892389D01*
X01891691Y01059465D01*
X01891497Y01060675D01*
X01892864Y01062041D01*
X01894034Y01064069D01*
X01894640Y01066330D01*
Y01068670D01*
X01894034Y01070931D01*
X01892866Y01072954D01*
X01892997Y01073612D01*
Y01129620D01*
X01893999Y01131773D01*
X01893999Y01131773D01*
X01894052Y01131799D01*
X01895450Y01131802D01*
X01896848Y01131799D01*
X01896902Y01131773D01*
X01897856Y01131135D01*
X01899037Y01130900D01*
X01899038Y01130900D01*
X01899121Y01130900D01*
X01900530D01*
Y01144000D01*
Y01157099D01*
X01899121D01*
X01899038Y01157099D01*
X01899037Y01157099D01*
X01897856Y01156864D01*
X01896902Y01156226D01*
X01896848Y01156201D01*
X01895450Y01156197D01*
X01894052Y01156201D01*
X01893999Y01156226D01*
X01893044Y01156864D01*
X01891863Y01157099D01*
X01891863Y01157099D01*
X01891779Y01157099D01*
X01886338D01*
X01885156Y01156864D01*
X01884155Y01156195D01*
X01883486Y01155194D01*
X01883251Y01154012D01*
Y01133987D01*
X01883486Y01132806D01*
X01884155Y01131805D01*
X01885156Y01131135D01*
X01885228Y01131121D01*
Y01076390D01*
X01884580D01*
X01882319Y01075784D01*
X01880291Y01074614D01*
X01878636Y01072959D01*
X01877466Y01070931D01*
X01876860Y01068670D01*
Y01066330D01*
X01877466Y01064069D01*
X01878636Y01062041D01*
X01880003Y01060675D01*
X01879809Y01059465D01*
X01879111Y01058135D01*
X01696523D01*
X01695614Y01059709D01*
X01693959Y01061364D01*
X01691931Y01062534D01*
X01689670Y01063140D01*
X01687330D01*
X01685069Y01062534D01*
X01683041Y01061364D01*
X01681386Y01059709D01*
X01680694Y01058510D01*
X01525239D01*
X01524113Y01060459D01*
X01522458Y01062114D01*
X01520431Y01063284D01*
X01518170Y01063890D01*
X01515829D01*
X01513568Y01063284D01*
X01511541Y01062114D01*
X01509886Y01060459D01*
X01509555Y01059885D01*
X01375431D01*
X01375284Y01060431D01*
X01374114Y01062459D01*
X01372459Y01064114D01*
X01370431Y01065284D01*
X01368170Y01065890D01*
X01365830D01*
X01363569Y01065284D01*
X01361541Y01064114D01*
X01359886Y01062459D01*
X01359194Y01061260D01*
X01330426D01*
X01330092Y01063800D01*
X01331477Y01064171D01*
X01333504Y01065341D01*
X01335159Y01066996D01*
X01336329Y01069023D01*
X01336454Y01069490D01*
X01407469D01*
X01407716Y01068568D01*
X01408886Y01066541D01*
X01410542Y01064886D01*
X01412569Y01063716D01*
X01414830Y01063110D01*
X01417171D01*
X01419432Y01063716D01*
X01421459Y01064886D01*
X01423114Y01066541D01*
X01423878Y01067865D01*
X01482180D01*
X01482681Y01066996D01*
X01484337Y01065341D01*
X01486364Y01064171D01*
X01488625Y01063565D01*
X01490966D01*
X01493227Y01064171D01*
X01495254Y01065341D01*
X01496909Y01066996D01*
X01497411Y01067865D01*
X01573333D01*
X01574386Y01066041D01*
X01576041Y01064386D01*
X01578069Y01063216D01*
X01580330Y01062610D01*
X01582670D01*
X01584931Y01063216D01*
X01586959Y01064386D01*
X01588614Y01066041D01*
X01589523Y01067615D01*
X01646035D01*
X01646681Y01066496D01*
X01648337Y01064841D01*
X01650364Y01063671D01*
X01652625Y01063065D01*
X01654966D01*
X01657227Y01063671D01*
X01659254Y01064841D01*
X01660909Y01066496D01*
X01661555Y01067615D01*
X01731833D01*
X01732886Y01065791D01*
X01734541Y01064136D01*
X01736569Y01062966D01*
X01738830Y01062360D01*
X01741170D01*
X01743431Y01062966D01*
X01745459Y01064136D01*
X01747114Y01065791D01*
X01748167Y01067615D01*
X01857000D01*
X01858486Y01067911D01*
X01859747Y01068753D01*
X01865997Y01075003D01*
X01866839Y01076263D01*
X01867134Y01077750D01*
Y01332660D01*
X01867959Y01333136D01*
X01869614Y01334791D01*
X01870784Y01336819D01*
X01871390Y01339080D01*
Y01341420D01*
X01870784Y01343681D01*
X01869614Y01345709D01*
X01867959Y01347364D01*
X01866759Y01348056D01*
Y01399088D01*
X01868800Y01400266D01*
X01870484Y01401949D01*
X01871674Y01404011D01*
X01871935Y01404986D01*
X01874565D01*
X01874826Y01404011D01*
X01876016Y01401949D01*
X01877699Y01400266D01*
X01879760Y01399076D01*
X01882060Y01398460D01*
X01884440D01*
X01886739Y01399076D01*
X01888800Y01400266D01*
X01890484Y01401949D01*
X01891674Y01404011D01*
X01891935Y01404987D01*
X01894565D01*
X01894826Y01404011D01*
X01896016Y01401949D01*
X01897699Y01400266D01*
X01899761Y01399076D01*
X01902060Y01398460D01*
X01904440D01*
X01906740Y01399076D01*
X01908801Y01400266D01*
X01910484Y01401949D01*
X01911674Y01404011D01*
X01911935Y01404986D01*
X01914565D01*
X01914826Y01404011D01*
X01916016Y01401949D01*
X01917699Y01400266D01*
X01919761Y01399076D01*
X01922060Y01398460D01*
X01924440D01*
X01926739Y01399076D01*
X01928801Y01400266D01*
X01930484Y01401949D01*
X01931674Y01404011D01*
X01931935Y01404986D01*
X01934565D01*
X01934826Y01404011D01*
X01936016Y01401949D01*
X01937699Y01400266D01*
X01939761Y01399076D01*
X01942060Y01398460D01*
X01944440D01*
X01946739Y01399076D01*
X01948801Y01400266D01*
X01950484Y01401949D01*
X01951674Y01404011D01*
X01951935Y01404986D01*
X01954565D01*
X01954826Y01404011D01*
X01956016Y01401949D01*
X01957699Y01400266D01*
X01959761Y01399076D01*
X01962060Y01398460D01*
X01964440D01*
X01966739Y01399076D01*
X01968801Y01400266D01*
X01970484Y01401949D01*
X01971674Y01404011D01*
X01971935Y01404986D01*
X01974565D01*
X01974826Y01404011D01*
X01976016Y01401949D01*
X01977699Y01400266D01*
X01979761Y01399076D01*
X01981980Y01398481D01*
Y01407500D01*
Y01416519D01*
X01979761Y01415924D01*
X01977699Y01414734D01*
X01976016Y01413051D01*
X01974826Y01410989D01*
X01974565Y01410014D01*
X01971935D01*
X01971674Y01410989D01*
X01970484Y01413051D01*
X01968801Y01414734D01*
X01966739Y01415924D01*
X01964440Y01416540D01*
X01962060D01*
X01959761Y01415924D01*
X01957699Y01414734D01*
X01956016Y01413051D01*
X01954826Y01410989D01*
X01954565Y01410014D01*
X01951935D01*
X01951674Y01410989D01*
X01950484Y01413051D01*
X01948801Y01414734D01*
X01946739Y01415924D01*
X01944440Y01416540D01*
X01942060D01*
X01939761Y01415924D01*
X01937699Y01414734D01*
X01936016Y01413051D01*
X01934826Y01410989D01*
X01934565Y01410014D01*
X01931935D01*
X01931674Y01410989D01*
X01930484Y01413051D01*
X01928801Y01414734D01*
X01926739Y01415924D01*
X01924440Y01416540D01*
X01922060D01*
X01919761Y01415924D01*
X01917699Y01414734D01*
X01916016Y01413051D01*
X01914826Y01410989D01*
X01914565Y01410014D01*
X01911935D01*
X01911674Y01410989D01*
X01910484Y01413051D01*
X01908801Y01414734D01*
X01906740Y01415924D01*
X01905460Y01416267D01*
Y01420262D01*
X01905164Y01421749D01*
X01904322Y01423009D01*
X01902834Y01424497D01*
X01901574Y01425339D01*
X01900087Y01425635D01*
D02*
G37*
G36*
X01256170Y01370140D02*
X01253830D01*
X01251569Y01369534D01*
X01249541Y01368364D01*
X01247886Y01366709D01*
X01246716Y01364681D01*
X01246618Y01364317D01*
X01204863D01*
X01203954Y01365891D01*
X01202299Y01367546D01*
X01200272Y01368717D01*
X01198011Y01369323D01*
X01195670D01*
X01193409Y01368717D01*
X01191382Y01367546D01*
X01189726Y01365891D01*
X01188556Y01363864D01*
X01187950Y01361603D01*
Y01359262D01*
X01188556Y01357001D01*
X01189726Y01354974D01*
X01191382Y01353319D01*
X01192956Y01352410D01*
Y01273921D01*
X01193251Y01272434D01*
X01194093Y01271174D01*
X01195581Y01269686D01*
X01196842Y01268844D01*
X01198328Y01268548D01*
X01262526D01*
X01262806Y01267501D01*
X01263977Y01265474D01*
X01265632Y01263819D01*
X01267659Y01262648D01*
X01269920Y01262043D01*
X01272261D01*
X01274522Y01262648D01*
X01276549Y01263819D01*
X01278204Y01265474D01*
X01279374Y01267501D01*
X01279980Y01269762D01*
Y01272103D01*
X01279374Y01274364D01*
X01278204Y01276391D01*
X01276549Y01278046D01*
X01274522Y01279217D01*
X01272261Y01279823D01*
X01269920D01*
X01267659Y01279217D01*
X01265632Y01278046D01*
X01263977Y01276391D01*
X01263934Y01276317D01*
X01200725D01*
Y01352410D01*
X01202299Y01353319D01*
X01203954Y01354974D01*
X01204863Y01356548D01*
X01247449D01*
X01247886Y01355791D01*
X01249541Y01354136D01*
X01251569Y01352966D01*
X01253830Y01352360D01*
X01256170D01*
X01258431Y01352966D01*
X01260459Y01354136D01*
X01262114Y01355791D01*
X01263284Y01357819D01*
X01263890Y01360080D01*
Y01362420D01*
X01263284Y01364681D01*
X01262114Y01366709D01*
X01260459Y01368364D01*
X01258431Y01369534D01*
X01256170Y01370140D01*
D02*
G37*
G36*
X01196670Y01429640D02*
X01194330D01*
X01192069Y01429034D01*
X01190041Y01427864D01*
X01188386Y01426209D01*
X01187216Y01424181D01*
X01186610Y01421920D01*
Y01419580D01*
X01187216Y01417319D01*
X01188386Y01415291D01*
X01190041Y01413636D01*
X01191615Y01412728D01*
Y01399385D01*
X01158488D01*
X01157270Y01399142D01*
X01157132Y01399260D01*
X01156484Y01401949D01*
X01157674Y01404010D01*
X01158291Y01406310D01*
Y01408690D01*
X01157674Y01410989D01*
X01156484Y01413050D01*
X01154801Y01414733D01*
X01152740Y01415924D01*
X01150441Y01416540D01*
X01148061D01*
X01145761Y01415924D01*
X01143700Y01414733D01*
X01142017Y01413050D01*
X01140827Y01410989D01*
X01140565Y01410014D01*
X01137936D01*
X01137675Y01410989D01*
X01136484Y01413050D01*
X01134801Y01414733D01*
X01132740Y01415924D01*
X01130441Y01416540D01*
X01128061D01*
X01125761Y01415924D01*
X01123700Y01414733D01*
X01122017Y01413050D01*
X01120827Y01410989D01*
X01120565Y01410014D01*
X01117936D01*
X01117675Y01410989D01*
X01116485Y01413050D01*
X01114801Y01414733D01*
X01112740Y01415924D01*
X01110441Y01416540D01*
X01108061D01*
X01105761Y01415924D01*
X01103700Y01414733D01*
X01102017Y01413050D01*
X01100827Y01410989D01*
X01100565Y01410013D01*
X01097936D01*
X01097674Y01410989D01*
X01096484Y01413050D01*
X01094801Y01414733D01*
X01092739Y01415924D01*
X01090440Y01416540D01*
X01088060D01*
X01085761Y01415924D01*
X01083699Y01414733D01*
X01082016Y01413050D01*
X01080826Y01410989D01*
X01080565Y01410014D01*
X01077935D01*
X01077674Y01410989D01*
X01076484Y01413050D01*
X01074801Y01414733D01*
X01072740Y01415924D01*
X01070440Y01416540D01*
X01068060D01*
X01065761Y01415924D01*
X01063700Y01414733D01*
X01062017Y01413050D01*
X01060826Y01410989D01*
X01060565Y01410014D01*
X01057935D01*
X01057674Y01410989D01*
X01056484Y01413050D01*
X01054801Y01414733D01*
X01052740Y01415924D01*
X01050440Y01416540D01*
X01048060D01*
X01045761Y01415924D01*
X01043700Y01414733D01*
X01042017Y01413050D01*
X01040826Y01410989D01*
X01040565Y01410014D01*
X01037935D01*
X01037674Y01410989D01*
X01036484Y01413050D01*
X01034801Y01414733D01*
X01032740Y01415924D01*
X01030441Y01416540D01*
X01028060D01*
X01025761Y01415924D01*
X01023700Y01414733D01*
X01022017Y01413050D01*
X01020826Y01410989D01*
X01020565Y01410014D01*
X01017936D01*
X01017674Y01410989D01*
X01016484Y01413050D01*
X01014801Y01414733D01*
X01012740Y01415924D01*
X01010441Y01416540D01*
X01008060D01*
X01005761Y01415924D01*
X01003700Y01414733D01*
X01002017Y01413050D01*
X01000826Y01410989D01*
X01000565Y01410014D01*
X00997936D01*
X00997674Y01410989D01*
X00996484Y01413050D01*
X00994801Y01414733D01*
X00992740Y01415924D01*
X00990441Y01416540D01*
X00988060D01*
X00985761Y01415924D01*
X00983700Y01414733D01*
X00982017Y01413050D01*
X00980826Y01410989D01*
X00978290Y01411338D01*
Y01416540D01*
X00960210D01*
Y01398460D01*
X00978290D01*
Y01403661D01*
X00980826Y01404010D01*
X00982017Y01401949D01*
X00983700Y01400266D01*
X00985366Y01399304D01*
Y01391385D01*
X00959578D01*
X00958092Y01391089D01*
X00956831Y01390247D01*
X00955343Y01388759D01*
X00954501Y01387499D01*
X00954206Y01386012D01*
Y01330732D01*
X00951751Y01329715D01*
X00951392Y01329953D01*
X00951299Y01330046D01*
X00950929Y01330260D01*
X00949725Y01331058D01*
Y01373262D01*
X00949429Y01374749D01*
X00948587Y01376009D01*
X00947099Y01377497D01*
X00945839Y01378339D01*
X00944352Y01378635D01*
X00857328D01*
X00855842Y01378339D01*
X00854581Y01377497D01*
X00849253Y01372169D01*
X00848411Y01370908D01*
X00848115Y01369422D01*
Y01293772D01*
X00846541Y01292864D01*
X00844886Y01291209D01*
X00843716Y01289181D01*
X00843110Y01286920D01*
Y01284580D01*
X00843716Y01282319D01*
X00844886Y01280291D01*
X00846541Y01278636D01*
X00848569Y01277466D01*
X00850830Y01276860D01*
X00853170D01*
X00855431Y01277466D01*
X00857459Y01278636D01*
X00859114Y01280291D01*
X00860284Y01282319D01*
X00860890Y01284580D01*
Y01286920D01*
X00860284Y01289181D01*
X00859114Y01291209D01*
X00857459Y01292864D01*
X00855885Y01293772D01*
Y01367813D01*
X00858937Y01370865D01*
X00864818D01*
X00865543Y01369286D01*
X00865661Y01368325D01*
X00864227Y01366891D01*
X00863056Y01364864D01*
X00862450Y01362603D01*
Y01360262D01*
X00863056Y01358001D01*
X00864227Y01355974D01*
X00865882Y01354319D01*
X00867456Y01353410D01*
Y01274921D01*
X00867751Y01273434D01*
X00868594Y01272174D01*
X00870081Y01270686D01*
X00871342Y01269844D01*
X00872828Y01269548D01*
X00937026D01*
X00937306Y01268501D01*
X00938476Y01266474D01*
X00940132Y01264819D01*
X00942159Y01263648D01*
X00944420Y01263043D01*
X00946761D01*
X00949022Y01263648D01*
X00951049Y01264819D01*
X00952704Y01266474D01*
X00953875Y01268501D01*
X00954480Y01270762D01*
Y01273103D01*
X00953875Y01275364D01*
X00952704Y01277391D01*
X00951049Y01279046D01*
X00949022Y01280217D01*
X00946761Y01280823D01*
X00944420D01*
X00942159Y01280217D01*
X00940132Y01279046D01*
X00938476Y01277391D01*
X00938434Y01277317D01*
X00875225D01*
Y01353410D01*
X00876799Y01354319D01*
X00878454Y01355974D01*
X00879624Y01358001D01*
X00880230Y01360262D01*
Y01362603D01*
X00879624Y01364864D01*
X00878454Y01366891D01*
X00877020Y01368325D01*
X00877138Y01369286D01*
X00877862Y01370865D01*
X00941956D01*
Y01330955D01*
X00940382Y01330046D01*
X00938727Y01328391D01*
X00937556Y01326364D01*
X00936950Y01324103D01*
Y01321762D01*
X00937556Y01319501D01*
X00938727Y01317474D01*
X00940382Y01315819D01*
X00942409Y01314648D01*
X00944670Y01314043D01*
X00947011D01*
X00949272Y01314648D01*
X00951299Y01315819D01*
X00951666Y01316186D01*
X00954206Y01315133D01*
Y01308849D01*
X00952383Y01307796D01*
X00950727Y01306141D01*
X00949557Y01304114D01*
X00948951Y01301853D01*
Y01299512D01*
X00949557Y01297251D01*
X00950727Y01295224D01*
X00952383Y01293569D01*
X00954410Y01292398D01*
X00956671Y01291793D01*
X00959011D01*
X00961273Y01292398D01*
X00963300Y01293569D01*
X00964955Y01295224D01*
X00966125Y01297251D01*
X00966731Y01299512D01*
Y01301853D01*
X00966125Y01304114D01*
X00964955Y01306141D01*
X00963300Y01307796D01*
X00961975Y01308561D01*
Y01383615D01*
X00987762D01*
X00989249Y01383911D01*
X00990509Y01384753D01*
X00991997Y01386241D01*
X00992839Y01387501D01*
X00993135Y01388988D01*
Y01399304D01*
X00994801Y01400266D01*
X00996484Y01401949D01*
X00997674Y01404010D01*
X00997936Y01404985D01*
X01000565D01*
X01000826Y01404010D01*
X01002017Y01401949D01*
X01003700Y01400266D01*
X01005761Y01399076D01*
X01008060Y01398460D01*
X01010441D01*
X01012740Y01399076D01*
X01014801Y01400266D01*
X01016484Y01401949D01*
X01017674Y01404010D01*
X01017936Y01404985D01*
X01020565D01*
X01020826Y01404010D01*
X01022017Y01401949D01*
X01023700Y01400266D01*
X01025761Y01399076D01*
X01028060Y01398460D01*
X01030441D01*
X01032740Y01399076D01*
X01034801Y01400266D01*
X01036484Y01401949D01*
X01037674Y01404010D01*
X01037935Y01404985D01*
X01040565D01*
X01040826Y01404010D01*
X01042017Y01401949D01*
X01043700Y01400266D01*
X01045761Y01399076D01*
X01048060Y01398460D01*
X01050440D01*
X01052740Y01399076D01*
X01054801Y01400266D01*
X01056484Y01401949D01*
X01057674Y01404010D01*
X01057935Y01404985D01*
X01060565D01*
X01060826Y01404010D01*
X01062017Y01401949D01*
X01063700Y01400266D01*
X01065366Y01399304D01*
Y01389250D01*
X01065661Y01387763D01*
X01066503Y01386503D01*
X01070753Y01382253D01*
X01072013Y01381411D01*
X01073500Y01381115D01*
X01117706D01*
Y01329482D01*
X01115251Y01328465D01*
X01114892Y01328703D01*
X01114799Y01328796D01*
X01114429Y01329010D01*
X01113225Y01329808D01*
Y01372012D01*
X01112929Y01373499D01*
X01112087Y01374759D01*
X01110599Y01376247D01*
X01109339Y01377089D01*
X01107852Y01377385D01*
X01020828D01*
X01019342Y01377089D01*
X01018081Y01376247D01*
X01013253Y01371419D01*
X01012411Y01370158D01*
X01012115Y01368672D01*
Y01291537D01*
X01011166Y01290989D01*
X01009511Y01289333D01*
X01008341Y01287306D01*
X01007735Y01285045D01*
Y01282705D01*
X01008341Y01280444D01*
X01009511Y01278416D01*
X01011166Y01276761D01*
X01013194Y01275591D01*
X01015455Y01274985D01*
X01017795D01*
X01020056Y01275591D01*
X01022084Y01276761D01*
X01023739Y01278416D01*
X01024909Y01280444D01*
X01025515Y01282705D01*
Y01285045D01*
X01024909Y01287306D01*
X01023739Y01289333D01*
X01022084Y01290989D01*
X01020056Y01292159D01*
X01019885Y01292205D01*
Y01367063D01*
X01022437Y01369615D01*
X01105456D01*
Y01360275D01*
X01102916Y01359941D01*
X01102784Y01360431D01*
X01101614Y01362459D01*
X01099959Y01364114D01*
X01097931Y01365284D01*
X01095670Y01365890D01*
X01093330D01*
X01091069Y01365284D01*
X01089041Y01364114D01*
X01087386Y01362459D01*
X01086216Y01360431D01*
X01086170Y01360260D01*
X01042912D01*
X01042364Y01361209D01*
X01040709Y01362864D01*
X01038681Y01364034D01*
X01036420Y01364640D01*
X01034080D01*
X01031819Y01364034D01*
X01029791Y01362864D01*
X01028136Y01361209D01*
X01026966Y01359181D01*
X01026360Y01356920D01*
Y01354580D01*
X01026966Y01352319D01*
X01028136Y01350291D01*
X01029791Y01348636D01*
X01030956Y01347964D01*
Y01273671D01*
X01031251Y01272184D01*
X01032094Y01270924D01*
X01033581Y01269436D01*
X01034842Y01268594D01*
X01036328Y01268298D01*
X01100526D01*
X01100806Y01267251D01*
X01101976Y01265224D01*
X01103632Y01263569D01*
X01105659Y01262398D01*
X01107920Y01261793D01*
X01110261D01*
X01112522Y01262398D01*
X01114549Y01263569D01*
X01116204Y01265224D01*
X01117374Y01267251D01*
X01117980Y01269512D01*
Y01271853D01*
X01117374Y01274114D01*
X01116204Y01276141D01*
X01114549Y01277796D01*
X01112522Y01278967D01*
X01110261Y01279573D01*
X01107920D01*
X01105659Y01278967D01*
X01103632Y01277796D01*
X01101976Y01276141D01*
X01101934Y01276067D01*
X01038725D01*
Y01347491D01*
X01040709Y01348636D01*
X01042364Y01350291D01*
X01043534Y01352319D01*
X01043580Y01352490D01*
X01086838D01*
X01087386Y01351541D01*
X01089041Y01349886D01*
X01091069Y01348716D01*
X01093330Y01348110D01*
X01095670D01*
X01097931Y01348716D01*
X01099959Y01349886D01*
X01101614Y01351541D01*
X01102784Y01353569D01*
X01102916Y01354059D01*
X01105456Y01353725D01*
Y01329705D01*
X01103882Y01328796D01*
X01102226Y01327141D01*
X01101056Y01325114D01*
X01100450Y01322853D01*
Y01320512D01*
X01101056Y01318251D01*
X01102226Y01316224D01*
X01103882Y01314569D01*
X01105909Y01313398D01*
X01108170Y01312793D01*
X01110511D01*
X01112772Y01313398D01*
X01114799Y01314569D01*
X01115166Y01314935D01*
X01117706Y01313883D01*
Y01307599D01*
X01115882Y01306546D01*
X01114227Y01304891D01*
X01113057Y01302864D01*
X01112451Y01300603D01*
Y01298262D01*
X01113057Y01296001D01*
X01114227Y01293974D01*
X01115882Y01292319D01*
X01117910Y01291148D01*
X01120171Y01290543D01*
X01122511D01*
X01124772Y01291148D01*
X01126800Y01292319D01*
X01128455Y01293974D01*
X01129625Y01296001D01*
X01130231Y01298262D01*
Y01300603D01*
X01129625Y01302864D01*
X01128455Y01304891D01*
X01126800Y01306546D01*
X01125475Y01307311D01*
Y01383512D01*
X01125179Y01384999D01*
X01124337Y01386259D01*
X01122849Y01387747D01*
X01121589Y01388589D01*
X01120102Y01388885D01*
X01075109D01*
X01073135Y01390859D01*
Y01399304D01*
X01074801Y01400266D01*
X01076484Y01401949D01*
X01077674Y01404010D01*
X01077935Y01404985D01*
X01080565D01*
X01080826Y01404010D01*
X01082016Y01401949D01*
X01083699Y01400266D01*
X01085761Y01399076D01*
X01088060Y01398460D01*
X01090440D01*
X01092739Y01399076D01*
X01094801Y01400266D01*
X01096484Y01401949D01*
X01097674Y01404010D01*
X01097936Y01404986D01*
X01100565D01*
X01100827Y01404010D01*
X01102017Y01401949D01*
X01103700Y01400266D01*
X01105761Y01399076D01*
X01108061Y01398460D01*
X01110441D01*
X01112740Y01399076D01*
X01114801Y01400266D01*
X01116485Y01401949D01*
X01117675Y01404010D01*
X01117936Y01404985D01*
X01120565D01*
X01120827Y01404010D01*
X01122017Y01401949D01*
X01123700Y01400266D01*
X01125761Y01399076D01*
X01128061Y01398460D01*
X01130441D01*
X01132740Y01399076D01*
X01134801Y01400266D01*
X01136484Y01401949D01*
X01137675Y01404010D01*
X01137936Y01404985D01*
X01140565D01*
X01140827Y01404010D01*
X01142017Y01401949D01*
X01143700Y01400266D01*
X01145761Y01399076D01*
X01148061Y01398460D01*
X01150441D01*
X01152740Y01399076D01*
X01153303Y01399401D01*
X01154863Y01397368D01*
X01154253Y01396759D01*
X01153411Y01395499D01*
X01153115Y01394012D01*
Y01365498D01*
X01152319Y01365284D01*
X01150291Y01364114D01*
X01148636Y01362459D01*
X01147466Y01360431D01*
X01146860Y01358170D01*
Y01355830D01*
X01147466Y01353569D01*
X01148636Y01351541D01*
X01150291Y01349886D01*
X01152319Y01348716D01*
X01154580Y01348110D01*
X01156920D01*
X01159181Y01348716D01*
X01161209Y01349886D01*
X01162864Y01351541D01*
X01164034Y01353569D01*
X01164640Y01355830D01*
Y01358170D01*
X01164034Y01360431D01*
X01162864Y01362459D01*
X01161209Y01364114D01*
X01160885Y01364301D01*
Y01391615D01*
X01194012D01*
X01195499Y01391911D01*
X01196759Y01392753D01*
X01198247Y01394241D01*
X01199089Y01395501D01*
X01199385Y01396988D01*
Y01412728D01*
X01200959Y01413636D01*
X01202614Y01415291D01*
X01203667Y01417115D01*
X01250891D01*
X01251115Y01416891D01*
Y01400522D01*
X01249541Y01399614D01*
X01247886Y01397959D01*
X01246716Y01395931D01*
X01246110Y01393670D01*
Y01391330D01*
X01246716Y01389069D01*
X01247886Y01387041D01*
X01249541Y01385386D01*
X01251569Y01384216D01*
X01252059Y01384084D01*
X01251725Y01381544D01*
X01177488D01*
X01176001Y01381249D01*
X01174741Y01380407D01*
X01173253Y01378919D01*
X01172411Y01377658D01*
X01172115Y01376172D01*
Y01290022D01*
X01170541Y01289114D01*
X01168886Y01287459D01*
X01167716Y01285431D01*
X01167110Y01283170D01*
Y01280830D01*
X01167716Y01278569D01*
X01168886Y01276541D01*
X01170541Y01274886D01*
X01172569Y01273716D01*
X01174830Y01273110D01*
X01177170D01*
X01179431Y01273716D01*
X01181459Y01274886D01*
X01183114Y01276541D01*
X01184284Y01278569D01*
X01184890Y01280830D01*
Y01283170D01*
X01184284Y01285431D01*
X01183114Y01287459D01*
X01181459Y01289114D01*
X01179885Y01290022D01*
Y01373775D01*
X01267456D01*
Y01329955D01*
X01265882Y01329046D01*
X01264227Y01327391D01*
X01263056Y01325364D01*
X01262450Y01323103D01*
Y01320762D01*
X01263056Y01318501D01*
X01264227Y01316474D01*
X01265882Y01314819D01*
X01267909Y01313648D01*
X01270170Y01313043D01*
X01272511D01*
X01274772Y01313648D01*
X01276799Y01314819D01*
X01279286Y01313714D01*
Y01307607D01*
X01277883Y01306796D01*
X01276227Y01305141D01*
X01275057Y01303114D01*
X01274451Y01300853D01*
Y01298512D01*
X01275057Y01296251D01*
X01276227Y01294224D01*
X01277883Y01292569D01*
X01279910Y01291398D01*
X01282171Y01290793D01*
X01284511D01*
X01286772Y01291398D01*
X01288800Y01292569D01*
X01290455Y01294224D01*
X01291625Y01296251D01*
X01292231Y01298512D01*
Y01300853D01*
X01291625Y01303114D01*
X01290455Y01305141D01*
X01288800Y01306796D01*
X01287055Y01307803D01*
Y01400076D01*
X01288459Y01400886D01*
X01290114Y01402541D01*
X01291284Y01404569D01*
X01291890Y01406830D01*
Y01409170D01*
X01291284Y01411431D01*
X01290114Y01413459D01*
X01288459Y01415114D01*
X01286431Y01416284D01*
X01284170Y01416890D01*
X01281830D01*
X01279569Y01416284D01*
X01277541Y01415114D01*
X01275886Y01413459D01*
X01274716Y01411431D01*
X01274110Y01409170D01*
Y01406830D01*
X01274716Y01404569D01*
X01275886Y01402541D01*
X01277541Y01400886D01*
X01279286Y01399879D01*
Y01330934D01*
X01276914Y01329746D01*
X01275225Y01330797D01*
Y01376172D01*
X01274929Y01377658D01*
X01274087Y01378919D01*
X01272599Y01380407D01*
X01271339Y01381249D01*
X01269852Y01381544D01*
X01258275D01*
X01257941Y01384084D01*
X01258431Y01384216D01*
X01260459Y01385386D01*
X01262114Y01387041D01*
X01263284Y01389069D01*
X01263890Y01391330D01*
Y01393670D01*
X01263284Y01395931D01*
X01262114Y01397959D01*
X01260459Y01399614D01*
X01258885Y01400522D01*
Y01418500D01*
X01258589Y01419987D01*
X01257747Y01421247D01*
X01255247Y01423747D01*
X01253987Y01424589D01*
X01252500Y01424885D01*
X01203378D01*
X01202614Y01426209D01*
X01200959Y01427864D01*
X01198931Y01429034D01*
X01196670Y01429640D01*
D02*
G37*
G36*
X01979420Y01348640D02*
X01977080D01*
X01974819Y01348034D01*
X01972791Y01346864D01*
X01971136Y01345209D01*
X01969966Y01343181D01*
X01969360Y01340920D01*
Y01338580D01*
X01969966Y01336319D01*
X01971136Y01334291D01*
X01972791Y01332636D01*
X01974240Y01331800D01*
Y01255288D01*
X01973102Y01253226D01*
X01973102Y01253226D01*
X01973048Y01253201D01*
X01971650Y01253197D01*
X01970252Y01253201D01*
X01970199Y01253226D01*
X01969244Y01253864D01*
X01968063Y01254099D01*
X01968063Y01254099D01*
X01967979Y01254099D01*
X01962621D01*
X01962538Y01254099D01*
X01962538Y01254099D01*
X01961356Y01253864D01*
X01960401Y01253226D01*
X01960348Y01253201D01*
X01959462Y01253199D01*
X01957098Y01255489D01*
X01957060Y01255706D01*
Y01311683D01*
X01957181Y01311716D01*
X01959209Y01312886D01*
X01960864Y01314541D01*
X01962034Y01316569D01*
X01962640Y01318830D01*
Y01321170D01*
X01962034Y01323431D01*
X01960864Y01325459D01*
X01959209Y01327114D01*
X01957181Y01328284D01*
X01954920Y01328890D01*
X01952580D01*
X01950319Y01328284D01*
X01948291Y01327114D01*
X01946636Y01325459D01*
X01945466Y01323431D01*
X01944860Y01321170D01*
Y01318830D01*
X01945466Y01316569D01*
X01946636Y01314541D01*
X01948291Y01312886D01*
X01949290Y01312309D01*
Y01254987D01*
X01947702Y01253226D01*
X01947702Y01253226D01*
X01947648Y01253201D01*
X01946250Y01253197D01*
X01944852Y01253201D01*
X01944799Y01253226D01*
X01943844Y01253864D01*
X01942663Y01254099D01*
X01942663Y01254099D01*
X01942579Y01254099D01*
X01937221D01*
X01937138Y01254099D01*
X01937137Y01254099D01*
X01935956Y01253864D01*
X01935002Y01253226D01*
X01934948Y01253201D01*
X01933550Y01253197D01*
X01932959Y01253199D01*
X01930735Y01255143D01*
Y01289180D01*
X01931959Y01289886D01*
X01933614Y01291541D01*
X01934784Y01293569D01*
X01935390Y01295830D01*
Y01298170D01*
X01934784Y01300431D01*
X01933614Y01302459D01*
X01931959Y01304114D01*
X01929931Y01305284D01*
X01927670Y01305890D01*
X01925330D01*
X01923069Y01305284D01*
X01921041Y01304114D01*
X01919386Y01302459D01*
X01918216Y01300431D01*
X01917610Y01298170D01*
Y01295830D01*
X01918216Y01293569D01*
X01919386Y01291541D01*
X01921041Y01289886D01*
X01922965Y01288775D01*
Y01255605D01*
X01922302Y01253226D01*
X01922301Y01253226D01*
X01922248Y01253201D01*
X01920850Y01253197D01*
X01919452Y01253201D01*
X01919399Y01253226D01*
X01918444Y01253864D01*
X01917263Y01254099D01*
X01917263Y01254099D01*
X01917179Y01254099D01*
X01911821D01*
X01911738Y01254099D01*
X01911738Y01254099D01*
X01910556Y01253864D01*
X01909601Y01253226D01*
X01909548Y01253201D01*
X01908150Y01253197D01*
X01907641Y01253199D01*
X01905431Y01255155D01*
X01905410Y01255187D01*
Y01266886D01*
X01906709Y01267636D01*
X01908364Y01269291D01*
X01909534Y01271319D01*
X01910140Y01273580D01*
Y01275920D01*
X01909534Y01278181D01*
X01908364Y01280209D01*
X01906709Y01281864D01*
X01904681Y01283034D01*
X01902420Y01283640D01*
X01900080D01*
X01897819Y01283034D01*
X01895791Y01281864D01*
X01894136Y01280209D01*
X01892966Y01278181D01*
X01892360Y01275920D01*
Y01273580D01*
X01892966Y01271319D01*
X01894136Y01269291D01*
X01895791Y01267636D01*
X01897640Y01266569D01*
Y01255232D01*
X01895317Y01253198D01*
X01894052Y01253201D01*
X01893999Y01253226D01*
X01893044Y01253864D01*
X01891863Y01254099D01*
X01891863Y01254099D01*
X01891779Y01254099D01*
X01890370D01*
Y01241000D01*
Y01227900D01*
X01891779D01*
X01891863Y01227900D01*
X01891863Y01227901D01*
X01893044Y01228136D01*
X01893999Y01228773D01*
X01894052Y01228799D01*
X01895450Y01228802D01*
X01896848Y01228799D01*
X01896902Y01228773D01*
X01897856Y01228136D01*
X01899037Y01227901D01*
X01899038Y01227900D01*
X01899121Y01227900D01*
X01904479D01*
X01904563Y01227900D01*
X01904563Y01227901D01*
X01905744Y01228136D01*
X01906699Y01228773D01*
X01906752Y01228799D01*
X01908150Y01228802D01*
X01909548Y01228799D01*
X01909601Y01228773D01*
X01910556Y01228136D01*
X01911738Y01227901D01*
X01911738Y01227900D01*
X01911821Y01227900D01*
X01917179D01*
X01917263Y01227900D01*
X01917263Y01227901D01*
X01918444Y01228136D01*
X01919399Y01228773D01*
X01919452Y01228799D01*
X01920850Y01228802D01*
X01922248Y01228799D01*
X01922301Y01228773D01*
X01923256Y01228136D01*
X01924438Y01227901D01*
X01924438Y01227900D01*
X01924521Y01227900D01*
X01929879D01*
X01929963Y01227900D01*
X01929963Y01227901D01*
X01931144Y01228136D01*
X01932099Y01228773D01*
X01932152Y01228799D01*
X01933550Y01228802D01*
X01934948Y01228799D01*
X01935002Y01228773D01*
X01935956Y01228136D01*
X01937137Y01227901D01*
X01937138Y01227900D01*
X01937221Y01227900D01*
X01942579D01*
X01942663Y01227900D01*
X01942663Y01227901D01*
X01943844Y01228136D01*
X01944799Y01228773D01*
X01944852Y01228799D01*
X01946250Y01228802D01*
X01947648Y01228799D01*
X01947702Y01228773D01*
X01948656Y01228136D01*
X01949837Y01227901D01*
X01949838Y01227900D01*
X01949921Y01227900D01*
X01955279D01*
X01955363Y01227900D01*
X01955363Y01227901D01*
X01956544Y01228136D01*
X01957499Y01228773D01*
X01957552Y01228799D01*
X01958950Y01228802D01*
X01960348Y01228799D01*
X01960401Y01228773D01*
X01961356Y01228136D01*
X01962538Y01227901D01*
X01962538Y01227900D01*
X01962621Y01227900D01*
X01967979D01*
X01968063Y01227900D01*
X01968063Y01227901D01*
X01969244Y01228136D01*
X01970199Y01228773D01*
X01970252Y01228799D01*
X01971650Y01228802D01*
X01973048Y01228799D01*
X01973102Y01228773D01*
X01974056Y01228136D01*
X01975237Y01227901D01*
X01975238Y01227900D01*
X01975321Y01227900D01*
X01980679D01*
X01980763Y01227900D01*
X01980763Y01227901D01*
X01981944Y01228136D01*
X01982899Y01228773D01*
X01982952Y01228799D01*
X01984350Y01228802D01*
X01985748Y01228799D01*
X01985802Y01228773D01*
X01986756Y01228136D01*
X01987937Y01227901D01*
X01987938Y01227900D01*
X01988021Y01227900D01*
X01993379D01*
X01993463Y01227900D01*
X01993463Y01227901D01*
X01994644Y01228136D01*
X01995599Y01228773D01*
X01995652Y01228799D01*
X01997050Y01228802D01*
X01998448Y01228799D01*
X01998501Y01228773D01*
X01999456Y01228136D01*
X02000638Y01227901D01*
X02000638Y01227900D01*
X02000721Y01227900D01*
X02002130D01*
Y01241000D01*
X02003400D01*
D01*
X02002130D01*
Y01254099D01*
X02000721D01*
X02000638Y01254099D01*
X02000638Y01254099D01*
X01999456Y01253864D01*
X01998501Y01253226D01*
X01998448Y01253201D01*
X01997050Y01253197D01*
X01995652Y01253201D01*
X01995599Y01253226D01*
X01994644Y01253864D01*
X01993463Y01254099D01*
X01993463Y01254099D01*
X01993379Y01254099D01*
X01988021D01*
X01987938Y01254099D01*
X01987937Y01254099D01*
X01986756Y01253864D01*
X01985802Y01253226D01*
X01985748Y01253201D01*
X01984288Y01253197D01*
X01982010Y01255335D01*
Y01331655D01*
X01983709Y01332636D01*
X01985364Y01334291D01*
X01986534Y01336319D01*
X01987140Y01338580D01*
Y01340920D01*
X01986534Y01343181D01*
X01985364Y01345209D01*
X01983709Y01346864D01*
X01981681Y01348034D01*
X01979420Y01348640D01*
D02*
G37*
G36*
X02004670Y01254099D02*
Y01242270D01*
X02009249D01*
Y01251012D01*
X02009014Y01252194D01*
X02008345Y01253195D01*
X02007344Y01253864D01*
X02006163Y01254099D01*
X02004670D01*
D02*
G37*
G36*
X01887830D02*
X01886338D01*
X01885156Y01253864D01*
X01884155Y01253195D01*
X01883486Y01252194D01*
X01883251Y01251012D01*
Y01242270D01*
X01887830D01*
Y01254099D01*
D02*
G37*
G36*
X00976420Y01346640D02*
X00974080D01*
X00971819Y01346034D01*
X00969791Y01344864D01*
X00968136Y01343209D01*
X00966966Y01341181D01*
X00966360Y01338920D01*
Y01336580D01*
X00966966Y01334319D01*
X00968136Y01332291D01*
X00969791Y01330636D01*
X00971819Y01329466D01*
X00973206Y01329094D01*
Y01246469D01*
X00971291Y01245364D01*
X00969636Y01243709D01*
X00968583Y01241885D01*
X00879364D01*
X00879284Y01242181D01*
X00878114Y01244209D01*
X00876459Y01245864D01*
X00874431Y01247034D01*
X00872170Y01247640D01*
X00869830D01*
X00867569Y01247034D01*
X00865541Y01245864D01*
X00863886Y01244209D01*
X00862716Y01242181D01*
X00862110Y01239920D01*
Y01237580D01*
X00862716Y01235319D01*
X00863886Y01233291D01*
X00865541Y01231636D01*
X00867569Y01230466D01*
X00869830Y01229860D01*
X00872170D01*
X00874431Y01230466D01*
X00876459Y01231636D01*
X00878114Y01233291D01*
X00878589Y01234115D01*
X00968872D01*
X00969636Y01232791D01*
X00971291Y01231136D01*
X00973319Y01229966D01*
X00975580Y01229360D01*
X00977920D01*
X00980181Y01229966D01*
X00982209Y01231136D01*
X00983864Y01232791D01*
X00985034Y01234819D01*
X00985640Y01237080D01*
Y01239420D01*
X00985034Y01241681D01*
X00983864Y01243709D01*
X00982209Y01245364D01*
X00980975Y01246076D01*
Y01330903D01*
X00982364Y01332291D01*
X00983534Y01334319D01*
X00984140Y01336580D01*
Y01338920D01*
X00983534Y01341181D01*
X00982364Y01343209D01*
X00980709Y01344864D01*
X00978681Y01346034D01*
X00976420Y01346640D01*
D02*
G37*
G36*
X00811420Y01346140D02*
X00809080D01*
X00806819Y01345534D01*
X00804791Y01344364D01*
X00803136Y01342709D01*
X00801966Y01340681D01*
X00801360Y01338420D01*
Y01336080D01*
X00801966Y01333819D01*
X00803136Y01331791D01*
X00804791Y01330136D01*
X00806819Y01328966D01*
X00808206Y01328594D01*
Y01246786D01*
X00807041Y01246114D01*
X00805386Y01244459D01*
X00804216Y01242431D01*
X00803935Y01241385D01*
X00714364D01*
X00714284Y01241681D01*
X00713114Y01243709D01*
X00711459Y01245364D01*
X00709431Y01246534D01*
X00707170Y01247140D01*
X00704830D01*
X00702569Y01246534D01*
X00700541Y01245364D01*
X00698886Y01243709D01*
X00697716Y01241681D01*
X00697110Y01239420D01*
Y01237080D01*
X00697716Y01234819D01*
X00698886Y01232791D01*
X00700541Y01231136D01*
X00702569Y01229966D01*
X00704830Y01229360D01*
X00707170D01*
X00709431Y01229966D01*
X00711459Y01231136D01*
X00713114Y01232791D01*
X00713589Y01233615D01*
X00805344D01*
X00805386Y01233541D01*
X00807041Y01231886D01*
X00809069Y01230716D01*
X00811330Y01230110D01*
X00813670D01*
X00815931Y01230716D01*
X00817959Y01231886D01*
X00819614Y01233541D01*
X00820784Y01235569D01*
X00821390Y01237830D01*
Y01240170D01*
X00820784Y01242431D01*
X00819614Y01244459D01*
X00817959Y01246114D01*
X00815975Y01247259D01*
Y01330403D01*
X00817364Y01331791D01*
X00818534Y01333819D01*
X00819140Y01336080D01*
Y01338420D01*
X00818534Y01340681D01*
X00817364Y01342709D01*
X00815709Y01344364D01*
X00813681Y01345534D01*
X00811420Y01346140D01*
D02*
G37*
G36*
X00654920Y01345390D02*
X00652580D01*
X00650319Y01344784D01*
X00648291Y01343614D01*
X00646636Y01341959D01*
X00645466Y01339931D01*
X00644860Y01337670D01*
Y01335330D01*
X00645466Y01333069D01*
X00646636Y01331041D01*
X00648291Y01329386D01*
X00649865Y01328477D01*
Y01243438D01*
X00648886Y01242459D01*
X00648035Y01240985D01*
X00555173D01*
X00554264Y01242559D01*
X00552609Y01244214D01*
X00550581Y01245384D01*
X00548320Y01245990D01*
X00545980D01*
X00543719Y01245384D01*
X00541691Y01244214D01*
X00540036Y01242559D01*
X00538866Y01240531D01*
X00538260Y01238270D01*
Y01235930D01*
X00538866Y01233669D01*
X00540036Y01231641D01*
X00541691Y01229986D01*
X00543719Y01228816D01*
X00545980Y01228210D01*
X00548320D01*
X00550581Y01228816D01*
X00552609Y01229986D01*
X00554264Y01231641D01*
X00555173Y01233215D01*
X00647920D01*
X00648886Y01231541D01*
X00650541Y01229886D01*
X00652569Y01228716D01*
X00654830Y01228110D01*
X00657170D01*
X00659431Y01228716D01*
X00661459Y01229886D01*
X00663114Y01231541D01*
X00664284Y01233569D01*
X00664890Y01235830D01*
Y01238170D01*
X00664284Y01240431D01*
X00663114Y01242459D01*
X00661459Y01244114D01*
X00659431Y01245284D01*
X00657635Y01245766D01*
Y01328477D01*
X00659209Y01329386D01*
X00660864Y01331041D01*
X00662034Y01333069D01*
X00662640Y01335330D01*
Y01337670D01*
X00662034Y01339931D01*
X00660864Y01341959D01*
X00659209Y01343614D01*
X00657181Y01344784D01*
X00654920Y01345390D01*
D02*
G37*
G36*
X01627420Y01345640D02*
X01625080D01*
X01622819Y01345034D01*
X01620791Y01343864D01*
X01619136Y01342209D01*
X01617966Y01340181D01*
X01617360Y01337920D01*
Y01335580D01*
X01617966Y01333319D01*
X01619136Y01331291D01*
X01620791Y01329636D01*
X01622819Y01328466D01*
X01624206Y01328094D01*
Y01245575D01*
X01622541Y01244614D01*
X01620886Y01242959D01*
X01619716Y01240931D01*
X01619703Y01240885D01*
X01530364D01*
X01530284Y01241181D01*
X01529114Y01243209D01*
X01527459Y01244864D01*
X01525431Y01246034D01*
X01523170Y01246640D01*
X01520830D01*
X01518569Y01246034D01*
X01516541Y01244864D01*
X01514886Y01243209D01*
X01513716Y01241181D01*
X01513110Y01238920D01*
Y01236580D01*
X01513716Y01234319D01*
X01514886Y01232291D01*
X01516541Y01230636D01*
X01518569Y01229466D01*
X01520830Y01228860D01*
X01523170D01*
X01525431Y01229466D01*
X01527459Y01230636D01*
X01529114Y01232291D01*
X01529590Y01233115D01*
X01620266D01*
X01620886Y01232041D01*
X01622541Y01230386D01*
X01624569Y01229216D01*
X01626830Y01228610D01*
X01629170D01*
X01631431Y01229216D01*
X01633459Y01230386D01*
X01635114Y01232041D01*
X01636284Y01234069D01*
X01636890Y01236330D01*
Y01238670D01*
X01636284Y01240931D01*
X01635114Y01242959D01*
X01633459Y01244614D01*
X01631975Y01245470D01*
Y01329903D01*
X01633364Y01331291D01*
X01634534Y01333319D01*
X01635140Y01335580D01*
Y01337920D01*
X01634534Y01340181D01*
X01633364Y01342209D01*
X01631709Y01343864D01*
X01629681Y01345034D01*
X01627420Y01345640D01*
D02*
G37*
G36*
X01465420D02*
X01463080D01*
X01460819Y01345034D01*
X01458791Y01343864D01*
X01457136Y01342209D01*
X01455966Y01340181D01*
X01455360Y01337920D01*
Y01335580D01*
X01455966Y01333319D01*
X01457136Y01331291D01*
X01458791Y01329636D01*
X01460819Y01328466D01*
X01462206Y01328094D01*
Y01247028D01*
X01460636Y01245459D01*
X01459466Y01243431D01*
X01458860Y01241170D01*
Y01240885D01*
X01368364D01*
X01368284Y01241181D01*
X01367114Y01243209D01*
X01365459Y01244864D01*
X01363431Y01246034D01*
X01361170Y01246640D01*
X01358830D01*
X01356569Y01246034D01*
X01354541Y01244864D01*
X01352886Y01243209D01*
X01351716Y01241181D01*
X01351110Y01238920D01*
Y01236580D01*
X01351716Y01234319D01*
X01352886Y01232291D01*
X01354541Y01230636D01*
X01356569Y01229466D01*
X01358830Y01228860D01*
X01361170D01*
X01363431Y01229466D01*
X01365459Y01230636D01*
X01367114Y01232291D01*
X01367590Y01233115D01*
X01462062D01*
X01462291Y01232886D01*
X01464319Y01231716D01*
X01466580Y01231110D01*
X01468920D01*
X01471181Y01231716D01*
X01473209Y01232886D01*
X01474864Y01234541D01*
X01476034Y01236569D01*
X01476640Y01238830D01*
Y01241170D01*
X01476034Y01243431D01*
X01474864Y01245459D01*
X01473209Y01247114D01*
X01471181Y01248284D01*
X01469975Y01248607D01*
Y01329903D01*
X01471364Y01331291D01*
X01472534Y01333319D01*
X01473140Y01335580D01*
Y01337920D01*
X01472534Y01340181D01*
X01471364Y01342209D01*
X01469709Y01343864D01*
X01467681Y01345034D01*
X01465420Y01345640D01*
D02*
G37*
G36*
X01301920D02*
X01299580D01*
X01297319Y01345034D01*
X01295291Y01343864D01*
X01293636Y01342209D01*
X01292466Y01340181D01*
X01291860Y01337920D01*
Y01335580D01*
X01292466Y01333319D01*
X01293636Y01331291D01*
X01295291Y01329636D01*
X01297319Y01328466D01*
X01298706Y01328094D01*
Y01243103D01*
X01298291Y01242864D01*
X01296636Y01241209D01*
X01296449Y01240885D01*
X01204864D01*
X01204784Y01241181D01*
X01203614Y01243209D01*
X01201959Y01244864D01*
X01199931Y01246034D01*
X01197670Y01246640D01*
X01195330D01*
X01193069Y01246034D01*
X01191041Y01244864D01*
X01189386Y01243209D01*
X01188216Y01241181D01*
X01187610Y01238920D01*
Y01236580D01*
X01188216Y01234319D01*
X01189386Y01232291D01*
X01191041Y01230636D01*
X01193069Y01229466D01*
X01195330Y01228860D01*
X01197670D01*
X01199931Y01229466D01*
X01201959Y01230636D01*
X01203614Y01232291D01*
X01204090Y01233115D01*
X01295252D01*
X01295466Y01232319D01*
X01296636Y01230291D01*
X01298291Y01228636D01*
X01300319Y01227466D01*
X01302580Y01226860D01*
X01304920D01*
X01307181Y01227466D01*
X01309209Y01228636D01*
X01310864Y01230291D01*
X01312034Y01232319D01*
X01312640Y01234580D01*
Y01236920D01*
X01312034Y01239181D01*
X01310864Y01241209D01*
X01309209Y01242864D01*
X01307181Y01244034D01*
X01306475Y01244223D01*
Y01329903D01*
X01307864Y01331291D01*
X01309034Y01333319D01*
X01309640Y01335580D01*
Y01337920D01*
X01309034Y01340181D01*
X01307864Y01342209D01*
X01306209Y01343864D01*
X01304181Y01345034D01*
X01301920Y01345640D01*
D02*
G37*
G36*
X01139920Y01345390D02*
X01137580D01*
X01135319Y01344784D01*
X01133291Y01343614D01*
X01131636Y01341959D01*
X01130466Y01339931D01*
X01129860Y01337670D01*
Y01335330D01*
X01130466Y01333069D01*
X01131636Y01331041D01*
X01133291Y01329386D01*
X01135319Y01328216D01*
X01136706Y01327844D01*
Y01244821D01*
X01136569Y01244784D01*
X01134541Y01243614D01*
X01132886Y01241959D01*
X01132122Y01240635D01*
X01042864D01*
X01042784Y01240931D01*
X01041614Y01242959D01*
X01039959Y01244614D01*
X01037931Y01245784D01*
X01035670Y01246390D01*
X01033330D01*
X01031069Y01245784D01*
X01029041Y01244614D01*
X01027386Y01242959D01*
X01026216Y01240931D01*
X01025610Y01238670D01*
Y01236330D01*
X01026216Y01234069D01*
X01027386Y01232041D01*
X01029041Y01230386D01*
X01031069Y01229216D01*
X01033330Y01228610D01*
X01035670D01*
X01037931Y01229216D01*
X01039959Y01230386D01*
X01041614Y01232041D01*
X01042089Y01232865D01*
X01131833D01*
X01132886Y01231041D01*
X01134541Y01229386D01*
X01136569Y01228216D01*
X01138830Y01227610D01*
X01141170D01*
X01143431Y01228216D01*
X01145459Y01229386D01*
X01147114Y01231041D01*
X01148284Y01233069D01*
X01148890Y01235330D01*
Y01237670D01*
X01148284Y01239931D01*
X01147114Y01241959D01*
X01145459Y01243614D01*
X01144475Y01244182D01*
Y01329653D01*
X01145864Y01331041D01*
X01147034Y01333069D01*
X01147640Y01335330D01*
Y01337670D01*
X01147034Y01339931D01*
X01145864Y01341959D01*
X01144209Y01343614D01*
X01142181Y01344784D01*
X01139920Y01345390D01*
D02*
G37*
G36*
X02009249Y01239730D02*
X02004670D01*
Y01227900D01*
X02006163D01*
X02007344Y01228136D01*
X02008345Y01228805D01*
X02009014Y01229806D01*
X02009249Y01230987D01*
Y01239730D01*
D02*
G37*
G36*
X01887830D02*
X01883251D01*
Y01230987D01*
X01883486Y01229806D01*
X01884155Y01228805D01*
X01885156Y01228136D01*
X01886338Y01227900D01*
X01887830D01*
Y01239730D01*
D02*
G37*
G36*
X00835420Y01323890D02*
X00833080D01*
X00830819Y01323284D01*
X00828791Y01322114D01*
X00827136Y01320459D01*
X00825966Y01318431D01*
X00825360Y01316170D01*
Y01313830D01*
X00825966Y01311569D01*
X00827136Y01309541D01*
X00828791Y01307886D01*
X00830365Y01306978D01*
Y01226261D01*
X00830661Y01224774D01*
X00831503Y01223514D01*
X00841331Y01213686D01*
X00842592Y01212844D01*
X00844078Y01212548D01*
X00964731D01*
X00968456Y01208823D01*
Y01185522D01*
X00967569Y01185284D01*
X00965541Y01184114D01*
X00963886Y01182459D01*
X00962716Y01180431D01*
X00962110Y01178170D01*
Y01175830D01*
X00962716Y01173569D01*
X00963886Y01171541D01*
X00965541Y01169886D01*
X00967569Y01168716D01*
X00969830Y01168110D01*
X00972170D01*
X00974431Y01168716D01*
X00976459Y01169886D01*
X00978114Y01171541D01*
X00979284Y01173569D01*
X00979890Y01175830D01*
Y01178170D01*
X00979284Y01180431D01*
X00978114Y01182459D01*
X00976459Y01184114D01*
X00976225Y01184249D01*
Y01210433D01*
X00975929Y01211919D01*
X00975087Y01213179D01*
X00969087Y01219179D01*
X00967827Y01220022D01*
X00966340Y01220317D01*
X00845687D01*
X00838135Y01227870D01*
Y01306978D01*
X00839709Y01307886D01*
X00841364Y01309541D01*
X00842534Y01311569D01*
X00843140Y01313830D01*
Y01316170D01*
X00842534Y01318431D01*
X00841364Y01320459D01*
X00839709Y01322114D01*
X00837681Y01323284D01*
X00835420Y01323890D01*
D02*
G37*
G36*
X00673920Y01325390D02*
X00671580D01*
X00669319Y01324784D01*
X00667291Y01323614D01*
X00665636Y01321959D01*
X00664466Y01319931D01*
X00663860Y01317670D01*
Y01315330D01*
X00664466Y01313069D01*
X00665636Y01311041D01*
X00667291Y01309386D01*
X00668865Y01308477D01*
Y01222261D01*
X00669161Y01220774D01*
X00670003Y01219514D01*
X00676331Y01213186D01*
X00677592Y01212344D01*
X00679078Y01212048D01*
X00799731D01*
X00803456Y01208324D01*
Y01185022D01*
X00802569Y01184784D01*
X00800541Y01183614D01*
X00798886Y01181959D01*
X00797716Y01179931D01*
X00797110Y01177670D01*
Y01175330D01*
X00797716Y01173069D01*
X00798886Y01171041D01*
X00800541Y01169386D01*
X00802569Y01168216D01*
X00804830Y01167610D01*
X00807170D01*
X00809431Y01168216D01*
X00811459Y01169386D01*
X00813114Y01171041D01*
X00814284Y01173069D01*
X00814890Y01175330D01*
Y01177670D01*
X00814284Y01179931D01*
X00813114Y01181959D01*
X00811459Y01183614D01*
X00811225Y01183749D01*
Y01209933D01*
X00810929Y01211419D01*
X00810087Y01212680D01*
X00804087Y01218679D01*
X00802827Y01219521D01*
X00801340Y01219817D01*
X00680687D01*
X00676635Y01223870D01*
Y01308477D01*
X00678209Y01309386D01*
X00679864Y01311041D01*
X00681034Y01313069D01*
X00681640Y01315330D01*
Y01317670D01*
X00681034Y01319931D01*
X00679864Y01321959D01*
X00678209Y01323614D01*
X00676181Y01324784D01*
X00673920Y01325390D01*
D02*
G37*
G36*
X01648670Y01326140D02*
X01646330D01*
X01644069Y01325534D01*
X01642041Y01324364D01*
X01640386Y01322709D01*
X01639216Y01320681D01*
X01638610Y01318420D01*
Y01316080D01*
X01639216Y01313819D01*
X01640386Y01311791D01*
X01642041Y01310136D01*
X01643615Y01309227D01*
Y01226761D01*
X01643911Y01225274D01*
X01644753Y01224014D01*
X01656081Y01212686D01*
X01657342Y01211844D01*
X01658828Y01211548D01*
X01779481D01*
X01783206Y01207823D01*
Y01184522D01*
X01782319Y01184284D01*
X01780291Y01183114D01*
X01778636Y01181459D01*
X01777466Y01179431D01*
X01776860Y01177170D01*
Y01174830D01*
X01777466Y01172569D01*
X01778636Y01170541D01*
X01780291Y01168886D01*
X01782319Y01167716D01*
X01784580Y01167110D01*
X01786920D01*
X01789181Y01167716D01*
X01791209Y01168886D01*
X01792864Y01170541D01*
X01794034Y01172569D01*
X01794640Y01174830D01*
Y01177170D01*
X01794034Y01179431D01*
X01792864Y01181459D01*
X01791209Y01183114D01*
X01790975Y01183249D01*
Y01209433D01*
X01790679Y01210919D01*
X01789837Y01212179D01*
X01783837Y01218179D01*
X01782577Y01219022D01*
X01781090Y01219317D01*
X01660437D01*
X01651385Y01228370D01*
Y01309227D01*
X01652959Y01310136D01*
X01654614Y01311791D01*
X01655784Y01313819D01*
X01656390Y01316080D01*
Y01318420D01*
X01655784Y01320681D01*
X01654614Y01322709D01*
X01652959Y01324364D01*
X01650931Y01325534D01*
X01648670Y01326140D01*
D02*
G37*
G36*
X01486420Y01325640D02*
X01484080D01*
X01481819Y01325034D01*
X01479791Y01323864D01*
X01478136Y01322209D01*
X01476966Y01320181D01*
X01476360Y01317920D01*
Y01315580D01*
X01476966Y01313319D01*
X01478136Y01311291D01*
X01479791Y01309636D01*
X01481365Y01308728D01*
Y01225261D01*
X01481661Y01223774D01*
X01482503Y01222514D01*
X01492331Y01212686D01*
X01493592Y01211844D01*
X01495078Y01211548D01*
X01615731D01*
X01619456Y01207823D01*
Y01184522D01*
X01618569Y01184284D01*
X01616541Y01183114D01*
X01614886Y01181459D01*
X01613716Y01179431D01*
X01613110Y01177170D01*
Y01174830D01*
X01613716Y01172569D01*
X01614886Y01170541D01*
X01616541Y01168886D01*
X01618569Y01167716D01*
X01620830Y01167110D01*
X01623170D01*
X01625431Y01167716D01*
X01627459Y01168886D01*
X01629114Y01170541D01*
X01630284Y01172569D01*
X01630890Y01174830D01*
Y01177170D01*
X01630284Y01179431D01*
X01629114Y01181459D01*
X01627459Y01183114D01*
X01627225Y01183249D01*
Y01209433D01*
X01626929Y01210919D01*
X01626087Y01212179D01*
X01620087Y01218179D01*
X01618827Y01219022D01*
X01617340Y01219317D01*
X01496687D01*
X01489135Y01226870D01*
Y01308728D01*
X01490709Y01309636D01*
X01492364Y01311291D01*
X01493534Y01313319D01*
X01494140Y01315580D01*
Y01317920D01*
X01493534Y01320181D01*
X01492364Y01322209D01*
X01490709Y01323864D01*
X01488681Y01325034D01*
X01486420Y01325640D01*
D02*
G37*
G36*
X01324420Y01326390D02*
X01322080D01*
X01319819Y01325784D01*
X01317791Y01324614D01*
X01316136Y01322959D01*
X01314966Y01320931D01*
X01314360Y01318670D01*
Y01316330D01*
X01314966Y01314069D01*
X01316136Y01312041D01*
X01317791Y01310386D01*
X01319365Y01309478D01*
Y01225261D01*
X01319661Y01223774D01*
X01320503Y01222514D01*
X01330331Y01212686D01*
X01331592Y01211844D01*
X01333078Y01211548D01*
X01453731D01*
X01457456Y01207823D01*
Y01184522D01*
X01456569Y01184284D01*
X01454541Y01183114D01*
X01452886Y01181459D01*
X01451716Y01179431D01*
X01451110Y01177170D01*
Y01174830D01*
X01451716Y01172569D01*
X01452886Y01170541D01*
X01454541Y01168886D01*
X01456569Y01167716D01*
X01458830Y01167110D01*
X01461170D01*
X01463431Y01167716D01*
X01465459Y01168886D01*
X01467114Y01170541D01*
X01468284Y01172569D01*
X01468890Y01174830D01*
Y01177170D01*
X01468284Y01179431D01*
X01467114Y01181459D01*
X01465459Y01183114D01*
X01465225Y01183249D01*
Y01209433D01*
X01464929Y01210919D01*
X01464087Y01212179D01*
X01458087Y01218179D01*
X01456827Y01219022D01*
X01455340Y01219317D01*
X01334687D01*
X01327135Y01226870D01*
Y01309478D01*
X01328709Y01310386D01*
X01330364Y01312041D01*
X01331534Y01314069D01*
X01332140Y01316330D01*
Y01318670D01*
X01331534Y01320931D01*
X01330364Y01322959D01*
X01328709Y01324614D01*
X01326681Y01325784D01*
X01324420Y01326390D01*
D02*
G37*
G36*
X01160920Y01326140D02*
X01158580D01*
X01156319Y01325534D01*
X01154291Y01324364D01*
X01152636Y01322709D01*
X01151466Y01320681D01*
X01150860Y01318420D01*
Y01316080D01*
X01151466Y01313819D01*
X01152636Y01311791D01*
X01154291Y01310136D01*
X01155865Y01309227D01*
Y01225261D01*
X01156161Y01223774D01*
X01157003Y01222514D01*
X01166831Y01212686D01*
X01168092Y01211844D01*
X01169578Y01211548D01*
X01290231D01*
X01293956Y01207823D01*
Y01184522D01*
X01293069Y01184284D01*
X01291041Y01183114D01*
X01289386Y01181459D01*
X01288216Y01179431D01*
X01287610Y01177170D01*
Y01174830D01*
X01288216Y01172569D01*
X01289386Y01170541D01*
X01291041Y01168886D01*
X01293069Y01167716D01*
X01295330Y01167110D01*
X01297670D01*
X01299931Y01167716D01*
X01301959Y01168886D01*
X01303614Y01170541D01*
X01304784Y01172569D01*
X01305390Y01174830D01*
Y01177170D01*
X01304784Y01179431D01*
X01303614Y01181459D01*
X01301959Y01183114D01*
X01301725Y01183249D01*
Y01209433D01*
X01301429Y01210919D01*
X01300587Y01212179D01*
X01294587Y01218179D01*
X01293327Y01219022D01*
X01291840Y01219317D01*
X01171187D01*
X01163635Y01226870D01*
Y01309227D01*
X01165209Y01310136D01*
X01166864Y01311791D01*
X01168034Y01313819D01*
X01168640Y01316080D01*
Y01318420D01*
X01168034Y01320681D01*
X01166864Y01322709D01*
X01165209Y01324364D01*
X01163181Y01325534D01*
X01160920Y01326140D01*
D02*
G37*
G36*
X01001670Y01325390D02*
X00999330D01*
X00997069Y01324784D01*
X00995041Y01323614D01*
X00993386Y01321959D01*
X00992216Y01319931D01*
X00991610Y01317670D01*
Y01315330D01*
X00992216Y01313069D01*
X00993386Y01311041D01*
X00995041Y01309386D01*
X00996615Y01308477D01*
Y01222261D01*
X00996911Y01220774D01*
X00997753Y01219514D01*
X01004831Y01212436D01*
X01006092Y01211594D01*
X01007578Y01211298D01*
X01128231D01*
X01131956Y01207573D01*
Y01184272D01*
X01131069Y01184034D01*
X01129041Y01182864D01*
X01127386Y01181209D01*
X01126216Y01179181D01*
X01125610Y01176920D01*
Y01174580D01*
X01126216Y01172319D01*
X01127386Y01170291D01*
X01129041Y01168636D01*
X01131069Y01167466D01*
X01133330Y01166860D01*
X01135670D01*
X01137931Y01167466D01*
X01139959Y01168636D01*
X01141614Y01170291D01*
X01142784Y01172319D01*
X01143390Y01174580D01*
Y01176920D01*
X01142784Y01179181D01*
X01141614Y01181209D01*
X01139959Y01182864D01*
X01139725Y01182999D01*
Y01209183D01*
X01139429Y01210669D01*
X01138587Y01211929D01*
X01132587Y01217929D01*
X01131327Y01218772D01*
X01129840Y01219067D01*
X01009187D01*
X01004385Y01223870D01*
Y01308477D01*
X01005959Y01309386D01*
X01007614Y01311041D01*
X01008784Y01313069D01*
X01009390Y01315330D01*
Y01317670D01*
X01008784Y01319931D01*
X01007614Y01321959D01*
X01005959Y01323614D01*
X01003931Y01324784D01*
X01001670Y01325390D01*
D02*
G37*
%LPD*%
G36*
X00761003Y01367825D02*
X00760136Y01366959D01*
X00758966Y01364931D01*
X00758935Y01364817D01*
X00714363D01*
X00713454Y01366391D01*
X00712020Y01367825D01*
X00712138Y01368786D01*
X00712862Y01370365D01*
X00759951D01*
X00761003Y01367825D01*
D02*
G37*
G36*
X00789206Y01330232D02*
X00786751Y01329215D01*
X00786392Y01329453D01*
X00786299Y01329546D01*
X00785929Y01329760D01*
X00784725Y01330558D01*
Y01372762D01*
X00784429Y01374249D01*
X00783587Y01375509D01*
X00782771Y01376325D01*
X00783720Y01378865D01*
X00789206D01*
Y01330232D01*
D02*
G37*
G36*
X00633365Y01325362D02*
X00630825Y01325028D01*
X00630784Y01325181D01*
X00629614Y01327209D01*
X00627959Y01328864D01*
X00626385Y01329772D01*
Y01380262D01*
X00626089Y01381749D01*
X00625537Y01382575D01*
X00625998Y01384073D01*
X00626733Y01385115D01*
X00633365D01*
Y01325362D01*
D02*
G37*
G36*
X01800615Y01331063D02*
Y01282023D01*
X01799041Y01281114D01*
X01797386Y01279459D01*
X01796216Y01277431D01*
X01796175Y01277278D01*
X01793635Y01277612D01*
Y01328583D01*
X01795459Y01329636D01*
X01797114Y01331291D01*
X01800138Y01331449D01*
X01800615Y01331063D01*
D02*
G37*
G36*
X01796216Y01270569D02*
X01797386Y01268541D01*
X01799041Y01266886D01*
X01800615Y01265977D01*
Y01240679D01*
X01798075Y01240345D01*
X01797784Y01241431D01*
X01796614Y01243459D01*
X01794959Y01245114D01*
X01793635Y01245878D01*
Y01270388D01*
X01796175Y01270722D01*
X01796216Y01270569D01*
D02*
G37*
G36*
X01933761Y01131802D02*
X01935945Y01129777D01*
X01936015Y01129628D01*
Y01043135D01*
X01691180D01*
X01690845Y01045675D01*
X01691931Y01045966D01*
X01693959Y01047136D01*
X01695614Y01048791D01*
X01696523Y01050365D01*
X01908418D01*
X01909905Y01050661D01*
X01911165Y01051503D01*
X01917247Y01057585D01*
X01918089Y01058845D01*
X01918385Y01060332D01*
Y01129628D01*
X01919399Y01131773D01*
X01919399Y01131773D01*
X01919452Y01131799D01*
X01920850Y01131802D01*
X01922248Y01131799D01*
X01922301Y01131773D01*
X01923256Y01131135D01*
X01924438Y01130900D01*
X01924438Y01130900D01*
X01924521Y01130900D01*
X01929879D01*
X01929963Y01130900D01*
X01929963Y01130900D01*
X01931144Y01131135D01*
X01932099Y01131773D01*
X01932152Y01131799D01*
X01933550Y01131802D01*
X01933761Y01131802D01*
D02*
G37*
G36*
X01816016Y01401949D02*
X01817699Y01400266D01*
X01818740Y01399665D01*
Y01305330D01*
X01818569Y01305284D01*
X01816541Y01304114D01*
X01814886Y01302459D01*
X01813716Y01300431D01*
X01813110Y01298170D01*
Y01295830D01*
X01813716Y01293569D01*
X01814886Y01291541D01*
X01816541Y01289886D01*
X01818569Y01288716D01*
X01819365Y01288502D01*
Y01123109D01*
X01808141Y01111885D01*
X01708364D01*
X01708284Y01112181D01*
X01707114Y01114209D01*
X01705459Y01115864D01*
X01703431Y01117034D01*
X01701170Y01117640D01*
X01698830D01*
X01696569Y01117034D01*
X01694541Y01115864D01*
X01692886Y01114209D01*
X01692050Y01112760D01*
X01386095D01*
X01385114Y01114459D01*
X01383458Y01116114D01*
X01381431Y01117284D01*
X01379170Y01117890D01*
X01376829D01*
X01374568Y01117284D01*
X01372541Y01116114D01*
X01370886Y01114459D01*
X01370266Y01113385D01*
X01264179D01*
X01263844Y01115925D01*
X01264931Y01116216D01*
X01266959Y01117386D01*
X01268614Y01119041D01*
X01269595Y01120740D01*
X01419550D01*
X01420386Y01119291D01*
X01422041Y01117636D01*
X01424069Y01116466D01*
X01426330Y01115860D01*
X01428670D01*
X01430931Y01116466D01*
X01432959Y01117636D01*
X01434614Y01119291D01*
X01435378Y01120615D01*
X01578083D01*
X01579136Y01118791D01*
X01580791Y01117136D01*
X01582819Y01115966D01*
X01585080Y01115360D01*
X01587420D01*
X01589681Y01115966D01*
X01591709Y01117136D01*
X01593364Y01118791D01*
X01594272Y01120365D01*
X01742016D01*
X01742636Y01119291D01*
X01744291Y01117636D01*
X01746319Y01116466D01*
X01748580Y01115860D01*
X01750920D01*
X01753181Y01116466D01*
X01755209Y01117636D01*
X01756864Y01119291D01*
X01757484Y01120365D01*
X01795500D01*
X01796987Y01120661D01*
X01798247Y01121503D01*
X01807247Y01130503D01*
X01808089Y01131763D01*
X01808385Y01133250D01*
Y01265977D01*
X01809959Y01266886D01*
X01811614Y01268541D01*
X01812784Y01270569D01*
X01813390Y01272830D01*
Y01275170D01*
X01812784Y01277431D01*
X01811614Y01279459D01*
X01809959Y01281114D01*
X01808385Y01282023D01*
Y01398460D01*
X01812290D01*
Y01403661D01*
X01814826Y01404010D01*
X01816016Y01401949D01*
D02*
G37*
G36*
X01254386Y01119041D02*
X01256041Y01117386D01*
X01258069Y01116216D01*
X01259156Y01115925D01*
X01258821Y01113385D01*
X01106689D01*
X01106302Y01113863D01*
X01106459Y01116886D01*
X01108114Y01118541D01*
X01109167Y01120365D01*
X01253622D01*
X01254386Y01119041D01*
D02*
G37*
G36*
X01092716Y01120568D02*
X01093886Y01118541D01*
X01095542Y01116886D01*
X01095698Y01113863D01*
X01095311Y01113385D01*
X01059297D01*
X01059284Y01113431D01*
X01058114Y01115458D01*
X01056459Y01117114D01*
X01054432Y01118284D01*
X01054277Y01118325D01*
X01054611Y01120865D01*
X01092636D01*
X01092716Y01120568D01*
D02*
G37*
G36*
X01834826Y01404011D02*
X01836016Y01401949D01*
X01837699Y01400266D01*
X01838240Y01399954D01*
Y01327464D01*
X01837569Y01327284D01*
X01835541Y01326114D01*
X01833886Y01324459D01*
X01832716Y01322431D01*
X01832110Y01320170D01*
Y01317830D01*
X01832716Y01315569D01*
X01833886Y01313541D01*
X01835541Y01311886D01*
X01837115Y01310978D01*
Y01101609D01*
X01833516Y01098010D01*
X01732517D01*
X01732114Y01098709D01*
X01730459Y01100364D01*
X01728431Y01101534D01*
X01728277Y01101576D01*
X01728611Y01104116D01*
X01809750D01*
X01811237Y01104411D01*
X01812497Y01105254D01*
X01825997Y01118753D01*
X01826839Y01120013D01*
X01827135Y01121500D01*
Y01289699D01*
X01827459Y01289886D01*
X01829114Y01291541D01*
X01830284Y01293569D01*
X01830890Y01295830D01*
Y01298170D01*
X01830284Y01300431D01*
X01829114Y01302459D01*
X01827459Y01304114D01*
X01826510Y01304662D01*
Y01399014D01*
X01826739Y01399076D01*
X01828801Y01400266D01*
X01830484Y01401949D01*
X01831674Y01404011D01*
X01831935Y01404986D01*
X01834565D01*
X01834826Y01404011D01*
D02*
G37*
G36*
X01359886Y01051541D02*
X01361541Y01049886D01*
X01363569Y01048716D01*
X01365830Y01048110D01*
X01368170D01*
X01370431Y01048716D01*
X01372459Y01049886D01*
X01374114Y01051541D01*
X01374445Y01052115D01*
X01508569D01*
X01508716Y01051569D01*
X01509886Y01049542D01*
X01511503Y01047925D01*
X01511499Y01047746D01*
X01510794Y01045385D01*
X01222748D01*
X01222534Y01046181D01*
X01221364Y01048209D01*
X01219709Y01049864D01*
X01217681Y01051034D01*
X01218329Y01053490D01*
X01358761D01*
X01359886Y01051541D01*
D02*
G37*
G36*
X01681386Y01048791D02*
X01683041Y01047136D01*
X01685069Y01045966D01*
X01686155Y01045675D01*
X01685820Y01043135D01*
X01549180D01*
X01549034Y01043681D01*
X01547864Y01045708D01*
X01546208Y01047364D01*
X01544759Y01048200D01*
X01545400Y01050740D01*
X01680261D01*
X01681386Y01048791D01*
D02*
G37*
G36*
X01242655Y01035075D02*
X01241569Y01034784D01*
X01239541Y01033614D01*
X01237886Y01031959D01*
X01236716Y01029931D01*
X01236603Y01029510D01*
X00901739D01*
X00901058Y01032050D01*
X00901208Y01032136D01*
X00902864Y01033792D01*
X00904034Y01035819D01*
X00904381Y01037115D01*
X01207312D01*
X01208791Y01035636D01*
X01210819Y01034466D01*
X01213080Y01033860D01*
X01215420D01*
X01217681Y01034466D01*
X01219709Y01035636D01*
X01221364Y01037291D01*
X01221551Y01037615D01*
X01242321D01*
X01242655Y01035075D01*
D02*
G37*
G36*
X01947648Y01131799D02*
X01947702Y01131773D01*
X01948656Y01131135D01*
X01949837Y01130900D01*
X01949838Y01130900D01*
X01949921Y01130900D01*
X01955279D01*
X01955363Y01130900D01*
X01955363Y01130900D01*
X01956544Y01131135D01*
X01957499Y01131773D01*
X01957552Y01131799D01*
X01957833Y01131799D01*
X01960365Y01129272D01*
Y01027885D01*
X01406632D01*
X01406284Y01029181D01*
X01405114Y01031209D01*
X01403459Y01032864D01*
X01401431Y01034034D01*
X01399170Y01034640D01*
X01396830D01*
X01394569Y01034034D01*
X01392541Y01032864D01*
X01390886Y01031209D01*
X01390194Y01030010D01*
X01253239D01*
X01252114Y01031959D01*
X01250459Y01033614D01*
X01248431Y01034784D01*
X01247345Y01035075D01*
X01247679Y01037615D01*
X01532252D01*
X01532466Y01036818D01*
X01533636Y01034791D01*
X01535291Y01033136D01*
X01537318Y01031966D01*
X01539579Y01031360D01*
X01541920D01*
X01544181Y01031966D01*
X01546208Y01033136D01*
X01547864Y01034791D01*
X01548195Y01035366D01*
X01938250D01*
X01939737Y01035661D01*
X01940997Y01036503D01*
X01942647Y01038153D01*
X01943489Y01039414D01*
X01943785Y01040900D01*
Y01129628D01*
X01944799Y01131773D01*
X01944799Y01131773D01*
X01944852Y01131799D01*
X01946250Y01131802D01*
X01947648Y01131799D01*
D02*
G37*
G36*
X00888636Y01033792D02*
X00890291Y01032136D01*
X00890441Y01032050D01*
X00889761Y01029510D01*
X00748267D01*
X00747864Y01030209D01*
X00746209Y01031864D01*
X00744181Y01033034D01*
X00743561Y01033200D01*
X00743895Y01035740D01*
X00887511D01*
X00888636Y01033792D01*
D02*
G37*
G36*
X00737939Y01033200D02*
X00737319Y01033034D01*
X00735291Y01031864D01*
X00733636Y01030209D01*
X00733088Y01029260D01*
X00588580D01*
X00588534Y01029431D01*
X00587364Y01031459D01*
X00585709Y01033114D01*
X00585559Y01033200D01*
X00586239Y01035740D01*
X00737605D01*
X00737939Y01033200D01*
D02*
G37*
D12*
X01586250Y01124250D02*
X01795500D01*
X01885750Y01067500D02*
Y01070249D01*
X01889113Y01073612D02*
Y01143987D01*
X01885750Y01070249D02*
X01889113Y01073612D01*
X01889100Y01144000D02*
X01889113Y01143987D01*
X00910000Y01090250D02*
X01070750D01*
X01725000Y01093250D02*
X01725875Y01094125D01*
X01723500Y01091750D02*
X01725000Y01093250D01*
X01555000Y01091750D02*
X01723500D01*
X01581500Y01071500D02*
X01857000D01*
X01417750Y01071750D02*
X01581250D01*
X01417000Y01071000D02*
X01417750Y01071750D01*
X01254875Y01073375D02*
X01414625D01*
X01416000Y01072000D02*
X01417000Y01071000D01*
X01414625Y01073375D02*
X01416000Y01072000D01*
X01789750Y01336497D02*
X01790003Y01336750D01*
X01789500Y01238000D02*
X01789750Y01238250D01*
X01789375Y01237875D02*
X01789500Y01238000D01*
X01466090Y01238770D02*
Y01334910D01*
X01626320Y01237000D02*
X01628090Y01238770D01*
X01300820Y01237000D02*
X01302590Y01238770D01*
X00975320Y01238000D02*
X00977090Y01239770D01*
X01138820Y01236750D02*
X01140590Y01238520D01*
X01990700Y01144000D02*
X01991500Y01143200D01*
Y01002750D02*
Y01143200D01*
X01964250Y01142950D02*
X01965300Y01144000D01*
X01964250Y01024000D02*
Y01142950D01*
X01939900Y01040900D02*
Y01144000D01*
X01938250Y01039250D02*
X01939900Y01040900D01*
X01914500Y01060332D02*
Y01144000D01*
X01908418Y01054250D02*
X01914500Y01060332D01*
X01978000Y01241000D02*
X01978125Y01241125D01*
Y01339625D01*
X01978250Y01339750D01*
X01952600Y01241000D02*
X01953175Y01241575D01*
Y01319425D01*
X01953750Y01320000D01*
X01926850Y01241350D02*
X01927200Y01241000D01*
X01926850Y01241350D02*
Y01296650D01*
X01926500Y01297000D02*
X01926850Y01296650D01*
X01901525Y01241275D02*
X01901800Y01241000D01*
X01901525Y01241275D02*
Y01274475D01*
X01901250Y01274750D02*
X01901525Y01274475D01*
X01804500Y01274000D02*
Y01406250D01*
X00739875Y01025375D02*
X00740625Y01024625D01*
X01398000Y01025750D02*
X01399750Y01024000D01*
X01397625Y01026125D02*
X01398000Y01025750D01*
X00740750Y01024750D02*
X00741625Y01025625D01*
X00740625Y01024625D02*
X00740750Y01024750D01*
X01688500Y01054250D02*
X01908418D01*
X01032750Y01056000D02*
X01034000Y01057250D01*
X00721500Y01055250D02*
X00722000Y01055750D01*
X01517000Y01055000D02*
X01517375Y01054625D01*
X01516000Y01056000D02*
X01517000Y01055000D01*
X00866000Y01056000D02*
X00866375Y01056375D01*
X00865750Y01055750D02*
X00866000Y01056000D01*
X00721250Y01055500D02*
X00721500Y01055250D01*
X00720500Y01056250D02*
X00721250Y01055500D01*
X00506738Y01381750D02*
X00621012D01*
X00505250Y01380262D02*
X00506738Y01381750D01*
Y01261750D02*
X00518250D01*
X00505250Y01263238D02*
Y01380262D01*
Y01263238D02*
X00506738Y01261750D01*
X00522250Y01360250D02*
X00548000D01*
X00672750Y01222261D02*
Y01316500D01*
Y01222261D02*
X00679078Y01215933D01*
X00834250Y01226261D02*
Y01315000D01*
Y01226261D02*
X00844078Y01216433D01*
X01000500Y01222261D02*
X01007578Y01215183D01*
X01000500Y01222261D02*
Y01316500D01*
X01626750Y01422000D02*
X01684262D01*
X01685750Y01391750D02*
Y01420512D01*
X01684262Y01422000D02*
X01685750Y01420512D01*
X01685250Y01274761D02*
Y01361500D01*
Y01274761D02*
X01687578Y01272433D01*
X01627000Y01375750D02*
X01627250Y01375500D01*
X01626750Y01422000D02*
X01627000Y01421750D01*
Y01375750D02*
Y01421750D01*
X01577067Y01360433D02*
X01577500Y01360000D01*
X01522340Y01360433D02*
X01577067D01*
X01325000Y01393488D02*
Y01421500D01*
Y01393488D02*
X01328988Y01389500D01*
X01358750D01*
X01360000Y01388250D01*
X00653750Y01238588D02*
Y01336500D01*
X00652262Y01237100D02*
X00653750Y01238588D01*
X00547150Y01237100D02*
X00652262D01*
X01195500Y01420750D02*
X01195750Y01421000D01*
X01252500D01*
X01255000Y01418500D01*
Y01392500D02*
Y01418500D01*
X01283000Y01408000D02*
X01283170Y01407829D01*
Y01299853D02*
X01283341Y01299683D01*
X01283170Y01299853D02*
Y01407829D01*
X01271340Y01321933D02*
Y01376172D01*
X01176000D02*
X01177488Y01377660D01*
X01176000Y01282000D02*
Y01376172D01*
X01177488Y01377660D02*
X01269852D01*
X01271340Y01376172D01*
X01254183Y01360433D02*
X01255000Y01361250D01*
X01196840Y01360433D02*
X01254183D01*
X01157000Y01394012D02*
X01158488Y01395500D01*
X01157000Y01358250D02*
Y01394012D01*
X01195500Y01396988D02*
Y01420750D01*
X01158488Y01395500D02*
X01194012D01*
X01195500Y01396988D01*
X01155750Y01357000D02*
X01157000Y01358250D01*
X01034840Y01355340D02*
X01035875Y01356375D01*
X01093875D01*
X01094500Y01357000D01*
X01034840Y01273671D02*
Y01355340D01*
X00872500Y01389750D02*
Y01421000D01*
X00818488Y01389750D02*
X00872500D01*
X01034840Y01273671D02*
X01036328Y01272183D01*
X01020828Y01373500D02*
X01107852D01*
X01109340Y01372012D01*
X01016000Y01368672D02*
X01020828Y01373500D01*
X00817000Y01388262D02*
X00818488Y01389750D01*
X00817000Y01361750D02*
Y01388262D01*
X00706340Y01274420D02*
Y01360933D01*
X00766683D02*
X00767250Y01361500D01*
X00706340Y01360933D02*
X00766683D01*
X00613738Y01389000D02*
X00635762D01*
X00637250Y01299500D02*
Y01387512D01*
X00635762Y01389000D02*
X00637250Y01387512D01*
X00489750Y01227000D02*
Y01295000D01*
X00490000Y01295250D01*
X00489750Y01227000D02*
X00501500Y01215250D01*
X00621012Y01381750D02*
X00622500Y01380262D01*
Y01321750D02*
Y01380262D01*
X00612250Y01390488D02*
X00613738Y01389000D01*
X00612250Y01390488D02*
Y01407500D01*
X00501500Y01215250D02*
X00643000D01*
X01776500Y01306250D02*
Y01360500D01*
X01772591Y01302341D02*
X01776500Y01306250D01*
X01772591Y01299683D02*
Y01302341D01*
X01862500Y01340250D02*
X01862875Y01340625D01*
Y01407125D01*
X01863250Y01407500D01*
Y01077750D02*
Y01339500D01*
X01862500Y01340250D02*
X01863250Y01339500D01*
X01842125Y01406375D02*
X01843250Y01407500D01*
X01841000Y01100000D02*
Y01319000D01*
X01842125Y01320125D01*
Y01406375D01*
X01822000Y01297000D02*
X01822625Y01297625D01*
Y01406875D01*
X01823250Y01121500D02*
Y01295750D01*
X01822625Y01406875D02*
X01823250Y01407500D01*
X01822000Y01297000D02*
X01823250Y01295750D01*
X01809750Y01108000D02*
X01823250Y01121500D01*
X01804500Y01133250D02*
Y01274000D01*
X01803250Y01407500D02*
X01804500Y01406250D01*
X01795500Y01124250D02*
X01804500Y01133250D01*
X01789750Y01238250D02*
Y01336497D01*
X01685750Y01237750D02*
X01685875Y01237875D01*
X01789375D01*
X01900087Y01421750D02*
X01901575Y01420262D01*
Y01409178D02*
X01903250Y01407503D01*
X01901575Y01409178D02*
Y01420262D01*
X01732000Y01421750D02*
X01900087D01*
X01857000Y01071500D02*
X01863250Y01077750D01*
X01835125Y01094125D02*
X01841000Y01100000D01*
X01760590Y01321933D02*
Y01372262D01*
X01722250Y01373750D02*
Y01412000D01*
X01732000Y01421750D01*
X01672078Y01373750D02*
X01722250D01*
X01735250D01*
X01736250D02*
X01759102D01*
X01735250D02*
X01735750Y01373250D01*
X01736250Y01373750D01*
X01485250Y01225261D02*
Y01316750D01*
Y01225261D02*
X01495078Y01215433D01*
X01526250Y01407500D02*
X01528000Y01405750D01*
Y01388750D02*
Y01405750D01*
Y01388750D02*
X01531500Y01385250D01*
X01447090Y01299932D02*
Y01406659D01*
X01446250Y01407500D02*
X01447090Y01406659D01*
X01360340Y01273921D02*
Y01360433D01*
X01073500Y01385000D02*
X01120102D01*
X01069250Y01389250D02*
Y01407500D01*
Y01389250D02*
X01073500Y01385000D01*
X00989250Y01388988D02*
Y01407500D01*
X00959578Y01387500D02*
X00987762D01*
X00958090Y01300932D02*
Y01386012D01*
X00987762Y01387500D02*
X00989250Y01388988D01*
X00958090Y01386012D02*
X00959578Y01387500D01*
X00695500Y01382750D02*
X00791602D01*
X00692250Y01386000D02*
Y01407500D01*
Y01386000D02*
X00695500Y01382750D01*
X00793090Y01300432D02*
Y01381262D01*
X00791602Y01382750D02*
X00793090Y01381262D01*
X00548000Y01273738D02*
Y01360250D01*
X01647500Y01226761D02*
X01658828Y01215433D01*
X01647500Y01226761D02*
Y01317250D01*
X01664750Y01285500D02*
Y01366422D01*
X01672078Y01373750D01*
X01501750Y01367172D02*
X01508328Y01373750D01*
X01501750Y01285500D02*
Y01367172D01*
X01340750Y01368172D02*
X01346328Y01373750D01*
X01340750Y01283250D02*
Y01368172D01*
X01323250Y01225261D02*
X01333078Y01215433D01*
X01323250Y01225261D02*
Y01317500D01*
X01159750Y01225261D02*
X01169578Y01215433D01*
X01159750Y01225261D02*
Y01317250D01*
X01016000Y01284500D02*
X01016625Y01283875D01*
X01016000Y01284500D02*
Y01368672D01*
X00852000Y01285750D02*
Y01369422D01*
X00857328Y01374750D01*
X01725875Y01094125D02*
X01835125D01*
X01553500Y01090250D02*
X01555000Y01091750D01*
X01506500Y01090250D02*
X01553500D01*
X01517375Y01054625D02*
X01688125D01*
X01688500Y01054250D01*
X01377500Y01109500D02*
X01378125Y01108875D01*
X01699875D02*
X01700750Y01108000D01*
X01378125Y01108875D02*
X01699875D01*
X01700750Y01108000D02*
X01809750D01*
X01749590Y01129909D02*
Y01192683D01*
X01541750Y01039250D02*
X01938250D01*
X00602625Y01004625D02*
X00759125D01*
X00602000Y01005250D02*
X00602625Y01004625D01*
X00759125D02*
X00759750Y01004000D01*
X00580875Y01025375D02*
X00739875D01*
X00580250Y01026000D02*
X00580875Y01025375D01*
X00725250Y01109500D02*
X00725500Y01109750D01*
X01050750D02*
X01051000Y01110000D01*
X00725500Y01109750D02*
X01050750D01*
X01032375Y01056375D02*
X01032750Y01056000D01*
X00722000Y01055750D02*
X00865750D01*
X01034000Y01057250D02*
X01197500D01*
X00866375Y01056375D02*
X01032375D01*
X01215500Y01041500D02*
X01539500D01*
X01540750Y01040250D01*
X01214250Y01042750D02*
X01215500Y01041500D01*
X00897500Y01041000D02*
X01212500D01*
X01214250Y01042750D01*
X00895750Y01039250D02*
X00897500Y01041000D01*
X01363876Y01057375D02*
X01364251Y01057000D01*
X01198000Y01057750D02*
X01198375Y01057375D01*
X01363876D01*
X01197500Y01057250D02*
X01198000Y01057750D01*
X01155625Y01073875D02*
X01252625D01*
X01154750Y01073000D02*
X01155625Y01073875D01*
X01252625D02*
X01253500Y01074750D01*
X01364251Y01057000D02*
X01367000D01*
X01244125Y01025625D02*
X01245000Y01026500D01*
X00741625Y01025625D02*
X01244125D01*
X01245375Y01026125D02*
X01397625D01*
X01245000Y01026500D02*
X01245375Y01026125D01*
X01399750Y01024000D02*
X01964250D01*
X01261625Y01124625D02*
X01427375D01*
X01586000Y01124500D02*
X01586250Y01124250D01*
X01427500Y01124750D02*
X01427750Y01124500D01*
X01586000D01*
X01427375Y01124625D02*
X01427500Y01124750D01*
X01261250Y01124250D02*
X01261625Y01124625D01*
X01368000Y01056000D02*
X01516000D01*
X01367000Y01057000D02*
X01368000Y01056000D01*
X01070750Y01090250D02*
X01506500D01*
X01506500Y01090250D01*
X01070750Y01090250D02*
X01070750Y01090250D01*
X00768500Y01127500D02*
X00769750Y01126250D01*
X01101250Y01124250D02*
X01261250D01*
X01260590Y01129659D02*
Y01192433D01*
X00767806Y01128194D02*
X00768500Y01127500D01*
X01253500Y01074750D02*
X01254875Y01073375D01*
X00937250Y01125750D02*
X00937500Y01125500D01*
X00937125Y01125875D02*
X00937250Y01125750D01*
X00936500Y01126500D02*
X00937125Y01125875D01*
X01586090Y01129409D02*
Y01192183D01*
X01422840Y01129564D02*
Y01191683D01*
X01101000Y01124000D02*
X01101250Y01124250D01*
X01098090Y01129659D02*
Y01192433D01*
Y01129659D02*
X01101000Y01126749D01*
Y01124000D02*
Y01126749D01*
X01085500Y01003250D02*
X01086250Y01002500D01*
X01086500Y01002750D02*
X01991500D01*
X00924250Y01003250D02*
X01085500D01*
X01086250Y01002500D02*
X01086500Y01002750D01*
X00923500Y01004000D02*
X00924250Y01003250D01*
X00759750Y01004000D02*
X00923500D01*
X00909500Y01089750D02*
X00910000Y01090250D01*
X00856750Y01089750D02*
X00909500D01*
X00936500Y01126500D02*
Y01190750D01*
X00935500Y01191750D02*
X00936500Y01190750D01*
X00856250Y01089250D02*
X00856750Y01089750D01*
X00545500Y01057000D02*
X00546250Y01056250D01*
X00720500D01*
X01051000Y01110000D02*
X01051500Y01109500D01*
X01100250Y01124750D02*
X01101000Y01124000D01*
X00937500Y01125500D02*
X00938250Y01124750D01*
X00937250Y01125750D02*
X00937500Y01125500D01*
X00769750Y01126250D02*
X00770125Y01125875D01*
X00612738Y01127500D02*
X00768500D01*
X00770125Y01125875D02*
X00937125D01*
X01758840Y01272433D02*
X01760340Y01270933D01*
X01781090Y01215433D02*
X01787090Y01209433D01*
X01658828Y01215433D02*
X01781090D01*
X01687578Y01272433D02*
X01758840D01*
X01759102Y01373750D02*
X01760590Y01372262D01*
X01787090Y01177340D02*
Y01209433D01*
X01785750Y01176000D02*
X01787090Y01177340D01*
X01595090Y01272433D02*
X01596590Y01270933D01*
X01617340Y01215433D02*
X01623340Y01209433D01*
X01495078Y01215433D02*
X01617340D01*
X01523828Y01272433D02*
X01595090D01*
X01522340Y01273921D02*
X01523828Y01272433D01*
X01522340Y01273921D02*
Y01360433D01*
X01626250Y01336750D02*
X01628090Y01334910D01*
Y01238770D02*
Y01334910D01*
X01608841Y01299683D02*
X01609090Y01299932D01*
X01595352Y01373750D02*
X01596840Y01372262D01*
Y01321933D02*
Y01372262D01*
X01508328Y01373750D02*
X01595352D01*
X01531500Y01385250D02*
X01607602D01*
X01609090Y01383762D01*
Y01299932D02*
Y01383762D01*
X01623340Y01177340D02*
Y01209433D01*
X01622000Y01176000D02*
X01623340Y01177340D01*
X01522750Y01237000D02*
X01626320D01*
X01522000Y01237750D02*
X01522750Y01237000D01*
X01433090Y01272433D02*
X01434590Y01270933D01*
X01455340Y01215433D02*
X01461340Y01209433D01*
X01333078Y01215433D02*
X01455340D01*
X01361828Y01272433D02*
X01433090D01*
X01360340Y01273921D02*
X01361828Y01272433D01*
X01464250Y01336750D02*
X01466090Y01334910D01*
X01446841Y01299683D02*
X01447090Y01299932D01*
X01433352Y01373750D02*
X01434840Y01372262D01*
Y01321933D02*
Y01372262D01*
X01346328Y01373750D02*
X01433352D01*
X01461340Y01177340D02*
Y01209433D01*
X01460000Y01176000D02*
X01461340Y01177340D01*
X01464320Y01237000D02*
X01466090Y01238770D01*
X01360750Y01237000D02*
X01464320D01*
X01360000Y01237750D02*
X01360750Y01237000D01*
X01269590Y01272433D02*
X01271090Y01270933D01*
X01291840Y01215433D02*
X01297840Y01209433D01*
X01169578Y01215433D02*
X01291840D01*
X01198328Y01272433D02*
X01269590D01*
X01196840Y01273921D02*
X01198328Y01272433D01*
X01196840Y01273921D02*
Y01360433D01*
X01300750Y01336750D02*
X01302590Y01334910D01*
Y01238770D02*
Y01334910D01*
X01297840Y01177340D02*
Y01209433D01*
X01296500Y01176000D02*
X01297840Y01177340D01*
X01197250Y01237000D02*
X01300820D01*
X01196500Y01237750D02*
X01197250Y01237000D01*
X01107590Y01272183D02*
X01109090Y01270683D01*
X01129840Y01215183D02*
X01135840Y01209183D01*
X01007578Y01215183D02*
X01129840D01*
X01036328Y01272183D02*
X01107590D01*
X01138750Y01336500D02*
X01140590Y01334660D01*
Y01238520D02*
Y01334660D01*
X01121341Y01299433D02*
X01121590Y01299682D01*
X01109340Y01321683D02*
Y01372012D01*
X01120102Y01385000D02*
X01121590Y01383512D01*
Y01299682D02*
Y01383512D01*
X01135840Y01177090D02*
Y01209183D01*
X01134500Y01175750D02*
X01135840Y01177090D01*
X01035250Y01236750D02*
X01138820D01*
X01034500Y01237500D02*
X01035250Y01236750D01*
X00944090Y01273433D02*
X00945590Y01271933D01*
X00966340Y01216433D02*
X00972340Y01210433D01*
X00844078Y01216433D02*
X00966340D01*
X00872828Y01273433D02*
X00944090D01*
X00871340Y01274921D02*
X00872828Y01273433D01*
X00871340Y01274921D02*
Y01361433D01*
X00975250Y01337750D02*
X00977090Y01335910D01*
Y01239770D02*
Y01335910D01*
X00957841Y01300683D02*
X00958090Y01300932D01*
X00944352Y01374750D02*
X00945840Y01373262D01*
Y01322933D02*
Y01373262D01*
X00857328Y01374750D02*
X00944352D01*
X00972340Y01178340D02*
Y01210433D01*
X00971000Y01177000D02*
X00972340Y01178340D01*
X00871750Y01238000D02*
X00975320D01*
X00871000Y01238750D02*
X00871750Y01238000D01*
X00706000Y01238250D02*
X00706750Y01237500D01*
X00810320D01*
X00812090Y01239270D01*
X00806000Y01176500D02*
X00807340Y01177840D01*
Y01209933D01*
X00690840Y01284683D02*
Y01372762D01*
X00692328Y01374250D02*
X00779352D01*
X00690840Y01372762D02*
X00692328Y01374250D01*
X00780840Y01322433D02*
Y01372762D01*
X00779352Y01374250D02*
X00780840Y01372762D01*
X00792841Y01300183D02*
X00793090Y01300432D01*
X00812090Y01239270D02*
Y01335410D01*
X00810250Y01337250D02*
X00812090Y01335410D01*
X00769590Y01127035D02*
Y01193183D01*
X00706340Y01274420D02*
X00707828Y01272933D01*
X00779090D01*
X00679078Y01215933D02*
X00801340D01*
X00807340Y01209933D01*
X00779090Y01272933D02*
X00780590Y01271433D01*
X00548000Y01273738D02*
X00549488Y01272250D01*
X00620750D01*
X00648000Y01176000D02*
X00649000Y01177000D01*
Y01209250D01*
X00643000Y01215250D02*
X00649000Y01209250D01*
X00620750Y01272250D02*
X00622250Y01270750D01*
X00611250Y01128988D02*
X00612738Y01127500D01*
X00611250Y01128988D02*
Y01192500D01*
X01581250Y01071750D02*
X01581500Y01071500D01*
X01540750Y01040250D02*
X01541750Y01039250D01*
X01051500Y01109500D02*
X01377500D01*
X00938250Y01124750D02*
X01100250D01*
X00561125Y01039625D02*
X00895375D01*
X00560750Y01040000D02*
X00561125Y01039625D01*
X00895375D02*
X00895750Y01039250D01*
D28*
X01566250Y01407500D02*
D03*
X01546250D02*
D03*
X01526250D02*
D03*
X01506250D02*
D03*
X01486250D02*
D03*
X01466250D02*
D03*
X01446250D02*
D03*
X01426250D02*
D03*
X01406250D02*
D03*
X00572251Y01407500D02*
D03*
X00592250D02*
D03*
X00612250D02*
D03*
X00632250D02*
D03*
X00652250D02*
D03*
X00672250D02*
D03*
X00692250D02*
D03*
X00712250D02*
D03*
X00732250D02*
D03*
X00989250D02*
D03*
X01009250D02*
D03*
X01029250D02*
D03*
X01049250D02*
D03*
X01069250D02*
D03*
X01089250D02*
D03*
X01109251D02*
D03*
X01129251D02*
D03*
X01149251D02*
D03*
X01983250Y01407500D02*
D03*
X01963250D02*
D03*
X01943250D02*
D03*
X01923250D02*
D03*
X01903250D02*
D03*
X01883250D02*
D03*
X01863250D02*
D03*
X01843250D02*
D03*
X01823250D02*
D03*
D29*
X01386250D02*
D03*
X00552250Y01407500D02*
D03*
X00969250D02*
D03*
X01803250Y01407500D02*
D03*
D31*
X01885750Y01067500D02*
D03*
X01978250Y01339750D02*
D03*
X01953750Y01320000D02*
D03*
X01926500Y01297000D02*
D03*
X01901250Y01274750D02*
D03*
X00520000Y01359750D02*
D03*
X00518250Y01261750D02*
D03*
X00672750Y01316500D02*
D03*
X00834250Y01315000D02*
D03*
X01000500Y01316500D02*
D03*
X01685750Y01391750D02*
D03*
X01685250Y01361500D02*
D03*
X01627250Y01375500D02*
D03*
X01577067Y01360433D02*
D03*
X00653750Y01336500D02*
D03*
X00656000Y01237000D02*
D03*
X01325000Y01421500D02*
D03*
X01360000Y01388250D02*
D03*
X01283000Y01408000D02*
D03*
X01255000Y01392500D02*
D03*
Y01361250D02*
D03*
X01155750Y01357000D02*
D03*
X01094500D02*
D03*
X01035250Y01355750D02*
D03*
X00871340Y01390410D02*
D03*
X00817000Y01361750D02*
D03*
X00706340Y01360933D02*
D03*
X00767250Y01361500D02*
D03*
X01626750Y01422000D02*
D03*
X01195500Y01420750D02*
D03*
X00872500Y01421000D02*
D03*
X00491000Y01359500D02*
D03*
X00548000Y01360250D02*
D03*
X00490000Y01295250D02*
D03*
X01776500Y01360500D02*
D03*
X01862500Y01340250D02*
D03*
X01841000Y01319000D02*
D03*
X01822000Y01297000D02*
D03*
X01804500Y01274000D02*
D03*
X01789500Y01238000D02*
D03*
X01760590Y01321933D02*
D03*
X01485250Y01316750D02*
D03*
X01360340Y01360433D02*
D03*
X01647500Y01317250D02*
D03*
X01664750Y01285500D02*
D03*
X01501750D02*
D03*
X01340750Y01283250D02*
D03*
X01323250Y01317500D02*
D03*
X01176000Y01282000D02*
D03*
X01159750Y01317250D02*
D03*
X01016625Y01283875D02*
D03*
X00852000Y01285750D02*
D03*
X01628000Y01237500D02*
D03*
X01467750Y01240000D02*
D03*
X01303750Y01235750D02*
D03*
X01140000Y01236500D02*
D03*
X00976750Y01238250D02*
D03*
X00812500Y01239000D02*
D03*
X01667000Y01092250D02*
D03*
X01740000Y01071250D02*
D03*
X01725000Y01093250D02*
D03*
X01688500Y01054250D02*
D03*
X01700000Y01108750D02*
D03*
X01749590Y01192683D02*
D03*
X01749750Y01124750D02*
D03*
X00602000Y01005250D02*
D03*
X00580250Y01026000D02*
D03*
X00725250Y01109500D02*
D03*
X00866000Y01056000D02*
D03*
X01214250Y01042750D02*
D03*
X01198000Y01057750D02*
D03*
X01154750Y01073000D02*
D03*
X01245000Y01026500D02*
D03*
X01398000Y01025750D02*
D03*
X01427500Y01124750D02*
D03*
X01367000Y01057000D02*
D03*
X01506500Y01090250D02*
D03*
X01553500D02*
D03*
X01653795Y01071955D02*
D03*
X01489795Y01072455D02*
D03*
X01328045D02*
D03*
X01261500Y01124500D02*
D03*
X01253500Y01074750D02*
D03*
X01586250Y01124250D02*
D03*
X01586090Y01192183D02*
D03*
X01422840Y01191683D02*
D03*
X01260590Y01192433D02*
D03*
X01086250Y01002500D02*
D03*
X01012500Y01089250D02*
D03*
X00923500Y01004000D02*
D03*
X00910000Y01090250D02*
D03*
X00935500Y01191750D02*
D03*
X00856250Y01089250D02*
D03*
X00740750Y01024750D02*
D03*
X00759750Y01004000D02*
D03*
X00721250Y01055500D02*
D03*
X00769750Y01126250D02*
D03*
X01760340Y01270933D02*
D03*
X01790000Y01336750D02*
D03*
X01772591Y01299683D02*
D03*
X01785750Y01176000D02*
D03*
X01685750Y01237750D02*
D03*
X01596590Y01270933D02*
D03*
X01596840Y01321933D02*
D03*
X01522340Y01360433D02*
D03*
X01626250Y01336750D02*
D03*
X01608841Y01299683D02*
D03*
X01622000Y01176000D02*
D03*
X01522000Y01237750D02*
D03*
X01434590Y01270933D02*
D03*
X01434840Y01321933D02*
D03*
X01464250Y01336750D02*
D03*
X01446841Y01299683D02*
D03*
X01460000Y01176000D02*
D03*
X01360000Y01237750D02*
D03*
X01271090Y01270933D02*
D03*
X01271340Y01321933D02*
D03*
X01196840Y01360433D02*
D03*
X01300750Y01336750D02*
D03*
X01283341Y01299683D02*
D03*
X01296500Y01176000D02*
D03*
X01196500Y01237750D02*
D03*
X01098090Y01192433D02*
D03*
X01109090Y01270683D02*
D03*
X01109340Y01321683D02*
D03*
X01138750Y01336500D02*
D03*
X01121341Y01299433D02*
D03*
X01134500Y01175750D02*
D03*
X01034500Y01237500D02*
D03*
X00945590Y01271933D02*
D03*
X00945840Y01322933D02*
D03*
X00871340Y01361433D02*
D03*
X00975250Y01337750D02*
D03*
X00957841Y01300683D02*
D03*
X00971000Y01177000D02*
D03*
X00871000Y01238750D02*
D03*
X00706000Y01238250D02*
D03*
X00806000Y01176500D02*
D03*
X00792841Y01300183D02*
D03*
X00810250Y01337250D02*
D03*
X00780840Y01322433D02*
D03*
X00690840Y01284683D02*
D03*
X00780590Y01271433D02*
D03*
X00769590Y01193183D02*
D03*
X00622500Y01321750D02*
D03*
X00637250Y01299500D02*
D03*
X00648000Y01176000D02*
D03*
X00547150Y01237100D02*
D03*
X00622250Y01270750D02*
D03*
X00611250Y01192500D02*
D03*
X00545500Y01057000D02*
D03*
X01540750Y01040250D02*
D03*
X01581500Y01071500D02*
D03*
X01517000Y01055000D02*
D03*
X01416000Y01072000D02*
D03*
X01378000Y01109000D02*
D03*
X01070750Y01090250D02*
D03*
X01051000Y01110000D02*
D03*
X01101000Y01124000D02*
D03*
X01033750Y01056750D02*
D03*
X00937500Y01125500D02*
D03*
X00895750Y01039250D02*
D03*
X00560750Y01040000D02*
D03*
D32*
X02003400Y01144000D02*
D03*
X01990700D02*
D03*
X01978000D02*
D03*
X01965300D02*
D03*
X01952600D02*
D03*
X01939900D02*
D03*
X01927200D02*
D03*
X01914500D02*
D03*
X01901800D02*
D03*
X01889100D02*
D03*
X02003400Y01241000D02*
D03*
X01990700D02*
D03*
X01978000D02*
D03*
X01965300D02*
D03*
X01952600D02*
D03*
X01939900D02*
D03*
X01927200D02*
D03*
X01914500D02*
D03*
X01901800D02*
D03*
X01889100D02*
D03*
M02*
