G04*
G04 #@! TF.GenerationSoftware,Altium Limited,Altium Designer,25.2.1 (25)*
G04*
G04 Layer_Color=16711935*
%FSLAX44Y44*%
%MOMM*%
G71*
G04*
G04 #@! TF.SameCoordinates,3A3D6F5A-BCF4-428E-B5E6-7A3BCBBF857E*
G04*
G04*
G04 #@! TF.FilePolarity,Negative*
G04*
G01*
G75*
%ADD25R,1.3000X1.3000*%
%ADD26C,1.3000*%
%ADD27C,1.2532*%
%ADD28R,1.2532X1.2532*%
%ADD29C,1.4732*%
D25*
X804500Y1082750D02*
D03*
X804500Y625250D02*
D03*
D26*
X824500Y1082750D02*
D03*
X844500D02*
D03*
X864500D02*
D03*
X884500D02*
D03*
X904500D02*
D03*
X924500D02*
D03*
X944501D02*
D03*
X964501D02*
D03*
X984500D02*
D03*
X984500Y625250D02*
D03*
X964500D02*
D03*
X944500D02*
D03*
X924500D02*
D03*
X904500D02*
D03*
X884500D02*
D03*
X864500D02*
D03*
X844500D02*
D03*
X824500D02*
D03*
D27*
X728000Y861600D02*
D03*
Y848900D02*
D03*
Y836200D02*
D03*
D28*
Y874300D02*
D03*
D29*
X939250Y691000D02*
D03*
X997750Y892000D02*
D03*
X812250Y890500D02*
D03*
X823000Y912750D02*
D03*
X976750Y911750D02*
D03*
X750500Y907000D02*
D03*
X765750Y886750D02*
D03*
X791500Y865500D02*
D03*
X937500Y869750D02*
D03*
X961750Y871000D02*
D03*
X986000Y872590D02*
D03*
X878000Y1024250D02*
D03*
X966250Y1050000D02*
D03*
X943500Y1061750D02*
D03*
X854500Y1037750D02*
D03*
X1003750Y958750D02*
D03*
X993250Y1012750D02*
D03*
X926000Y748000D02*
D03*
X874250Y692250D02*
D03*
X1032000Y793750D02*
D03*
X733750Y1028000D02*
D03*
X842750Y997000D02*
D03*
X1003750Y834750D02*
D03*
X822500Y692250D02*
D03*
X899000D02*
D03*
X848250D02*
D03*
X1030750Y678250D02*
D03*
X1031750Y736250D02*
D03*
M02*
