G04*
G04 #@! TF.GenerationSoftware,Altium Limited,Altium Designer,25.2.1 (25)*
G04*
G04 Layer_Color=32896*
%FSLAX44Y44*%
%MOMM*%
G71*
G04*
G04 #@! TF.SameCoordinates,3A3D6F5A-BCF4-428E-B5E6-7A3BCBBF857E*
G04*
G04*
G04 #@! TF.FilePolarity,Positive*
G04*
G01*
G75*
%ADD13C,0.2000*%
G36*
X903216Y1081888D02*
X900073D01*
X900123Y1081806D01*
X900180Y1081732D01*
X900236Y1081663D01*
X900286Y1081594D01*
X900336Y1081544D01*
X900373Y1081500D01*
X900398Y1081469D01*
X900405Y1081463D01*
X900448Y1081419D01*
X900505Y1081369D01*
X900567Y1081307D01*
X900636Y1081244D01*
X900786Y1081113D01*
X900936Y1080982D01*
X901086Y1080857D01*
X901148Y1080801D01*
X901204Y1080751D01*
X901248Y1080713D01*
X901286Y1080682D01*
X901311Y1080663D01*
X901317Y1080657D01*
X901467Y1080526D01*
X901610Y1080407D01*
X901742Y1080288D01*
X901860Y1080182D01*
X901973Y1080082D01*
X902067Y1079988D01*
X902160Y1079901D01*
X902235Y1079826D01*
X902304Y1079757D01*
X902366Y1079701D01*
X902410Y1079651D01*
X902454Y1079607D01*
X902485Y1079576D01*
X902504Y1079551D01*
X902516Y1079538D01*
X902523Y1079532D01*
X902654Y1079382D01*
X902760Y1079239D01*
X902854Y1079101D01*
X902923Y1078988D01*
X902979Y1078888D01*
X902998Y1078851D01*
X903016Y1078814D01*
X903029Y1078789D01*
X903041Y1078770D01*
X903048Y1078757D01*
Y1078751D01*
X903104Y1078614D01*
X903141Y1078476D01*
X903173Y1078345D01*
X903191Y1078232D01*
X903204Y1078132D01*
Y1078095D01*
X903210Y1078057D01*
Y1078033D01*
Y1078014D01*
Y1078001D01*
Y1077995D01*
X903204Y1077858D01*
X903185Y1077726D01*
X903160Y1077595D01*
X903129Y1077476D01*
X903085Y1077364D01*
X903041Y1077264D01*
X902991Y1077164D01*
X902941Y1077076D01*
X902891Y1076995D01*
X902841Y1076926D01*
X902798Y1076870D01*
X902754Y1076820D01*
X902723Y1076777D01*
X902698Y1076752D01*
X902679Y1076733D01*
X902673Y1076727D01*
X902567Y1076639D01*
X902454Y1076558D01*
X902342Y1076489D01*
X902217Y1076433D01*
X902098Y1076383D01*
X901973Y1076339D01*
X901854Y1076308D01*
X901742Y1076277D01*
X901629Y1076258D01*
X901529Y1076239D01*
X901442Y1076227D01*
X901367Y1076220D01*
X901298D01*
X901254Y1076214D01*
X901211D01*
X901042Y1076220D01*
X900886Y1076233D01*
X900736Y1076258D01*
X900598Y1076289D01*
X900467Y1076327D01*
X900348Y1076364D01*
X900242Y1076408D01*
X900142Y1076452D01*
X900055Y1076495D01*
X899973Y1076539D01*
X899911Y1076577D01*
X899855Y1076614D01*
X899811Y1076645D01*
X899780Y1076670D01*
X899761Y1076683D01*
X899755Y1076689D01*
X899661Y1076783D01*
X899574Y1076883D01*
X899499Y1076989D01*
X899430Y1077102D01*
X899374Y1077220D01*
X899324Y1077333D01*
X899280Y1077445D01*
X899242Y1077551D01*
X899217Y1077658D01*
X899192Y1077751D01*
X899174Y1077839D01*
X899155Y1077914D01*
X899149Y1077976D01*
X899142Y1078026D01*
X899136Y1078051D01*
Y1078064D01*
X899942Y1078145D01*
X899948Y1078033D01*
X899955Y1077933D01*
X899973Y1077833D01*
X899992Y1077745D01*
X900023Y1077664D01*
X900048Y1077583D01*
X900080Y1077514D01*
X900111Y1077451D01*
X900142Y1077395D01*
X900173Y1077345D01*
X900205Y1077301D01*
X900230Y1077270D01*
X900248Y1077245D01*
X900267Y1077220D01*
X900273Y1077214D01*
X900280Y1077208D01*
X900348Y1077145D01*
X900417Y1077095D01*
X900492Y1077045D01*
X900567Y1077008D01*
X900717Y1076945D01*
X900867Y1076908D01*
X900929Y1076895D01*
X900992Y1076883D01*
X901048Y1076877D01*
X901098Y1076870D01*
X901136Y1076864D01*
X901192D01*
X901292Y1076870D01*
X901385Y1076877D01*
X901554Y1076914D01*
X901704Y1076964D01*
X901773Y1076995D01*
X901829Y1077027D01*
X901885Y1077058D01*
X901929Y1077089D01*
X901973Y1077114D01*
X902004Y1077139D01*
X902029Y1077158D01*
X902054Y1077177D01*
X902060Y1077183D01*
X902067Y1077189D01*
X902129Y1077252D01*
X902179Y1077314D01*
X902223Y1077383D01*
X902260Y1077445D01*
X902323Y1077576D01*
X902360Y1077701D01*
X902385Y1077814D01*
X902392Y1077858D01*
X902398Y1077895D01*
X902404Y1077933D01*
Y1077958D01*
Y1077970D01*
Y1077976D01*
X902398Y1078057D01*
X902385Y1078145D01*
X902366Y1078226D01*
X902348Y1078314D01*
X902285Y1078470D01*
X902217Y1078614D01*
X902179Y1078676D01*
X902148Y1078739D01*
X902117Y1078789D01*
X902085Y1078832D01*
X902067Y1078870D01*
X902048Y1078895D01*
X902035Y1078913D01*
X902029Y1078920D01*
X901954Y1079020D01*
X901860Y1079120D01*
X901760Y1079232D01*
X901654Y1079345D01*
X901423Y1079570D01*
X901186Y1079788D01*
X901073Y1079888D01*
X900967Y1079982D01*
X900873Y1080070D01*
X900786Y1080138D01*
X900717Y1080201D01*
X900661Y1080244D01*
X900630Y1080269D01*
X900617Y1080282D01*
X900498Y1080382D01*
X900380Y1080482D01*
X900273Y1080576D01*
X900173Y1080663D01*
X900086Y1080751D01*
X899998Y1080832D01*
X899923Y1080907D01*
X899855Y1080969D01*
X899792Y1081032D01*
X899742Y1081088D01*
X899698Y1081138D01*
X899661Y1081176D01*
X899630Y1081207D01*
X899611Y1081232D01*
X899598Y1081244D01*
X899592Y1081250D01*
X899467Y1081407D01*
X899361Y1081557D01*
X899274Y1081700D01*
X899199Y1081832D01*
X899142Y1081944D01*
X899124Y1081988D01*
X899105Y1082025D01*
X899092Y1082057D01*
X899080Y1082082D01*
X899074Y1082094D01*
Y1082100D01*
X899042Y1082200D01*
X899017Y1082294D01*
X899005Y1082388D01*
X898992Y1082469D01*
X898986Y1082544D01*
Y1082594D01*
Y1082631D01*
Y1082638D01*
Y1082644D01*
X903216D01*
Y1081888D01*
D02*
G37*
G36*
X896424Y1082738D02*
X896612Y1082713D01*
X896780Y1082675D01*
X896855Y1082656D01*
X896924Y1082631D01*
X896987Y1082613D01*
X897043Y1082594D01*
X897093Y1082575D01*
X897130Y1082556D01*
X897162Y1082538D01*
X897187Y1082531D01*
X897199Y1082519D01*
X897205D01*
X897355Y1082425D01*
X897480Y1082319D01*
X897587Y1082206D01*
X897674Y1082100D01*
X897743Y1082000D01*
X897768Y1081956D01*
X897786Y1081919D01*
X897805Y1081894D01*
X897818Y1081869D01*
X897824Y1081857D01*
Y1081850D01*
X897861Y1081763D01*
X897893Y1081669D01*
X897943Y1081469D01*
X897974Y1081263D01*
X897999Y1081063D01*
X898005Y1080969D01*
X898011Y1080882D01*
X898018Y1080807D01*
X898024Y1080738D01*
Y1080682D01*
Y1080644D01*
Y1080613D01*
Y1080607D01*
Y1076239D01*
X897174D01*
Y1080651D01*
Y1080751D01*
X897168Y1080844D01*
Y1080932D01*
X897162Y1081007D01*
X897155Y1081082D01*
X897143Y1081144D01*
X897137Y1081207D01*
X897130Y1081257D01*
X897118Y1081307D01*
X897112Y1081344D01*
X897105Y1081382D01*
X897093Y1081407D01*
X897087Y1081444D01*
X897080Y1081457D01*
X897043Y1081544D01*
X896993Y1081625D01*
X896943Y1081688D01*
X896887Y1081744D01*
X896837Y1081794D01*
X896799Y1081825D01*
X896774Y1081844D01*
X896762Y1081850D01*
X896674Y1081900D01*
X896581Y1081932D01*
X896487Y1081956D01*
X896399Y1081975D01*
X896324Y1081988D01*
X896268Y1081994D01*
X896212D01*
X896131Y1081988D01*
X896062Y1081982D01*
X895924Y1081950D01*
X895806Y1081907D01*
X895712Y1081857D01*
X895631Y1081813D01*
X895574Y1081769D01*
X895543Y1081738D01*
X895531Y1081725D01*
X895487Y1081669D01*
X895450Y1081607D01*
X895418Y1081532D01*
X895387Y1081457D01*
X895337Y1081288D01*
X895306Y1081125D01*
X895293Y1081044D01*
X895281Y1080969D01*
X895275Y1080900D01*
X895268Y1080844D01*
Y1080794D01*
X895262Y1080757D01*
Y1080732D01*
Y1080726D01*
X894500Y1080832D01*
Y1081007D01*
X894512Y1081169D01*
X894531Y1081319D01*
X894556Y1081457D01*
X894587Y1081588D01*
X894625Y1081707D01*
X894662Y1081813D01*
X894706Y1081907D01*
X894743Y1081994D01*
X894787Y1082069D01*
X894825Y1082125D01*
X894856Y1082181D01*
X894881Y1082219D01*
X894906Y1082244D01*
X894919Y1082263D01*
X894925Y1082269D01*
X895012Y1082356D01*
X895112Y1082425D01*
X895212Y1082494D01*
X895318Y1082544D01*
X895425Y1082594D01*
X895531Y1082631D01*
X895637Y1082663D01*
X895743Y1082688D01*
X895837Y1082713D01*
X895931Y1082725D01*
X896012Y1082738D01*
X896081Y1082744D01*
X896137D01*
X896181Y1082750D01*
X896218D01*
X896424Y1082738D01*
D02*
G37*
G36*
X902048Y618714D02*
X901535D01*
X901498Y618796D01*
X901448Y618871D01*
X901342Y619027D01*
X901229Y619170D01*
X901117Y619302D01*
X901061Y619358D01*
X901011Y619414D01*
X900961Y619458D01*
X900923Y619502D01*
X900892Y619533D01*
X900861Y619558D01*
X900848Y619570D01*
X900842Y619577D01*
X900648Y619733D01*
X900454Y619877D01*
X900261Y620008D01*
X900080Y620114D01*
X899998Y620164D01*
X899923Y620201D01*
X899861Y620239D01*
X899805Y620270D01*
X899755Y620295D01*
X899724Y620314D01*
X899698Y620320D01*
X899692Y620326D01*
Y621083D01*
X899830Y621026D01*
X899973Y620964D01*
X900111Y620895D01*
X900236Y620833D01*
X900348Y620776D01*
X900392Y620751D01*
X900436Y620726D01*
X900467Y620708D01*
X900492Y620695D01*
X900505Y620683D01*
X900511D01*
X900673Y620583D01*
X900823Y620483D01*
X900954Y620389D01*
X901061Y620308D01*
X901148Y620239D01*
X901211Y620183D01*
X901229Y620164D01*
X901248Y620151D01*
X901254Y620139D01*
X901261D01*
Y625144D01*
X902048D01*
Y618714D01*
D02*
G37*
G36*
X896424Y625238D02*
X896612Y625213D01*
X896780Y625175D01*
X896855Y625157D01*
X896924Y625131D01*
X896987Y625113D01*
X897043Y625094D01*
X897093Y625075D01*
X897130Y625056D01*
X897162Y625038D01*
X897187Y625032D01*
X897199Y625019D01*
X897205D01*
X897355Y624925D01*
X897480Y624819D01*
X897587Y624707D01*
X897674Y624600D01*
X897743Y624500D01*
X897768Y624457D01*
X897786Y624419D01*
X897805Y624394D01*
X897818Y624369D01*
X897824Y624357D01*
Y624351D01*
X897861Y624263D01*
X897893Y624169D01*
X897943Y623969D01*
X897974Y623763D01*
X897999Y623563D01*
X898005Y623469D01*
X898011Y623382D01*
X898018Y623307D01*
X898024Y623238D01*
Y623182D01*
Y623144D01*
Y623113D01*
Y623107D01*
Y618739D01*
X897174D01*
Y623151D01*
Y623251D01*
X897168Y623344D01*
Y623432D01*
X897162Y623507D01*
X897155Y623582D01*
X897143Y623644D01*
X897137Y623707D01*
X897130Y623757D01*
X897118Y623807D01*
X897112Y623844D01*
X897105Y623882D01*
X897093Y623907D01*
X897087Y623944D01*
X897080Y623957D01*
X897043Y624044D01*
X896993Y624126D01*
X896943Y624188D01*
X896887Y624244D01*
X896837Y624294D01*
X896799Y624325D01*
X896774Y624344D01*
X896762Y624351D01*
X896674Y624400D01*
X896581Y624432D01*
X896487Y624457D01*
X896399Y624475D01*
X896324Y624488D01*
X896268Y624494D01*
X896212D01*
X896131Y624488D01*
X896062Y624482D01*
X895924Y624450D01*
X895806Y624407D01*
X895712Y624357D01*
X895631Y624313D01*
X895574Y624269D01*
X895543Y624238D01*
X895531Y624226D01*
X895487Y624169D01*
X895450Y624107D01*
X895418Y624032D01*
X895387Y623957D01*
X895337Y623788D01*
X895306Y623626D01*
X895293Y623544D01*
X895281Y623469D01*
X895275Y623401D01*
X895268Y623344D01*
Y623294D01*
X895262Y623257D01*
Y623232D01*
Y623226D01*
X894500Y623332D01*
Y623507D01*
X894512Y623669D01*
X894531Y623819D01*
X894556Y623957D01*
X894587Y624088D01*
X894625Y624207D01*
X894662Y624313D01*
X894706Y624407D01*
X894743Y624494D01*
X894787Y624569D01*
X894825Y624625D01*
X894856Y624682D01*
X894881Y624719D01*
X894906Y624744D01*
X894919Y624763D01*
X894925Y624769D01*
X895012Y624857D01*
X895112Y624925D01*
X895212Y624994D01*
X895318Y625044D01*
X895425Y625094D01*
X895531Y625131D01*
X895637Y625163D01*
X895743Y625188D01*
X895837Y625213D01*
X895931Y625225D01*
X896012Y625238D01*
X896081Y625244D01*
X896137D01*
X896181Y625250D01*
X896218D01*
X896424Y625238D01*
D02*
G37*
D13*
X791000Y1070750D02*
X998000D01*
Y1094750D01*
X791000D02*
X998000D01*
X791000Y1070750D02*
Y1094750D01*
Y613250D02*
Y637250D01*
X998000D01*
Y613250D02*
Y637250D01*
X791000Y613250D02*
X998000D01*
M02*
