G04*
G04 #@! TF.GenerationSoftware,Altium Limited,Altium Designer,25.2.1 (25)*
G04*
G04 Layer_Color=2752767*
%FSLAX44Y44*%
%MOMM*%
G71*
G04*
G04 #@! TF.SameCoordinates,3A3D6F5A-BCF4-428E-B5E6-7A3BCBBF857E*
G04*
G04*
G04 #@! TF.FilePolarity,Positive*
G04*
G01*
G75*
%ADD36C,0.1693*%
%ADD37C,0.1270*%
D36*
X809580Y1082750D02*
G03*
X809580Y1082750I-5080J0D01*
G01*
X829580D02*
G03*
X829580Y1082750I-5080J0D01*
G01*
X849580D02*
G03*
X849580Y1082750I-5080J0D01*
G01*
X869580D02*
G03*
X869580Y1082750I-5080J0D01*
G01*
X889580D02*
G03*
X889580Y1082750I-5080J0D01*
G01*
X909580D02*
G03*
X909580Y1082750I-5080J0D01*
G01*
X929580D02*
G03*
X929580Y1082750I-5080J0D01*
G01*
X949581D02*
G03*
X949581Y1082750I-5080J0D01*
G01*
X969581D02*
G03*
X969581Y1082750I-5080J0D01*
G01*
X989580D02*
G03*
X989580Y1082750I-5080J0D01*
G01*
X989580Y625250D02*
G03*
X989580Y625250I-5080J0D01*
G01*
X969580D02*
G03*
X969580Y625250I-5080J0D01*
G01*
X949580D02*
G03*
X949580Y625250I-5080J0D01*
G01*
X929580D02*
G03*
X929580Y625250I-5080J0D01*
G01*
X909580D02*
G03*
X909580Y625250I-5080J0D01*
G01*
X889580D02*
G03*
X889580Y625250I-5080J0D01*
G01*
X869580D02*
G03*
X869580Y625250I-5080J0D01*
G01*
X849580D02*
G03*
X849580Y625250I-5080J0D01*
G01*
X829580D02*
G03*
X829580Y625250I-5080J0D01*
G01*
X809580D02*
G03*
X809580Y625250I-5080J0D01*
G01*
D37*
X722920Y856520D02*
Y866680D01*
X733080D01*
Y856520D01*
X722920D01*
Y869220D02*
Y879380D01*
X733080D01*
Y869220D01*
X722920D01*
Y843820D02*
Y853980D01*
X733080D01*
Y843820D01*
X722920D01*
Y831120D02*
Y841280D01*
X733080D01*
Y831120D01*
X722920D01*
X939250Y685920D02*
X934170Y696080D01*
X944330D01*
X939250Y685920D01*
X997750Y886920D02*
X992670Y897080D01*
X1002830D01*
X997750Y886920D01*
X812250Y885420D02*
X807170Y895580D01*
X817330D01*
X812250Y885420D01*
X823000Y907670D02*
X817920Y917830D01*
X828080D01*
X823000Y907670D01*
X976750Y906670D02*
X971670Y916830D01*
X981830D01*
X976750Y906670D01*
X750500Y901920D02*
X745420Y912080D01*
X755580D01*
X750500Y901920D01*
X765750Y881670D02*
X760670Y891830D01*
X770830D01*
X765750Y881670D01*
X791500Y860420D02*
X786420Y870580D01*
X796580D01*
X791500Y860420D01*
X937500Y864670D02*
X932420Y874830D01*
X942580D01*
X937500Y864670D01*
X961750Y865920D02*
X956670Y876080D01*
X966830D01*
X961750Y865920D01*
X986000Y867510D02*
X980920Y877670D01*
X991080D01*
X986000Y867510D01*
X878000Y1019170D02*
X872920Y1029330D01*
X883080D01*
X878000Y1019170D01*
X966250Y1044920D02*
X961170Y1055080D01*
X971330D01*
X966250Y1044920D01*
X943500Y1056670D02*
X938420Y1066830D01*
X948580D01*
X943500Y1056670D01*
X854500Y1032670D02*
X849420Y1042830D01*
X859580D01*
X854500Y1032670D01*
X1003750Y953670D02*
X998670Y963830D01*
X1008830D01*
X1003750Y953670D01*
X993250Y1007670D02*
X988170Y1017830D01*
X998330D01*
X993250Y1007670D01*
X926000Y742920D02*
X920920Y753080D01*
X931080D01*
X926000Y742920D01*
X874250Y687170D02*
X869170Y697330D01*
X879330D01*
X874250Y687170D01*
X1032000Y788670D02*
X1026920Y798830D01*
X1037080D01*
X1032000Y788670D01*
X733750Y1022920D02*
X728670Y1033080D01*
X738830D01*
X733750Y1022920D01*
X842750Y991920D02*
X837670Y1002080D01*
X847830D01*
X842750Y991920D01*
X1003750Y829670D02*
X998670Y839830D01*
X1008830D01*
X1003750Y829670D01*
X822500Y687170D02*
X817420Y697330D01*
X827580D01*
X822500Y687170D01*
X899000D02*
X893920Y697330D01*
X904080D01*
X899000Y687170D01*
X848250D02*
X843170Y697330D01*
X853330D01*
X848250Y687170D01*
X1030750Y673170D02*
X1025670Y683330D01*
X1035830D01*
X1030750Y673170D01*
X1031750Y731170D02*
X1026670Y741330D01*
X1036830D01*
X1031750Y731170D01*
M02*
