M48
;Layer_Color=9474304
;FILE_FORMAT=4:4
METRIC,LZ
;TYPE=PLATED
T01F00S00C0.7000
T02F00S00C0.7112
T03F00S00C0.8000
%
T01
X00728Y008362
Y008489
Y008616
Y008743
T02
X008225Y0069225
X0084825
X0087425
X00899
X0093925Y00691
X00926Y00748
X0103175Y0073625
X0103075Y0067825
X007915Y008655
X0076575Y0088675
X007505Y00907
X0073375Y01028
X008545Y0103775
X00878Y0102425
X0084275Y00997
X00823Y0091275
X0081225Y008905
X009375Y0086975
X0096175Y00871
X00986Y0087259
X0099775Y00892
X0097675Y0091175
X0100375Y0095875
X0099325Y0101275
X0096625Y0105
X009435Y0106175
X0100375Y0083475
X01032Y0079375
T03
X008045Y0062525
X008245
X008445
X008645
X008845
X009045
X009245
X009445
X009645
X009845
X009845Y0108275
X00964501
X00944501
X009245
X009045
X008845
X008645
X008445
X008245
X008045
M30
