G04*
G04 #@! TF.GenerationSoftware,Altium Limited,Altium Designer,25.2.1 (25)*
G04*
G04 Layer_Color=255*
%FSLAX44Y44*%
%MOMM*%
G71*
G04*
G04 #@! TF.SameCoordinates,3A3D6F5A-BCF4-428E-B5E6-7A3BCBBF857E*
G04*
G04*
G04 #@! TF.FilePolarity,Positive*
G04*
G01*
G75*
%ADD15R,0.8000X0.8000*%
G04:AMPARAMS|DCode=16|XSize=0.65mm|YSize=1.65mm|CornerRadius=0.0488mm|HoleSize=0mm|Usage=FLASHONLY|Rotation=180.000|XOffset=0mm|YOffset=0mm|HoleType=Round|Shape=RoundedRectangle|*
%AMROUNDEDRECTD16*
21,1,0.6500,1.5525,0,0,180.0*
21,1,0.5525,1.6500,0,0,180.0*
1,1,0.0975,-0.2763,0.7763*
1,1,0.0975,0.2763,0.7763*
1,1,0.0975,0.2763,-0.7763*
1,1,0.0975,-0.2763,-0.7763*
%
%ADD16ROUNDEDRECTD16*%
G04:AMPARAMS|DCode=17|XSize=0.55mm|YSize=1.7mm|CornerRadius=0.0495mm|HoleSize=0mm|Usage=FLASHONLY|Rotation=0.000|XOffset=0mm|YOffset=0mm|HoleType=Round|Shape=RoundedRectangle|*
%AMROUNDEDRECTD17*
21,1,0.5500,1.6010,0,0,0.0*
21,1,0.4510,1.7000,0,0,0.0*
1,1,0.0990,0.2255,-0.8005*
1,1,0.0990,-0.2255,-0.8005*
1,1,0.0990,-0.2255,0.8005*
1,1,0.0990,0.2255,0.8005*
%
%ADD17ROUNDEDRECTD17*%
%ADD18R,0.9500X0.8000*%
%ADD19R,0.9500X0.9500*%
%ADD25R,1.3000X1.3000*%
%ADD26C,1.3000*%
%ADD30C,1.0500*%
%ADD31R,1.0500X1.0500*%
D15*
X1068750Y821607D02*
D03*
X1053750D02*
D03*
X1053500Y648000D02*
D03*
X1068500D02*
D03*
X1053750Y705035D02*
D03*
X1068750D02*
D03*
X1053750Y763321D02*
D03*
X1068750D02*
D03*
X1053750Y879893D02*
D03*
X1068750D02*
D03*
X1053750Y996464D02*
D03*
X1068750D02*
D03*
X1053750Y1054750D02*
D03*
X1068750D02*
D03*
X1053750Y938178D02*
D03*
X1068750D02*
D03*
D16*
X822700Y997250D02*
D03*
X810000D02*
D03*
X797300D02*
D03*
X784600D02*
D03*
X771900D02*
D03*
X759200D02*
D03*
X746500D02*
D03*
X733800D02*
D03*
X822700Y940750D02*
D03*
X810000D02*
D03*
X797300D02*
D03*
X784600D02*
D03*
X771900D02*
D03*
X759200D02*
D03*
X746500D02*
D03*
X733800D02*
D03*
X978450Y997000D02*
D03*
X965750D02*
D03*
X953050D02*
D03*
X940350D02*
D03*
X927650D02*
D03*
X914950D02*
D03*
X902250D02*
D03*
X889550D02*
D03*
X978450Y940501D02*
D03*
X965750D02*
D03*
X953050D02*
D03*
X940350D02*
D03*
X927650D02*
D03*
X914950D02*
D03*
X902250D02*
D03*
X889550D02*
D03*
D17*
X823600Y716500D02*
D03*
X836300D02*
D03*
X849000D02*
D03*
X861700D02*
D03*
X874400D02*
D03*
X887100D02*
D03*
X899800D02*
D03*
X912500D02*
D03*
X925200D02*
D03*
X937900D02*
D03*
X823600Y809500D02*
D03*
X836300D02*
D03*
X849000D02*
D03*
X861700D02*
D03*
X874400D02*
D03*
X887100D02*
D03*
X899800D02*
D03*
X912500D02*
D03*
X925200D02*
D03*
X937900D02*
D03*
D18*
X1031750Y660750D02*
D03*
Y647250D02*
D03*
X1032000Y717857D02*
D03*
Y704357D02*
D03*
Y776214D02*
D03*
Y762714D02*
D03*
Y834572D02*
D03*
Y821072D02*
D03*
Y892929D02*
D03*
Y879429D02*
D03*
Y951286D02*
D03*
Y937786D02*
D03*
X1032000Y1002893D02*
D03*
Y989393D02*
D03*
X1033250Y1059750D02*
D03*
Y1046250D02*
D03*
D19*
X780000Y806750D02*
D03*
Y794250D02*
D03*
D25*
X804500Y1082750D02*
D03*
X804500Y625250D02*
D03*
D26*
X824500Y1082750D02*
D03*
X844500D02*
D03*
X864500D02*
D03*
X884500D02*
D03*
X904500D02*
D03*
X924500D02*
D03*
X944501D02*
D03*
X964501D02*
D03*
X984500D02*
D03*
X984500Y625250D02*
D03*
X964500D02*
D03*
X944500D02*
D03*
X924500D02*
D03*
X904500D02*
D03*
X884500D02*
D03*
X864500D02*
D03*
X844500D02*
D03*
X824500D02*
D03*
D30*
X728000Y861600D02*
D03*
Y848900D02*
D03*
Y836200D02*
D03*
D31*
Y874300D02*
D03*
M02*
