M48
;Layer_Color=9474304
;FILE_FORMAT=4:4
METRIC
;TYPE=PLATED
T01F00S00C0.7000
T02F00S00C0.7112
T03F00S00C0.8000
%
T01
X00728000Y00836200
Y00848900
Y00861600
Y00874300
T02
X00822500Y00692250
X00848250
X00874250
X00899000
X00939250Y00691000
X00926000Y00748000
X01031750Y00736250
X01030750Y00678250
X00791500Y00865500
X00765750Y00886750
X00750500Y00907000
X00733750Y01028000
X00854500Y01037750
X00878000Y01024250
X00842750Y00997000
X00823000Y00912750
X00812250Y00890500
X00937500Y00869750
X00961750Y00871000
X00986000Y00872590
X00997750Y00892000
X00976750Y00911750
X01003750Y00958750
X00993250Y01012750
X00966250Y01050000
X00943500Y01061750
X01003750Y00834750
X01032000Y00793750
T03
X00804500Y00625250
X00824500
X00844500
X00864500
X00884500
X00904500
X00924500
X00944500
X00964500
X00984500
X00984500Y01082750
X00964501
X00944501
X00924500
X00904500
X00884500
X00864500
X00844500
X00824500
X00804500
M30
