G04*
G04 #@! TF.GenerationSoftware,Altium Limited,Altium Designer,25.2.1 (25)*
G04*
G04 Layer_Physical_Order=2*
G04 Layer_Color=16711680*
%FSLAX44Y44*%
%MOMM*%
G71*
G04*
G04 #@! TF.SameCoordinates,3A3D6F5A-BCF4-428E-B5E6-7A3BCBBF857E*
G04*
G04*
G04 #@! TF.FilePolarity,Positive*
G04*
G01*
G75*
%ADD14C,0.2540*%
%ADD25R,1.3000X1.3000*%
%ADD26C,1.3000*%
%ADD30C,1.0500*%
%ADD31R,1.0500X1.0500*%
%ADD32C,1.2700*%
G36*
X1099000Y604000D02*
X1099000Y604000D01*
X699000D01*
Y1101478D01*
X699000Y1104000D01*
X701386Y1104000D01*
X1099000D01*
Y604000D01*
D02*
G37*
%LPC*%
G36*
X999762Y1099385D02*
X738000D01*
X736513Y1099089D01*
X735253Y1098247D01*
X731003Y1093997D01*
X730161Y1092737D01*
X729865Y1091250D01*
Y1036022D01*
X728291Y1035114D01*
X726636Y1033459D01*
X725466Y1031431D01*
X724860Y1029170D01*
Y1026830D01*
X725466Y1024569D01*
X726636Y1022541D01*
X728291Y1020886D01*
X730319Y1019716D01*
X732580Y1019110D01*
X734920D01*
X737181Y1019716D01*
X739209Y1020886D01*
X740864Y1022541D01*
X742034Y1024569D01*
X742640Y1026830D01*
Y1029170D01*
X742034Y1031431D01*
X740864Y1033459D01*
X739209Y1035114D01*
X737635Y1036022D01*
Y1089641D01*
X739609Y1091615D01*
X795460D01*
Y1073710D01*
X813540D01*
Y1078912D01*
X816076Y1079261D01*
X817266Y1077199D01*
X818950Y1075516D01*
X821011Y1074326D01*
X823310Y1073710D01*
X825690D01*
X827990Y1074326D01*
X830051Y1075516D01*
X831734Y1077199D01*
X832924Y1079261D01*
X833185Y1080236D01*
X835815D01*
X836076Y1079261D01*
X837266Y1077199D01*
X838950Y1075516D01*
X841011Y1074326D01*
X843310Y1073710D01*
X845690D01*
X847990Y1074326D01*
X850051Y1075516D01*
X851734Y1077199D01*
X852924Y1079261D01*
X853185Y1080236D01*
X855815D01*
X856076Y1079261D01*
X857266Y1077199D01*
X858950Y1075516D01*
X861011Y1074326D01*
X863310Y1073710D01*
X865690D01*
X867990Y1074326D01*
X870051Y1075516D01*
X871734Y1077199D01*
X872924Y1079261D01*
X873185Y1080236D01*
X875815D01*
X876076Y1079261D01*
X877266Y1077199D01*
X878949Y1075516D01*
X881011Y1074326D01*
X883310Y1073710D01*
X885690D01*
X887989Y1074326D01*
X890051Y1075516D01*
X891734Y1077199D01*
X892924Y1079261D01*
X893185Y1080236D01*
X895815D01*
X896076Y1079261D01*
X897266Y1077199D01*
X898949Y1075516D01*
X901011Y1074326D01*
X903310Y1073710D01*
X905690D01*
X907989Y1074326D01*
X910051Y1075516D01*
X911734Y1077199D01*
X912924Y1079261D01*
X913185Y1080236D01*
X915815D01*
X916076Y1079261D01*
X917266Y1077199D01*
X918949Y1075516D01*
X921011Y1074326D01*
X923310Y1073710D01*
X925690D01*
X927989Y1074326D01*
X930051Y1075516D01*
X931734Y1077199D01*
X932924Y1079261D01*
X933186Y1080237D01*
X935815D01*
X936077Y1079261D01*
X937267Y1077199D01*
X938950Y1075516D01*
X941011Y1074326D01*
X943310Y1073710D01*
X945691D01*
X947990Y1074326D01*
X950051Y1075516D01*
X951734Y1077199D01*
X952924Y1079261D01*
X953186Y1080236D01*
X955815D01*
X956077Y1079261D01*
X957267Y1077199D01*
X958950Y1075516D01*
X961011Y1074326D01*
X963310Y1073710D01*
X965691D01*
X967990Y1074326D01*
X970051Y1075516D01*
X971734Y1077199D01*
X972924Y1079261D01*
X973186Y1080236D01*
X975815D01*
X976077Y1079261D01*
X977267Y1077199D01*
X978950Y1075516D01*
X981011Y1074326D01*
X983310Y1073710D01*
X985691D01*
X986615Y1073001D01*
Y1043609D01*
X984641Y1041635D01*
X974049D01*
X972997Y1044175D01*
X973364Y1044541D01*
X974534Y1046569D01*
X975140Y1048830D01*
Y1051170D01*
X974534Y1053431D01*
X973364Y1055459D01*
X971709Y1057114D01*
X969681Y1058284D01*
X967420Y1058890D01*
X965080D01*
X962819Y1058284D01*
X960791Y1057114D01*
X959136Y1055459D01*
X958227Y1053885D01*
X951799D01*
X950841Y1055831D01*
X950691Y1056425D01*
X951784Y1058319D01*
X952390Y1060580D01*
Y1062920D01*
X951784Y1065181D01*
X950614Y1067209D01*
X948959Y1068864D01*
X946931Y1070034D01*
X944670Y1070640D01*
X942330D01*
X940069Y1070034D01*
X938041Y1068864D01*
X936386Y1067209D01*
X935622Y1065885D01*
X767500D01*
X766013Y1065589D01*
X764753Y1064747D01*
X747753Y1047747D01*
X746911Y1046487D01*
X746615Y1045000D01*
Y915023D01*
X745041Y914114D01*
X743386Y912459D01*
X742216Y910431D01*
X741610Y908170D01*
Y905830D01*
X742216Y903569D01*
X743386Y901541D01*
X745041Y899886D01*
X747069Y898716D01*
X749330Y898110D01*
X751670D01*
X753931Y898716D01*
X755959Y899886D01*
X757614Y901541D01*
X758784Y903569D01*
X759356Y905702D01*
X759390Y905830D01*
X761010Y905727D01*
Y905727D01*
X761010Y905727D01*
X761865Y903542D01*
Y894772D01*
X760291Y893864D01*
X758636Y892209D01*
X757466Y890181D01*
X756860Y887920D01*
Y885580D01*
X757466Y883319D01*
X758636Y881291D01*
X760291Y879636D01*
X762319Y878466D01*
X764580Y877860D01*
X766920D01*
X769181Y878466D01*
X771209Y879636D01*
X772864Y881291D01*
X774034Y883319D01*
X774640Y885580D01*
Y887920D01*
X774034Y890181D01*
X772864Y892209D01*
X771209Y893864D01*
X769635Y894772D01*
Y1034403D01*
X781347Y1046115D01*
X846701D01*
X847753Y1043575D01*
X847386Y1043209D01*
X846216Y1041181D01*
X845610Y1038920D01*
Y1036580D01*
X846216Y1034319D01*
X847386Y1032291D01*
X849041Y1030636D01*
X851069Y1029466D01*
X853330Y1028860D01*
X855670D01*
X857931Y1029466D01*
X859959Y1030636D01*
X861614Y1032291D01*
X862523Y1033865D01*
X871794D01*
X872499Y1031505D01*
X872503Y1031325D01*
X870886Y1029709D01*
X869716Y1027681D01*
X869110Y1025420D01*
Y1023080D01*
X869716Y1020819D01*
X870665Y1019175D01*
X870213Y1017780D01*
X869451Y1016635D01*
X844238D01*
X842751Y1016339D01*
X841491Y1015497D01*
X840003Y1014009D01*
X839161Y1012749D01*
X838865Y1011262D01*
Y1005023D01*
X837291Y1004114D01*
X835636Y1002459D01*
X834466Y1000431D01*
X833860Y998170D01*
Y995830D01*
X834466Y993569D01*
X835636Y991541D01*
X837291Y989886D01*
X839319Y988716D01*
X841580Y988110D01*
X843920D01*
X846181Y988716D01*
X848209Y989886D01*
X849864Y991541D01*
X851034Y993569D01*
X851640Y995830D01*
Y998170D01*
X851034Y1000431D01*
X849864Y1002459D01*
X848209Y1004114D01*
X846635Y1005023D01*
Y1008865D01*
X985228D01*
X986136Y1007291D01*
X987791Y1005636D01*
X989819Y1004466D01*
X992080Y1003860D01*
X994420D01*
X996681Y1004466D01*
X998709Y1005636D01*
X1000364Y1007291D01*
X1001273Y1008865D01*
X1072115D01*
Y631359D01*
X1069891Y629135D01*
X992696D01*
X991734Y630801D01*
X990051Y632484D01*
X987989Y633674D01*
X985690Y634290D01*
X983310D01*
X981011Y633674D01*
X978949Y632484D01*
X977266Y630801D01*
X976076Y628739D01*
X975815Y627764D01*
X973185D01*
X972924Y628739D01*
X971734Y630801D01*
X970051Y632484D01*
X968385Y633446D01*
Y739012D01*
X968089Y740499D01*
X967247Y741759D01*
X958259Y750747D01*
X956999Y751589D01*
X955810Y751825D01*
X956060Y754365D01*
X1010365D01*
Y679738D01*
X1010661Y678251D01*
X1011503Y676991D01*
X1012991Y675503D01*
X1014251Y674661D01*
X1015738Y674365D01*
X1022728D01*
X1023636Y672791D01*
X1025291Y671136D01*
X1027319Y669966D01*
X1029580Y669360D01*
X1031920D01*
X1034181Y669966D01*
X1036209Y671136D01*
X1037864Y672791D01*
X1038917Y674615D01*
X1056250D01*
X1057737Y674911D01*
X1058997Y675753D01*
X1063247Y680003D01*
X1064089Y681263D01*
X1064385Y682750D01*
Y865750D01*
X1064089Y867237D01*
X1063247Y868497D01*
X1056407Y875337D01*
X1055147Y876179D01*
X1053660Y876475D01*
X994023D01*
X993114Y878049D01*
X991459Y879704D01*
X989431Y880874D01*
X987170Y881480D01*
X984830D01*
X982569Y880874D01*
X980541Y879704D01*
X978886Y878049D01*
X977716Y876021D01*
X977110Y873760D01*
Y871420D01*
X977716Y869159D01*
X977891Y868855D01*
X976425Y866315D01*
X971929D01*
X970170Y868074D01*
X970640Y869830D01*
Y872170D01*
X970034Y874431D01*
X968864Y876459D01*
X967209Y878114D01*
X965181Y879284D01*
X962920Y879890D01*
X960580D01*
X958319Y879284D01*
X956291Y878114D01*
X954636Y876459D01*
X953466Y874431D01*
X952860Y872170D01*
Y869830D01*
X953466Y867569D01*
X954636Y865541D01*
X956291Y863886D01*
X958319Y862716D01*
X960580Y862110D01*
X962920D01*
X964676Y862580D01*
X967573Y859683D01*
X968833Y858841D01*
X970320Y858545D01*
X1045099D01*
Y769135D01*
X910250D01*
X908763Y768839D01*
X907503Y767997D01*
X871503Y731997D01*
X870661Y730737D01*
X870365Y729250D01*
Y700273D01*
X868791Y699364D01*
X867136Y697709D01*
X865966Y695681D01*
X865360Y693420D01*
Y691080D01*
X865966Y688819D01*
X867136Y686791D01*
X868791Y685136D01*
X869254Y681936D01*
X869019Y681585D01*
X853481D01*
X853246Y681936D01*
X853709Y685136D01*
X855364Y686791D01*
X856534Y688819D01*
X857140Y691080D01*
Y693420D01*
X856534Y695681D01*
X855364Y697709D01*
X853709Y699364D01*
X852135Y700273D01*
Y782641D01*
X859359Y789865D01*
X1023978D01*
X1024886Y788291D01*
X1026541Y786636D01*
X1028569Y785466D01*
X1030830Y784860D01*
X1033170D01*
X1035431Y785466D01*
X1037459Y786636D01*
X1039114Y788291D01*
X1040284Y790319D01*
X1040890Y792580D01*
Y794920D01*
X1040284Y797181D01*
X1039114Y799209D01*
X1037459Y800864D01*
X1035885Y801773D01*
Y849012D01*
X1035589Y850499D01*
X1034747Y851759D01*
X1032509Y853997D01*
X1031249Y854839D01*
X1029762Y855135D01*
X957609D01*
X945920Y866824D01*
X946390Y868580D01*
Y870920D01*
X945784Y873181D01*
X944614Y875209D01*
X942959Y876864D01*
X940931Y878034D01*
X938670Y878640D01*
X936330D01*
X934069Y878034D01*
X932041Y876864D01*
X930386Y875209D01*
X929216Y873181D01*
X928610Y870920D01*
Y868580D01*
X929216Y866319D01*
X930386Y864291D01*
X932041Y862636D01*
X934069Y861466D01*
X936330Y860860D01*
X938670D01*
X940426Y861330D01*
X953253Y848503D01*
X954513Y847661D01*
X956000Y847365D01*
X1028115D01*
Y801773D01*
X1026541Y800864D01*
X1024886Y799209D01*
X1023978Y797635D01*
X857750D01*
X856263Y797339D01*
X855003Y796497D01*
X845503Y786997D01*
X844661Y785737D01*
X844365Y784250D01*
Y700273D01*
X842791Y699364D01*
X841136Y697709D01*
X839966Y695681D01*
X839360Y693420D01*
Y691080D01*
X839966Y688819D01*
X841136Y686791D01*
X842791Y685136D01*
X843254Y681936D01*
X843019Y681585D01*
X827731Y681585D01*
X827496Y681936D01*
X827959Y685136D01*
X829614Y686791D01*
X830784Y688819D01*
X831390Y691080D01*
Y693420D01*
X830784Y695681D01*
X829614Y697709D01*
X827959Y699364D01*
X826385Y700273D01*
Y825391D01*
X830859Y829865D01*
X992500D01*
X993987Y830161D01*
X996636Y829291D01*
X998291Y827636D01*
X1000319Y826466D01*
X1002580Y825860D01*
X1004920D01*
X1007181Y826466D01*
X1009209Y827636D01*
X1010864Y829291D01*
X1012034Y831319D01*
X1012640Y833580D01*
Y835920D01*
X1012034Y838181D01*
X1010864Y840209D01*
X1009209Y841864D01*
X1007181Y843034D01*
X1004920Y843640D01*
X1002580D01*
X1000319Y843034D01*
X998291Y841864D01*
X996636Y840209D01*
X994987Y838339D01*
X993500Y838635D01*
X992013Y838339D01*
X990959Y837635D01*
X829250D01*
X827763Y837339D01*
X826503Y836497D01*
X819753Y829747D01*
X818911Y828487D01*
X818615Y827000D01*
Y700273D01*
X817041Y699364D01*
X815386Y697709D01*
X814216Y695681D01*
X813610Y693420D01*
Y691080D01*
X814216Y688819D01*
X815386Y686791D01*
X817041Y685136D01*
X817504Y681936D01*
X817269Y681585D01*
X731884D01*
Y829448D01*
X732783Y829967D01*
X734233Y831417D01*
X735259Y833193D01*
X735790Y835174D01*
Y837226D01*
X735259Y839207D01*
X734233Y840983D01*
X732883Y842550D01*
X734233Y844117D01*
X735259Y845893D01*
X735790Y847875D01*
Y849926D01*
X735259Y851907D01*
X734233Y853683D01*
X732883Y855250D01*
X734233Y856817D01*
X735259Y858593D01*
X735790Y860574D01*
Y862626D01*
X735430Y863970D01*
X735790Y866510D01*
X735790D01*
Y873030D01*
X728000D01*
X720210D01*
Y866510D01*
X720210Y866510D01*
X720570Y863970D01*
X720210Y862626D01*
Y860574D01*
X720741Y858593D01*
X721766Y856817D01*
X723116Y855250D01*
X721766Y853683D01*
X720741Y851907D01*
X720210Y849926D01*
Y847875D01*
X720741Y845893D01*
X721766Y844117D01*
X723116Y842550D01*
X721766Y840983D01*
X720741Y839207D01*
X720210Y837226D01*
Y835174D01*
X720741Y833193D01*
X721766Y831417D01*
X723217Y829967D01*
X724115Y829448D01*
Y679700D01*
X724411Y678214D01*
X725253Y676954D01*
X727253Y674953D01*
X728513Y674111D01*
X730000Y673815D01*
X925950Y673815D01*
X927437Y674111D01*
X928697Y674953D01*
X936324Y682580D01*
X938080Y682110D01*
X940420D01*
X942681Y682716D01*
X944709Y683886D01*
X946364Y685541D01*
X947534Y687569D01*
X948140Y689830D01*
Y692170D01*
X947534Y694431D01*
X946364Y696459D01*
X944709Y698114D01*
X942681Y699284D01*
X940420Y699890D01*
X938080D01*
X935819Y699284D01*
X933791Y698114D01*
X932136Y696459D01*
X930966Y694431D01*
X930360Y692170D01*
Y689830D01*
X930830Y688074D01*
X924341Y681585D01*
X904231D01*
X903996Y681936D01*
X904459Y685136D01*
X906114Y686791D01*
X907284Y688819D01*
X907890Y691080D01*
Y693420D01*
X907284Y695681D01*
X906114Y697709D01*
X904459Y699364D01*
X902885Y700273D01*
Y736141D01*
X914570Y747826D01*
X917110Y746830D01*
X917716Y744569D01*
X918886Y742541D01*
X920541Y740886D01*
X922569Y739716D01*
X924830Y739110D01*
X927170D01*
X929431Y739716D01*
X931459Y740886D01*
X933114Y742541D01*
X934023Y744115D01*
X953903D01*
X960615Y737403D01*
Y633446D01*
X958949Y632484D01*
X957266Y630801D01*
X956076Y628739D01*
X955815Y627764D01*
X953185D01*
X952924Y628739D01*
X951734Y630801D01*
X950051Y632484D01*
X947989Y633674D01*
X945690Y634290D01*
X943310D01*
X941011Y633674D01*
X938949Y632484D01*
X937266Y630801D01*
X936076Y628739D01*
X935815Y627764D01*
X933185D01*
X932924Y628739D01*
X931734Y630801D01*
X930051Y632484D01*
X927989Y633674D01*
X925690Y634290D01*
X923310D01*
X921011Y633674D01*
X918949Y632484D01*
X917266Y630801D01*
X916076Y628739D01*
X915815Y627764D01*
X913185D01*
X912924Y628739D01*
X911734Y630801D01*
X910051Y632484D01*
X907989Y633674D01*
X905690Y634290D01*
X903310D01*
X901011Y633674D01*
X898949Y632484D01*
X897266Y630801D01*
X896076Y628739D01*
X895815Y627764D01*
X893185D01*
X892924Y628739D01*
X891734Y630801D01*
X890051Y632484D01*
X887989Y633674D01*
X885690Y634290D01*
X883310D01*
X881011Y633674D01*
X878949Y632484D01*
X877266Y630801D01*
X876076Y628739D01*
X875815Y627764D01*
X873185D01*
X872924Y628739D01*
X871734Y630801D01*
X870051Y632484D01*
X867990Y633674D01*
X865690Y634290D01*
X863310D01*
X861011Y633674D01*
X858950Y632484D01*
X857266Y630801D01*
X856076Y628739D01*
X855815Y627764D01*
X853185D01*
X852924Y628739D01*
X851734Y630801D01*
X850051Y632484D01*
X847990Y633674D01*
X845690Y634290D01*
X843310D01*
X841011Y633674D01*
X838950Y632484D01*
X837266Y630801D01*
X836076Y628739D01*
X835815Y627764D01*
X833185D01*
X832924Y628739D01*
X831734Y630801D01*
X830051Y632484D01*
X827990Y633674D01*
X825690Y634290D01*
X823310D01*
X821011Y633674D01*
X818950Y632484D01*
X817266Y630801D01*
X816076Y628739D01*
X813540Y629086D01*
Y634290D01*
X795460D01*
Y616210D01*
X813540D01*
Y621413D01*
X816076Y621761D01*
X817266Y619699D01*
X818950Y618016D01*
X821011Y616826D01*
X823310Y616210D01*
X825690D01*
X827990Y616826D01*
X830051Y618016D01*
X831734Y619699D01*
X832924Y621761D01*
X833185Y622736D01*
X835815D01*
X836076Y621761D01*
X837266Y619699D01*
X838950Y618016D01*
X841011Y616826D01*
X843310Y616210D01*
X845690D01*
X847990Y616826D01*
X850051Y618016D01*
X851734Y619699D01*
X852924Y621761D01*
X853185Y622736D01*
X855815D01*
X856076Y621761D01*
X857266Y619699D01*
X858950Y618016D01*
X861011Y616826D01*
X863310Y616210D01*
X865690D01*
X867990Y616826D01*
X870051Y618016D01*
X871734Y619699D01*
X872924Y621761D01*
X873185Y622736D01*
X875815D01*
X876076Y621761D01*
X877266Y619699D01*
X878949Y618016D01*
X881011Y616826D01*
X883310Y616210D01*
X885690D01*
X887989Y616826D01*
X890051Y618016D01*
X891734Y619699D01*
X892924Y621761D01*
X893185Y622736D01*
X895815D01*
X896076Y621761D01*
X897266Y619699D01*
X898949Y618016D01*
X901011Y616826D01*
X903310Y616210D01*
X905690D01*
X907989Y616826D01*
X910051Y618016D01*
X911734Y619699D01*
X912924Y621761D01*
X913185Y622736D01*
X915815D01*
X916076Y621761D01*
X917266Y619699D01*
X918949Y618016D01*
X921011Y616826D01*
X923310Y616210D01*
X925690D01*
X927989Y616826D01*
X930051Y618016D01*
X931734Y619699D01*
X932924Y621761D01*
X933185Y622736D01*
X935815D01*
X936076Y621761D01*
X937266Y619699D01*
X938949Y618016D01*
X941011Y616826D01*
X943310Y616210D01*
X945690D01*
X947989Y616826D01*
X950051Y618016D01*
X951734Y619699D01*
X952924Y621761D01*
X953185Y622736D01*
X955815D01*
X956076Y621761D01*
X957266Y619699D01*
X958949Y618016D01*
X961011Y616826D01*
X963310Y616210D01*
X965690D01*
X967989Y616826D01*
X970051Y618016D01*
X971734Y619699D01*
X972924Y621761D01*
X973185Y622736D01*
X975815D01*
X976076Y621761D01*
X977266Y619699D01*
X978949Y618016D01*
X981011Y616826D01*
X983310Y616210D01*
X985690D01*
X987989Y616826D01*
X990051Y618016D01*
X991734Y619699D01*
X992696Y621365D01*
X1071500D01*
X1072987Y621661D01*
X1074247Y622503D01*
X1078747Y627003D01*
X1079589Y628263D01*
X1079885Y629750D01*
Y1011262D01*
X1079589Y1012749D01*
X1078747Y1014009D01*
X1077259Y1015497D01*
X1075999Y1016339D01*
X1074512Y1016635D01*
X1001801D01*
X1000096Y1018687D01*
X1000247Y1021497D01*
X1000338Y1021595D01*
X1003997Y1025253D01*
X1004839Y1026513D01*
X1005135Y1028000D01*
Y1094012D01*
X1004839Y1095499D01*
X1003997Y1096759D01*
X1002509Y1098247D01*
X1001249Y1099089D01*
X999762Y1099385D01*
D02*
G37*
G36*
X1004920Y967640D02*
X1002580D01*
X1000319Y967034D01*
X998291Y965864D01*
X997062Y964635D01*
X795250D01*
X793763Y964339D01*
X792503Y963497D01*
X780603Y951597D01*
X779761Y950337D01*
X779466Y948850D01*
Y873650D01*
X779761Y872163D01*
X780603Y870903D01*
X783080Y868426D01*
X782610Y866670D01*
Y864330D01*
X783216Y862069D01*
X784386Y860041D01*
X786041Y858386D01*
X788069Y857216D01*
X790330Y856610D01*
X792670D01*
X794931Y857216D01*
X796959Y858386D01*
X798614Y860041D01*
X799784Y862069D01*
X800390Y864330D01*
Y866670D01*
X799784Y868931D01*
X798614Y870959D01*
X796959Y872614D01*
X794931Y873784D01*
X792670Y874390D01*
X790330D01*
X789301Y874114D01*
X787235Y875850D01*
Y947241D01*
X796859Y956865D01*
X995051D01*
X995466Y955319D01*
X996636Y953291D01*
X998291Y951636D01*
X1000319Y950466D01*
X1002580Y949860D01*
X1004920D01*
X1007181Y950466D01*
X1009209Y951636D01*
X1010864Y953291D01*
X1012034Y955319D01*
X1012640Y957580D01*
Y959920D01*
X1012034Y962181D01*
X1010864Y964209D01*
X1009209Y965864D01*
X1007181Y967034D01*
X1004920Y967640D01*
D02*
G37*
G36*
X824170Y921640D02*
X821830D01*
X819569Y921034D01*
X817541Y919864D01*
X815886Y918209D01*
X814716Y916181D01*
X814110Y913920D01*
Y911580D01*
X814716Y909319D01*
X815886Y907291D01*
X817541Y905636D01*
X819569Y904466D01*
X821830Y903860D01*
X824170D01*
X826431Y904466D01*
X828459Y905636D01*
X830114Y907291D01*
X830734Y908365D01*
X968453D01*
X968466Y908319D01*
X969636Y906291D01*
X971291Y904636D01*
X973319Y903466D01*
X975580Y902860D01*
X977920D01*
X980181Y903466D01*
X982209Y904636D01*
X983864Y906291D01*
X985034Y908319D01*
X985640Y910580D01*
Y912920D01*
X985034Y915181D01*
X983864Y917209D01*
X982209Y918864D01*
X980181Y920034D01*
X977920Y920640D01*
X975580D01*
X973319Y920034D01*
X971291Y918864D01*
X969636Y917209D01*
X969016Y916135D01*
X831297D01*
X831284Y916181D01*
X830114Y918209D01*
X828459Y919864D01*
X826431Y921034D01*
X824170Y921640D01*
D02*
G37*
G36*
X998920Y900890D02*
X996580D01*
X994319Y900284D01*
X992291Y899114D01*
X990636Y897459D01*
X989466Y895431D01*
X989386Y895135D01*
X819839D01*
X819364Y895959D01*
X817709Y897614D01*
X815681Y898784D01*
X813420Y899390D01*
X811080D01*
X808819Y898784D01*
X806791Y897614D01*
X805136Y895959D01*
X803966Y893931D01*
X803360Y891670D01*
Y889330D01*
X803966Y887069D01*
X805136Y885041D01*
X806791Y883386D01*
X808819Y882216D01*
X811080Y881610D01*
X813420D01*
X815681Y882216D01*
X817709Y883386D01*
X819364Y885041D01*
X820534Y887069D01*
X820614Y887365D01*
X990161D01*
X990636Y886541D01*
X992291Y884886D01*
X994319Y883716D01*
X996580Y883110D01*
X998920D01*
X1001181Y883716D01*
X1003209Y884886D01*
X1004864Y886541D01*
X1006034Y888569D01*
X1006640Y890830D01*
Y893170D01*
X1006034Y895431D01*
X1004864Y897459D01*
X1003209Y899114D01*
X1001181Y900284D01*
X998920Y900890D01*
D02*
G37*
G36*
X735790Y882090D02*
X729270D01*
Y875570D01*
X735790D01*
Y882090D01*
D02*
G37*
G36*
X726730D02*
X720210D01*
Y875570D01*
X726730D01*
Y882090D01*
D02*
G37*
%LPD*%
G36*
X958923Y1044911D02*
X959136Y1044541D01*
X959230Y1044448D01*
X959467Y1044089D01*
X958451Y1041635D01*
X862625D01*
X861827Y1042839D01*
X861614Y1043209D01*
X861520Y1043302D01*
X861283Y1043661D01*
X862299Y1046115D01*
X958125D01*
X958923Y1044911D01*
D02*
G37*
G36*
X997365Y1029609D02*
X995891Y1028135D01*
X886022D01*
X885114Y1029709D01*
X883497Y1031325D01*
X883501Y1031505D01*
X884206Y1033865D01*
X986250D01*
X987737Y1034161D01*
X988997Y1035003D01*
X993247Y1039253D01*
X994089Y1040513D01*
X994385Y1042000D01*
Y1076273D01*
X994089Y1077760D01*
X993247Y1079020D01*
X992942Y1079325D01*
X993540Y1081560D01*
Y1083940D01*
X992924Y1086239D01*
X991734Y1088301D01*
X990960Y1089075D01*
X992012Y1091615D01*
X997365D01*
Y1029609D01*
D02*
G37*
G36*
X984668Y1017825D02*
X983846Y1016635D01*
X887915D01*
X886582Y1019175D01*
X887404Y1020365D01*
X983335D01*
X984668Y1017825D01*
D02*
G37*
G36*
X936094Y1056055D02*
X935024Y1053885D01*
X779738D01*
X778251Y1053589D01*
X776991Y1052747D01*
X763003Y1038759D01*
X762161Y1037499D01*
X761865Y1036012D01*
Y910458D01*
X761010Y908272D01*
X761010Y908272D01*
Y908272D01*
X759390Y908170D01*
X759356Y908298D01*
X758784Y910431D01*
X757614Y912459D01*
X755959Y914114D01*
X754385Y915023D01*
Y1043391D01*
X769109Y1058115D01*
X934642D01*
X936094Y1056055D01*
D02*
G37*
G36*
X1056615Y864141D02*
Y684359D01*
X1054641Y682385D01*
X1038628D01*
X1037864Y683709D01*
X1036209Y685364D01*
X1034181Y686534D01*
X1031920Y687140D01*
X1029580D01*
X1027319Y686534D01*
X1025291Y685364D01*
X1023636Y683709D01*
X1022728Y682135D01*
X1018135D01*
Y756762D01*
X1017839Y758249D01*
X1017454Y758825D01*
X1018235Y760834D01*
X1018733Y761365D01*
X1027865D01*
Y744273D01*
X1026291Y743364D01*
X1024636Y741709D01*
X1023466Y739681D01*
X1022860Y737420D01*
Y735080D01*
X1023466Y732819D01*
X1024636Y730791D01*
X1026291Y729136D01*
X1028319Y727966D01*
X1030580Y727360D01*
X1032920D01*
X1035181Y727966D01*
X1037209Y729136D01*
X1038864Y730791D01*
X1040034Y732819D01*
X1040640Y735080D01*
Y737420D01*
X1040034Y739681D01*
X1038864Y741709D01*
X1037209Y743364D01*
X1035635Y744273D01*
Y761365D01*
X1047983D01*
X1049470Y761661D01*
X1050730Y762503D01*
X1051730Y763503D01*
X1052572Y764763D01*
X1052868Y766250D01*
Y860262D01*
X1052572Y861749D01*
X1051730Y863009D01*
X1049562Y865177D01*
X1048302Y866019D01*
X1047566Y866165D01*
X1047816Y868705D01*
X1052051D01*
X1056615Y864141D01*
D02*
G37*
G36*
X912656Y760491D02*
X913563Y757807D01*
X896253Y740497D01*
X895411Y739237D01*
X895115Y737750D01*
Y700273D01*
X893541Y699364D01*
X891886Y697709D01*
X890716Y695681D01*
X890110Y693420D01*
Y691080D01*
X890716Y688819D01*
X891886Y686791D01*
X893541Y685136D01*
X894004Y681936D01*
X893769Y681585D01*
X879481D01*
X879246Y681936D01*
X879709Y685136D01*
X881364Y686791D01*
X882534Y688819D01*
X883140Y691080D01*
Y693420D01*
X882534Y695681D01*
X881364Y697709D01*
X879709Y699364D01*
X878135Y700273D01*
Y727641D01*
X911183Y760689D01*
X912656Y760491D01*
D02*
G37*
D14*
X728000Y679700D02*
Y836200D01*
Y679700D02*
X730000Y677700D01*
X925950Y677700D01*
X939250Y691000D01*
X812250Y890500D02*
X813000Y891250D01*
X997000D01*
X997750Y892000D01*
X823500Y912250D02*
X973501D01*
X823000Y912750D02*
X823500Y912250D01*
X973501D02*
X974001Y911750D01*
X976750D01*
X733750Y1028000D02*
Y1091250D01*
X750500Y907000D02*
Y1045000D01*
X765750Y1036012D02*
X779738Y1050000D01*
X750500Y1045000D02*
X767500Y1062000D01*
X765750Y886750D02*
Y1036012D01*
X783350Y873650D02*
Y948850D01*
Y873650D02*
X791500Y865500D01*
X986000Y872590D02*
X1053660D01*
X1060500Y865750D01*
X956000Y851250D02*
X1029762D01*
X937500Y869750D02*
X956000Y851250D01*
X961750Y871000D02*
X970320Y862430D01*
X1046815D02*
X1048983Y860262D01*
X970320Y862430D02*
X1046815D01*
X878000Y1024250D02*
X997500D01*
X1001250Y1028000D01*
Y1094012D01*
X999762Y1095500D02*
X1001250Y1094012D01*
X738000Y1095500D02*
X999762D01*
X733750Y1091250D02*
X738000Y1095500D01*
X854500Y1037750D02*
X986250D01*
X779738Y1050000D02*
X966250D01*
X767500Y1062000D02*
X943250D01*
X943500Y1061750D01*
X984500Y1082273D02*
Y1082750D01*
X986250Y1037750D02*
X990500Y1042000D01*
X984500Y1082273D02*
X990500Y1076273D01*
Y1042000D02*
Y1076273D01*
X1076000Y629750D02*
Y1011262D01*
X844238Y1012750D02*
X1074512D01*
X1076000Y1011262D01*
X984500Y625250D02*
X1071500D01*
X1076000Y629750D01*
X997238Y960694D02*
X1001806D01*
X795250Y960750D02*
X997182D01*
X997238Y960694D01*
X1001806D02*
X1003750Y958750D01*
X842750Y1011262D02*
X844238Y1012750D01*
X955512Y748000D02*
X964500Y739012D01*
X926000Y748000D02*
X955512D01*
X964500Y625250D02*
Y739012D01*
X874250Y692250D02*
Y729250D01*
X919500Y758250D02*
X1012762D01*
X1014250Y679738D02*
X1015738Y678250D01*
X1030750D01*
X1012762Y758250D02*
X1014250Y756762D01*
Y679738D02*
Y756762D01*
X899000Y737750D02*
X919500Y758250D01*
X1047983Y765250D02*
X1048983Y766250D01*
X1030262Y765250D02*
X1047983D01*
X1048983Y766250D02*
Y860262D01*
X1031750Y736250D02*
Y763762D01*
X1032000Y793750D02*
Y849012D01*
X857750Y793750D02*
X1032000D01*
X1029762Y851250D02*
X1032000Y849012D01*
X910250Y765250D02*
X1030262D01*
X1031750Y763762D01*
X874250Y729250D02*
X910250Y765250D01*
X899000Y692250D02*
Y737750D01*
X783350Y948850D02*
X795250Y960750D01*
X842750Y997000D02*
Y1011262D01*
X1030750Y678250D02*
X1031000Y678500D01*
X1056250D01*
X1060500Y682750D01*
Y865750D01*
X992500Y833750D02*
X993500Y834750D01*
X829250Y833750D02*
X992500D01*
X822500Y692250D02*
Y827000D01*
X829250Y833750D01*
X848250Y784250D02*
X857750Y793750D01*
X848250Y692250D02*
Y784250D01*
D25*
X804500Y1082750D02*
D03*
X804500Y625250D02*
D03*
D26*
X824500Y1082750D02*
D03*
X844500D02*
D03*
X864500D02*
D03*
X884500D02*
D03*
X904500D02*
D03*
X924500D02*
D03*
X944501D02*
D03*
X964501D02*
D03*
X984500D02*
D03*
X984500Y625250D02*
D03*
X964500D02*
D03*
X944500D02*
D03*
X924500D02*
D03*
X904500D02*
D03*
X884500D02*
D03*
X864500D02*
D03*
X844500D02*
D03*
X824500D02*
D03*
D30*
X728000Y861600D02*
D03*
Y848900D02*
D03*
Y836200D02*
D03*
D31*
Y874300D02*
D03*
D32*
X939250Y691000D02*
D03*
X997750Y892000D02*
D03*
X812250Y890500D02*
D03*
X823000Y912750D02*
D03*
X976750Y911750D02*
D03*
X750500Y907000D02*
D03*
X765750Y886750D02*
D03*
X791500Y865500D02*
D03*
X937500Y869750D02*
D03*
X961750Y871000D02*
D03*
X986000Y872590D02*
D03*
X878000Y1024250D02*
D03*
X966250Y1050000D02*
D03*
X943500Y1061750D02*
D03*
X854500Y1037750D02*
D03*
X1003750Y958750D02*
D03*
X993250Y1012750D02*
D03*
X926000Y748000D02*
D03*
X874250Y692250D02*
D03*
X1032000Y793750D02*
D03*
X733750Y1028000D02*
D03*
X842750Y997000D02*
D03*
X1003750Y834750D02*
D03*
X822500Y692250D02*
D03*
X899000D02*
D03*
X848250D02*
D03*
X1030750Y678250D02*
D03*
X1031750Y736250D02*
D03*
M02*
