G04*
G04 #@! TF.GenerationSoftware,Altium Limited,Altium Designer,25.2.1 (25)*
G04*
G04 Layer_Color=65535*
%FSLAX44Y44*%
%MOMM*%
G71*
G04*
G04 #@! TF.SameCoordinates,3A3D6F5A-BCF4-428E-B5E6-7A3BCBBF857E*
G04*
G04*
G04 #@! TF.FilePolarity,Positive*
G04*
G01*
G75*
%ADD10C,0.6000*%
%ADD11C,0.2500*%
%ADD12C,0.4000*%
%ADD13C,0.2000*%
%ADD14C,0.2540*%
D10*
X741250Y963000D02*
G03*
X741250Y963000I-3000J0D01*
G01*
X897000Y962750D02*
G03*
X897000Y962750I-3000J0D01*
G01*
X938750Y787000D02*
G03*
X938750Y787000I-3000J0D01*
G01*
D11*
X726300Y940750D02*
G03*
X726300Y940750I-1250J0D01*
G01*
X882050Y940500D02*
G03*
X882050Y940500I-1250J0D01*
G01*
X947400Y809500D02*
G03*
X947400Y809500I-1250J0D01*
G01*
D12*
X1077750Y817607D02*
Y825607D01*
X1077500Y644000D02*
Y652000D01*
X1077750Y701035D02*
Y709035D01*
Y759321D02*
Y767321D01*
Y875893D02*
Y883893D01*
Y992464D02*
Y1000464D01*
Y1050750D02*
Y1058750D01*
Y934178D02*
Y942178D01*
D13*
X828250Y953000D02*
Y985000D01*
X728250Y953000D02*
Y985000D01*
X828250D01*
X728250Y953000D02*
X828250D01*
X984000Y952750D02*
Y984750D01*
X884000Y952750D02*
Y984750D01*
X984000D01*
X884000Y952750D02*
X984000D01*
X815750Y729001D02*
Y797001D01*
X945750Y729001D02*
Y797001D01*
X815750Y729001D02*
X945750D01*
X815750Y797001D02*
X945750D01*
D14*
X938270Y1032540D02*
X951265D01*
Y1039038D01*
X949100Y1041204D01*
X940436D01*
X938270Y1039038D01*
Y1032540D01*
Y1045536D02*
Y1054200D01*
X940436D01*
X949100Y1045536D01*
X951265D01*
X980880Y1041204D02*
X978714Y1039038D01*
Y1034706D01*
X980880Y1032540D01*
X989544D01*
X991710Y1034706D01*
Y1039038D01*
X989544Y1041204D01*
X978714Y1045536D02*
X991710D01*
Y1054200D01*
Y1058532D02*
X978714D01*
Y1065030D01*
X980880Y1067195D01*
X985212D01*
X987378Y1065030D01*
Y1058532D01*
Y1062863D02*
X991710Y1067195D01*
X952794Y648954D02*
X944130D01*
X941964Y646788D01*
Y642456D01*
X944130Y640290D01*
X952794D01*
X954960Y642456D01*
Y646788D01*
X950628Y644622D02*
X954960Y648954D01*
Y646788D02*
X952794Y648954D01*
X941964Y653286D02*
Y661950D01*
X944130D01*
X952794Y653286D01*
X954960D01*
X830865Y648954D02*
X822202D01*
X820036Y646788D01*
Y642456D01*
X822202Y640290D01*
X830865D01*
X833031Y642456D01*
Y646788D01*
X828699Y644622D02*
X833031Y648954D01*
Y646788D02*
X830865Y648954D01*
X833031Y653286D02*
Y657618D01*
Y655452D01*
X820036D01*
X822202Y653286D01*
X851187Y648954D02*
X842523D01*
X840357Y646788D01*
Y642456D01*
X842523Y640290D01*
X851187D01*
X853353Y642456D01*
Y646788D01*
X849021Y644622D02*
X853353Y648954D01*
Y646788D02*
X851187Y648954D01*
X853353Y661950D02*
Y653286D01*
X844689Y661950D01*
X842523D01*
X840357Y659784D01*
Y655452D01*
X842523Y653286D01*
X912151Y648954D02*
X903487D01*
X901321Y646788D01*
Y642456D01*
X903487Y640290D01*
X912151D01*
X914317Y642456D01*
Y646788D01*
X909985Y644622D02*
X914317Y648954D01*
Y646788D02*
X912151Y648954D01*
X901321Y661950D02*
Y653286D01*
X907819D01*
X905653Y657618D01*
Y659784D01*
X907819Y661950D01*
X912151D01*
X914317Y659784D01*
Y655452D01*
X912151Y653286D01*
X871508Y648954D02*
X862844D01*
X860678Y646788D01*
Y642456D01*
X862844Y640290D01*
X871508D01*
X873674Y642456D01*
Y646788D01*
X869342Y644622D02*
X873674Y648954D01*
Y646788D02*
X871508Y648954D01*
X862844Y653286D02*
X860678Y655452D01*
Y659784D01*
X862844Y661950D01*
X865010D01*
X867176Y659784D01*
Y657618D01*
Y659784D01*
X869342Y661950D01*
X871508D01*
X873674Y659784D01*
Y655452D01*
X871508Y653286D01*
X971960Y640040D02*
X958964D01*
Y646538D01*
X961130Y648704D01*
X965462D01*
X967628Y646538D01*
Y640040D01*
Y644372D02*
X971960Y648704D01*
X958964Y661700D02*
Y653036D01*
X971960D01*
Y661700D01*
X965462Y653036D02*
Y657368D01*
X810544Y648954D02*
X801880D01*
X799714Y646788D01*
Y642456D01*
X801880Y640290D01*
X810544D01*
X812710Y642456D01*
Y646788D01*
X808378Y644622D02*
X812710Y648954D01*
Y646788D02*
X810544Y648954D01*
X801880Y653286D02*
X799714Y655452D01*
Y659784D01*
X801880Y661950D01*
X810544D01*
X812710Y659784D01*
Y655452D01*
X810544Y653286D01*
X801880D01*
X977964Y639790D02*
X990960D01*
X986628Y644122D01*
X990960Y648454D01*
X977964D01*
Y661450D02*
Y652786D01*
X990960D01*
Y661450D01*
X984462Y652786D02*
Y657118D01*
X891830Y648954D02*
X883166D01*
X881000Y646788D01*
Y642456D01*
X883166Y640290D01*
X891830D01*
X893996Y642456D01*
Y646788D01*
X889664Y644622D02*
X893996Y648954D01*
Y646788D02*
X891830Y648954D01*
X893996Y659784D02*
X881000D01*
X887498Y653286D01*
Y661950D01*
X932473Y648954D02*
X923809D01*
X921643Y646788D01*
Y642456D01*
X923809Y640290D01*
X932473D01*
X934639Y642456D01*
Y646788D01*
X930306Y644622D02*
X934639Y648954D01*
Y646788D02*
X932473Y648954D01*
X921643Y661950D02*
X923809Y657618D01*
X928141Y653286D01*
X932473D01*
X934639Y655452D01*
Y659784D01*
X932473Y661950D01*
X930306D01*
X928141Y659784D01*
Y653286D01*
X816936Y1032540D02*
X829932D01*
Y1039038D01*
X827766Y1041204D01*
X819102D01*
X816936Y1039038D01*
Y1032540D01*
X829932Y1045536D02*
Y1049868D01*
Y1047702D01*
X816936D01*
X819102Y1045536D01*
X837159Y1032540D02*
X850154D01*
Y1039038D01*
X847989Y1041204D01*
X839325D01*
X837159Y1039038D01*
Y1032540D01*
X850154Y1054200D02*
Y1045536D01*
X841491Y1054200D01*
X839325D01*
X837159Y1052034D01*
Y1047702D01*
X839325Y1045536D01*
X796714Y1032540D02*
X809710D01*
Y1039038D01*
X807544Y1041204D01*
X798880D01*
X796714Y1039038D01*
Y1032540D01*
X798880Y1045536D02*
X796714Y1047702D01*
Y1052034D01*
X798880Y1054200D01*
X807544D01*
X809710Y1052034D01*
Y1047702D01*
X807544Y1045536D01*
X798880D01*
X877603Y1032540D02*
X890599D01*
Y1039038D01*
X888433Y1041204D01*
X879769D01*
X877603Y1039038D01*
Y1032540D01*
X890599Y1052034D02*
X877603D01*
X884101Y1045536D01*
Y1054200D01*
X960658Y1041204D02*
X958492Y1039038D01*
Y1034706D01*
X960658Y1032540D01*
X969322D01*
X971488Y1034706D01*
Y1039038D01*
X969322Y1041204D01*
X958492Y1045536D02*
X971488D01*
Y1054200D01*
X958492Y1058532D02*
X971488D01*
X967156D01*
X958492Y1067196D01*
X964990Y1060697D01*
X971488Y1067196D01*
X918047Y1032540D02*
X931043D01*
Y1039038D01*
X928877Y1041204D01*
X920213D01*
X918047Y1039038D01*
Y1032540D01*
Y1054200D02*
X920213Y1049868D01*
X924545Y1045536D01*
X928877D01*
X931043Y1047702D01*
Y1052034D01*
X928877Y1054200D01*
X926711D01*
X924545Y1052034D01*
Y1045536D01*
X897825Y1032540D02*
X910821D01*
Y1039038D01*
X908655Y1041204D01*
X899991D01*
X897825Y1039038D01*
Y1032540D01*
Y1054200D02*
Y1045536D01*
X904323D01*
X902157Y1049868D01*
Y1052034D01*
X904323Y1054200D01*
X908655D01*
X910821Y1052034D01*
Y1047702D01*
X908655Y1045536D01*
X857381Y1032540D02*
X870377D01*
Y1039038D01*
X868211Y1041204D01*
X859547D01*
X857381Y1039038D01*
Y1032540D01*
X859547Y1045536D02*
X857381Y1047702D01*
Y1052034D01*
X859547Y1054200D01*
X861713D01*
X863879Y1052034D01*
Y1049868D01*
Y1052034D01*
X866045Y1054200D01*
X868211D01*
X870377Y1052034D01*
Y1047702D01*
X868211Y1045536D01*
X972117Y773696D02*
X959422D01*
X956882Y771157D01*
Y766078D01*
X959422Y763539D01*
X972117D01*
X969578Y758461D02*
X972117Y755922D01*
Y750843D01*
X969578Y748304D01*
X967039D01*
X964500Y750843D01*
Y753382D01*
Y750843D01*
X961961Y748304D01*
X959422D01*
X956882Y750843D01*
Y755922D01*
X959422Y758461D01*
X863132Y953554D02*
X875828D01*
X878367Y956093D01*
Y961172D01*
X875828Y963711D01*
X863132D01*
X878367Y978946D02*
Y968789D01*
X868211Y978946D01*
X865672D01*
X863132Y976407D01*
Y971328D01*
X865672Y968789D01*
X707632Y958093D02*
X720328D01*
X722868Y960632D01*
Y965711D01*
X720328Y968250D01*
X707632D01*
X722868Y973328D02*
Y978407D01*
Y975867D01*
X707632D01*
X710172Y973328D01*
X1019748Y643920D02*
X1009752D01*
Y648918D01*
X1011418Y650584D01*
X1014750D01*
X1016416Y648918D01*
Y643920D01*
Y647252D02*
X1019748Y650584D01*
X1011418Y653916D02*
X1009752Y655583D01*
Y658915D01*
X1011418Y660581D01*
X1013084D01*
X1014750Y658915D01*
X1016416Y660581D01*
X1018082D01*
X1019748Y658915D01*
Y655583D01*
X1018082Y653916D01*
X1016416D01*
X1014750Y655583D01*
X1013084Y653916D01*
X1011418D01*
X1014750Y655583D02*
Y658915D01*
X1021498Y698777D02*
X1011502D01*
Y703775D01*
X1013168Y705441D01*
X1016500D01*
X1018166Y703775D01*
Y698777D01*
Y702109D02*
X1021498Y705441D01*
X1011502Y708773D02*
Y715438D01*
X1013168D01*
X1019832Y708773D01*
X1021498D01*
X1024998Y758884D02*
X1015002D01*
Y763882D01*
X1016668Y765548D01*
X1020000D01*
X1021666Y763882D01*
Y758884D01*
Y762216D02*
X1024998Y765548D01*
X1015002Y775545D02*
X1016668Y772213D01*
X1020000Y768881D01*
X1023332D01*
X1024998Y770547D01*
Y773879D01*
X1023332Y775545D01*
X1021666D01*
X1020000Y773879D01*
Y768881D01*
X1021498Y817241D02*
X1011502D01*
Y822239D01*
X1013168Y823905D01*
X1016500D01*
X1018166Y822239D01*
Y817241D01*
Y820573D02*
X1021498Y823905D01*
X1011502Y833902D02*
Y827238D01*
X1016500D01*
X1014834Y830570D01*
Y832236D01*
X1016500Y833902D01*
X1019832D01*
X1021498Y832236D01*
Y828904D01*
X1019832Y827238D01*
X1021748Y874098D02*
X1011752D01*
Y879096D01*
X1013418Y880762D01*
X1016750D01*
X1018416Y879096D01*
Y874098D01*
Y877430D02*
X1021748Y880762D01*
Y889093D02*
X1011752D01*
X1016750Y884095D01*
Y890759D01*
X1019998Y933205D02*
X1010002D01*
Y938203D01*
X1011668Y939870D01*
X1015000D01*
X1016666Y938203D01*
Y933205D01*
Y936537D02*
X1019998Y939870D01*
X1011668Y943202D02*
X1010002Y944868D01*
Y948200D01*
X1011668Y949866D01*
X1013334D01*
X1015000Y948200D01*
Y946534D01*
Y948200D01*
X1016666Y949866D01*
X1018332D01*
X1019998Y948200D01*
Y944868D01*
X1018332Y943202D01*
X1023748Y987062D02*
X1013752D01*
Y992060D01*
X1015418Y993727D01*
X1018750D01*
X1020416Y992060D01*
Y987062D01*
Y990394D02*
X1023748Y993727D01*
Y1003723D02*
Y997059D01*
X1017084Y1003723D01*
X1015418D01*
X1013752Y1002057D01*
Y998725D01*
X1015418Y997059D01*
X1021499Y1047085D02*
X1011502D01*
Y1052084D01*
X1013168Y1053750D01*
X1016500D01*
X1018166Y1052084D01*
Y1047085D01*
Y1050418D02*
X1021499Y1053750D01*
Y1057082D02*
Y1060414D01*
Y1058748D01*
X1011502D01*
X1013168Y1057082D01*
X743867Y821087D02*
Y805852D01*
X736249D01*
X733710Y808391D01*
Y813469D01*
X736249Y816009D01*
X743867D01*
X728632Y808391D02*
X726093Y805852D01*
X721014D01*
X718475Y808391D01*
Y810930D01*
X721014Y813469D01*
X723553D01*
X721014D01*
X718475Y816009D01*
Y818548D01*
X721014Y821087D01*
X726093D01*
X728632Y818548D01*
X768632Y1077227D02*
Y1072148D01*
Y1074688D01*
X781328D01*
X783867Y1072148D01*
Y1069609D01*
X781328Y1067070D01*
X783867Y1092462D02*
Y1082305D01*
X773711Y1092462D01*
X771172D01*
X768632Y1089923D01*
Y1084844D01*
X771172Y1082305D01*
X769382Y625984D02*
Y620906D01*
Y623445D01*
X782078D01*
X784617Y620906D01*
Y618367D01*
X782078Y615827D01*
X784617Y631063D02*
Y636141D01*
Y633602D01*
X769382D01*
X771922Y631063D01*
X1090900Y661709D02*
Y676704D01*
X1080903D01*
X1065908Y661709D02*
X1075905D01*
Y676704D01*
X1065908D01*
X1075905Y669206D02*
X1070906D01*
X1060910Y661709D02*
Y676704D01*
X1053412D01*
X1050913Y674205D01*
Y664208D01*
X1053412Y661709D01*
X1060910D01*
X1045914D02*
X1035918D01*
Y664208D01*
X1045914Y674205D01*
Y676704D01*
X1091150Y718744D02*
Y733739D01*
X1081153D01*
X1066158Y718744D02*
X1076155D01*
Y733739D01*
X1066158D01*
X1076155Y726242D02*
X1071157D01*
X1061160Y718744D02*
Y733739D01*
X1053662D01*
X1051163Y731240D01*
Y721244D01*
X1053662Y718744D01*
X1061160D01*
X1036168D02*
X1041166Y721244D01*
X1046165Y726242D01*
Y731240D01*
X1043665Y733739D01*
X1038667D01*
X1036168Y731240D01*
Y728741D01*
X1038667Y726242D01*
X1046165D01*
X1091150Y777030D02*
Y792025D01*
X1081153D01*
X1066158Y777030D02*
X1076155D01*
Y792025D01*
X1066158D01*
X1076155Y784528D02*
X1071156D01*
X1061160Y777030D02*
Y792025D01*
X1053662D01*
X1051163Y789526D01*
Y779529D01*
X1053662Y777030D01*
X1061160D01*
X1036168D02*
X1046164D01*
Y784528D01*
X1041166Y782029D01*
X1038667D01*
X1036168Y784528D01*
Y789526D01*
X1038667Y792025D01*
X1043665D01*
X1046164Y789526D01*
X1091150Y835316D02*
Y850311D01*
X1081153D01*
X1066158Y835316D02*
X1076155D01*
Y850311D01*
X1066158D01*
X1076155Y842813D02*
X1071156D01*
X1061160Y835316D02*
Y850311D01*
X1053662D01*
X1051163Y847812D01*
Y837815D01*
X1053662Y835316D01*
X1061160D01*
X1038667Y850311D02*
Y835316D01*
X1046164Y842813D01*
X1036168D01*
X1091150Y893602D02*
Y908597D01*
X1081153D01*
X1066158Y893602D02*
X1076155D01*
Y908597D01*
X1066158D01*
X1076155Y901099D02*
X1071157D01*
X1061160Y893602D02*
Y908597D01*
X1053662D01*
X1051163Y906097D01*
Y896101D01*
X1053662Y893602D01*
X1061160D01*
X1046165Y896101D02*
X1043666Y893602D01*
X1038667D01*
X1036168Y896101D01*
Y898600D01*
X1038667Y901099D01*
X1041166D01*
X1038667D01*
X1036168Y903598D01*
Y906097D01*
X1038667Y908597D01*
X1043666D01*
X1046165Y906097D01*
X1091150Y951887D02*
Y966882D01*
X1081153D01*
X1066158Y951887D02*
X1076155D01*
Y966882D01*
X1066158D01*
X1076155Y959385D02*
X1071156D01*
X1061160Y951887D02*
Y966882D01*
X1053662D01*
X1051163Y964383D01*
Y954386D01*
X1053662Y951887D01*
X1061160D01*
X1036168Y966882D02*
X1046165D01*
X1036168Y956886D01*
Y954386D01*
X1038667Y951887D01*
X1043665D01*
X1046165Y954386D01*
X1088651Y1010173D02*
Y1025168D01*
X1078654D01*
X1063659Y1010173D02*
X1073656D01*
Y1025168D01*
X1063659D01*
X1073656Y1017671D02*
X1068658D01*
X1058661Y1010173D02*
Y1025168D01*
X1051163D01*
X1048664Y1022669D01*
Y1012672D01*
X1051163Y1010173D01*
X1058661D01*
X1043666Y1025168D02*
X1038667D01*
X1041167D01*
Y1010173D01*
X1043666Y1012672D01*
X1088611Y1068459D02*
Y1083454D01*
X1078614D01*
X1063619Y1068459D02*
X1073615D01*
Y1083454D01*
X1063619D01*
X1073615Y1075956D02*
X1068617D01*
X1058620Y1068459D02*
Y1083454D01*
X1051123D01*
X1048624Y1080955D01*
Y1070958D01*
X1051123Y1068459D01*
X1058620D01*
X1043625Y1070958D02*
X1041126Y1068459D01*
X1036128D01*
X1033628Y1070958D01*
Y1080955D01*
X1036128Y1083454D01*
X1041126D01*
X1043625Y1080955D01*
Y1070958D01*
X797922Y801000D02*
X795382Y798461D01*
Y793382D01*
X797922Y790843D01*
X808078D01*
X810618Y793382D01*
Y798461D01*
X808078Y801000D01*
X810618Y806078D02*
Y811157D01*
Y808617D01*
X795382D01*
X797922Y806078D01*
M02*
