G04*
G04 #@! TF.GenerationSoftware,Altium Limited,Altium Designer,25.2.1 (25)*
G04*
G04 Layer_Color=32896*
%FSLAX44Y44*%
%MOMM*%
G71*
G04*
G04 #@! TF.SameCoordinates,3A3D6F5A-BCF4-428E-B5E6-7A3BCBBF857E*
G04*
G04*
G04 #@! TF.FilePolarity,Positive*
G04*
G01*
G75*
%ADD11C,0.2500*%
%ADD13C,0.2000*%
%ADD14C,0.2540*%
D11*
X789000Y1082750D02*
G03*
X789000Y1082750I-1250J0D01*
G01*
X729250Y885050D02*
G03*
X729250Y885050I-1250J0D01*
G01*
X789000Y625250D02*
G03*
X789000Y625250I-1250J0D01*
G01*
D13*
X792000Y1071750D02*
X997000D01*
Y1093750D01*
X792000D02*
X997000D01*
X792000Y1071750D02*
Y1093750D01*
X717300Y880650D02*
X718900D01*
X717300Y829850D02*
Y880650D01*
Y829850D02*
X721270D01*
X734730D02*
X738700D01*
Y880650D01*
X737100D02*
X738700D01*
X792000Y614250D02*
Y636250D01*
X997000D01*
Y614250D02*
Y636250D01*
X792000Y614250D02*
X997000D01*
D14*
X1046686Y945710D02*
X1044147Y943171D01*
Y938092D01*
X1046686Y935553D01*
X1049225D01*
X1051764Y938092D01*
X1054303Y935553D01*
X1056842D01*
X1059382Y938092D01*
Y943171D01*
X1056842Y945710D01*
X1054303D01*
X1051764Y943171D01*
X1049225Y945710D01*
X1046686D01*
X1051764Y943171D02*
Y938092D01*
X1061921Y930475D02*
Y920318D01*
X1044147Y915240D02*
X1059382D01*
Y907622D01*
X1056842Y905083D01*
X1054303D01*
X1051764D01*
X1049225Y907622D01*
Y915240D01*
X1059382Y900005D02*
Y894926D01*
Y897466D01*
X1049225D01*
Y900005D01*
X1046686Y884770D02*
X1049225D01*
Y887309D01*
Y882231D01*
Y884770D01*
X1056842D01*
X1059382Y882231D01*
Y859378D02*
X1044147D01*
Y851760D01*
X1046686Y849221D01*
X1051764D01*
X1054303Y851760D01*
Y859378D01*
Y854300D02*
X1059382Y849221D01*
Y836525D02*
Y841604D01*
X1056842Y844143D01*
X1051764D01*
X1049225Y841604D01*
Y836525D01*
X1051764Y833986D01*
X1054303D01*
Y844143D01*
X1064460Y823829D02*
Y821290D01*
X1061921Y818751D01*
X1049225D01*
Y826369D01*
X1051764Y828908D01*
X1056842D01*
X1059382Y826369D01*
Y818751D01*
Y813673D02*
Y808594D01*
Y811133D01*
X1049225D01*
Y813673D01*
X1059382Y800977D02*
Y793359D01*
X1056842Y790820D01*
X1054303Y793359D01*
Y798438D01*
X1051764Y800977D01*
X1049225Y798438D01*
Y790820D01*
X1046686Y783203D02*
X1049225D01*
Y785742D01*
Y780663D01*
Y783203D01*
X1056842D01*
X1059382Y780663D01*
Y765428D02*
Y770507D01*
X1056842Y773046D01*
X1051764D01*
X1049225Y770507D01*
Y765428D01*
X1051764Y762889D01*
X1054303D01*
Y773046D01*
X1049225Y757811D02*
X1059382D01*
X1054303D01*
X1051764Y755272D01*
X1049225Y752732D01*
Y750193D01*
Y727341D02*
X1059382Y722262D01*
X1049225Y717184D01*
X1059382Y701949D02*
Y712106D01*
X1049225Y701949D01*
X1046686D01*
X1044147Y704488D01*
Y709566D01*
X1046686Y712106D01*
X971303Y850064D02*
X973842Y852603D01*
X978921D01*
X981460Y850064D01*
Y839908D01*
X978921Y837368D01*
X973842D01*
X971303Y839908D01*
Y844986D01*
X976382D01*
X958607Y852603D02*
X963686D01*
X966225Y850064D01*
Y839908D01*
X963686Y837368D01*
X958607D01*
X956068Y839908D01*
Y850064D01*
X958607Y852603D01*
X950990D02*
X940833D01*
Y850064D01*
X950990Y839908D01*
Y837368D01*
X940833D01*
X935755Y834829D02*
X925598D01*
X920520Y850064D02*
X917980Y852603D01*
X912902D01*
X910363Y850064D01*
Y847525D01*
X912902Y844986D01*
X910363Y842447D01*
Y839908D01*
X912902Y837368D01*
X917980D01*
X920520Y839908D01*
Y842447D01*
X917980Y844986D01*
X920520Y847525D01*
Y850064D01*
X917980Y844986D02*
X912902D01*
X905285Y852603D02*
Y837368D01*
X897667D01*
X895128Y839908D01*
Y842447D01*
Y844986D01*
X897667Y847525D01*
X905285D01*
X890050Y837368D02*
X884971D01*
X887510D01*
Y847525D01*
X890050D01*
X874815Y850064D02*
Y847525D01*
X877354D01*
X872275D01*
X874815D01*
Y839908D01*
X872275Y837368D01*
X864658Y834829D02*
X854501D01*
X839266Y847525D02*
X846883D01*
X849423Y844986D01*
Y839908D01*
X846883Y837368D01*
X839266D01*
X834188Y832290D02*
Y847525D01*
X826570D01*
X824031Y844986D01*
Y839908D01*
X826570Y837368D01*
X834188D01*
X818953Y847525D02*
Y839908D01*
X816413Y837368D01*
X808796D01*
Y847525D01*
M02*
