G04*
G04 #@! TF.GenerationSoftware,Altium Limited,Altium Designer,25.2.1 (25)*
G04*
G04 Layer_Color=16711935*
%FSAX44Y44*%
%MOMM*%
G71*
G04*
G04 #@! TF.SameCoordinates,F3945BAA-94F4-4F02-825A-217E7DD4EA31*
G04*
G04*
G04 #@! TF.FilePolarity,Positive*
G04*
G01*
G75*
%ADD34C,0.1500*%
D34*
X01938064Y01221710D02*
X01948061D01*
X01950060Y01219711D01*
Y01215712D01*
X01948061Y01213713D01*
X01938064D01*
Y01209714D02*
Y01201717D01*
X01940063D01*
X01948061Y01209714D01*
X01950060D01*
X01208607Y01302448D02*
Y01295783D01*
X01209940Y01294450D01*
X01212606D01*
X01213939Y01295783D01*
Y01302448D01*
X01216604Y01294450D02*
X01219270D01*
X01217937D01*
Y01302448D01*
X01216604Y01301115D01*
X01223269D02*
X01224602Y01302448D01*
X01227268D01*
X01228600Y01301115D01*
Y01295783D01*
X01227268Y01294450D01*
X01224602D01*
X01223269Y01295783D01*
Y01301115D01*
X00720764Y01302447D02*
Y01295783D01*
X00722097Y01294450D01*
X00724763D01*
X00726096Y01295783D01*
Y01302447D01*
X00728762Y01301115D02*
X00730095Y01302447D01*
X00732761D01*
X00734093Y01301115D01*
Y01299782D01*
X00732761Y01298449D01*
X00731428D01*
X00732761D01*
X00734093Y01297116D01*
Y01295783D01*
X00732761Y01294450D01*
X00730095D01*
X00728762Y01295783D01*
X01371221Y01302448D02*
Y01295783D01*
X01372554Y01294450D01*
X01375220D01*
X01376553Y01295783D01*
Y01302448D01*
X01379219Y01294450D02*
X01381884D01*
X01380552D01*
Y01302448D01*
X01379219Y01301115D01*
X01391215Y01294450D02*
X01385883D01*
X01391215Y01299782D01*
Y01301115D01*
X01389882Y01302448D01*
X01387216D01*
X01385883Y01301115D01*
X01533836Y01302448D02*
Y01295783D01*
X01535168Y01294450D01*
X01537834D01*
X01539167Y01295783D01*
Y01302448D01*
X01541833Y01294450D02*
X01544499D01*
X01543166D01*
Y01302448D01*
X01541833Y01301115D01*
X01552496Y01294450D02*
Y01302448D01*
X01548497Y01298449D01*
X01553829D01*
X01697900Y01302448D02*
Y01295783D01*
X01699233Y01294450D01*
X01701899D01*
X01703232Y01295783D01*
Y01302448D01*
X01705897Y01294450D02*
X01708563D01*
X01707230D01*
Y01302448D01*
X01705897Y01301115D01*
X01717893Y01302448D02*
X01715228Y01301115D01*
X01712562Y01298449D01*
Y01295783D01*
X01713895Y01294450D01*
X01716561D01*
X01717893Y01295783D01*
Y01297116D01*
X01716561Y01298449D01*
X01712562D01*
X00883379Y01302448D02*
Y01295783D01*
X00884712Y01294450D01*
X00887377D01*
X00888710Y01295783D01*
Y01302448D01*
X00896708D02*
X00891376D01*
Y01298449D01*
X00894042Y01299782D01*
X00895375D01*
X00896708Y01298449D01*
Y01295783D01*
X00895375Y01294450D01*
X00892709D01*
X00891376Y01295783D01*
X00561500Y01302447D02*
Y01295783D01*
X00562833Y01294450D01*
X00565499D01*
X00566832Y01295783D01*
Y01302447D01*
X00569497Y01294450D02*
X00572163D01*
X00570830D01*
Y01302447D01*
X00569497Y01301115D01*
X01046333Y01302448D02*
Y01295783D01*
X01047666Y01294450D01*
X01050332D01*
X01051665Y01295783D01*
Y01302448D01*
X01054331Y01301115D02*
X01055664Y01302448D01*
X01058330D01*
X01059662Y01301115D01*
Y01299782D01*
X01058330Y01298449D01*
X01059662Y01297116D01*
Y01295783D01*
X01058330Y01294450D01*
X01055664D01*
X01054331Y01295783D01*
Y01297116D01*
X01055664Y01298449D01*
X01054331Y01299782D01*
Y01301115D01*
X01055664Y01298449D02*
X01058330D01*
M02*
