G04*
G04 #@! TF.GenerationSoftware,Altium Limited,Altium Designer,25.2.1 (25)*
G04*
G04 Layer_Color=8421504*
%FSAX44Y44*%
%MOMM*%
G71*
G04*
G04 #@! TF.SameCoordinates,F3945BAA-94F4-4F02-825A-217E7DD4EA31*
G04*
G04*
G04 #@! TF.FilePolarity,Positive*
G04*
G01*
G75*
%ADD15R,0.5500X1.5000*%
%ADD16R,0.5500X1.5000*%
%ADD17R,0.5500X1.5000*%
%ADD18R,0.5500X1.5000*%
%ADD19R,0.9500X0.9500*%
%ADD20R,0.8000X0.9500*%
%ADD21R,0.8000X0.8000*%
G04:AMPARAMS|DCode=22|XSize=0.55mm|YSize=1.25mm|CornerRadius=0.0495mm|HoleSize=0mm|Usage=FLASHONLY|Rotation=90.000|XOffset=0mm|YOffset=0mm|HoleType=Round|Shape=RoundedRectangle|*
%AMROUNDEDRECTD22*
21,1,0.5500,1.1510,0,0,90.0*
21,1,0.4510,1.2500,0,0,90.0*
1,1,0.0990,0.5755,0.2255*
1,1,0.0990,0.5755,-0.2255*
1,1,0.0990,-0.5755,-0.2255*
1,1,0.0990,-0.5755,0.2255*
%
%ADD22ROUNDEDRECTD22*%
D15*
X00872380Y01158751D02*
D03*
X00885080D02*
D03*
X00897780D02*
D03*
X00910480D02*
D03*
X00923180D02*
D03*
X00935880D02*
D03*
X00948580D02*
D03*
X00547149Y01212748D02*
D03*
X00559849D02*
D03*
X00572549D02*
D03*
X00597949D02*
D03*
X00610649D02*
D03*
X00623349D02*
D03*
X01522835Y01212749D02*
D03*
X01535535D02*
D03*
X01548235D02*
D03*
X01560935D02*
D03*
X01573635D02*
D03*
X01586335D02*
D03*
X01599035D02*
D03*
D16*
X00872379D02*
D03*
X00885079D02*
D03*
X00897779D02*
D03*
X00910479D02*
D03*
X00923179D02*
D03*
X00935879D02*
D03*
X00948579D02*
D03*
X01197607D02*
D03*
X01210307D02*
D03*
X01223007D02*
D03*
X01235707D02*
D03*
X01248407D02*
D03*
X01261107D02*
D03*
X01273807D02*
D03*
D17*
X01034994Y01158751D02*
D03*
X01047694D02*
D03*
X01060394D02*
D03*
X01073094D02*
D03*
X01085794D02*
D03*
X01098494D02*
D03*
X01111194D02*
D03*
X01034992Y01212749D02*
D03*
X01047692D02*
D03*
X01060392D02*
D03*
X01073092D02*
D03*
X01085792D02*
D03*
X01098492D02*
D03*
X01111192D02*
D03*
X01360222Y01158751D02*
D03*
X01372922D02*
D03*
X01385622D02*
D03*
X01398322D02*
D03*
X01411022D02*
D03*
X01423722D02*
D03*
X01436422D02*
D03*
X00706870Y01158749D02*
D03*
X00719570D02*
D03*
X00732270D02*
D03*
X00744970D02*
D03*
X00757670D02*
D03*
X00770370D02*
D03*
X00783070D02*
D03*
X00585252Y01158752D02*
D03*
X00597952D02*
D03*
X00610652D02*
D03*
X00623352D02*
D03*
X00585249Y01212748D02*
D03*
D18*
X01197608Y01158751D02*
D03*
X01210308D02*
D03*
X01223008D02*
D03*
X01235708D02*
D03*
X01248408D02*
D03*
X01261108D02*
D03*
X01273808D02*
D03*
X01360220Y01212749D02*
D03*
X01372921D02*
D03*
X01385621D02*
D03*
X01398320D02*
D03*
X01411021D02*
D03*
X01423721D02*
D03*
X01436420D02*
D03*
X00706868Y01212750D02*
D03*
X00719568D02*
D03*
X00732268D02*
D03*
X00744968D02*
D03*
X00757668D02*
D03*
X00770368D02*
D03*
X00783068D02*
D03*
X00547152Y01158752D02*
D03*
X00559852D02*
D03*
X00572552D02*
D03*
X01686901Y01158744D02*
D03*
X01699601D02*
D03*
X01712301D02*
D03*
X01725001D02*
D03*
X01737701D02*
D03*
X01750401D02*
D03*
X01763101D02*
D03*
X01686899Y01212742D02*
D03*
X01699599D02*
D03*
X01712299D02*
D03*
X01724999D02*
D03*
X01737699D02*
D03*
X01750399D02*
D03*
X01763099D02*
D03*
X01522836Y01158751D02*
D03*
X01535536D02*
D03*
X01548237D02*
D03*
X01560936D02*
D03*
X01573636D02*
D03*
X01586337D02*
D03*
X01599037D02*
D03*
D19*
X01977250Y01372250D02*
D03*
X01964750D02*
D03*
D20*
X01940700Y01103583D02*
D03*
X01927200D02*
D03*
X01940700Y01045750D02*
D03*
X01927200D02*
D03*
X01940700Y01161417D02*
D03*
X01927200D02*
D03*
X01940700Y01219250D02*
D03*
X01927200D02*
D03*
D21*
X01973750Y01045750D02*
D03*
X01988750D02*
D03*
X01971250Y01103583D02*
D03*
X01986249D02*
D03*
X01971250Y01161417D02*
D03*
X01986250D02*
D03*
X01968250Y01219250D02*
D03*
X01983250D02*
D03*
D22*
X01250107Y01259100D02*
D03*
Y01271800D02*
D03*
Y01284500D02*
D03*
Y01297200D02*
D03*
Y01309900D02*
D03*
Y01322600D02*
D03*
Y01335300D02*
D03*
X01197607Y01259100D02*
D03*
Y01271800D02*
D03*
Y01284500D02*
D03*
Y01297200D02*
D03*
Y01309900D02*
D03*
Y01322600D02*
D03*
Y01335300D02*
D03*
X00762265Y01259100D02*
D03*
Y01271800D02*
D03*
Y01284500D02*
D03*
Y01297200D02*
D03*
Y01309900D02*
D03*
Y01322600D02*
D03*
Y01335300D02*
D03*
X00709764Y01259100D02*
D03*
Y01271800D02*
D03*
Y01284500D02*
D03*
Y01297200D02*
D03*
Y01309900D02*
D03*
Y01322600D02*
D03*
Y01335300D02*
D03*
X01412721Y01259100D02*
D03*
Y01271800D02*
D03*
Y01284500D02*
D03*
Y01297200D02*
D03*
Y01309900D02*
D03*
Y01322600D02*
D03*
Y01335300D02*
D03*
X01360221Y01259100D02*
D03*
Y01271800D02*
D03*
Y01284500D02*
D03*
Y01297200D02*
D03*
Y01309900D02*
D03*
Y01322600D02*
D03*
Y01335300D02*
D03*
X01575336Y01259100D02*
D03*
Y01271800D02*
D03*
Y01284500D02*
D03*
Y01297200D02*
D03*
Y01309900D02*
D03*
Y01322600D02*
D03*
Y01335300D02*
D03*
X01522836Y01259100D02*
D03*
Y01271800D02*
D03*
Y01284500D02*
D03*
Y01297200D02*
D03*
Y01309900D02*
D03*
Y01322600D02*
D03*
Y01335300D02*
D03*
X01739400Y01259100D02*
D03*
Y01271800D02*
D03*
Y01284500D02*
D03*
Y01297200D02*
D03*
Y01309900D02*
D03*
Y01322600D02*
D03*
Y01335300D02*
D03*
X01686900Y01259100D02*
D03*
Y01271800D02*
D03*
Y01284500D02*
D03*
Y01297200D02*
D03*
Y01309900D02*
D03*
Y01322600D02*
D03*
Y01335300D02*
D03*
X00924879Y01259100D02*
D03*
Y01271800D02*
D03*
Y01284500D02*
D03*
Y01297200D02*
D03*
Y01309900D02*
D03*
Y01322600D02*
D03*
Y01335300D02*
D03*
X00872379Y01259100D02*
D03*
Y01271800D02*
D03*
Y01284500D02*
D03*
Y01297200D02*
D03*
Y01309900D02*
D03*
Y01322600D02*
D03*
Y01335300D02*
D03*
X00603000Y01259100D02*
D03*
Y01271800D02*
D03*
Y01284500D02*
D03*
Y01297200D02*
D03*
Y01309900D02*
D03*
Y01322600D02*
D03*
Y01335300D02*
D03*
X00550500Y01259100D02*
D03*
Y01271800D02*
D03*
Y01284500D02*
D03*
Y01297200D02*
D03*
Y01309900D02*
D03*
Y01322600D02*
D03*
Y01335300D02*
D03*
X01087834Y01259100D02*
D03*
Y01271800D02*
D03*
Y01284500D02*
D03*
Y01297200D02*
D03*
Y01309900D02*
D03*
Y01322600D02*
D03*
Y01335300D02*
D03*
X01035333Y01259100D02*
D03*
Y01271800D02*
D03*
Y01284500D02*
D03*
Y01297200D02*
D03*
Y01309900D02*
D03*
Y01322600D02*
D03*
Y01335300D02*
D03*
M02*
