G04*
G04 #@! TF.GenerationSoftware,Altium Limited,Altium Designer,25.2.1 (25)*
G04*
G04 Layer_Color=255*
%FSAX44Y44*%
%MOMM*%
G71*
G04*
G04 #@! TF.SameCoordinates,F3945BAA-94F4-4F02-825A-217E7DD4EA31*
G04*
G04*
G04 #@! TF.FilePolarity,Positive*
G04*
G01*
G75*
%ADD28C,1.3000*%
%ADD29R,1.3000X1.3000*%
G04:AMPARAMS|DCode=32|XSize=0.65mm|YSize=2.1mm|CornerRadius=0.0488mm|HoleSize=0mm|Usage=FLASHONLY|Rotation=180.000|XOffset=0mm|YOffset=0mm|HoleType=Round|Shape=RoundedRectangle|*
%AMROUNDEDRECTD32*
21,1,0.6500,2.0025,0,0,180.0*
21,1,0.5525,2.1000,0,0,180.0*
1,1,0.0975,-0.2763,1.0013*
1,1,0.0975,0.2763,1.0013*
1,1,0.0975,0.2763,-1.0013*
1,1,0.0975,-0.2763,-1.0013*
%
%ADD32ROUNDEDRECTD32*%
D28*
X01566250Y01407500D02*
D03*
X01546250D02*
D03*
X01526250D02*
D03*
X01506250D02*
D03*
X01486250D02*
D03*
X01466250D02*
D03*
X01446250D02*
D03*
X01426250D02*
D03*
X01406250D02*
D03*
X00572251Y01407500D02*
D03*
X00592250D02*
D03*
X00612250D02*
D03*
X00632250D02*
D03*
X00652250D02*
D03*
X00672250D02*
D03*
X00692250D02*
D03*
X00712250D02*
D03*
X00732250D02*
D03*
X00989250D02*
D03*
X01009250D02*
D03*
X01029250D02*
D03*
X01049250D02*
D03*
X01069250D02*
D03*
X01089250D02*
D03*
X01109251D02*
D03*
X01129251D02*
D03*
X01149251D02*
D03*
X01983250Y01407500D02*
D03*
X01963250D02*
D03*
X01943250D02*
D03*
X01923250D02*
D03*
X01903250D02*
D03*
X01883250D02*
D03*
X01863250D02*
D03*
X01843250D02*
D03*
X01823250D02*
D03*
D29*
X01386250D02*
D03*
X00552250Y01407500D02*
D03*
X00969250D02*
D03*
X01803250Y01407500D02*
D03*
D32*
X02003400Y01144000D02*
D03*
X01990700D02*
D03*
X01978000D02*
D03*
X01965300D02*
D03*
X01952600D02*
D03*
X01939900D02*
D03*
X01927200D02*
D03*
X01914500D02*
D03*
X01901800D02*
D03*
X01889100D02*
D03*
X02003400Y01241000D02*
D03*
X01990700D02*
D03*
X01978000D02*
D03*
X01965300D02*
D03*
X01952600D02*
D03*
X01939900D02*
D03*
X01927200D02*
D03*
X01914500D02*
D03*
X01901800D02*
D03*
X01889100D02*
D03*
M02*
