G04*
G04 #@! TF.GenerationSoftware,Altium Limited,Altium Designer,25.2.1 (25)*
G04*
G04 Layer_Color=2752767*
%FSAX44Y44*%
%MOMM*%
G71*
G04*
G04 #@! TF.SameCoordinates,F3945BAA-94F4-4F02-825A-217E7DD4EA31*
G04*
G04*
G04 #@! TF.FilePolarity,Positive*
G04*
G01*
G75*
%ADD37C,0.1693*%
%ADD38C,0.1270*%
D37*
X01571330Y01407500D02*
G03*
X01571330Y01407500I-00005080J00000000D01*
G01*
X01551330D02*
G03*
X01551330Y01407500I-00005080J00000000D01*
G01*
X01531330D02*
G03*
X01531330Y01407500I-00005080J00000000D01*
G01*
X01511330D02*
G03*
X01511330Y01407500I-00005080J00000000D01*
G01*
X01491330D02*
G03*
X01491330Y01407500I-00005080J00000000D01*
G01*
X01471330D02*
G03*
X01471330Y01407500I-00005080J00000000D01*
G01*
X01451330D02*
G03*
X01451330Y01407500I-00005080J00000000D01*
G01*
X01431330D02*
G03*
X01431330Y01407500I-00005080J00000000D01*
G01*
X01411330D02*
G03*
X01411330Y01407500I-00005080J00000000D01*
G01*
X01391330D02*
G03*
X01391330Y01407500I-00005080J00000000D01*
G01*
X00557330Y01407500D02*
G03*
X00557330Y01407500I-00005080J00000000D01*
G01*
X00577331D02*
G03*
X00577331Y01407500I-00005080J00000000D01*
G01*
X00597330D02*
G03*
X00597330Y01407500I-00005080J00000000D01*
G01*
X00617330D02*
G03*
X00617330Y01407500I-00005080J00000000D01*
G01*
X00637330D02*
G03*
X00637330Y01407500I-00005080J00000000D01*
G01*
X00657330D02*
G03*
X00657330Y01407500I-00005080J00000000D01*
G01*
X00677330D02*
G03*
X00677330Y01407500I-00005080J00000000D01*
G01*
X00697330D02*
G03*
X00697330Y01407500I-00005080J00000000D01*
G01*
X00717330D02*
G03*
X00717330Y01407500I-00005080J00000000D01*
G01*
X00737330D02*
G03*
X00737330Y01407500I-00005080J00000000D01*
G01*
X00974331D02*
G03*
X00974331Y01407500I-00005080J00000000D01*
G01*
X00994330D02*
G03*
X00994330Y01407500I-00005080J00000000D01*
G01*
X01014330D02*
G03*
X01014330Y01407500I-00005080J00000000D01*
G01*
X01034330D02*
G03*
X01034330Y01407500I-00005080J00000000D01*
G01*
X01054330D02*
G03*
X01054330Y01407500I-00005080J00000000D01*
G01*
X01074330D02*
G03*
X01074330Y01407500I-00005080J00000000D01*
G01*
X01094330D02*
G03*
X01094330Y01407500I-00005080J00000000D01*
G01*
X01114331D02*
G03*
X01114331Y01407500I-00005080J00000000D01*
G01*
X01134331D02*
G03*
X01134331Y01407500I-00005080J00000000D01*
G01*
X01154331D02*
G03*
X01154331Y01407500I-00005080J00000000D01*
G01*
X01988330Y01407500D02*
G03*
X01988330Y01407500I-00005080J00000000D01*
G01*
X01968330D02*
G03*
X01968330Y01407500I-00005080J00000000D01*
G01*
X01948330D02*
G03*
X01948330Y01407500I-00005080J00000000D01*
G01*
X01928330D02*
G03*
X01928330Y01407500I-00005080J00000000D01*
G01*
X01908330D02*
G03*
X01908330Y01407500I-00005080J00000000D01*
G01*
X01888330D02*
G03*
X01888330Y01407500I-00005080J00000000D01*
G01*
X01868330D02*
G03*
X01868330Y01407500I-00005080J00000000D01*
G01*
X01848330D02*
G03*
X01848330Y01407500I-00005080J00000000D01*
G01*
X01828330D02*
G03*
X01828330Y01407500I-00005080J00000000D01*
G01*
X01808330D02*
G03*
X01808330Y01407500I-00005080J00000000D01*
G01*
D38*
X01885750Y01062420D02*
X01880670Y01072580D01*
X01890830D01*
X01885750Y01062420D01*
X01978250Y01334670D02*
X01973170Y01344830D01*
X01983330D01*
X01978250Y01334670D01*
X01953750Y01314920D02*
X01948670Y01325080D01*
X01958830D01*
X01953750Y01314920D01*
X01926500Y01291920D02*
X01921420Y01302080D01*
X01931580D01*
X01926500Y01291920D01*
X01901250Y01269670D02*
X01896170Y01279830D01*
X01906330D01*
X01901250Y01269670D01*
X00520000Y01354670D02*
X00514920Y01364830D01*
X00525080D01*
X00520000Y01354670D01*
X00518250Y01256670D02*
X00513170Y01266830D01*
X00523330D01*
X00518250Y01256670D01*
X00672750Y01311420D02*
X00667670Y01321580D01*
X00677830D01*
X00672750Y01311420D01*
X00834250Y01309920D02*
X00829170Y01320080D01*
X00839330D01*
X00834250Y01309920D01*
X01000500Y01311420D02*
X00995420Y01321580D01*
X01005580D01*
X01000500Y01311420D01*
X01685750Y01386670D02*
X01680670Y01396830D01*
X01690830D01*
X01685750Y01386670D01*
X01685250Y01356420D02*
X01680170Y01366580D01*
X01690330D01*
X01685250Y01356420D01*
X01627250Y01370420D02*
X01622170Y01380580D01*
X01632330D01*
X01627250Y01370420D01*
X01577067Y01355353D02*
X01571987Y01365513D01*
X01582147D01*
X01577067Y01355353D01*
X00653750Y01331420D02*
X00648670Y01341580D01*
X00658830D01*
X00653750Y01331420D01*
X00656000Y01231920D02*
X00650920Y01242080D01*
X00661080D01*
X00656000Y01231920D01*
X01325000Y01416420D02*
X01319920Y01426580D01*
X01330080D01*
X01325000Y01416420D01*
X01360000Y01383170D02*
X01354920Y01393330D01*
X01365080D01*
X01360000Y01383170D01*
X01283000Y01402920D02*
X01277920Y01413080D01*
X01288080D01*
X01283000Y01402920D01*
X01255000Y01387420D02*
X01249920Y01397580D01*
X01260080D01*
X01255000Y01387420D01*
Y01356170D02*
X01249920Y01366330D01*
X01260080D01*
X01255000Y01356170D01*
X01155750Y01351920D02*
X01150670Y01362080D01*
X01160830D01*
X01155750Y01351920D01*
X01094500D02*
X01089420Y01362080D01*
X01099580D01*
X01094500Y01351920D01*
X01035250Y01350670D02*
X01030170Y01360830D01*
X01040330D01*
X01035250Y01350670D01*
X00871340Y01385330D02*
X00866260Y01395490D01*
X00876420D01*
X00871340Y01385330D01*
X00817000Y01356670D02*
X00811920Y01366830D01*
X00822080D01*
X00817000Y01356670D01*
X00706340Y01355853D02*
X00701260Y01366013D01*
X00711420D01*
X00706340Y01355853D01*
X00767250Y01356420D02*
X00762170Y01366580D01*
X00772330D01*
X00767250Y01356420D01*
X01626750Y01416920D02*
X01621670Y01427080D01*
X01631830D01*
X01626750Y01416920D01*
X01195500Y01415670D02*
X01190420Y01425830D01*
X01200580D01*
X01195500Y01415670D01*
X00872500Y01415920D02*
X00867420Y01426080D01*
X00877580D01*
X00872500Y01415920D01*
X00491000Y01354420D02*
X00485920Y01364580D01*
X00496080D01*
X00491000Y01354420D01*
X00548000Y01355170D02*
X00542920Y01365330D01*
X00553080D01*
X00548000Y01355170D01*
X00490000Y01290170D02*
X00484920Y01300330D01*
X00495080D01*
X00490000Y01290170D01*
X01776500Y01355420D02*
X01771420Y01365580D01*
X01781580D01*
X01776500Y01355420D01*
X01862500Y01335170D02*
X01857420Y01345330D01*
X01867580D01*
X01862500Y01335170D01*
X01841000Y01313920D02*
X01835920Y01324080D01*
X01846080D01*
X01841000Y01313920D01*
X01822000Y01291920D02*
X01816920Y01302080D01*
X01827080D01*
X01822000Y01291920D01*
X01804500Y01268920D02*
X01799420Y01279080D01*
X01809580D01*
X01804500Y01268920D01*
X01789500Y01232920D02*
X01784420Y01243080D01*
X01794580D01*
X01789500Y01232920D01*
X01760590Y01316853D02*
X01755510Y01327013D01*
X01765670D01*
X01760590Y01316853D01*
X01485250Y01311670D02*
X01480170Y01321830D01*
X01490330D01*
X01485250Y01311670D01*
X01360340Y01355353D02*
X01355260Y01365513D01*
X01365420D01*
X01360340Y01355353D01*
X01647500Y01312170D02*
X01642420Y01322330D01*
X01652580D01*
X01647500Y01312170D01*
X01664750Y01280420D02*
X01659670Y01290580D01*
X01669830D01*
X01664750Y01280420D01*
X01501750D02*
X01496670Y01290580D01*
X01506830D01*
X01501750Y01280420D01*
X01340750Y01278170D02*
X01335670Y01288330D01*
X01345830D01*
X01340750Y01278170D01*
X01323250Y01312420D02*
X01318170Y01322580D01*
X01328330D01*
X01323250Y01312420D01*
X01176000Y01276920D02*
X01170920Y01287080D01*
X01181080D01*
X01176000Y01276920D01*
X01159750Y01312170D02*
X01154670Y01322330D01*
X01164830D01*
X01159750Y01312170D01*
X01016625Y01278795D02*
X01011545Y01288955D01*
X01021705D01*
X01016625Y01278795D01*
X00852000Y01280670D02*
X00846920Y01290830D01*
X00857080D01*
X00852000Y01280670D01*
X01628000Y01232420D02*
X01622920Y01242580D01*
X01633080D01*
X01628000Y01232420D01*
X01467750Y01234920D02*
X01462670Y01245080D01*
X01472830D01*
X01467750Y01234920D01*
X01303750Y01230670D02*
X01298670Y01240830D01*
X01308830D01*
X01303750Y01230670D01*
X01140000Y01231420D02*
X01134920Y01241580D01*
X01145080D01*
X01140000Y01231420D01*
X00976750Y01233170D02*
X00971670Y01243330D01*
X00981830D01*
X00976750Y01233170D01*
X00812500Y01233920D02*
X00807420Y01244080D01*
X00817580D01*
X00812500Y01233920D01*
X01667000Y01087170D02*
X01661920Y01097330D01*
X01672080D01*
X01667000Y01087170D01*
X01740000Y01066170D02*
X01734920Y01076330D01*
X01745080D01*
X01740000Y01066170D01*
X01725000Y01088170D02*
X01719920Y01098330D01*
X01730080D01*
X01725000Y01088170D01*
X01688500Y01049170D02*
X01683420Y01059330D01*
X01693580D01*
X01688500Y01049170D01*
X01700000Y01103670D02*
X01694920Y01113830D01*
X01705080D01*
X01700000Y01103670D01*
X01749590Y01187603D02*
X01744510Y01197763D01*
X01754670D01*
X01749590Y01187603D01*
X01749750Y01119670D02*
X01744670Y01129830D01*
X01754830D01*
X01749750Y01119670D01*
X00602000Y01000170D02*
X00596920Y01010330D01*
X00607080D01*
X00602000Y01000170D01*
X00580250Y01020920D02*
X00575170Y01031080D01*
X00585330D01*
X00580250Y01020920D01*
X00725250Y01104420D02*
X00720170Y01114580D01*
X00730330D01*
X00725250Y01104420D01*
X00866000Y01050920D02*
X00860920Y01061080D01*
X00871080D01*
X00866000Y01050920D01*
X01214250Y01037670D02*
X01209170Y01047830D01*
X01219330D01*
X01214250Y01037670D01*
X01198000Y01052670D02*
X01192920Y01062830D01*
X01203080D01*
X01198000Y01052670D01*
X01154750Y01067920D02*
X01149670Y01078080D01*
X01159830D01*
X01154750Y01067920D01*
X01245000Y01021420D02*
X01239920Y01031580D01*
X01250080D01*
X01245000Y01021420D01*
X01398000Y01020670D02*
X01392920Y01030830D01*
X01403080D01*
X01398000Y01020670D01*
X01427500Y01119670D02*
X01422420Y01129830D01*
X01432580D01*
X01427500Y01119670D01*
X01367000Y01051920D02*
X01361920Y01062080D01*
X01372080D01*
X01367000Y01051920D01*
X01506500Y01085170D02*
X01501420Y01095330D01*
X01511580D01*
X01506500Y01085170D01*
X01553500D02*
X01548420Y01095330D01*
X01558580D01*
X01553500Y01085170D01*
X01653795Y01066875D02*
X01648715Y01077035D01*
X01658875D01*
X01653795Y01066875D01*
X01489795Y01067375D02*
X01484715Y01077535D01*
X01494875D01*
X01489795Y01067375D01*
X01328045D02*
X01322965Y01077535D01*
X01333125D01*
X01328045Y01067375D01*
X01261500Y01119420D02*
X01256420Y01129580D01*
X01266580D01*
X01261500Y01119420D01*
X01253500Y01069670D02*
X01248420Y01079830D01*
X01258580D01*
X01253500Y01069670D01*
X01586250Y01119170D02*
X01581170Y01129330D01*
X01591330D01*
X01586250Y01119170D01*
X01586090Y01187103D02*
X01581010Y01197263D01*
X01591170D01*
X01586090Y01187103D01*
X01422840Y01186603D02*
X01417760Y01196763D01*
X01427920D01*
X01422840Y01186603D01*
X01260590Y01187353D02*
X01255510Y01197513D01*
X01265670D01*
X01260590Y01187353D01*
X01086250Y00997420D02*
X01081170Y01007580D01*
X01091330D01*
X01086250Y00997420D01*
X01012500Y01084170D02*
X01007420Y01094330D01*
X01017580D01*
X01012500Y01084170D01*
X00923500Y00998920D02*
X00918420Y01009080D01*
X00928580D01*
X00923500Y00998920D01*
X00910000Y01085170D02*
X00904920Y01095330D01*
X00915080D01*
X00910000Y01085170D01*
X00935500Y01186670D02*
X00930420Y01196830D01*
X00940580D01*
X00935500Y01186670D01*
X00856250Y01084170D02*
X00851170Y01094330D01*
X00861330D01*
X00856250Y01084170D01*
X00740750Y01019670D02*
X00735670Y01029830D01*
X00745830D01*
X00740750Y01019670D01*
X00759750Y00998920D02*
X00754670Y01009080D01*
X00764830D01*
X00759750Y00998920D01*
X00721250Y01050420D02*
X00716170Y01060580D01*
X00726330D01*
X00721250Y01050420D01*
X00769750Y01121170D02*
X00764670Y01131330D01*
X00774830D01*
X00769750Y01121170D01*
X01760340Y01265853D02*
X01755260Y01276013D01*
X01765420D01*
X01760340Y01265853D01*
X01790000Y01331670D02*
X01784920Y01341830D01*
X01795080D01*
X01790000Y01331670D01*
X01772591Y01294603D02*
X01767511Y01304763D01*
X01777671D01*
X01772591Y01294603D01*
X01785750Y01170920D02*
X01780670Y01181080D01*
X01790830D01*
X01785750Y01170920D01*
X01685750Y01232670D02*
X01680670Y01242830D01*
X01690830D01*
X01685750Y01232670D01*
X01596590Y01265853D02*
X01591510Y01276013D01*
X01601670D01*
X01596590Y01265853D01*
X01596840Y01316853D02*
X01591760Y01327013D01*
X01601920D01*
X01596840Y01316853D01*
X01522340Y01355353D02*
X01517260Y01365513D01*
X01527420D01*
X01522340Y01355353D01*
X01626250Y01331670D02*
X01621170Y01341830D01*
X01631330D01*
X01626250Y01331670D01*
X01608841Y01294603D02*
X01603761Y01304763D01*
X01613921D01*
X01608841Y01294603D01*
X01622000Y01170920D02*
X01616920Y01181080D01*
X01627080D01*
X01622000Y01170920D01*
X01522000Y01232670D02*
X01516920Y01242830D01*
X01527080D01*
X01522000Y01232670D01*
X01434590Y01265853D02*
X01429510Y01276013D01*
X01439670D01*
X01434590Y01265853D01*
X01434840Y01316853D02*
X01429760Y01327013D01*
X01439920D01*
X01434840Y01316853D01*
X01464250Y01331670D02*
X01459170Y01341830D01*
X01469330D01*
X01464250Y01331670D01*
X01446841Y01294603D02*
X01441761Y01304763D01*
X01451921D01*
X01446841Y01294603D01*
X01460000Y01170920D02*
X01454920Y01181080D01*
X01465080D01*
X01460000Y01170920D01*
X01360000Y01232670D02*
X01354920Y01242830D01*
X01365080D01*
X01360000Y01232670D01*
X01271090Y01265853D02*
X01266010Y01276013D01*
X01276170D01*
X01271090Y01265853D01*
X01271340Y01316853D02*
X01266260Y01327013D01*
X01276420D01*
X01271340Y01316853D01*
X01196840Y01355353D02*
X01191760Y01365513D01*
X01201920D01*
X01196840Y01355353D01*
X01300750Y01331670D02*
X01295670Y01341830D01*
X01305830D01*
X01300750Y01331670D01*
X01283341Y01294603D02*
X01278261Y01304763D01*
X01288421D01*
X01283341Y01294603D01*
X01296500Y01170920D02*
X01291420Y01181080D01*
X01301580D01*
X01296500Y01170920D01*
X01196500Y01232670D02*
X01191420Y01242830D01*
X01201580D01*
X01196500Y01232670D01*
X01098090Y01187353D02*
X01093010Y01197513D01*
X01103170D01*
X01098090Y01187353D01*
X01109090Y01265603D02*
X01104010Y01275763D01*
X01114170D01*
X01109090Y01265603D01*
X01109340Y01316603D02*
X01104260Y01326763D01*
X01114420D01*
X01109340Y01316603D01*
X01138750Y01331420D02*
X01133670Y01341580D01*
X01143830D01*
X01138750Y01331420D01*
X01121341Y01294353D02*
X01116261Y01304513D01*
X01126421D01*
X01121341Y01294353D01*
X01134500Y01170670D02*
X01129420Y01180830D01*
X01139580D01*
X01134500Y01170670D01*
X01034500Y01232420D02*
X01029420Y01242580D01*
X01039580D01*
X01034500Y01232420D01*
X00945590Y01266853D02*
X00940510Y01277013D01*
X00950670D01*
X00945590Y01266853D01*
X00945840Y01317853D02*
X00940760Y01328013D01*
X00950920D01*
X00945840Y01317853D01*
X00871340Y01356353D02*
X00866260Y01366513D01*
X00876420D01*
X00871340Y01356353D01*
X00975250Y01332670D02*
X00970170Y01342830D01*
X00980330D01*
X00975250Y01332670D01*
X00957841Y01295603D02*
X00952761Y01305763D01*
X00962921D01*
X00957841Y01295603D01*
X00971000Y01171920D02*
X00965920Y01182080D01*
X00976080D01*
X00971000Y01171920D01*
X00871000Y01233670D02*
X00865920Y01243830D01*
X00876080D01*
X00871000Y01233670D01*
X00706000Y01233170D02*
X00700920Y01243330D01*
X00711080D01*
X00706000Y01233170D01*
X00806000Y01171420D02*
X00800920Y01181580D01*
X00811080D01*
X00806000Y01171420D01*
X00792841Y01295103D02*
X00787761Y01305263D01*
X00797921D01*
X00792841Y01295103D01*
X00810250Y01332170D02*
X00805170Y01342330D01*
X00815330D01*
X00810250Y01332170D01*
X00780840Y01317353D02*
X00775760Y01327513D01*
X00785920D01*
X00780840Y01317353D01*
X00690840Y01279603D02*
X00685760Y01289763D01*
X00695920D01*
X00690840Y01279603D01*
X00780590Y01266353D02*
X00775510Y01276513D01*
X00785670D01*
X00780590Y01266353D01*
X00769590Y01188103D02*
X00764510Y01198263D01*
X00774670D01*
X00769590Y01188103D01*
X00622500Y01316670D02*
X00617420Y01326830D01*
X00627580D01*
X00622500Y01316670D01*
X00637250Y01294420D02*
X00632170Y01304580D01*
X00642330D01*
X00637250Y01294420D01*
X00648000Y01170920D02*
X00642920Y01181080D01*
X00653080D01*
X00648000Y01170920D01*
X00547150Y01232020D02*
X00542070Y01242180D01*
X00552230D01*
X00547150Y01232020D01*
X00622250Y01265670D02*
X00617170Y01275830D01*
X00627330D01*
X00622250Y01265670D01*
X00611250Y01187420D02*
X00606170Y01197580D01*
X00616330D01*
X00611250Y01187420D01*
X00545500Y01051920D02*
X00540420Y01062080D01*
X00550580D01*
X00545500Y01051920D01*
X01540750Y01035170D02*
X01535670Y01045330D01*
X01545830D01*
X01540750Y01035170D01*
X01581500Y01066420D02*
X01576420Y01076580D01*
X01586580D01*
X01581500Y01066420D01*
X01517000Y01049920D02*
X01511920Y01060080D01*
X01522080D01*
X01517000Y01049920D01*
X01416000Y01066920D02*
X01410920Y01077080D01*
X01421080D01*
X01416000Y01066920D01*
X01378000Y01103920D02*
X01372920Y01114080D01*
X01383080D01*
X01378000Y01103920D01*
X01070750Y01085170D02*
X01065670Y01095330D01*
X01075830D01*
X01070750Y01085170D01*
X01051000Y01104920D02*
X01045920Y01115080D01*
X01056080D01*
X01051000Y01104920D01*
X01101000Y01118920D02*
X01095920Y01129080D01*
X01106080D01*
X01101000Y01118920D01*
X01033750Y01051670D02*
X01028670Y01061830D01*
X01038830D01*
X01033750Y01051670D01*
X00937500Y01120420D02*
X00932420Y01130580D01*
X00942580D01*
X00937500Y01120420D01*
X00895750Y01034170D02*
X00890670Y01044330D01*
X00900830D01*
X00895750Y01034170D01*
X00560750Y01034920D02*
X00555670Y01045080D01*
X00565830D01*
X00560750Y01034920D01*
M02*
