G04*
G04 #@! TF.GenerationSoftware,Altium Limited,Altium Designer,25.2.1 (25)*
G04*
G04 Layer_Color=16711935*
%FSAX44Y44*%
%MOMM*%
G71*
G04*
G04 #@! TF.SameCoordinates,F3945BAA-94F4-4F02-825A-217E7DD4EA31*
G04*
G04*
G04 #@! TF.FilePolarity,Negative*
G04*
G01*
G75*
%ADD28C,1.3000*%
%ADD29R,1.3000X1.3000*%
%ADD30C,1.4732*%
G04:AMPARAMS|DCode=33|XSize=0.8532mm|YSize=2.3032mm|CornerRadius=0.1504mm|HoleSize=0mm|Usage=FLASHONLY|Rotation=180.000|XOffset=0mm|YOffset=0mm|HoleType=Round|Shape=RoundedRectangle|*
%AMROUNDEDRECTD33*
21,1,0.8532,2.0025,0,0,180.0*
21,1,0.5525,2.3032,0,0,180.0*
1,1,0.3007,-0.2763,1.0013*
1,1,0.3007,0.2763,1.0013*
1,1,0.3007,0.2763,-1.0013*
1,1,0.3007,-0.2763,-1.0013*
%
%ADD33ROUNDEDRECTD33*%
D28*
X01566250Y01407500D02*
D03*
X01546250D02*
D03*
X01526250D02*
D03*
X01506250D02*
D03*
X01486250D02*
D03*
X01466250D02*
D03*
X01446250D02*
D03*
X01426250D02*
D03*
X01406250D02*
D03*
X00572251Y01407500D02*
D03*
X00592250D02*
D03*
X00612250D02*
D03*
X00632250D02*
D03*
X00652250D02*
D03*
X00672250D02*
D03*
X00692250D02*
D03*
X00712250D02*
D03*
X00732250D02*
D03*
X00989250D02*
D03*
X01009250D02*
D03*
X01029250D02*
D03*
X01049250D02*
D03*
X01069250D02*
D03*
X01089250D02*
D03*
X01109251D02*
D03*
X01129251D02*
D03*
X01149251D02*
D03*
X01983250Y01407500D02*
D03*
X01963250D02*
D03*
X01943250D02*
D03*
X01923250D02*
D03*
X01903250D02*
D03*
X01883250D02*
D03*
X01863250D02*
D03*
X01843250D02*
D03*
X01823250D02*
D03*
D29*
X01386250D02*
D03*
X00552250Y01407500D02*
D03*
X00969250D02*
D03*
X01803250Y01407500D02*
D03*
D30*
X01885750Y01067500D02*
D03*
X01978250Y01339750D02*
D03*
X01953750Y01320000D02*
D03*
X01926500Y01297000D02*
D03*
X01901250Y01274750D02*
D03*
X00520000Y01359750D02*
D03*
X00518250Y01261750D02*
D03*
X00672750Y01316500D02*
D03*
X00834250Y01315000D02*
D03*
X01000500Y01316500D02*
D03*
X01685750Y01391750D02*
D03*
X01685250Y01361500D02*
D03*
X01627250Y01375500D02*
D03*
X01577067Y01360433D02*
D03*
X00653750Y01336500D02*
D03*
X00656000Y01237000D02*
D03*
X01325000Y01421500D02*
D03*
X01360000Y01388250D02*
D03*
X01283000Y01408000D02*
D03*
X01255000Y01392500D02*
D03*
Y01361250D02*
D03*
X01155750Y01357000D02*
D03*
X01094500D02*
D03*
X01035250Y01355750D02*
D03*
X00871340Y01390410D02*
D03*
X00817000Y01361750D02*
D03*
X00706340Y01360933D02*
D03*
X00767250Y01361500D02*
D03*
X01626750Y01422000D02*
D03*
X01195500Y01420750D02*
D03*
X00872500Y01421000D02*
D03*
X00491000Y01359500D02*
D03*
X00548000Y01360250D02*
D03*
X00490000Y01295250D02*
D03*
X01776500Y01360500D02*
D03*
X01862500Y01340250D02*
D03*
X01841000Y01319000D02*
D03*
X01822000Y01297000D02*
D03*
X01804500Y01274000D02*
D03*
X01789500Y01238000D02*
D03*
X01760590Y01321933D02*
D03*
X01485250Y01316750D02*
D03*
X01360340Y01360433D02*
D03*
X01647500Y01317250D02*
D03*
X01664750Y01285500D02*
D03*
X01501750D02*
D03*
X01340750Y01283250D02*
D03*
X01323250Y01317500D02*
D03*
X01176000Y01282000D02*
D03*
X01159750Y01317250D02*
D03*
X01016625Y01283875D02*
D03*
X00852000Y01285750D02*
D03*
X01628000Y01237500D02*
D03*
X01467750Y01240000D02*
D03*
X01303750Y01235750D02*
D03*
X01140000Y01236500D02*
D03*
X00976750Y01238250D02*
D03*
X00812500Y01239000D02*
D03*
X01667000Y01092250D02*
D03*
X01740000Y01071250D02*
D03*
X01725000Y01093250D02*
D03*
X01688500Y01054250D02*
D03*
X01700000Y01108750D02*
D03*
X01749590Y01192683D02*
D03*
X01749750Y01124750D02*
D03*
X00602000Y01005250D02*
D03*
X00580250Y01026000D02*
D03*
X00725250Y01109500D02*
D03*
X00866000Y01056000D02*
D03*
X01214250Y01042750D02*
D03*
X01198000Y01057750D02*
D03*
X01154750Y01073000D02*
D03*
X01245000Y01026500D02*
D03*
X01398000Y01025750D02*
D03*
X01427500Y01124750D02*
D03*
X01367000Y01057000D02*
D03*
X01506500Y01090250D02*
D03*
X01553500D02*
D03*
X01653795Y01071955D02*
D03*
X01489795Y01072455D02*
D03*
X01328045D02*
D03*
X01261500Y01124500D02*
D03*
X01253500Y01074750D02*
D03*
X01586250Y01124250D02*
D03*
X01586090Y01192183D02*
D03*
X01422840Y01191683D02*
D03*
X01260590Y01192433D02*
D03*
X01086250Y01002500D02*
D03*
X01012500Y01089250D02*
D03*
X00923500Y01004000D02*
D03*
X00910000Y01090250D02*
D03*
X00935500Y01191750D02*
D03*
X00856250Y01089250D02*
D03*
X00740750Y01024750D02*
D03*
X00759750Y01004000D02*
D03*
X00721250Y01055500D02*
D03*
X00769750Y01126250D02*
D03*
X01760340Y01270933D02*
D03*
X01790000Y01336750D02*
D03*
X01772591Y01299683D02*
D03*
X01785750Y01176000D02*
D03*
X01685750Y01237750D02*
D03*
X01596590Y01270933D02*
D03*
X01596840Y01321933D02*
D03*
X01522340Y01360433D02*
D03*
X01626250Y01336750D02*
D03*
X01608841Y01299683D02*
D03*
X01622000Y01176000D02*
D03*
X01522000Y01237750D02*
D03*
X01434590Y01270933D02*
D03*
X01434840Y01321933D02*
D03*
X01464250Y01336750D02*
D03*
X01446841Y01299683D02*
D03*
X01460000Y01176000D02*
D03*
X01360000Y01237750D02*
D03*
X01271090Y01270933D02*
D03*
X01271340Y01321933D02*
D03*
X01196840Y01360433D02*
D03*
X01300750Y01336750D02*
D03*
X01283341Y01299683D02*
D03*
X01296500Y01176000D02*
D03*
X01196500Y01237750D02*
D03*
X01098090Y01192433D02*
D03*
X01109090Y01270683D02*
D03*
X01109340Y01321683D02*
D03*
X01138750Y01336500D02*
D03*
X01121341Y01299433D02*
D03*
X01134500Y01175750D02*
D03*
X01034500Y01237500D02*
D03*
X00945590Y01271933D02*
D03*
X00945840Y01322933D02*
D03*
X00871340Y01361433D02*
D03*
X00975250Y01337750D02*
D03*
X00957841Y01300683D02*
D03*
X00971000Y01177000D02*
D03*
X00871000Y01238750D02*
D03*
X00706000Y01238250D02*
D03*
X00806000Y01176500D02*
D03*
X00792841Y01300183D02*
D03*
X00810250Y01337250D02*
D03*
X00780840Y01322433D02*
D03*
X00690840Y01284683D02*
D03*
X00780590Y01271433D02*
D03*
X00769590Y01193183D02*
D03*
X00622500Y01321750D02*
D03*
X00637250Y01299500D02*
D03*
X00648000Y01176000D02*
D03*
X00547150Y01237100D02*
D03*
X00622250Y01270750D02*
D03*
X00611250Y01192500D02*
D03*
X00545500Y01057000D02*
D03*
X01540750Y01040250D02*
D03*
X01581500Y01071500D02*
D03*
X01517000Y01055000D02*
D03*
X01416000Y01072000D02*
D03*
X01378000Y01109000D02*
D03*
X01070750Y01090250D02*
D03*
X01051000Y01110000D02*
D03*
X01101000Y01124000D02*
D03*
X01033750Y01056750D02*
D03*
X00937500Y01125500D02*
D03*
X00895750Y01039250D02*
D03*
X00560750Y01040000D02*
D03*
D33*
X02003400Y01144000D02*
D03*
X01990700D02*
D03*
X01978000D02*
D03*
X01965300D02*
D03*
X01952600D02*
D03*
X01939900D02*
D03*
X01927200D02*
D03*
X01914500D02*
D03*
X01901800D02*
D03*
X01889100D02*
D03*
X02003400Y01241000D02*
D03*
X01990700D02*
D03*
X01978000D02*
D03*
X01965300D02*
D03*
X01952600D02*
D03*
X01939900D02*
D03*
X01927200D02*
D03*
X01914500D02*
D03*
X01901800D02*
D03*
X01889100D02*
D03*
M02*
