G04*
G04 #@! TF.GenerationSoftware,Altium Limited,Altium Designer,25.2.1 (25)*
G04*
G04 Layer_Color=128*
%FSAX44Y44*%
%MOMM*%
G71*
G04*
G04 #@! TF.SameCoordinates,F3945BAA-94F4-4F02-825A-217E7DD4EA31*
G04*
G04*
G04 #@! TF.FilePolarity,Positive*
G04*
G01*
G75*
%ADD38C,0.1270*%
D38*
X01562250Y01407500D02*
X01570250D01*
X01566250Y01403500D02*
Y01411500D01*
X01542250Y01407500D02*
X01550250D01*
X01546250Y01403500D02*
Y01411500D01*
X01522250Y01407500D02*
X01530250D01*
X01526250Y01403500D02*
Y01411500D01*
X01502250Y01407500D02*
X01510250D01*
X01506250Y01403500D02*
Y01411500D01*
X01482250Y01407500D02*
X01490250D01*
X01486250Y01403500D02*
Y01411500D01*
X01462250Y01407500D02*
X01470250D01*
X01466250Y01403500D02*
Y01411500D01*
X01442250Y01407500D02*
X01450250D01*
X01446250Y01403500D02*
Y01411500D01*
X01422250Y01407500D02*
X01430250D01*
X01426250Y01403500D02*
Y01411500D01*
X01402250Y01407500D02*
X01410250D01*
X01406250Y01403500D02*
Y01411500D01*
X01382250Y01407500D02*
X01390250D01*
X01386250Y01403500D02*
Y01411500D01*
X00548250Y01407500D02*
X00556250D01*
X00552250Y01403500D02*
Y01411500D01*
X00568251Y01407500D02*
X00576250D01*
X00572251Y01403500D02*
Y01411500D01*
X00588250Y01407500D02*
X00596250D01*
X00592250Y01403500D02*
Y01411500D01*
X00608250Y01407500D02*
X00616250D01*
X00612250Y01403500D02*
Y01411500D01*
X00628250Y01407500D02*
X00636250D01*
X00632250Y01403500D02*
Y01411500D01*
X00648250Y01407500D02*
X00656250D01*
X00652250Y01403500D02*
Y01411500D01*
X00668250Y01407500D02*
X00676250D01*
X00672250Y01403500D02*
Y01411500D01*
X00688250Y01407500D02*
X00696250D01*
X00692250Y01403500D02*
Y01411500D01*
X00708250Y01407500D02*
X00716250D01*
X00712250Y01403500D02*
Y01411500D01*
X00728250Y01407500D02*
X00736250D01*
X00732250Y01403500D02*
Y01411500D01*
X00965250Y01407500D02*
X00973251D01*
X00969250Y01403500D02*
Y01411500D01*
X00985250Y01407500D02*
X00993250D01*
X00989250Y01403500D02*
Y01411500D01*
X01005250Y01407500D02*
X01013250D01*
X01009250Y01403500D02*
Y01411500D01*
X01025250Y01407500D02*
X01033250D01*
X01029250Y01403500D02*
Y01411500D01*
X01045250Y01407500D02*
X01053250D01*
X01049250Y01403500D02*
Y01411500D01*
X01065250Y01407500D02*
X01073250D01*
X01069250Y01403500D02*
Y01411500D01*
X01085250Y01407500D02*
X01093250D01*
X01089250Y01403500D02*
Y01411500D01*
X01105251Y01407500D02*
X01113251D01*
X01109251Y01403500D02*
Y01411500D01*
X01125251Y01407500D02*
X01133251D01*
X01129251Y01403500D02*
Y01411500D01*
X01145251Y01407500D02*
X01153251D01*
X01149251Y01403500D02*
Y01411500D01*
X01979250Y01407500D02*
X01987250D01*
X01983250Y01403500D02*
Y01411500D01*
X01959250Y01407500D02*
X01967250D01*
X01963250Y01403500D02*
Y01411500D01*
X01939250Y01407500D02*
X01947250D01*
X01943250Y01403500D02*
Y01411500D01*
X01919250Y01407500D02*
X01927250D01*
X01923250Y01403500D02*
Y01411500D01*
X01899250Y01407500D02*
X01907250D01*
X01903250Y01403500D02*
Y01411500D01*
X01879250Y01407500D02*
X01887250D01*
X01883250Y01403500D02*
Y01411500D01*
X01859250Y01407500D02*
X01867250D01*
X01863250Y01403500D02*
Y01411500D01*
X01839250Y01407500D02*
X01847250D01*
X01843250Y01403500D02*
Y01411500D01*
X01819250Y01407500D02*
X01827250D01*
X01823250Y01403500D02*
Y01411500D01*
X01799250Y01407500D02*
X01807250D01*
X01803250Y01403500D02*
Y01411500D01*
X01882194Y01067500D02*
X01889306D01*
X01885750Y01063944D02*
Y01071056D01*
X01974694Y01339750D02*
X01981806D01*
X01978250Y01336194D02*
Y01343306D01*
X01950194Y01320000D02*
X01957306D01*
X01953750Y01316444D02*
Y01323556D01*
X01922944Y01297000D02*
X01930056D01*
X01926500Y01293444D02*
Y01300556D01*
X01897694Y01274750D02*
X01904806D01*
X01901250Y01271194D02*
Y01278306D01*
X00516444Y01359750D02*
X00523556D01*
X00520000Y01356194D02*
Y01363306D01*
X00514694Y01261750D02*
X00521806D01*
X00518250Y01258194D02*
Y01265306D01*
X00669194Y01316500D02*
X00676306D01*
X00672750Y01312944D02*
Y01320056D01*
X00830694Y01315000D02*
X00837806D01*
X00834250Y01311444D02*
Y01318556D01*
X00996944Y01316500D02*
X01004056D01*
X01000500Y01312944D02*
Y01320056D01*
X01682194Y01391750D02*
X01689306D01*
X01685750Y01388194D02*
Y01395306D01*
X01681694Y01361500D02*
X01688806D01*
X01685250Y01357944D02*
Y01365056D01*
X01623694Y01375500D02*
X01630806D01*
X01627250Y01371944D02*
Y01379056D01*
X01573511Y01360433D02*
X01580623D01*
X01577067Y01356877D02*
Y01363989D01*
X00650194Y01336500D02*
X00657306D01*
X00653750Y01332944D02*
Y01340056D01*
X00652444Y01237000D02*
X00659556D01*
X00656000Y01233444D02*
Y01240556D01*
X01321444Y01421500D02*
X01328556D01*
X01325000Y01417944D02*
Y01425056D01*
X01356444Y01388250D02*
X01363556D01*
X01360000Y01384694D02*
Y01391806D01*
X01279444Y01408000D02*
X01286556D01*
X01283000Y01404444D02*
Y01411556D01*
X01251444Y01392500D02*
X01258556D01*
X01255000Y01388944D02*
Y01396056D01*
X01251444Y01361250D02*
X01258556D01*
X01255000Y01357694D02*
Y01364806D01*
X01152194Y01357000D02*
X01159306D01*
X01155750Y01353444D02*
Y01360556D01*
X01090944Y01357000D02*
X01098056D01*
X01094500Y01353444D02*
Y01360556D01*
X01031694Y01355750D02*
X01038806D01*
X01035250Y01352194D02*
Y01359306D01*
X00867784Y01390410D02*
X00874896D01*
X00871340Y01386854D02*
Y01393966D01*
X00813444Y01361750D02*
X00820556D01*
X00817000Y01358194D02*
Y01365306D01*
X00702784Y01360933D02*
X00709896D01*
X00706340Y01357377D02*
Y01364489D01*
X00763694Y01361500D02*
X00770806D01*
X00767250Y01357944D02*
Y01365056D01*
X01623194Y01422000D02*
X01630306D01*
X01626750Y01418444D02*
Y01425556D01*
X01191944Y01420750D02*
X01199056D01*
X01195500Y01417194D02*
Y01424306D01*
X00868944Y01421000D02*
X00876056D01*
X00872500Y01417444D02*
Y01424556D01*
X00487444Y01359500D02*
X00494556D01*
X00491000Y01355944D02*
Y01363056D01*
X00544444Y01360250D02*
X00551556D01*
X00548000Y01356694D02*
Y01363806D01*
X00486444Y01295250D02*
X00493556D01*
X00490000Y01291694D02*
Y01298806D01*
X01772944Y01360500D02*
X01780056D01*
X01776500Y01356944D02*
Y01364056D01*
X01858944Y01340250D02*
X01866056D01*
X01862500Y01336694D02*
Y01343806D01*
X01837444Y01319000D02*
X01844556D01*
X01841000Y01315444D02*
Y01322556D01*
X01818444Y01297000D02*
X01825556D01*
X01822000Y01293444D02*
Y01300556D01*
X01800944Y01274000D02*
X01808056D01*
X01804500Y01270444D02*
Y01277556D01*
X01785944Y01238000D02*
X01793056D01*
X01789500Y01234444D02*
Y01241556D01*
X01757034Y01321933D02*
X01764146D01*
X01760590Y01318377D02*
Y01325489D01*
X01481694Y01316750D02*
X01488806D01*
X01485250Y01313194D02*
Y01320306D01*
X01356784Y01360433D02*
X01363896D01*
X01360340Y01356877D02*
Y01363989D01*
X01643944Y01317250D02*
X01651056D01*
X01647500Y01313694D02*
Y01320806D01*
X01661194Y01285500D02*
X01668306D01*
X01664750Y01281944D02*
Y01289056D01*
X01498194Y01285500D02*
X01505306D01*
X01501750Y01281944D02*
Y01289056D01*
X01337194Y01283250D02*
X01344306D01*
X01340750Y01279694D02*
Y01286806D01*
X01319694Y01317500D02*
X01326806D01*
X01323250Y01313944D02*
Y01321056D01*
X01172444Y01282000D02*
X01179556D01*
X01176000Y01278444D02*
Y01285556D01*
X01156194Y01317250D02*
X01163306D01*
X01159750Y01313694D02*
Y01320806D01*
X01013069Y01283875D02*
X01020181D01*
X01016625Y01280319D02*
Y01287431D01*
X00848444Y01285750D02*
X00855556D01*
X00852000Y01282194D02*
Y01289306D01*
X01624444Y01237500D02*
X01631556D01*
X01628000Y01233944D02*
Y01241056D01*
X01464194Y01240000D02*
X01471306D01*
X01467750Y01236444D02*
Y01243556D01*
X01300194Y01235750D02*
X01307306D01*
X01303750Y01232194D02*
Y01239306D01*
X01136444Y01236500D02*
X01143556D01*
X01140000Y01232944D02*
Y01240056D01*
X00973194Y01238250D02*
X00980306D01*
X00976750Y01234694D02*
Y01241806D01*
X00808944Y01239000D02*
X00816056D01*
X00812500Y01235444D02*
Y01242556D01*
X01663444Y01092250D02*
X01670556D01*
X01667000Y01088694D02*
Y01095806D01*
X01736444Y01071250D02*
X01743556D01*
X01740000Y01067694D02*
Y01074806D01*
X01721444Y01093250D02*
X01728556D01*
X01725000Y01089694D02*
Y01096806D01*
X01684944Y01054250D02*
X01692056D01*
X01688500Y01050694D02*
Y01057806D01*
X01696444Y01108750D02*
X01703556D01*
X01700000Y01105194D02*
Y01112306D01*
X01746034Y01192683D02*
X01753146D01*
X01749590Y01189127D02*
Y01196239D01*
X01746194Y01124750D02*
X01753306D01*
X01749750Y01121194D02*
Y01128306D01*
X00598444Y01005250D02*
X00605556D01*
X00602000Y01001694D02*
Y01008806D01*
X00576694Y01026000D02*
X00583806D01*
X00580250Y01022444D02*
Y01029556D01*
X00721694Y01109500D02*
X00728806D01*
X00725250Y01105944D02*
Y01113056D01*
X00862444Y01056000D02*
X00869556D01*
X00866000Y01052444D02*
Y01059556D01*
X01210694Y01042750D02*
X01217806D01*
X01214250Y01039194D02*
Y01046306D01*
X01194444Y01057750D02*
X01201556D01*
X01198000Y01054194D02*
Y01061306D01*
X01151194Y01073000D02*
X01158306D01*
X01154750Y01069444D02*
Y01076556D01*
X01241444Y01026500D02*
X01248556D01*
X01245000Y01022944D02*
Y01030056D01*
X01394444Y01025750D02*
X01401556D01*
X01398000Y01022194D02*
Y01029306D01*
X01423944Y01124750D02*
X01431056D01*
X01427500Y01121194D02*
Y01128306D01*
X01363444Y01057000D02*
X01370556D01*
X01367000Y01053444D02*
Y01060556D01*
X01502944Y01090250D02*
X01510056D01*
X01506500Y01086694D02*
Y01093806D01*
X01549944Y01090250D02*
X01557056D01*
X01553500Y01086694D02*
Y01093806D01*
X01650239Y01071955D02*
X01657351D01*
X01653795Y01068399D02*
Y01075511D01*
X01486239Y01072455D02*
X01493351D01*
X01489795Y01068899D02*
Y01076011D01*
X01324489Y01072455D02*
X01331601D01*
X01328045Y01068899D02*
Y01076011D01*
X01257944Y01124500D02*
X01265056D01*
X01261500Y01120944D02*
Y01128056D01*
X01249944Y01074750D02*
X01257056D01*
X01253500Y01071194D02*
Y01078306D01*
X01582694Y01124250D02*
X01589806D01*
X01586250Y01120694D02*
Y01127806D01*
X01582534Y01192183D02*
X01589646D01*
X01586090Y01188627D02*
Y01195739D01*
X01419284Y01191683D02*
X01426396D01*
X01422840Y01188127D02*
Y01195239D01*
X01257034Y01192433D02*
X01264146D01*
X01260590Y01188877D02*
Y01195989D01*
X01082694Y01002500D02*
X01089806D01*
X01086250Y00998944D02*
Y01006056D01*
X01008944Y01089250D02*
X01016056D01*
X01012500Y01085694D02*
Y01092806D01*
X00919944Y01004000D02*
X00927056D01*
X00923500Y01000444D02*
Y01007556D01*
X00906444Y01090250D02*
X00913556D01*
X00910000Y01086694D02*
Y01093806D01*
X00931944Y01191750D02*
X00939056D01*
X00935500Y01188194D02*
Y01195306D01*
X00852694Y01089250D02*
X00859806D01*
X00856250Y01085694D02*
Y01092806D01*
X00737194Y01024750D02*
X00744306D01*
X00740750Y01021194D02*
Y01028306D01*
X00756194Y01004000D02*
X00763306D01*
X00759750Y01000444D02*
Y01007556D01*
X00717694Y01055500D02*
X00724806D01*
X00721250Y01051944D02*
Y01059056D01*
X00766194Y01126250D02*
X00773306D01*
X00769750Y01122694D02*
Y01129806D01*
X01756784Y01270933D02*
X01763896D01*
X01760340Y01267377D02*
Y01274489D01*
X01786444Y01336750D02*
X01793556D01*
X01790000Y01333194D02*
Y01340306D01*
X01769035Y01299683D02*
X01776147D01*
X01772591Y01296127D02*
Y01303239D01*
X01782194Y01176000D02*
X01789306D01*
X01785750Y01172444D02*
Y01179556D01*
X01682194Y01237750D02*
X01689306D01*
X01685750Y01234194D02*
Y01241306D01*
X01593034Y01270933D02*
X01600146D01*
X01596590Y01267377D02*
Y01274489D01*
X01593284Y01321933D02*
X01600396D01*
X01596840Y01318377D02*
Y01325489D01*
X01518784Y01360433D02*
X01525896D01*
X01522340Y01356877D02*
Y01363989D01*
X01622694Y01336750D02*
X01629806D01*
X01626250Y01333194D02*
Y01340306D01*
X01605285Y01299683D02*
X01612397D01*
X01608841Y01296127D02*
Y01303239D01*
X01618444Y01176000D02*
X01625556D01*
X01622000Y01172444D02*
Y01179556D01*
X01518444Y01237750D02*
X01525556D01*
X01522000Y01234194D02*
Y01241306D01*
X01431034Y01270933D02*
X01438146D01*
X01434590Y01267377D02*
Y01274489D01*
X01431284Y01321933D02*
X01438396D01*
X01434840Y01318377D02*
Y01325489D01*
X01460694Y01336750D02*
X01467806D01*
X01464250Y01333194D02*
Y01340306D01*
X01443285Y01299683D02*
X01450397D01*
X01446841Y01296127D02*
Y01303239D01*
X01456444Y01176000D02*
X01463556D01*
X01460000Y01172444D02*
Y01179556D01*
X01356444Y01237750D02*
X01363556D01*
X01360000Y01234194D02*
Y01241306D01*
X01267534Y01270933D02*
X01274646D01*
X01271090Y01267377D02*
Y01274489D01*
X01267784Y01321933D02*
X01274896D01*
X01271340Y01318377D02*
Y01325489D01*
X01193284Y01360433D02*
X01200396D01*
X01196840Y01356877D02*
Y01363989D01*
X01297194Y01336750D02*
X01304306D01*
X01300750Y01333194D02*
Y01340306D01*
X01279785Y01299683D02*
X01286897D01*
X01283341Y01296127D02*
Y01303239D01*
X01292944Y01176000D02*
X01300056D01*
X01296500Y01172444D02*
Y01179556D01*
X01192944Y01237750D02*
X01200056D01*
X01196500Y01234194D02*
Y01241306D01*
X01094534Y01192433D02*
X01101646D01*
X01098090Y01188877D02*
Y01195989D01*
X01105534Y01270683D02*
X01112646D01*
X01109090Y01267127D02*
Y01274239D01*
X01105784Y01321683D02*
X01112896D01*
X01109340Y01318127D02*
Y01325239D01*
X01135194Y01336500D02*
X01142306D01*
X01138750Y01332944D02*
Y01340056D01*
X01117785Y01299433D02*
X01124897D01*
X01121341Y01295877D02*
Y01302989D01*
X01130944Y01175750D02*
X01138056D01*
X01134500Y01172194D02*
Y01179306D01*
X01030944Y01237500D02*
X01038056D01*
X01034500Y01233944D02*
Y01241056D01*
X00942034Y01271933D02*
X00949146D01*
X00945590Y01268377D02*
Y01275489D01*
X00942284Y01322933D02*
X00949396D01*
X00945840Y01319377D02*
Y01326489D01*
X00867784Y01361433D02*
X00874896D01*
X00871340Y01357877D02*
Y01364989D01*
X00971694Y01337750D02*
X00978806D01*
X00975250Y01334194D02*
Y01341306D01*
X00954285Y01300683D02*
X00961397D01*
X00957841Y01297127D02*
Y01304239D01*
X00967444Y01177000D02*
X00974556D01*
X00971000Y01173444D02*
Y01180556D01*
X00867444Y01238750D02*
X00874556D01*
X00871000Y01235194D02*
Y01242306D01*
X00702444Y01238250D02*
X00709556D01*
X00706000Y01234694D02*
Y01241806D01*
X00802444Y01176500D02*
X00809556D01*
X00806000Y01172944D02*
Y01180056D01*
X00789285Y01300183D02*
X00796397D01*
X00792841Y01296627D02*
Y01303739D01*
X00806694Y01337250D02*
X00813806D01*
X00810250Y01333694D02*
Y01340806D01*
X00777284Y01322433D02*
X00784396D01*
X00780840Y01318877D02*
Y01325989D01*
X00687284Y01284683D02*
X00694396D01*
X00690840Y01281127D02*
Y01288239D01*
X00777034Y01271433D02*
X00784146D01*
X00780590Y01267877D02*
Y01274989D01*
X00766034Y01193183D02*
X00773146D01*
X00769590Y01189627D02*
Y01196739D01*
X00618944Y01321750D02*
X00626056D01*
X00622500Y01318194D02*
Y01325306D01*
X00633694Y01299500D02*
X00640806D01*
X00637250Y01295944D02*
Y01303056D01*
X00644444Y01176000D02*
X00651556D01*
X00648000Y01172444D02*
Y01179556D01*
X00543594Y01237100D02*
X00550706D01*
X00547150Y01233544D02*
Y01240656D01*
X00618694Y01270750D02*
X00625806D01*
X00622250Y01267194D02*
Y01274306D01*
X00607694Y01192500D02*
X00614806D01*
X00611250Y01188944D02*
Y01196056D01*
X00541944Y01057000D02*
X00549056D01*
X00545500Y01053444D02*
Y01060556D01*
X01537194Y01040250D02*
X01544306D01*
X01540750Y01036694D02*
Y01043806D01*
X01577944Y01071500D02*
X01585056D01*
X01581500Y01067944D02*
Y01075056D01*
X01513444Y01055000D02*
X01520556D01*
X01517000Y01051444D02*
Y01058556D01*
X01412444Y01072000D02*
X01419556D01*
X01416000Y01068444D02*
Y01075556D01*
X01374444Y01109000D02*
X01381556D01*
X01378000Y01105444D02*
Y01112556D01*
X01067194Y01090250D02*
X01074306D01*
X01070750Y01086694D02*
Y01093806D01*
X01047444Y01110000D02*
X01054556D01*
X01051000Y01106444D02*
Y01113556D01*
X01097444Y01124000D02*
X01104556D01*
X01101000Y01120444D02*
Y01127556D01*
X01030194Y01056750D02*
X01037306D01*
X01033750Y01053194D02*
Y01060306D01*
X00933944Y01125500D02*
X00941056D01*
X00937500Y01121944D02*
Y01129056D01*
X00892194Y01039250D02*
X00899306D01*
X00895750Y01035694D02*
Y01042806D01*
X00557194Y01040000D02*
X00564306D01*
X00560750Y01036444D02*
Y01043556D01*
M02*
