G04*
G04 #@! TF.GenerationSoftware,Altium Limited,Altium Designer,25.2.1 (25)*
G04*
G04 Layer_Color=8388736*
%FSAX44Y44*%
%MOMM*%
G71*
G04*
G04 #@! TF.SameCoordinates,962EF830-37C3-45C2-9A6A-2A16DDEA0E73*
G04*
G04*
G04 #@! TF.FilePolarity,Positive*
G04*
G01*
G75*
%ADD11C,0.2000*%
D11*
X01782000Y00316750D02*
Y00338750D01*
Y00316750D02*
X01987000D01*
Y00338750D01*
X01782000D02*
X01987000D01*
X01581850Y01211750D02*
X01638649D01*
X01581850D02*
Y01235750D01*
X01638649D01*
Y01211750D02*
Y01235750D01*
X00494415Y00745325D02*
X00551215D01*
X00494415D02*
Y00769324D01*
X00551215D01*
Y00745325D02*
Y00769324D01*
X00495500Y01210750D02*
X00552300D01*
X00495500D02*
Y01234750D01*
X00552300D01*
Y01210750D02*
Y01234750D01*
X01582850Y00745750D02*
X01639650D01*
X01582850D02*
Y00769750D01*
X01639650D01*
Y00745750D02*
Y00769750D01*
X01042750Y01212000D02*
X01099550D01*
X01042750D02*
Y01236000D01*
X01099550D01*
Y01212000D02*
Y01236000D01*
X01042250Y00747250D02*
X01099050D01*
X01042250D02*
Y00771250D01*
X01099050D01*
Y00747250D02*
Y00771250D01*
X02129251Y00746500D02*
X02186051D01*
X02129251D02*
Y00770500D01*
X02186051D01*
Y00746500D02*
Y00770500D01*
X02128750Y01210000D02*
X02185550D01*
X02128750D02*
Y01234000D01*
X02185550D01*
Y01210000D02*
Y01234000D01*
X02178000Y00334385D02*
X02383000D01*
Y00312385D02*
Y00334385D01*
X02178000Y00312385D02*
X02383000D01*
X02178000D02*
Y00334385D01*
X00273750Y00312385D02*
X00478750D01*
X00273750D02*
Y00334385D01*
X00478750D01*
Y00312385D02*
Y00334385D01*
X00494750Y01663000D02*
X00551550D01*
X00494750D02*
Y01687000D01*
X00551550D01*
Y01663000D02*
Y01687000D01*
X01100150Y02124500D02*
Y02148500D01*
X01043350D02*
X01100150D01*
X01043350Y02124500D02*
Y02148500D01*
Y02124500D02*
X01100150D01*
X00551550Y02125250D02*
Y02149250D01*
X00494750D02*
X00551550D01*
X00494750Y02125250D02*
Y02149250D01*
Y02125250D02*
X00551550D01*
X01637800Y02125000D02*
Y02149000D01*
X01581000D02*
X01637800D01*
X01581000Y02125000D02*
Y02149000D01*
Y02125000D02*
X01637800D01*
X02185050D02*
Y02149000D01*
X02128250D02*
X02185050D01*
X02128250Y02125000D02*
Y02149000D01*
Y02125000D02*
X02185050D01*
X01100150Y01662500D02*
Y01686500D01*
X01043350D02*
X01100150D01*
X01043350Y01662500D02*
Y01686500D01*
Y01662500D02*
X01100150D01*
X01637800Y01661000D02*
Y01685000D01*
X01581000D02*
X01637800D01*
X01581000Y01661000D02*
Y01685000D01*
Y01661000D02*
X01637800D01*
X02185050Y01663750D02*
Y01687750D01*
X02128250D02*
X02185050D01*
X02128250Y01663750D02*
Y01687750D01*
Y01663750D02*
X02185050D01*
M02*
