G04*
G04 #@! TF.GenerationSoftware,Altium Limited,Altium Designer,25.2.1 (25)*
G04*
G04 Layer_Color=8421504*
%FSAX44Y44*%
%MOMM*%
G71*
G04*
G04 #@! TF.SameCoordinates,962EF830-37C3-45C2-9A6A-2A16DDEA0E73*
G04*
G04*
G04 #@! TF.FilePolarity,Positive*
G04*
G01*
G75*
%ADD15R,0.8000X0.9500*%
%ADD16R,0.8000X0.8000*%
D15*
X01300934Y00412250D02*
D03*
X01287434D02*
D03*
X01389013Y00413500D02*
D03*
X01375513D02*
D03*
X01477092D02*
D03*
X01463592D02*
D03*
X01565171D02*
D03*
X01551671D02*
D03*
X01653250Y00411750D02*
D03*
X01639750D02*
D03*
X01036697Y00412250D02*
D03*
X01023197D02*
D03*
X01124776D02*
D03*
X01111276D02*
D03*
X01212855D02*
D03*
X01199355D02*
D03*
D16*
X01198855Y00354000D02*
D03*
X01213855D02*
D03*
X01551171Y00355250D02*
D03*
X01566171D02*
D03*
X01639250Y00353250D02*
D03*
X01654250D02*
D03*
X01463092Y00355250D02*
D03*
X01478092D02*
D03*
X01375013D02*
D03*
X01390013D02*
D03*
X01110776Y00354000D02*
D03*
X01125776D02*
D03*
X01022697D02*
D03*
X01037697D02*
D03*
X01286934D02*
D03*
X01301934D02*
D03*
M02*
