M48
;Layer_Color=9474304
;FILE_FORMAT=4:4
METRIC
;TYPE=PLATED
T01F00S00C0.6000
T02F00S00C0.7112
T03F00S00C0.8000
T04F00S00C0.8500
%
T01
X02138600Y00758500
X02151300
X02164000
X02176700
X01630300Y00757750
X01617600
X01604900
X01592200
X01089700Y00759250
X01077000
X01064300
X01051600
X00541865Y00757325
X00529165
X00516465
X00503765
X02138100Y01222000
X02150800
X02163500
X02176200
X01629300Y01223750
X01616600
X01603900
X01591200
X01090200Y01224000
X01077500
X01064800
X01052100
X00542951Y01222750
X00530251
X00517551
X00504851
X00504100Y01675000
X00516800
X00529500
X00542200
X01052700Y01674500
X01065400
X01078100
X01090800
X01590350Y01673000
X01603050
X01615750
X01628450
X02137601Y01675750
X02150300
X02163000
X02175701
X02175700Y02137000
X02163000
X02150300
X02137600
X01628450
X01615750
X01603050
X01590350
X01090800Y02136500
X01078100
X01065400
X01052700
X00542200Y02137250
X00529500
X00516800
X00504100
T02
X02461750Y00354250
X02449500Y00380000
X02556000Y00282750
X02422500Y00397750
X02403750Y00421500
X02413750Y00705250
X02559000Y00590500
X02331250Y00540500
X02311000Y00559500
X02289750Y00580250
X02273750Y00601750
X02253250Y00623250
X02232750Y00645750
X02210500Y00664750
X02194000Y00685000
X02104750Y00682500
X02078750Y00663750
X02054750Y00642000
X02034000Y00620750
X02013000Y00602000
X01991000Y00584500
X02137250Y00458250
X02174250Y00442750
X02331250Y00739250
X02352000Y00720750
X01868875Y00704875
X01807000Y00721500
X01787500Y00739000
X01765250Y00791000
X01648750Y00684250
X01665250Y00664000
X01687500Y00645000
X01708000Y00622500
X01728500Y00601000
X01744500Y00579500
X01765750Y00558750
X01786000Y00539750
X01956500Y00542500
X01971000Y00565000
X01556000Y00682750
X01530250Y00662250
X01509000Y00641250
X01484750Y00620000
X01464250Y00601750
X01443250Y00583250
X01422750Y00564250
X01406250Y00540750
X01245750Y00540000
X01225500Y00559000
X01204250Y00579750
X01246500Y00738500
X01266250Y00720500
X01328500Y00705500
X01225000Y00791000
X01108500Y00684500
X01125000Y00664250
X01147250Y00645250
X01167750Y00622750
X01188250Y00601250
X01018750Y00684000
X00992750Y00665250
X00968750Y00643500
X00948000Y00622250
X00927000Y00603500
X00905000Y00586000
X00885000Y00566500
X00870500Y00544000
X00700250Y00543750
X00679250Y00561500
X00660500Y00583500
X00642000Y00603750
X00621500Y00625250
X00603750Y00646000
X00578750Y00666750
X00562250Y00687000
X00465750Y00683750
X00440250Y00663000
X00416250Y00641250
X00700750Y00738500
X00720500Y00720500
X00782750Y00705500
X00679500Y00788000
X00395000Y00622000
X00374500Y00601250
X00355750Y00584000
X00336750Y00563750
X00319500Y00540750
X00319250Y01008500
X00333750Y01031000
X00353750Y01050500
X00375750Y01068000
X00396750Y01086750
X00417500Y01108000
X00441500Y01129750
X00465066Y01150934
X00563250Y01147250
X00580500Y01128000
X00603375Y01107625
X00623500Y01087000
X00643500Y01066500
X00659250Y01046250
X00679750Y01026250
X00700500Y01006500
X00562500Y00920250
X00579000Y00895250
X00602500Y00875250
X00622000Y00857500
X00643000Y00839000
X00660250Y00818750
X00870500Y01009000
X00885000Y01031500
X00905000Y01051000
X00927000Y01068500
X00948000Y01087250
X00968750Y01108500
X00992750Y01130250
X01018750Y01149000
X01108750
X01125250Y01128750
X01148000Y01109250
X01168000Y01087250
X01188500Y01065750
X01108250Y00920250
X01124750Y00895250
X01148250Y00875250
X01167750Y00857500
X01188750Y00839000
X01206000Y00818750
X01246000Y01004500
X01224750Y01026500
X01204750Y01047000
X01421500Y01029500
X01407000Y01007000
X01441500Y01049000
X01463500Y01066500
X01484500Y01085250
X01505250Y01106500
X01529250Y01128250
X01555250Y01147000
X01648750Y01149750
X01665250Y01129500
X01687500Y01110500
X01708000Y01088000
X01727000Y01066250
X01744750Y01046750
X01763750Y01025000
X01786000Y01005250
X01956250Y01007500
X01970750Y01030000
X01727500Y00841000
X01707000Y00858000
X01687250Y00875250
X01665250Y00895750
X01647250Y00920250
X01745000Y00818750
X01990750Y01049500
X02012750Y01067000
X02033750Y01085750
X02054500Y01107000
X02078500Y01128750
X02104500Y01147500
X02193000Y01147750
X02210250Y01127500
X02229500Y01108750
X02252250Y01086000
X02272750Y01064500
X02288750Y01043000
X02310000Y01022250
X02330250Y01003250
X02191500Y00920250
X02211750Y00897750
X02231500Y00875250
X02253000Y00858000
X02272000Y00839000
X02289250Y00818750
X02310000Y00795250
X02309500Y01478500
X02329750Y01459500
X02290500Y01500000
X02272000Y01521750
X02251750Y01542250
X02231250Y01564750
X02210750Y01583000
X02078000Y01582750
X02054000Y01561000
X02033250Y01539750
X02012250Y01521000
X01990250Y01503500
X01970250Y01484000
X01955750Y01461500
X01929250Y01371250
X01786000Y01455750
X01765750Y01474750
X01744000Y01499500
X01728500Y01517000
X01708000Y01538500
X01687500Y01561000
X01665250Y01580000
X01530000Y01580250
X01506000Y01558500
X01485250Y01537250
X01464250Y01518500
X01442250Y01501000
X01422250Y01481500
X01407750Y01459000
X01246000Y01457750
X01225750Y01476750
X01204500Y01497500
X01188500Y01519000
X01168000Y01540500
X01147500Y01563000
X01125250Y01582000
X00992250Y01581250
X00968250Y01559500
X00947500Y01538250
X00926500Y01519500
X00904500Y01502000
X00884500Y01482500
X00870000Y01460000
X00700250Y01456750
X00680000Y01475750
X00658750Y01496500
X00642750Y01518000
X00622250Y01539500
X00601750Y01562000
X00579500Y01581000
X00442000
X00418000Y01559250
X00397250Y01538000
X00376250Y01519250
X00354250Y01501750
X00334250Y01482250
X00319750Y01459750
X00335750Y01831750
X00319750Y01851000
X00356000Y01814750
X00376250Y01798750
X00397750Y01779500
X00419000Y01763500
X00441500Y01745500
X00466500Y01724000
X00468000Y01599750
X00563000Y01601250
X01018250Y01600000
X01108750Y01602250
X01016250Y01724000
X00991250Y01745500
X00968750Y01763500
X00947500Y01779500
X00926000Y01798750
X00905750Y01814750
X00885500Y01831750
X00869500Y01851000
X01406750
X01422750Y01831750
X01443000Y01814750
X01463250Y01798750
X01484750Y01779500
X01506000Y01763500
X01528500Y01745500
X01549000Y01722750
X01551000Y01599000
X01648750Y01600250
X01971750Y01831750
X01955750Y01851000
X01992000Y01814750
X02012250Y01798750
X02033750Y01779500
X02055000Y01763500
X02077500Y01745500
X02102500Y01724000
X02104000Y01601500
X02191250Y01600500
T03
X00286250Y00323385
X00306250
X00326250
X00346250
X00366250
X00386250
X00406250
X00426250
X00446250
X00466250
X01794500Y00327750
X01814500
X01834500
X01854500
X01874500
X01894500
X01914500
X01934500
X01954500
X01974500
X02190500Y00323385
X02210500
X02230500
X02250500
X02270500
X02290500
X02310500
X02330500
X02350500
X02370500
T04
X02387000Y00503250
Y00523250
Y00543250
Y00563250
Y00583250
Y00603250
Y00623250
Y00643250
Y00663250
Y00683250
X02515750Y00691520
Y00671520
Y00651520
Y00631520
Y00611520
Y00591520
Y00571520
Y00551520
Y00531520
Y00511520
X01929000Y00503250
Y00523250
Y00543250
Y00563250
Y00583250
Y00603250
Y00623250
Y00643250
Y00663250
Y00683250
X01839250Y00682000
Y00662000
Y00642000
Y00622000
Y00602000
Y00582000
Y00562000
Y00542000
Y00522000
Y00502000
X01382000
Y00522000
Y00542000
Y00562000
Y00582000
Y00602000
Y00622000
Y00642000
Y00662000
Y00682000
X01300250Y00683500
Y00663500
Y00643500
Y00623500
Y00603500
Y00583500
Y00563500
Y00543500
Y00523500
Y00503500
X00842500
Y00523500
Y00543500
Y00563500
Y00583500
Y00603500
Y00623500
Y00643500
Y00663500
Y00683500
X00752165Y00682075
Y00662075
Y00642075
Y00622075
Y00602075
Y00582075
Y00562075
Y00542075
Y00522075
Y00502074
X00294665
Y00522075
Y00542075
Y00562075
Y00582075
Y00602075
Y00622075
Y00642075
Y00662075
Y00682075
X00295750Y00967250
Y00987250
Y01007250
Y01027250
Y01047250
Y01067250
Y01087250
Y01107250
Y01127250
Y01147250
X00753250
Y01127250
Y01107250
Y01087250
Y01067250
Y01047250
Y01027250
Y01007250
Y00987250
Y00967250
X00843000Y00968500
Y00988500
Y01008500
Y01028500
Y01048500
Y01068500
Y01088500
Y01108500
Y01128500
Y01148500
X01300750
Y01128500
Y01108500
Y01088500
Y01068500
Y01048500
Y01028500
Y01008500
Y00988500
Y00968500
X01381000Y00968750
Y00988750
Y01008750
Y01028750
Y01048750
Y01068750
Y01088750
Y01108750
Y01128750
Y01148750
X01838250
Y01128750
Y01108750
Y01088750
Y01068750
Y01048750
Y01028750
Y01008750
Y00988750
Y00968750
X01928500Y00967000
Y00987000
Y01007000
Y01027000
Y01047000
Y01067000
Y01087000
Y01107000
Y01127000
Y01147000
X02386500
Y01127000
Y01107000
Y01087000
Y01067000
Y01047000
Y01027000
Y01007000
Y00987000
Y00967000
X02515750Y00973097
Y00993097
Y01013097
Y01033097
Y01053097
Y01073097
Y01093097
Y01113097
Y00953097
Y00933097
Y01347808
Y01367808
Y01387808
Y01407808
Y01427808
Y01447808
Y01467808
Y01487808
Y01507808
Y01527808
X02386000Y01520250
Y01540250
Y01560250
Y01580250
Y01500250
Y01480250
Y01460250
Y01440250
Y01420250
X01928500
Y01440250
Y01460250
Y01480250
Y01500250
Y01520250
Y01540250
Y01560250
Y01580250
X01839000
Y01560250
Y01540250
Y01520250
Y01500250
Y01480250
Y01460250
Y01440250
Y01420250
X01381250
Y01440250
Y01460250
Y01480250
Y01500250
Y01520250
Y01540250
Y01560250
Y01580250
X01299750
Y01560250
Y01540250
Y01520250
Y01500250
Y01480250
Y01460250
Y01440250
Y01420250
X00842500
Y01440250
Y01460250
Y01480250
Y01500250
Y01520250
Y01540250
Y01560250
Y01580250
X00752500
Y01560250
Y01540250
Y01520250
Y01500250
Y01480250
Y01460250
Y01440250
Y01420250
X00294500
Y01440250
Y01460250
Y01480250
Y01500250
Y01520250
Y01540250
Y01560250
Y01580250
Y01600250
X00295000Y01878000
Y01898000
Y01918000
Y01938000
Y01958000
Y01978000
X00752500Y01978500
Y01958500
Y01938500
Y01918500
Y01898500
Y01878500
Y01600250
X00842500
X00843250Y01878250
Y01898250
Y01918250
Y01938250
Y01958250
Y01978250
X01299000Y01979000
Y01959000
Y01939000
Y01919000
Y01899000
Y01879000
X01381000Y01876750
Y01896750
Y01916750
Y01936750
Y01956750
Y01976750
X01381250Y01600250
X01299750
X01839000
X01928500
X01928000Y01877750
Y01897750
Y01917750
Y01937750
Y01957750
Y01977750
X01838500Y01979250
Y01959250
Y01939250
Y01919250
Y01899250
Y01879250
X02386000Y01879750
Y01899750
Y01919750
Y01939750
Y01959750
Y01979750
X02515750Y01942520
Y01922520
Y01902520
Y01882520
Y01862520
Y01842520
Y01822520
Y01802520
Y01782520
Y01762520
X02386000Y01600250
Y01999750
Y02019750
Y02039750
Y02059750
X01928000Y02057750
Y02037750
Y02017750
Y01997750
X01838500Y01999250
Y02019250
Y02039250
Y02059250
X01381000Y02056750
Y02036750
Y02016750
Y01996750
X01299000Y01999000
Y02019000
Y02039000
Y02059000
X00843250Y02058250
Y02038250
Y02018250
Y01998250
X00752500Y01998500
Y02018500
Y02038500
Y02058500
X00295000Y02058000
Y02038000
Y02018000
Y01998000
M30
