G04*
G04 #@! TF.GenerationSoftware,Altium Limited,Altium Designer,25.2.1 (25)*
G04*
G04 Layer_Color=16711935*
%FSAX44Y44*%
%MOMM*%
G71*
G04*
G04 #@! TF.SameCoordinates,962EF830-37C3-45C2-9A6A-2A16DDEA0E73*
G04*
G04*
G04 #@! TF.FilePolarity,Positive*
G04*
G01*
G75*
%ADD11C,0.2000*%
%ADD13C,0.1270*%
%ADD31C,0.1000*%
D11*
X02516750Y01960520D02*
G03*
X02516750Y01960520I-00001000J00000000D01*
G01*
Y00709520D02*
G03*
X02516750Y00709520I-00001000J00000000D01*
G01*
Y01545808D02*
G03*
X02516750Y01545808I-00001000J00000000D01*
G01*
Y01131097D02*
G03*
X02516750Y01131097I-00001000J00000000D01*
G01*
X01382000Y01166750D02*
G03*
X01382000Y01166750I-00001000J00000000D01*
G01*
X01839250D02*
G03*
X01839250Y01166750I-00001000J00000000D01*
G01*
X00295665Y00700075D02*
G03*
X00295665Y00700075I-00001000J00000000D01*
G01*
X00296750Y01165250D02*
G03*
X00296750Y01165250I-00001000J00000000D01*
G01*
X00753165Y00700075D02*
G03*
X00753165Y00700075I-00001000J00000000D01*
G01*
X00754250Y01165250D02*
G03*
X00754250Y01165250I-00001000J00000000D01*
G01*
X00843500Y00701500D02*
G03*
X00843500Y00701500I-00001000J00000000D01*
G01*
X01840250Y00700000D02*
G03*
X01840250Y00700000I-00001000J00000000D01*
G01*
X00844000Y01166500D02*
G03*
X00844000Y01166500I-00001000J00000000D01*
G01*
X01301750D02*
G03*
X01301750Y01166500I-00001000J00000000D01*
G01*
X01301250Y00701500D02*
G03*
X01301250Y00701500I-00001000J00000000D01*
G01*
X01929500Y01165000D02*
G03*
X01929500Y01165000I-00001000J00000000D01*
G01*
X01930000Y00701250D02*
G03*
X01930000Y00701250I-00001000J00000000D01*
G01*
X02387500Y01165000D02*
G03*
X02387500Y01165000I-00001000J00000000D01*
G01*
X02388000Y00701250D02*
G03*
X02388000Y00701250I-00001000J00000000D01*
G01*
X01383000Y00700000D02*
G03*
X01383000Y00700000I-00001000J00000000D01*
G01*
X02387000Y02077750D02*
G03*
X02387000Y02077750I-00001000J00000000D01*
G01*
X00844250Y02076250D02*
G03*
X00844250Y02076250I-00001000J00000000D01*
G01*
X01300000Y02077000D02*
G03*
X01300000Y02077000I-00001000J00000000D01*
G01*
X01382000Y02074750D02*
G03*
X01382000Y02074750I-00001000J00000000D01*
G01*
X00296000Y02076000D02*
G03*
X00296000Y02076000I-00001000J00000000D01*
G01*
X00753500Y02076500D02*
G03*
X00753500Y02076500I-00001000J00000000D01*
G01*
X01839500Y02077250D02*
G03*
X01839500Y02077250I-00001000J00000000D01*
G01*
X01929000Y02075750D02*
G03*
X01929000Y02075750I-00001000J00000000D01*
G01*
X00295500Y01618250D02*
G03*
X00295500Y01618250I-00001000J00000000D01*
G01*
X00753500D02*
G03*
X00753500Y01618250I-00001000J00000000D01*
G01*
X01300750D02*
G03*
X01300750Y01618250I-00001000J00000000D01*
G01*
X00843500D02*
G03*
X00843500Y01618250I-00001000J00000000D01*
G01*
X01382250D02*
G03*
X01382250Y01618250I-00001000J00000000D01*
G01*
X01929500D02*
G03*
X01929500Y01618250I-00001000J00000000D01*
G01*
X01840000D02*
G03*
X01840000Y01618250I-00001000J00000000D01*
G01*
X02387000D02*
G03*
X02387000Y01618250I-00001000J00000000D01*
G01*
D13*
X02503750Y01750020D02*
Y01955020D01*
X02527750D01*
Y01750020D02*
Y01955020D01*
X02503750Y01750020D02*
X02527750D01*
X02503750Y00499020D02*
Y00704020D01*
X02527750D01*
Y00499020D02*
Y00704020D01*
X02503750Y00499020D02*
X02527750D01*
X02503750Y01335308D02*
Y01540308D01*
X02527750D01*
Y01335308D02*
Y01540308D01*
X02503750Y01335308D02*
X02527750D01*
X02503750Y00920597D02*
Y01125597D01*
X02527750D01*
Y00920597D02*
Y01125597D01*
X02503750Y00920597D02*
X02527750D01*
X01369000Y00956250D02*
X01393000D01*
Y01161250D01*
X01369000D02*
X01393000D01*
X01369000Y00956250D02*
Y01161250D01*
X01826250Y00956250D02*
X01850250D01*
Y01161250D01*
X01826250D02*
X01850250D01*
X01826250Y00956250D02*
Y01161250D01*
X00282665Y00489575D02*
X00306665D01*
Y00694574D01*
X00282665D02*
X00306665D01*
X00282665Y00489575D02*
Y00694574D01*
X00283750Y00954750D02*
X00307750D01*
Y01159750D01*
X00283750D02*
X00307750D01*
X00283750Y00954750D02*
Y01159750D01*
X00740165Y00489575D02*
X00764165D01*
Y00694574D01*
X00740165D02*
X00764165D01*
X00740165Y00489575D02*
Y00694574D01*
X00741250Y00954750D02*
X00765250D01*
Y01159750D01*
X00741250D02*
X00765250D01*
X00741250Y00954750D02*
Y01159750D01*
X00830500Y00491000D02*
X00854500D01*
Y00696000D01*
X00830500D02*
X00854500D01*
X00830500Y00491000D02*
Y00696000D01*
X01827250Y00489500D02*
X01851250D01*
Y00694500D01*
X01827250D02*
X01851250D01*
X01827250Y00489500D02*
Y00694500D01*
X00831000Y00956000D02*
X00855000D01*
Y01161000D01*
X00831000D02*
X00855000D01*
X00831000Y00956000D02*
Y01161000D01*
X01288750Y00956000D02*
X01312750D01*
Y01161000D01*
X01288750D02*
X01312750D01*
X01288750Y00956000D02*
Y01161000D01*
X01288250Y00491000D02*
X01312250D01*
Y00696000D01*
X01288250D02*
X01312250D01*
X01288250Y00491000D02*
Y00696000D01*
X01916500Y00954500D02*
X01940500D01*
Y01159500D01*
X01916500D02*
X01940500D01*
X01916500Y00954500D02*
Y01159500D01*
X01917000Y00490750D02*
X01941001D01*
Y00695750D01*
X01917000D02*
X01941001D01*
X01917000Y00490750D02*
Y00695750D01*
X02374500Y00954500D02*
X02398500D01*
Y01159500D01*
X02374500D02*
X02398500D01*
X02374500Y00954500D02*
Y01159500D01*
X02375000Y00490750D02*
X02399000D01*
Y00695750D01*
X02375000D02*
X02399000D01*
X02375000Y00490750D02*
Y00695750D01*
X01370000Y00489500D02*
X01394000D01*
Y00694500D01*
X01370000D02*
X01394000D01*
X01370000Y00489500D02*
Y00694500D01*
X02374000Y01867250D02*
Y02072250D01*
X02398000D01*
Y01867250D02*
Y02072250D01*
X02374000Y01867250D02*
X02398000D01*
X00831250Y01865750D02*
Y02070750D01*
X00855250D01*
Y01865750D02*
Y02070750D01*
X00831250Y01865750D02*
X00855250D01*
X01287000Y01866500D02*
Y02071500D01*
X01311000D01*
Y01866500D02*
Y02071500D01*
X01287000Y01866500D02*
X01311000D01*
X01369000Y01864250D02*
Y02069250D01*
X01393000D01*
Y01864250D02*
Y02069250D01*
X01369000Y01864250D02*
X01393000D01*
X00283000Y01865500D02*
Y02070500D01*
X00307000D01*
Y01865500D02*
Y02070500D01*
X00283000Y01865500D02*
X00307000D01*
X00740500Y01866000D02*
Y02071000D01*
X00764500D01*
Y01866000D02*
Y02071000D01*
X00740500Y01866000D02*
X00764500D01*
X01826500Y01866750D02*
Y02071750D01*
X01850500D01*
Y01866750D02*
Y02071750D01*
X01826500Y01866750D02*
X01850500D01*
X01916000Y01865250D02*
Y02070250D01*
X01940000D01*
Y01865250D02*
Y02070250D01*
X01916000Y01865250D02*
X01940000D01*
X00282500Y01407750D02*
Y01612750D01*
X00306500D01*
Y01407750D02*
Y01612750D01*
X00282500Y01407750D02*
X00306500D01*
X00740500D02*
Y01612750D01*
X00764500D01*
Y01407750D02*
Y01612750D01*
X00740500Y01407750D02*
X00764500D01*
X01287750D02*
Y01612750D01*
X01311750D01*
Y01407750D02*
Y01612750D01*
X01287750Y01407750D02*
X01311750D01*
X00830500D02*
Y01612750D01*
X00854500D01*
Y01407750D02*
Y01612750D01*
X00830500Y01407750D02*
X00854500D01*
X01369250D02*
Y01612750D01*
X01393250D01*
Y01407750D02*
Y01612750D01*
X01369250Y01407750D02*
X01393250D01*
X01916500D02*
Y01612750D01*
X01940500D01*
Y01407750D02*
Y01612750D01*
X01916500Y01407750D02*
X01940500D01*
X01827000D02*
Y01612750D01*
X01851000D01*
Y01407750D02*
Y01612750D01*
X01827000Y01407750D02*
X01851000D01*
X02374000D02*
Y01612750D01*
X02398000D01*
Y01407750D02*
Y01612750D01*
X02374000Y01407750D02*
X02398000D01*
D31*
X01063000Y01151750D02*
Y01160750D01*
X01080000Y01151750D02*
Y01160750D01*
X01063000Y01151750D02*
X01080000D01*
X01063000Y01160750D02*
X01080000D01*
X00516000Y01600000D02*
Y01609000D01*
X00533000Y01600000D02*
Y01609000D01*
X00516000Y01600000D02*
X00533000D01*
X00516000Y01609000D02*
X00533000D01*
X01600250Y02055250D02*
Y02064250D01*
X01617250Y02055250D02*
Y02064250D01*
X01600250Y02055250D02*
X01617250D01*
X01600250Y02064250D02*
X01617250D01*
X02149500Y02072750D02*
Y02081750D01*
X02166500Y02072750D02*
Y02081750D01*
X02149500Y02072750D02*
X02166500D01*
X02149500Y02081750D02*
X02166500D01*
X01059500Y00667500D02*
X01076500D01*
X01059500Y00676500D02*
X01076500D01*
X01059500Y00667500D02*
Y00676500D01*
X01076500Y00667500D02*
Y00676500D01*
X01285434Y00407500D02*
X01302934D01*
X01285434Y00417000D02*
X01302934D01*
Y00407500D02*
Y00417000D01*
X01285434Y00407500D02*
Y00417000D01*
X01373513Y00408750D02*
X01391013D01*
X01373513Y00418250D02*
X01391013D01*
Y00408750D02*
Y00418250D01*
X01373513Y00408750D02*
Y00418250D01*
X01461592Y00408750D02*
X01479092D01*
X01461592Y00418250D02*
X01479092D01*
Y00408750D02*
Y00418250D01*
X01461592Y00408750D02*
Y00418250D01*
X01549671Y00408750D02*
X01567171D01*
X01549671Y00418250D02*
X01567171D01*
Y00408750D02*
Y00418250D01*
X01549671Y00408750D02*
Y00418250D01*
X01637750Y00407000D02*
X01655250D01*
X01637750Y00416500D02*
X01655250D01*
Y00407000D02*
Y00416500D01*
X01637750Y00407000D02*
Y00416500D01*
X01021197Y00407500D02*
X01038697D01*
X01021197Y00417000D02*
X01038697D01*
Y00407500D02*
Y00417000D01*
X01021197Y00407500D02*
Y00417000D01*
X01109276Y00407500D02*
X01126776D01*
X01109276Y00417000D02*
X01126776D01*
Y00407500D02*
Y00417000D01*
X01109276Y00407500D02*
Y00417000D01*
X01197355Y00407500D02*
X01214855D01*
X01197355Y00417000D02*
X01214855D01*
Y00407500D02*
Y00417000D01*
X01197355Y00407500D02*
Y00417000D01*
X01198355Y00350000D02*
X01214355D01*
Y00358000D01*
X01198355D02*
X01214355D01*
X01198355Y00350000D02*
Y00358000D01*
X01550671Y00351250D02*
X01566671D01*
Y00359250D01*
X01550671D02*
X01566671D01*
X01550671Y00351250D02*
Y00359250D01*
X01638750Y00349250D02*
X01654750D01*
Y00357250D01*
X01638750D02*
X01654750D01*
X01638750Y00349250D02*
Y00357250D01*
X01462592Y00351250D02*
X01478592D01*
Y00359250D01*
X01462592D02*
X01478592D01*
X01462592Y00351250D02*
Y00359250D01*
X01374513Y00351250D02*
X01390513D01*
Y00359250D01*
X01374513D02*
X01390513D01*
X01374513Y00351250D02*
Y00359250D01*
X01110276Y00350000D02*
X01126276D01*
Y00358000D01*
X01110276D02*
X01126276D01*
X01110276Y00350000D02*
Y00358000D01*
X01022197Y00350000D02*
X01038197D01*
Y00358000D01*
X01022197D02*
X01038197D01*
X01022197Y00350000D02*
Y00358000D01*
X01286434Y00350000D02*
X01302434D01*
Y00358000D01*
X01286434D02*
X01302434D01*
X01286434Y00350000D02*
Y00358000D01*
M02*
