G04*
G04 #@! TF.GenerationSoftware,Altium Limited,Altium Designer,25.2.1 (25)*
G04*
G04 Layer_Color=0*
%FSAX44Y44*%
%MOMM*%
G71*
G04*
G04 #@! TF.SameCoordinates,962EF830-37C3-45C2-9A6A-2A16DDEA0E73*
G04*
G04*
G04 #@! TF.FilePolarity,Positive*
G04*
G01*
G75*
%ADD31C,0.1000*%
D31*
X01884500Y00322750D02*
Y00332750D01*
X01879500Y00327750D02*
X01889500D01*
X01605249Y01223750D02*
X01615249D01*
X01610250Y01218750D02*
Y01228750D01*
X00517815Y00757325D02*
X00527815D01*
X00522815Y00752325D02*
Y00762325D01*
X00518900Y01222750D02*
X00528900D01*
X00523900Y01217750D02*
Y01227750D01*
X01606250Y00757750D02*
X01616250D01*
X01611250Y00752750D02*
Y00762750D01*
X01066150Y01224000D02*
X01076150D01*
X01071150Y01219000D02*
Y01229000D01*
X01065650Y00759250D02*
X01075650D01*
X01070650Y00754250D02*
Y00764250D01*
X02152651Y00758500D02*
X02162650D01*
X02157650Y00753500D02*
Y00763500D01*
X02152150Y01222000D02*
X02162150D01*
X02157150Y01217000D02*
Y01227000D01*
X02275500Y00323385D02*
X02285500D01*
X02280500Y00318385D02*
Y00328385D01*
X00371250Y00323385D02*
X00381250D01*
X00376250Y00318385D02*
Y00328385D01*
X00518150Y01675000D02*
X00528150D01*
X00523150Y01670000D02*
Y01680000D01*
X01071750Y02131500D02*
Y02141500D01*
X01066750Y02136500D02*
X01076750D01*
X00523150Y02132250D02*
Y02142250D01*
X00518150Y02137250D02*
X00528150D01*
X01609400Y02132000D02*
Y02142000D01*
X01604400Y02137000D02*
X01614400D01*
X02156650Y02132000D02*
Y02142000D01*
X02151650Y02137000D02*
X02161650D01*
X01071750Y01669500D02*
Y01679500D01*
X01066750Y01674500D02*
X01076750D01*
X01609400Y01668000D02*
Y01678000D01*
X01604400Y01673000D02*
X01614400D01*
X02156651Y01670750D02*
Y01680750D01*
X02151650Y01675750D02*
X02161650D01*
M02*
