G04*
G04 #@! TF.GenerationSoftware,Altium Limited,Altium Designer,25.2.1 (25)*
G04*
G04 Layer_Color=32896*
%FSAX44Y44*%
%MOMM*%
G71*
G04*
G04 #@! TF.SameCoordinates,962EF830-37C3-45C2-9A6A-2A16DDEA0E73*
G04*
G04*
G04 #@! TF.FilePolarity,Positive*
G04*
G01*
G75*
%ADD12C,0.2540*%
D12*
X01108750Y00667671D02*
X01106211Y00665132D01*
X01101133D01*
X01098593Y00667671D01*
Y00677828D01*
X01101133Y00680367D01*
X01106211D01*
X01108750Y00677828D01*
X01113829Y00680367D02*
X01118907D01*
X01116368D01*
Y00665132D01*
X01113829Y00667671D01*
X01607604Y02031687D02*
X01605065Y02029148D01*
X01599986D01*
X01597447Y02031687D01*
Y02041844D01*
X01599986Y02044383D01*
X01605065D01*
X01607604Y02041844D01*
X01622839Y02029148D02*
X01612682D01*
Y02036765D01*
X01617760Y02034226D01*
X01620300D01*
X01622839Y02036765D01*
Y02041844D01*
X01620300Y02044383D01*
X01615221D01*
X01612682Y02041844D01*
X01070354Y01128187D02*
X01067814Y01125648D01*
X01062736D01*
X01060197Y01128187D01*
Y01138344D01*
X01062736Y01140883D01*
X01067814D01*
X01070354Y01138344D01*
X01083050Y01140883D02*
Y01125648D01*
X01075432Y01133266D01*
X01085589D01*
X00523354Y01576437D02*
X00520815Y01573898D01*
X00515736D01*
X00513197Y01576437D01*
Y01586594D01*
X00515736Y01589133D01*
X00520815D01*
X00523354Y01586594D01*
X00528432Y01576437D02*
X00530971Y01573898D01*
X00536050D01*
X00538589Y01576437D01*
Y01578976D01*
X00536050Y01581515D01*
X00533510D01*
X00536050D01*
X00538589Y01584055D01*
Y01586594D01*
X00536050Y01589133D01*
X00530971D01*
X00528432Y01586594D01*
X02156854Y02049187D02*
X02154315Y02046648D01*
X02149236D01*
X02146697Y02049187D01*
Y02059344D01*
X02149236Y02061883D01*
X02154315D01*
X02156854Y02059344D01*
X02172089Y02061883D02*
X02161932D01*
X02172089Y02051726D01*
Y02049187D01*
X02169550Y02046648D01*
X02164471D01*
X02161932Y02049187D01*
M02*
