G04*
G04 #@! TF.GenerationSoftware,Altium Limited,Altium Designer,25.2.1 (25)*
G04*
G04 Layer_Color=32768*
%FSAX44Y44*%
%MOMM*%
G71*
G04*
G04 #@! TF.SameCoordinates,962EF830-37C3-45C2-9A6A-2A16DDEA0E73*
G04*
G04*
G04 #@! TF.FilePolarity,Positive*
G04*
G01*
G75*
%ADD11C,0.2000*%
D11*
X01781000Y00315750D02*
Y00339750D01*
Y00315750D02*
X01988000D01*
Y00339750D01*
X01781000D02*
X01988000D01*
X01580850Y01210750D02*
X01639650D01*
X01580850D02*
Y01236750D01*
X01639650D01*
Y01210750D02*
Y01236750D01*
X00493415Y00744325D02*
X00552215D01*
X00493415D02*
Y00770325D01*
X00552215D01*
Y00744325D02*
Y00770325D01*
X00494501Y01209750D02*
X00553301D01*
X00494501D02*
Y01235750D01*
X00553301D01*
Y01209750D02*
Y01235750D01*
X01581850Y00744750D02*
X01640650D01*
X01581850D02*
Y00770750D01*
X01640650D01*
Y00744750D02*
Y00770750D01*
X01041750Y01211000D02*
X01100550D01*
X01041750D02*
Y01237000D01*
X01100550D01*
Y01211000D02*
Y01237000D01*
X01041250Y00746250D02*
X01100050D01*
X01041250D02*
Y00772250D01*
X01100050D01*
Y00746250D02*
Y00772250D01*
X02128250Y00745500D02*
X02187050D01*
X02128250D02*
Y00771500D01*
X02187050D01*
Y00745500D02*
Y00771500D01*
X02127750Y01209000D02*
X02186550D01*
X02127750D02*
Y01235000D01*
X02186550D01*
Y01209000D02*
Y01235000D01*
X02177000Y00335385D02*
X02384000D01*
Y00311385D02*
Y00335385D01*
X02177000Y00311385D02*
X02384000D01*
X02177000D02*
Y00335385D01*
X00272750Y00311385D02*
X00479750D01*
X00272750D02*
Y00335385D01*
X00479750D01*
Y00311385D02*
Y00335385D01*
X00493750Y01662000D02*
X00552550D01*
X00493750D02*
Y01688000D01*
X00552550D01*
Y01662000D02*
Y01688000D01*
X01101150Y02123500D02*
Y02149500D01*
X01042350D02*
X01101150D01*
X01042350Y02123500D02*
Y02149500D01*
Y02123500D02*
X01101150D01*
X00552550Y02124250D02*
Y02150250D01*
X00493750D02*
X00552550D01*
X00493750Y02124250D02*
Y02150250D01*
Y02124250D02*
X00552550D01*
X01638800Y02124000D02*
Y02150000D01*
X01580000D02*
X01638800D01*
X01580000Y02124000D02*
Y02150000D01*
Y02124000D02*
X01638800D01*
X02186050Y02124000D02*
Y02150000D01*
X02127250D02*
X02186050D01*
X02127250Y02124000D02*
Y02150000D01*
Y02124000D02*
X02186050D01*
X01101150Y01661500D02*
Y01687500D01*
X01042350D02*
X01101150D01*
X01042350Y01661500D02*
Y01687500D01*
Y01661500D02*
X01101150D01*
X01638800Y01660000D02*
Y01686000D01*
X01580000D02*
X01638800D01*
X01580000Y01660000D02*
Y01686000D01*
Y01660000D02*
X01638800D01*
X02186051Y01662750D02*
Y01688750D01*
X02127251D02*
X02186051D01*
X02127251Y01662750D02*
Y01688750D01*
Y01662750D02*
X02186051D01*
M02*
