G04*
G04 #@! TF.GenerationSoftware,Altium Limited,Altium Designer,25.2.1 (25)*
G04*
G04 Layer_Color=16711935*
%FSAX44Y44*%
%MOMM*%
G71*
G04*
G04 #@! TF.SameCoordinates,962EF830-37C3-45C2-9A6A-2A16DDEA0E73*
G04*
G04*
G04 #@! TF.FilePolarity,Negative*
G04*
G01*
G75*
%ADD19C,1.3000*%
%ADD20R,1.3000X1.3000*%
%ADD21R,1.5612X1.5612*%
%ADD22C,1.5612*%
%ADD23R,1.1000X1.1000*%
%ADD24C,1.1000*%
%ADD25C,1.4732*%
%ADD30R,1.1532X1.1532*%
D19*
X01974500Y00327750D02*
D03*
X01954500D02*
D03*
X01934500D02*
D03*
X01914500D02*
D03*
X01894500D02*
D03*
X01874500D02*
D03*
X01854500D02*
D03*
X01834500D02*
D03*
X01814500D02*
D03*
X02210500Y00323385D02*
D03*
X02230500D02*
D03*
X02250500D02*
D03*
X02270500D02*
D03*
X02290500D02*
D03*
X02310500D02*
D03*
X02330500D02*
D03*
X02350500D02*
D03*
X02370500D02*
D03*
X00446250D02*
D03*
X00426250D02*
D03*
X00406250D02*
D03*
X00386250D02*
D03*
X00366250D02*
D03*
X00346250D02*
D03*
X00326250D02*
D03*
X00306250D02*
D03*
X00286250D02*
D03*
D20*
X01794500Y00327750D02*
D03*
X02190500Y00323385D02*
D03*
X00466250D02*
D03*
D21*
X02515750Y01942520D02*
D03*
Y00691520D02*
D03*
Y01527808D02*
D03*
Y01113097D02*
D03*
X01381000Y01148750D02*
D03*
X01838250D02*
D03*
X00294665Y00682075D02*
D03*
X00295750Y01147250D02*
D03*
X00752165Y00682075D02*
D03*
X00753250Y01147250D02*
D03*
X00842500Y00683500D02*
D03*
X01839250Y00682000D02*
D03*
X00843000Y01148500D02*
D03*
X01300750D02*
D03*
X01300250Y00683500D02*
D03*
X01928500Y01147000D02*
D03*
X01929000Y00683250D02*
D03*
X02386500Y01147000D02*
D03*
X02387000Y00683250D02*
D03*
X01382000Y00682000D02*
D03*
X02386000Y02059750D02*
D03*
X00843250Y02058250D02*
D03*
X01299000Y02059000D02*
D03*
X01381000Y02056750D02*
D03*
X00295000Y02058000D02*
D03*
X00752500Y02058500D02*
D03*
X01838500Y02059250D02*
D03*
X01928000Y02057750D02*
D03*
X00294500Y01600250D02*
D03*
X00752500D02*
D03*
X01299750D02*
D03*
X00842500D02*
D03*
X01381250D02*
D03*
X01928500D02*
D03*
X01839000D02*
D03*
X02386000D02*
D03*
D22*
X02515750Y01922520D02*
D03*
Y01902520D02*
D03*
Y01882520D02*
D03*
Y01862520D02*
D03*
Y01842520D02*
D03*
Y01822520D02*
D03*
Y01802520D02*
D03*
Y01782520D02*
D03*
Y01762520D02*
D03*
Y00671520D02*
D03*
Y00651520D02*
D03*
Y00631520D02*
D03*
Y00611520D02*
D03*
Y00591520D02*
D03*
Y00571520D02*
D03*
Y00551520D02*
D03*
Y00531520D02*
D03*
Y00511520D02*
D03*
Y01507808D02*
D03*
Y01487808D02*
D03*
Y01467808D02*
D03*
Y01447808D02*
D03*
Y01427808D02*
D03*
Y01407808D02*
D03*
Y01387808D02*
D03*
Y01367808D02*
D03*
Y01347808D02*
D03*
Y01093097D02*
D03*
Y01073097D02*
D03*
Y01053097D02*
D03*
Y01033097D02*
D03*
Y01013097D02*
D03*
Y00993097D02*
D03*
Y00973097D02*
D03*
Y00953097D02*
D03*
Y00933097D02*
D03*
X01381000Y00968750D02*
D03*
Y00988750D02*
D03*
Y01008750D02*
D03*
Y01028750D02*
D03*
Y01048750D02*
D03*
Y01068750D02*
D03*
Y01088750D02*
D03*
Y01108750D02*
D03*
Y01128750D02*
D03*
X01838250Y00968750D02*
D03*
Y00988750D02*
D03*
Y01008750D02*
D03*
Y01028750D02*
D03*
Y01048750D02*
D03*
Y01068750D02*
D03*
Y01088750D02*
D03*
Y01108750D02*
D03*
Y01128750D02*
D03*
X00294665Y00502074D02*
D03*
Y00522075D02*
D03*
Y00542075D02*
D03*
Y00562075D02*
D03*
Y00582075D02*
D03*
Y00602075D02*
D03*
Y00622075D02*
D03*
Y00642075D02*
D03*
Y00662075D02*
D03*
X00295750Y00967250D02*
D03*
Y00987250D02*
D03*
Y01007250D02*
D03*
Y01027250D02*
D03*
Y01047250D02*
D03*
Y01067250D02*
D03*
Y01087250D02*
D03*
Y01107250D02*
D03*
Y01127250D02*
D03*
X00752165Y00502074D02*
D03*
Y00522075D02*
D03*
Y00542075D02*
D03*
Y00562075D02*
D03*
Y00582075D02*
D03*
Y00602075D02*
D03*
Y00622075D02*
D03*
Y00642075D02*
D03*
Y00662075D02*
D03*
X00753250Y00967250D02*
D03*
Y00987250D02*
D03*
Y01007250D02*
D03*
Y01027250D02*
D03*
Y01047250D02*
D03*
Y01067250D02*
D03*
Y01087250D02*
D03*
Y01107250D02*
D03*
Y01127250D02*
D03*
X00842500Y00503500D02*
D03*
Y00523500D02*
D03*
Y00543500D02*
D03*
Y00563500D02*
D03*
Y00583500D02*
D03*
Y00603500D02*
D03*
Y00623500D02*
D03*
Y00643500D02*
D03*
Y00663500D02*
D03*
X01839250Y00502000D02*
D03*
Y00522000D02*
D03*
Y00542000D02*
D03*
Y00562000D02*
D03*
Y00582000D02*
D03*
Y00602000D02*
D03*
Y00622000D02*
D03*
Y00642000D02*
D03*
Y00662000D02*
D03*
X00843000Y00968500D02*
D03*
Y00988500D02*
D03*
Y01008500D02*
D03*
Y01028500D02*
D03*
Y01048500D02*
D03*
Y01068500D02*
D03*
Y01088500D02*
D03*
Y01108500D02*
D03*
Y01128500D02*
D03*
X01300750Y00968500D02*
D03*
Y00988500D02*
D03*
Y01008500D02*
D03*
Y01028500D02*
D03*
Y01048500D02*
D03*
Y01068500D02*
D03*
Y01088500D02*
D03*
Y01108500D02*
D03*
Y01128500D02*
D03*
X01300250Y00503500D02*
D03*
Y00523500D02*
D03*
Y00543500D02*
D03*
Y00563500D02*
D03*
Y00583500D02*
D03*
Y00603500D02*
D03*
Y00623500D02*
D03*
Y00643500D02*
D03*
Y00663500D02*
D03*
X01928500Y00967000D02*
D03*
Y00987000D02*
D03*
Y01007000D02*
D03*
Y01027000D02*
D03*
Y01047000D02*
D03*
Y01067000D02*
D03*
Y01087000D02*
D03*
Y01107000D02*
D03*
Y01127000D02*
D03*
X01929000Y00503250D02*
D03*
Y00523250D02*
D03*
Y00543250D02*
D03*
Y00563250D02*
D03*
Y00583250D02*
D03*
Y00603250D02*
D03*
Y00623250D02*
D03*
Y00643250D02*
D03*
Y00663250D02*
D03*
X02386500Y00967000D02*
D03*
Y00987000D02*
D03*
Y01007000D02*
D03*
Y01027000D02*
D03*
Y01047000D02*
D03*
Y01067000D02*
D03*
Y01087000D02*
D03*
Y01107000D02*
D03*
Y01127000D02*
D03*
X02387000Y00503250D02*
D03*
Y00523250D02*
D03*
Y00543250D02*
D03*
Y00563250D02*
D03*
Y00583250D02*
D03*
Y00603250D02*
D03*
Y00623250D02*
D03*
Y00643250D02*
D03*
Y00663250D02*
D03*
X01382000Y00502000D02*
D03*
Y00522000D02*
D03*
Y00542000D02*
D03*
Y00562000D02*
D03*
Y00582000D02*
D03*
Y00602000D02*
D03*
Y00622000D02*
D03*
Y00642000D02*
D03*
Y00662000D02*
D03*
X02386000Y02039750D02*
D03*
Y02019750D02*
D03*
Y01999750D02*
D03*
Y01979750D02*
D03*
Y01959750D02*
D03*
Y01939750D02*
D03*
Y01919750D02*
D03*
Y01899750D02*
D03*
Y01879750D02*
D03*
X00843250Y02038250D02*
D03*
Y02018250D02*
D03*
Y01998250D02*
D03*
Y01978250D02*
D03*
Y01958250D02*
D03*
Y01938250D02*
D03*
Y01918250D02*
D03*
Y01898250D02*
D03*
Y01878250D02*
D03*
X01299000Y02039000D02*
D03*
Y02019000D02*
D03*
Y01999000D02*
D03*
Y01979000D02*
D03*
Y01959000D02*
D03*
Y01939000D02*
D03*
Y01919000D02*
D03*
Y01899000D02*
D03*
Y01879000D02*
D03*
X01381000Y02036750D02*
D03*
Y02016750D02*
D03*
Y01996750D02*
D03*
Y01976750D02*
D03*
Y01956750D02*
D03*
Y01936750D02*
D03*
Y01916750D02*
D03*
Y01896750D02*
D03*
Y01876750D02*
D03*
X00295000Y02038000D02*
D03*
Y02018000D02*
D03*
Y01998000D02*
D03*
Y01978000D02*
D03*
Y01958000D02*
D03*
Y01938000D02*
D03*
Y01918000D02*
D03*
Y01898000D02*
D03*
Y01878000D02*
D03*
X00752500Y02038500D02*
D03*
Y02018500D02*
D03*
Y01998500D02*
D03*
Y01978500D02*
D03*
Y01958500D02*
D03*
Y01938500D02*
D03*
Y01918500D02*
D03*
Y01898500D02*
D03*
Y01878500D02*
D03*
X01838500Y02039250D02*
D03*
Y02019250D02*
D03*
Y01999250D02*
D03*
Y01979250D02*
D03*
Y01959250D02*
D03*
Y01939250D02*
D03*
Y01919250D02*
D03*
Y01899250D02*
D03*
Y01879250D02*
D03*
X01928000Y02037750D02*
D03*
Y02017750D02*
D03*
Y01997750D02*
D03*
Y01977750D02*
D03*
Y01957750D02*
D03*
Y01937750D02*
D03*
Y01917750D02*
D03*
Y01897750D02*
D03*
Y01877750D02*
D03*
X00294500Y01580250D02*
D03*
Y01560250D02*
D03*
Y01540250D02*
D03*
Y01520250D02*
D03*
Y01500250D02*
D03*
Y01480250D02*
D03*
Y01460250D02*
D03*
Y01440250D02*
D03*
Y01420250D02*
D03*
X00752500Y01580250D02*
D03*
Y01560250D02*
D03*
Y01540250D02*
D03*
Y01520250D02*
D03*
Y01500250D02*
D03*
Y01480250D02*
D03*
Y01460250D02*
D03*
Y01440250D02*
D03*
Y01420250D02*
D03*
X01299750Y01580250D02*
D03*
Y01560250D02*
D03*
Y01540250D02*
D03*
Y01520250D02*
D03*
Y01500250D02*
D03*
Y01480250D02*
D03*
Y01460250D02*
D03*
Y01440250D02*
D03*
Y01420250D02*
D03*
X00842500Y01580250D02*
D03*
Y01560250D02*
D03*
Y01540250D02*
D03*
Y01520250D02*
D03*
Y01500250D02*
D03*
Y01480250D02*
D03*
Y01460250D02*
D03*
Y01440250D02*
D03*
Y01420250D02*
D03*
X01381250Y01580250D02*
D03*
Y01560250D02*
D03*
Y01540250D02*
D03*
Y01520250D02*
D03*
Y01500250D02*
D03*
Y01480250D02*
D03*
Y01460250D02*
D03*
Y01440250D02*
D03*
Y01420250D02*
D03*
X01928500Y01580250D02*
D03*
Y01560250D02*
D03*
Y01540250D02*
D03*
Y01520250D02*
D03*
Y01500250D02*
D03*
Y01480250D02*
D03*
Y01460250D02*
D03*
Y01440250D02*
D03*
Y01420250D02*
D03*
X01839000Y01580250D02*
D03*
Y01560250D02*
D03*
Y01540250D02*
D03*
Y01520250D02*
D03*
Y01500250D02*
D03*
Y01480250D02*
D03*
Y01460250D02*
D03*
Y01440250D02*
D03*
Y01420250D02*
D03*
X02386000Y01580250D02*
D03*
Y01560250D02*
D03*
Y01540250D02*
D03*
Y01520250D02*
D03*
Y01500250D02*
D03*
Y01480250D02*
D03*
Y01460250D02*
D03*
Y01440250D02*
D03*
Y01420250D02*
D03*
D23*
X01629300Y01223750D02*
D03*
X00541865Y00757325D02*
D03*
X00542951Y01222750D02*
D03*
X01630300Y00757750D02*
D03*
X01090200Y01224000D02*
D03*
X01089700Y00759250D02*
D03*
X02176700Y00758500D02*
D03*
X02176200Y01222000D02*
D03*
X00542200Y01675000D02*
D03*
X01090800Y02136500D02*
D03*
X00542200Y02137250D02*
D03*
X01628450Y02137000D02*
D03*
X02175700D02*
D03*
X01090800Y01674500D02*
D03*
X01628450Y01673000D02*
D03*
X02175701Y01675750D02*
D03*
D24*
X01616600Y01223750D02*
D03*
X01603900D02*
D03*
X01591200D02*
D03*
X00529165Y00757325D02*
D03*
X00516465D02*
D03*
X00503765D02*
D03*
X00530251Y01222750D02*
D03*
X00517551D02*
D03*
X00504851D02*
D03*
X01617600Y00757750D02*
D03*
X01604900D02*
D03*
X01592200D02*
D03*
X01077500Y01224000D02*
D03*
X01064800D02*
D03*
X01052100D02*
D03*
X01077000Y00759250D02*
D03*
X01064300D02*
D03*
X01051600D02*
D03*
X02164000Y00758500D02*
D03*
X02151300D02*
D03*
X02138600D02*
D03*
X02163500Y01222000D02*
D03*
X02150800D02*
D03*
X02138100D02*
D03*
X00529500Y01675000D02*
D03*
X00516800D02*
D03*
X00504100D02*
D03*
X01052700Y02136500D02*
D03*
X01065400D02*
D03*
X01078100D02*
D03*
X00504100Y02137250D02*
D03*
X00516800D02*
D03*
X00529500D02*
D03*
X01590350Y02137000D02*
D03*
X01603050D02*
D03*
X01615750D02*
D03*
X02137600D02*
D03*
X02150300D02*
D03*
X02163000D02*
D03*
X01052700Y01674500D02*
D03*
X01065400D02*
D03*
X01078100D02*
D03*
X01590350Y01673000D02*
D03*
X01603050D02*
D03*
X01615750D02*
D03*
X02137601Y01675750D02*
D03*
X02150300D02*
D03*
X02163000D02*
D03*
D25*
X02403750Y00421500D02*
D03*
X02422500Y00397750D02*
D03*
X02449500Y00380000D02*
D03*
X02461750Y00354250D02*
D03*
X02174250Y00442750D02*
D03*
X02137250Y00458250D02*
D03*
X02559000Y00590500D02*
D03*
X02556000Y00282750D02*
D03*
X01551000Y01599000D02*
D03*
X01549000Y01722750D02*
D03*
X01018750Y00684000D02*
D03*
X02311000Y00559500D02*
D03*
X01929250Y01371250D02*
D03*
X00442000Y01581000D02*
D03*
X00465066Y01150934D02*
D03*
X00441500Y01129750D02*
D03*
X00417500Y01108000D02*
D03*
X00396750Y01086750D02*
D03*
X00375750Y01068000D02*
D03*
X00353750Y01050500D02*
D03*
X00319250Y01008500D02*
D03*
X00333750Y01031000D02*
D03*
X00563250Y01147250D02*
D03*
X00580500Y01128000D02*
D03*
X00603750Y00646000D02*
D03*
X00660500Y00583500D02*
D03*
X00700250Y00543750D02*
D03*
X00679250Y00561500D02*
D03*
X00642000Y00603750D02*
D03*
X00621500Y00625250D02*
D03*
X00562250Y00687000D02*
D03*
X00578750Y00666750D02*
D03*
X01556000Y00682750D02*
D03*
X01509000Y00641250D02*
D03*
X01484750Y00620000D02*
D03*
X01464250Y00601750D02*
D03*
X01530250Y00662250D02*
D03*
X01443250Y00583250D02*
D03*
X01406250Y00540750D02*
D03*
X01422750Y00564250D02*
D03*
X02104750Y00682500D02*
D03*
X02054750Y00642000D02*
D03*
X02034000Y00620750D02*
D03*
X02013000Y00602000D02*
D03*
X01971000Y00565000D02*
D03*
X01956500Y00542500D02*
D03*
X02078750Y00663750D02*
D03*
X01991000Y00584500D02*
D03*
X00968750Y00643500D02*
D03*
X00948000Y00622250D02*
D03*
X00927000Y00603500D02*
D03*
X00885000Y00566500D02*
D03*
X00870500Y00544000D02*
D03*
X00992750Y00665250D02*
D03*
X00905000Y00586000D02*
D03*
X00465750Y00683750D02*
D03*
X00440250Y00663000D02*
D03*
X00416250Y00641250D02*
D03*
X00395000Y00622000D02*
D03*
X00374500Y00601250D02*
D03*
X00355750Y00584000D02*
D03*
X00336750Y00563750D02*
D03*
X00319500Y00540750D02*
D03*
X01018750Y01149000D02*
D03*
X00968750Y01108500D02*
D03*
X00948000Y01087250D02*
D03*
X00927000Y01068500D02*
D03*
X00885000Y01031500D02*
D03*
X00870500Y01009000D02*
D03*
X00992750Y01130250D02*
D03*
X00905000Y01051000D02*
D03*
X01555250Y01147000D02*
D03*
X01505250Y01106500D02*
D03*
X01484500Y01085250D02*
D03*
X01463500Y01066500D02*
D03*
X01421500Y01029500D02*
D03*
X01407000Y01007000D02*
D03*
X01529250Y01128250D02*
D03*
X01441500Y01049000D02*
D03*
X02104500Y01147500D02*
D03*
X02054500Y01107000D02*
D03*
X02033750Y01085750D02*
D03*
X02012750Y01067000D02*
D03*
X01970750Y01030000D02*
D03*
X01956250Y01007500D02*
D03*
X02078500Y01128750D02*
D03*
X01990750Y01049500D02*
D03*
X02104000Y01601500D02*
D03*
X02054000Y01561000D02*
D03*
X02033250Y01539750D02*
D03*
X02012250Y01521000D02*
D03*
X01970250Y01484000D02*
D03*
X01955750Y01461500D02*
D03*
X02078000Y01582750D02*
D03*
X01990250Y01503500D02*
D03*
X01506000Y01558500D02*
D03*
X01485250Y01537250D02*
D03*
X01464250Y01518500D02*
D03*
X01422250Y01481500D02*
D03*
X01407750Y01459000D02*
D03*
X01530000Y01580250D02*
D03*
X01442250Y01501000D02*
D03*
X01018250Y01600000D02*
D03*
X00968250Y01559500D02*
D03*
X00947500Y01538250D02*
D03*
X00926500Y01519500D02*
D03*
X00884500Y01482500D02*
D03*
X00870000Y01460000D02*
D03*
X00992250Y01581250D02*
D03*
X00904500Y01502000D02*
D03*
X00354250Y01501750D02*
D03*
X00319750Y01459750D02*
D03*
X00334250Y01482250D02*
D03*
X00376250Y01519250D02*
D03*
X00397250Y01538000D02*
D03*
X00418000Y01559250D02*
D03*
X00468000Y01599750D02*
D03*
X01125000Y00664250D02*
D03*
X01108500Y00684500D02*
D03*
X01147250Y00645250D02*
D03*
X01167750Y00622750D02*
D03*
X01188250Y00601250D02*
D03*
X01204250Y00579750D02*
D03*
X01225500Y00559000D02*
D03*
X01245750Y00540000D02*
D03*
X01647250Y00920250D02*
D03*
X01708000Y00622500D02*
D03*
X01765250Y00791000D02*
D03*
X01648750Y00684250D02*
D03*
X01665250Y00664000D02*
D03*
X01687500Y00645000D02*
D03*
X01728500Y00601000D02*
D03*
X01744500Y00579500D02*
D03*
X01765750Y00558750D02*
D03*
X01786000Y00539750D02*
D03*
X02194000Y00685000D02*
D03*
X02210500Y00664750D02*
D03*
X02232750Y00645750D02*
D03*
X02253250Y00623250D02*
D03*
X02273750Y00601750D02*
D03*
X02289750Y00580250D02*
D03*
X02331250Y00540500D02*
D03*
X02193000Y01147750D02*
D03*
X02229500Y01108750D02*
D03*
X02210250Y01127500D02*
D03*
X02252250Y01086000D02*
D03*
X02272750Y01064500D02*
D03*
X02288750Y01043000D02*
D03*
X02310000Y01022250D02*
D03*
X02330250Y01003250D02*
D03*
X01744750Y01046750D02*
D03*
X01744000Y01499500D02*
D03*
X01763750Y01025000D02*
D03*
X01786000Y01455750D02*
D03*
X01727000Y01066250D02*
D03*
X01648750Y01149750D02*
D03*
X01665250Y01129500D02*
D03*
X01687500Y01110500D02*
D03*
X01708000Y01088000D02*
D03*
X01786000Y01005250D02*
D03*
X01224750Y01026500D02*
D03*
X01204750Y01047000D02*
D03*
X01148000Y01109250D02*
D03*
X01168000Y01087250D02*
D03*
X01188500Y01065750D02*
D03*
X01246000Y01004500D02*
D03*
X01108750Y01149000D02*
D03*
X01125250Y01128750D02*
D03*
X00603375Y01107625D02*
D03*
X00700500Y01006500D02*
D03*
X00679750Y01026250D02*
D03*
X00659250Y01046250D02*
D03*
X00643500Y01066500D02*
D03*
X00623500Y01087000D02*
D03*
X00563000Y01601250D02*
D03*
X00579500Y01581000D02*
D03*
X00601750Y01562000D02*
D03*
X00622250Y01539500D02*
D03*
X00642750Y01518000D02*
D03*
X00658750Y01496500D02*
D03*
X00680000Y01475750D02*
D03*
X00700250Y01456750D02*
D03*
X02210750Y01583000D02*
D03*
X02191250Y01600500D02*
D03*
X02290500Y01500000D02*
D03*
X02272000Y01521750D02*
D03*
X02231250Y01564750D02*
D03*
X02251750Y01542250D02*
D03*
X02309500Y01478500D02*
D03*
X02329750Y01459500D02*
D03*
X01648750Y01600250D02*
D03*
X01665250Y01580000D02*
D03*
X01687500Y01561000D02*
D03*
X01708000Y01538500D02*
D03*
X01728500Y01517000D02*
D03*
X01765750Y01474750D02*
D03*
X01246000Y01457750D02*
D03*
X01225750Y01476750D02*
D03*
X01204500Y01497500D02*
D03*
X01188500Y01519000D02*
D03*
X01168000Y01540500D02*
D03*
X01147500Y01563000D02*
D03*
X01125250Y01582000D02*
D03*
X01108750Y01602250D02*
D03*
X00679500Y00788000D02*
D03*
X01225000Y00791000D02*
D03*
X02310000Y00795250D02*
D03*
X02289250Y00818750D02*
D03*
X00660250D02*
D03*
X01206000D02*
D03*
X01745000D02*
D03*
X02272000Y00839000D02*
D03*
X01727500Y00841000D02*
D03*
X01188750Y00839000D02*
D03*
X00643000D02*
D03*
X02253000Y00858000D02*
D03*
X01707000D02*
D03*
X00622000Y00857500D02*
D03*
X01167750D02*
D03*
X01148250Y00875250D02*
D03*
X01687250D02*
D03*
X02231500D02*
D03*
X00602500D02*
D03*
X02211750Y00897750D02*
D03*
X01124750Y00895250D02*
D03*
X01665250Y00895750D02*
D03*
X00579000Y00895250D02*
D03*
X01787500Y00739000D02*
D03*
X01807000Y00721500D02*
D03*
X01868875Y00704875D02*
D03*
X02331250Y00739250D02*
D03*
X02352000Y00720750D02*
D03*
X02413750Y00705250D02*
D03*
X01328500Y00705500D02*
D03*
X00782750D02*
D03*
X01266250Y00720500D02*
D03*
X00720500D02*
D03*
X01246500Y00738500D02*
D03*
X00700750D02*
D03*
X00562500Y00920250D02*
D03*
X01108250D02*
D03*
X02191500D02*
D03*
X02102500Y01724000D02*
D03*
X01016250D02*
D03*
X00466500D02*
D03*
X01528500Y01745500D02*
D03*
X02077500D02*
D03*
X00991250D02*
D03*
X00441500D02*
D03*
X01506000Y01763500D02*
D03*
X02055000D02*
D03*
X00968750D02*
D03*
X00419000D02*
D03*
X01484750Y01779500D02*
D03*
X02033750D02*
D03*
X00947500D02*
D03*
X00397750D02*
D03*
X01463250Y01798750D02*
D03*
X02012250D02*
D03*
X00926000D02*
D03*
X00376250D02*
D03*
X01443000Y01814750D02*
D03*
X01992000D02*
D03*
X00905750D02*
D03*
X00356000D02*
D03*
X01422750Y01831750D02*
D03*
X01971750D02*
D03*
X00885500D02*
D03*
X00335750D02*
D03*
X00319750Y01851000D02*
D03*
X00869500D02*
D03*
X01955750D02*
D03*
X01406750D02*
D03*
D30*
X01065250Y01156250D02*
D03*
X01077750D02*
D03*
X00518250Y01604500D02*
D03*
X00530750D02*
D03*
X01602500Y02059750D02*
D03*
X01615000D02*
D03*
X02151750Y02077250D02*
D03*
X02164250D02*
D03*
X01061750Y00672000D02*
D03*
X01074250D02*
D03*
M02*
