G04*
G04 #@! TF.GenerationSoftware,Altium Limited,Altium Designer,25.2.1 (25)*
G04*
G04 Layer_Color=255*
%FSAX44Y44*%
%MOMM*%
G71*
G04*
G04 #@! TF.SameCoordinates,962EF830-37C3-45C2-9A6A-2A16DDEA0E73*
G04*
G04*
G04 #@! TF.FilePolarity,Positive*
G04*
G01*
G75*
%ADD19C,1.3000*%
%ADD20R,1.3000X1.3000*%
%ADD23R,1.1000X1.1000*%
%ADD24C,1.1000*%
%ADD26R,1.3580X1.3580*%
%ADD27C,1.3580*%
%ADD29R,0.9500X0.9500*%
D19*
X01974500Y00327750D02*
D03*
X01954500D02*
D03*
X01934500D02*
D03*
X01914500D02*
D03*
X01894500D02*
D03*
X01874500D02*
D03*
X01854500D02*
D03*
X01834500D02*
D03*
X01814500D02*
D03*
X02210500Y00323385D02*
D03*
X02230500D02*
D03*
X02250500D02*
D03*
X02270500D02*
D03*
X02290500D02*
D03*
X02310500D02*
D03*
X02330500D02*
D03*
X02350500D02*
D03*
X02370500D02*
D03*
X00446250D02*
D03*
X00426250D02*
D03*
X00406250D02*
D03*
X00386250D02*
D03*
X00366250D02*
D03*
X00346250D02*
D03*
X00326250D02*
D03*
X00306250D02*
D03*
X00286250D02*
D03*
D20*
X01794500Y00327750D02*
D03*
X02190500Y00323385D02*
D03*
X00466250D02*
D03*
D23*
X01629300Y01223750D02*
D03*
X00541865Y00757325D02*
D03*
X00542951Y01222750D02*
D03*
X01630300Y00757750D02*
D03*
X01090200Y01224000D02*
D03*
X01089700Y00759250D02*
D03*
X02176700Y00758500D02*
D03*
X02176200Y01222000D02*
D03*
X00542200Y01675000D02*
D03*
X01090800Y02136500D02*
D03*
X00542200Y02137250D02*
D03*
X01628450Y02137000D02*
D03*
X02175700D02*
D03*
X01090800Y01674500D02*
D03*
X01628450Y01673000D02*
D03*
X02175701Y01675750D02*
D03*
D24*
X01616600Y01223750D02*
D03*
X01603900D02*
D03*
X01591200D02*
D03*
X00529165Y00757325D02*
D03*
X00516465D02*
D03*
X00503765D02*
D03*
X00530251Y01222750D02*
D03*
X00517551D02*
D03*
X00504851D02*
D03*
X01617600Y00757750D02*
D03*
X01604900D02*
D03*
X01592200D02*
D03*
X01077500Y01224000D02*
D03*
X01064800D02*
D03*
X01052100D02*
D03*
X01077000Y00759250D02*
D03*
X01064300D02*
D03*
X01051600D02*
D03*
X02164000Y00758500D02*
D03*
X02151300D02*
D03*
X02138600D02*
D03*
X02163500Y01222000D02*
D03*
X02150800D02*
D03*
X02138100D02*
D03*
X00529500Y01675000D02*
D03*
X00516800D02*
D03*
X00504100D02*
D03*
X01052700Y02136500D02*
D03*
X01065400D02*
D03*
X01078100D02*
D03*
X00504100Y02137250D02*
D03*
X00516800D02*
D03*
X00529500D02*
D03*
X01590350Y02137000D02*
D03*
X01603050D02*
D03*
X01615750D02*
D03*
X02137600D02*
D03*
X02150300D02*
D03*
X02163000D02*
D03*
X01052700Y01674500D02*
D03*
X01065400D02*
D03*
X01078100D02*
D03*
X01590350Y01673000D02*
D03*
X01603050D02*
D03*
X01615750D02*
D03*
X02137601Y01675750D02*
D03*
X02150300D02*
D03*
X02163000D02*
D03*
D26*
X02515750Y01942520D02*
D03*
Y00691520D02*
D03*
Y01527808D02*
D03*
Y01113097D02*
D03*
X01381000Y01148750D02*
D03*
X01838250D02*
D03*
X00294665Y00682075D02*
D03*
X00295750Y01147250D02*
D03*
X00752165Y00682075D02*
D03*
X00753250Y01147250D02*
D03*
X00842500Y00683500D02*
D03*
X01839250Y00682000D02*
D03*
X00843000Y01148500D02*
D03*
X01300750D02*
D03*
X01300250Y00683500D02*
D03*
X01928500Y01147000D02*
D03*
X01929000Y00683250D02*
D03*
X02386500Y01147000D02*
D03*
X02387000Y00683250D02*
D03*
X01382000Y00682000D02*
D03*
X02386000Y02059750D02*
D03*
X00843250Y02058250D02*
D03*
X01299000Y02059000D02*
D03*
X01381000Y02056750D02*
D03*
X00295000Y02058000D02*
D03*
X00752500Y02058500D02*
D03*
X01838500Y02059250D02*
D03*
X01928000Y02057750D02*
D03*
X00294500Y01600250D02*
D03*
X00752500D02*
D03*
X01299750D02*
D03*
X00842500D02*
D03*
X01381250D02*
D03*
X01928500D02*
D03*
X01839000D02*
D03*
X02386000D02*
D03*
D27*
X02515750Y01922520D02*
D03*
Y01902520D02*
D03*
Y01882520D02*
D03*
Y01862520D02*
D03*
Y01842520D02*
D03*
Y01822520D02*
D03*
Y01802520D02*
D03*
Y01782520D02*
D03*
Y01762520D02*
D03*
Y00671520D02*
D03*
Y00651520D02*
D03*
Y00631520D02*
D03*
Y00611520D02*
D03*
Y00591520D02*
D03*
Y00571520D02*
D03*
Y00551520D02*
D03*
Y00531520D02*
D03*
Y00511520D02*
D03*
Y01507808D02*
D03*
Y01487808D02*
D03*
Y01467808D02*
D03*
Y01447808D02*
D03*
Y01427808D02*
D03*
Y01407808D02*
D03*
Y01387808D02*
D03*
Y01367808D02*
D03*
Y01347808D02*
D03*
Y01093097D02*
D03*
Y01073097D02*
D03*
Y01053097D02*
D03*
Y01033097D02*
D03*
Y01013097D02*
D03*
Y00993097D02*
D03*
Y00973097D02*
D03*
Y00953097D02*
D03*
Y00933097D02*
D03*
X01381000Y00968750D02*
D03*
Y00988750D02*
D03*
Y01008750D02*
D03*
Y01028750D02*
D03*
Y01048750D02*
D03*
Y01068750D02*
D03*
Y01088750D02*
D03*
Y01108750D02*
D03*
Y01128750D02*
D03*
X01838250Y00968750D02*
D03*
Y00988750D02*
D03*
Y01008750D02*
D03*
Y01028750D02*
D03*
Y01048750D02*
D03*
Y01068750D02*
D03*
Y01088750D02*
D03*
Y01108750D02*
D03*
Y01128750D02*
D03*
X00294665Y00502074D02*
D03*
Y00522075D02*
D03*
Y00542075D02*
D03*
Y00562075D02*
D03*
Y00582075D02*
D03*
Y00602075D02*
D03*
Y00622075D02*
D03*
Y00642075D02*
D03*
Y00662075D02*
D03*
X00295750Y00967250D02*
D03*
Y00987250D02*
D03*
Y01007250D02*
D03*
Y01027250D02*
D03*
Y01047250D02*
D03*
Y01067250D02*
D03*
Y01087250D02*
D03*
Y01107250D02*
D03*
Y01127250D02*
D03*
X00752165Y00502074D02*
D03*
Y00522075D02*
D03*
Y00542075D02*
D03*
Y00562075D02*
D03*
Y00582075D02*
D03*
Y00602075D02*
D03*
Y00622075D02*
D03*
Y00642075D02*
D03*
Y00662075D02*
D03*
X00753250Y00967250D02*
D03*
Y00987250D02*
D03*
Y01007250D02*
D03*
Y01027250D02*
D03*
Y01047250D02*
D03*
Y01067250D02*
D03*
Y01087250D02*
D03*
Y01107250D02*
D03*
Y01127250D02*
D03*
X00842500Y00503500D02*
D03*
Y00523500D02*
D03*
Y00543500D02*
D03*
Y00563500D02*
D03*
Y00583500D02*
D03*
Y00603500D02*
D03*
Y00623500D02*
D03*
Y00643500D02*
D03*
Y00663500D02*
D03*
X01839250Y00502000D02*
D03*
Y00522000D02*
D03*
Y00542000D02*
D03*
Y00562000D02*
D03*
Y00582000D02*
D03*
Y00602000D02*
D03*
Y00622000D02*
D03*
Y00642000D02*
D03*
Y00662000D02*
D03*
X00843000Y00968500D02*
D03*
Y00988500D02*
D03*
Y01008500D02*
D03*
Y01028500D02*
D03*
Y01048500D02*
D03*
Y01068500D02*
D03*
Y01088500D02*
D03*
Y01108500D02*
D03*
Y01128500D02*
D03*
X01300750Y00968500D02*
D03*
Y00988500D02*
D03*
Y01008500D02*
D03*
Y01028500D02*
D03*
Y01048500D02*
D03*
Y01068500D02*
D03*
Y01088500D02*
D03*
Y01108500D02*
D03*
Y01128500D02*
D03*
X01300250Y00503500D02*
D03*
Y00523500D02*
D03*
Y00543500D02*
D03*
Y00563500D02*
D03*
Y00583500D02*
D03*
Y00603500D02*
D03*
Y00623500D02*
D03*
Y00643500D02*
D03*
Y00663500D02*
D03*
X01928500Y00967000D02*
D03*
Y00987000D02*
D03*
Y01007000D02*
D03*
Y01027000D02*
D03*
Y01047000D02*
D03*
Y01067000D02*
D03*
Y01087000D02*
D03*
Y01107000D02*
D03*
Y01127000D02*
D03*
X01929000Y00503250D02*
D03*
Y00523250D02*
D03*
Y00543250D02*
D03*
Y00563250D02*
D03*
Y00583250D02*
D03*
Y00603250D02*
D03*
Y00623250D02*
D03*
Y00643250D02*
D03*
Y00663250D02*
D03*
X02386500Y00967000D02*
D03*
Y00987000D02*
D03*
Y01007000D02*
D03*
Y01027000D02*
D03*
Y01047000D02*
D03*
Y01067000D02*
D03*
Y01087000D02*
D03*
Y01107000D02*
D03*
Y01127000D02*
D03*
X02387000Y00503250D02*
D03*
Y00523250D02*
D03*
Y00543250D02*
D03*
Y00563250D02*
D03*
Y00583250D02*
D03*
Y00603250D02*
D03*
Y00623250D02*
D03*
Y00643250D02*
D03*
Y00663250D02*
D03*
X01382000Y00502000D02*
D03*
Y00522000D02*
D03*
Y00542000D02*
D03*
Y00562000D02*
D03*
Y00582000D02*
D03*
Y00602000D02*
D03*
Y00622000D02*
D03*
Y00642000D02*
D03*
Y00662000D02*
D03*
X02386000Y02039750D02*
D03*
Y02019750D02*
D03*
Y01999750D02*
D03*
Y01979750D02*
D03*
Y01959750D02*
D03*
Y01939750D02*
D03*
Y01919750D02*
D03*
Y01899750D02*
D03*
Y01879750D02*
D03*
X00843250Y02038250D02*
D03*
Y02018250D02*
D03*
Y01998250D02*
D03*
Y01978250D02*
D03*
Y01958250D02*
D03*
Y01938250D02*
D03*
Y01918250D02*
D03*
Y01898250D02*
D03*
Y01878250D02*
D03*
X01299000Y02039000D02*
D03*
Y02019000D02*
D03*
Y01999000D02*
D03*
Y01979000D02*
D03*
Y01959000D02*
D03*
Y01939000D02*
D03*
Y01919000D02*
D03*
Y01899000D02*
D03*
Y01879000D02*
D03*
X01381000Y02036750D02*
D03*
Y02016750D02*
D03*
Y01996750D02*
D03*
Y01976750D02*
D03*
Y01956750D02*
D03*
Y01936750D02*
D03*
Y01916750D02*
D03*
Y01896750D02*
D03*
Y01876750D02*
D03*
X00295000Y02038000D02*
D03*
Y02018000D02*
D03*
Y01998000D02*
D03*
Y01978000D02*
D03*
Y01958000D02*
D03*
Y01938000D02*
D03*
Y01918000D02*
D03*
Y01898000D02*
D03*
Y01878000D02*
D03*
X00752500Y02038500D02*
D03*
Y02018500D02*
D03*
Y01998500D02*
D03*
Y01978500D02*
D03*
Y01958500D02*
D03*
Y01938500D02*
D03*
Y01918500D02*
D03*
Y01898500D02*
D03*
Y01878500D02*
D03*
X01838500Y02039250D02*
D03*
Y02019250D02*
D03*
Y01999250D02*
D03*
Y01979250D02*
D03*
Y01959250D02*
D03*
Y01939250D02*
D03*
Y01919250D02*
D03*
Y01899250D02*
D03*
Y01879250D02*
D03*
X01928000Y02037750D02*
D03*
Y02017750D02*
D03*
Y01997750D02*
D03*
Y01977750D02*
D03*
Y01957750D02*
D03*
Y01937750D02*
D03*
Y01917750D02*
D03*
Y01897750D02*
D03*
Y01877750D02*
D03*
X00294500Y01580250D02*
D03*
Y01560250D02*
D03*
Y01540250D02*
D03*
Y01520250D02*
D03*
Y01500250D02*
D03*
Y01480250D02*
D03*
Y01460250D02*
D03*
Y01440250D02*
D03*
Y01420250D02*
D03*
X00752500Y01580250D02*
D03*
Y01560250D02*
D03*
Y01540250D02*
D03*
Y01520250D02*
D03*
Y01500250D02*
D03*
Y01480250D02*
D03*
Y01460250D02*
D03*
Y01440250D02*
D03*
Y01420250D02*
D03*
X01299750Y01580250D02*
D03*
Y01560250D02*
D03*
Y01540250D02*
D03*
Y01520250D02*
D03*
Y01500250D02*
D03*
Y01480250D02*
D03*
Y01460250D02*
D03*
Y01440250D02*
D03*
Y01420250D02*
D03*
X00842500Y01580250D02*
D03*
Y01560250D02*
D03*
Y01540250D02*
D03*
Y01520250D02*
D03*
Y01500250D02*
D03*
Y01480250D02*
D03*
Y01460250D02*
D03*
Y01440250D02*
D03*
Y01420250D02*
D03*
X01381250Y01580250D02*
D03*
Y01560250D02*
D03*
Y01540250D02*
D03*
Y01520250D02*
D03*
Y01500250D02*
D03*
Y01480250D02*
D03*
Y01460250D02*
D03*
Y01440250D02*
D03*
Y01420250D02*
D03*
X01928500Y01580250D02*
D03*
Y01560250D02*
D03*
Y01540250D02*
D03*
Y01520250D02*
D03*
Y01500250D02*
D03*
Y01480250D02*
D03*
Y01460250D02*
D03*
Y01440250D02*
D03*
Y01420250D02*
D03*
X01839000Y01580250D02*
D03*
Y01560250D02*
D03*
Y01540250D02*
D03*
Y01520250D02*
D03*
Y01500250D02*
D03*
Y01480250D02*
D03*
Y01460250D02*
D03*
Y01440250D02*
D03*
Y01420250D02*
D03*
X02386000Y01580250D02*
D03*
Y01560250D02*
D03*
Y01540250D02*
D03*
Y01520250D02*
D03*
Y01500250D02*
D03*
Y01480250D02*
D03*
Y01460250D02*
D03*
Y01440250D02*
D03*
Y01420250D02*
D03*
D29*
X01065250Y01156250D02*
D03*
X01077750D02*
D03*
X00518250Y01604500D02*
D03*
X00530750D02*
D03*
X01602500Y02059750D02*
D03*
X01615000D02*
D03*
X02151750Y02077250D02*
D03*
X02164250D02*
D03*
X01061750Y00672000D02*
D03*
X01074250D02*
D03*
M02*
